<svg width="433" height="325" viewBox="0 0 433 325" fill="none" xmlns="http://www.w3.org/2000/svg">
<path d="M21.2986 254.665C40.107 246.269 61.4593 247.353 81.1879 251.523C102.053 255.938 122.133 263.63 143.188 267.205C154.852 269.182 166.759 269.886 178.505 268.044C179.019 267.963 178.802 267.178 178.288 267.259C156.476 270.644 134.663 265.228 113.798 259.323C93.8261 253.663 73.6104 247.38 52.6099 247.542C41.7308 247.623 30.8787 249.519 20.8926 253.961C20.4055 254.178 20.8114 254.882 21.2986 254.665Z" fill="#F4F4F4"/>
<path d="M126.626 261.648C152.119 262.162 176.8 255.094 201.724 250.896C209.004 249.677 216.338 248.702 223.726 248.215C224.24 248.187 224.24 247.375 223.726 247.402C198.206 249.081 173.606 256.719 148.276 259.698C141.104 260.537 133.878 260.998 126.653 260.862C126.084 260.835 126.084 261.648 126.626 261.648Z" fill="#F4F4F4"/>
<path d="M245.782 252.55C254.848 250.6 264.239 250.275 273.413 251.683C281.856 252.983 289.948 255.773 297.932 258.752C305.807 261.677 313.628 264.791 321.801 266.877C330.244 269.016 338.823 269.558 347.537 269.558C357.821 269.558 368.186 269.152 378.28 271.427C378.794 271.535 379.011 270.75 378.497 270.641C360.662 266.633 342.179 270.695 324.345 266.633C307.701 262.841 292.492 254.31 275.659 251.25C265.7 249.435 255.47 249.652 245.593 251.764C245.051 251.873 245.268 252.658 245.782 252.55Z" fill="#F4F4F4"/>
<path d="M97.9663 148.419C95.639 147.715 91.0654 145.792 92.7703 142.542C93.9881 140.213 97.6145 140.023 99.8607 140.104C107.438 140.321 115.016 140.971 122.593 140.348C129.711 139.752 136.503 137.721 143.431 136.096C150.468 134.417 157.91 133.198 165 135.257C168.112 136.15 171.008 137.64 174.066 138.669C175.527 139.157 177.043 139.536 178.585 139.698C180.426 139.888 182.266 139.617 184.079 139.536C185.946 139.454 187.868 139.509 189.465 140.619C190.926 141.621 192.144 143.517 191.197 145.277C189.843 147.823 185.892 147.119 183.619 146.632C176.881 145.223 170.088 144.79 163.241 145.711C159.615 146.198 156.07 147.092 152.606 148.202C148.871 149.394 145.245 150.45 141.266 149.909C137.559 149.394 134.014 148.202 130.252 148.067C126.49 147.904 122.756 148.392 119.048 148.879C111.849 149.854 104.164 151.1 97.4251 147.607C96.965 147.363 96.5591 148.067 97.0192 148.311C103.325 151.588 110.442 150.829 117.262 149.936C120.834 149.448 124.433 148.934 128.06 148.852C132.038 148.771 135.746 149.692 139.616 150.45C143.567 151.209 147.139 150.802 150.982 149.611C154.798 148.419 158.559 147.254 162.51 146.659C166.597 146.036 170.737 145.873 174.851 146.171C178.504 146.415 181.995 147.39 185.595 147.796C187.733 148.04 190.466 147.959 191.792 145.954C193.307 143.652 191.684 140.971 189.6 139.698C186.434 137.775 182.51 139.129 179.073 138.913C175.284 138.669 171.793 136.909 168.302 135.554C161.049 132.738 153.634 133.09 146.138 134.688C138.208 136.367 130.495 138.94 122.377 139.59C117.695 139.969 112.959 139.888 108.277 139.698C105.842 139.59 103.379 139.482 100.943 139.373C99.4277 139.319 97.9393 139.292 96.4508 139.59C94.1505 140.05 91.5255 141.404 91.6878 144.14C91.8773 147.146 95.3413 148.527 97.7769 149.259C98.237 149.367 98.4535 148.582 97.9663 148.419Z" fill="#F4F4F4"/>
<path d="M297.688 48.5071C295.361 48.1821 291.545 47.3425 290.868 44.6883C289.894 41.005 295.144 39.8404 297.688 39.38C305.13 38.1071 312.762 39.2717 320.258 39.2717C335.115 39.2446 349.756 36.4279 364.532 35.3717C371.92 34.83 379.362 34.7488 386.723 35.6967C388.401 35.9133 390.16 36.0758 391.784 36.5633C392.461 36.7529 393.218 37.0779 393.733 37.5654C394.977 38.7842 393.76 39.8946 392.623 40.4904C389.7 42.0342 386.372 42.6571 383.097 42.7925C376.548 43.0904 370.026 41.7363 363.477 41.98C360.419 42.0883 357.415 42.6029 354.519 43.6592C351.136 44.905 347.997 46.6654 344.587 47.83C340.636 49.1842 336.468 49.8612 332.274 49.8612C328.025 49.8612 323.83 49.2112 319.636 48.7237C311.138 47.7487 302.613 47.7758 294.143 48.9133C293.629 48.9946 293.629 49.8071 294.143 49.7258C302.424 48.6154 310.813 48.5342 319.121 49.4821C323.235 49.9425 327.348 50.5925 331.516 50.6737C335.359 50.755 339.229 50.2675 342.936 49.2112C346.725 48.1279 350.189 46.2592 353.843 44.7967C357.388 43.3883 361.041 42.7654 364.83 42.7654C371.812 42.7113 378.821 44.2821 385.803 43.3613C387.508 43.1446 389.159 42.7654 390.783 42.1696C392.028 41.7092 393.706 41.1404 394.599 40.0842C396.276 38.0529 393.841 36.2654 392.028 35.7508C388.455 34.6946 384.423 34.505 380.716 34.2883C376.683 34.0446 372.651 34.0717 368.619 34.2613C352.3 35.0467 336.171 38.4592 319.798 38.405C315.143 38.405 310.488 37.9717 305.834 37.9446C301.883 37.9175 297.363 37.9988 293.656 39.5425C291.328 40.5175 289.055 42.7925 290.354 45.4738C291.572 47.9925 295.009 48.8592 297.499 49.2112C297.986 49.3737 298.202 48.5883 297.688 48.5071Z" fill="#F4F4F4"/>
<path d="M35.9666 85.4745C58.5367 75.6704 83.2718 84.8245 104.083 94.6558C114.691 99.6662 125.138 105.029 136.206 108.983C147.058 112.856 158.343 115.537 169.791 117.081C192.767 120.195 216.284 118.814 238.881 113.75C262.561 108.441 284.996 98.7995 308.486 92.76C332.923 86.4766 358.47 85.1225 383.395 89.1579C386.426 89.6454 389.43 90.2141 392.434 90.8641C392.948 90.9725 393.164 90.187 392.65 90.0787C368.456 84.9329 343.315 84.6891 319.067 89.51C294.819 94.3308 272.006 104.189 248.218 110.608C225.133 116.837 201.021 119.356 177.179 117.108C165.325 115.997 153.58 113.695 142.214 110.12C130.469 106.437 119.454 101.075 108.386 95.7662C88.3867 86.1516 65.8165 76.4016 43.1923 82.1162C40.5672 82.7662 38.0504 83.66 35.5607 84.7433C35.1006 84.987 35.5065 85.6912 35.9666 85.4745Z" fill="#F4F4F4"/>
<path d="M128.575 75.7778C155.015 90.5383 186.489 91.6487 215.824 87.532C249.03 82.8737 281.018 71.9049 314.278 67.6257C332.788 65.2424 351.678 64.9445 369.999 69.007C370.514 69.1153 370.73 68.3299 370.216 68.2216C337.822 61.0716 304.589 67.382 272.872 74.7757C241.615 82.0612 210.006 90.5653 177.612 88.4799C160.698 87.3966 143.865 83.3612 128.981 75.0737C128.548 74.8028 128.142 75.507 128.575 75.7778Z" fill="#F4F4F4"/>
<path d="M49.6332 25.2138C72.3657 19.7971 96.6137 21.9367 118.047 31.2804C128.575 35.8575 138.452 41.8158 148.79 46.7721C159.209 51.7554 170.088 55.195 181.563 56.7388C194.688 58.4992 207.976 58.2013 221.128 57.3346C221.642 57.3075 221.642 56.495 221.128 56.5221C209.248 57.3075 197.259 57.6325 185.406 56.3867C173.39 55.1138 161.916 51.9721 150.955 46.9075C140.536 42.0596 130.685 36.1013 120.212 31.3888C109.928 26.6763 99.0223 23.5617 87.7913 22.2346C74.9908 20.6908 61.9466 21.4492 49.4167 24.4283C48.9025 24.5367 49.119 25.3221 49.6332 25.2138Z" fill="#F4F4F4"/>
<path d="M280.206 189.365C277.824 188.877 273.927 187.658 273.738 184.706C273.629 182.892 275.145 181.565 276.742 181.077C278.663 180.454 280.693 181.023 282.56 181.565C285.97 182.567 289.407 183.379 292.979 183.515C296.308 183.65 299.609 183.162 302.83 182.296C306.294 181.375 309.677 180.129 313.114 179.154C316.74 178.125 320.448 177.583 324.236 177.529C331.462 177.421 338.607 178.721 345.805 179.019C349.405 179.154 352.95 178.965 356.495 178.423C360.338 177.827 364.262 176.933 368.186 177.394C371 177.719 375.52 179.615 374.6 183.244C373.788 186.412 369.295 188.2 366.535 189.094C352.679 193.59 338.39 186.115 324.345 188.092C316.253 189.229 308.621 192.642 300.448 193.292C296.714 193.59 292.871 193.346 289.326 192.019C286.078 190.773 283.155 188.065 279.448 188.715C278.934 188.796 279.15 189.581 279.664 189.5C281.884 189.121 283.832 190.177 285.699 191.206C287.215 192.019 288.73 192.777 290.381 193.265C293.764 194.294 297.39 194.429 300.908 194.104C308.648 193.373 315.928 190.312 323.587 189.067C332.03 187.712 340.339 189.662 348.674 190.773C355.467 191.667 362.746 191.883 369.133 189.04C371.569 187.956 374.816 186.223 375.439 183.352C376.007 180.779 374.031 178.721 371.893 177.665C368.727 176.121 364.911 176.419 361.556 176.879C357.469 177.421 353.491 178.288 349.35 178.342C341.286 178.477 333.329 176.825 325.292 176.798C321.449 176.798 317.633 177.231 313.899 178.206C310.191 179.181 306.592 180.535 302.911 181.537C298.365 182.756 293.791 183.135 289.136 182.404C286.809 182.025 284.617 181.375 282.371 180.725C280.693 180.237 278.88 179.831 277.121 180.21C274.495 180.779 272.114 183.271 273.278 186.06C274.333 188.606 277.554 189.717 280.043 190.231C280.476 190.258 280.693 189.473 280.206 189.365Z" fill="#F4F4F4"/>
<path d="M158.776 296.317C168.897 293.879 178.802 290.548 188.355 286.404C193.308 284.238 198.152 281.773 203.429 280.473C208.49 279.2 213.74 278.821 218.963 278.956C224.998 279.092 230.979 279.904 236.932 280.852C237.447 280.933 237.663 280.148 237.149 280.067C227 278.469 216.554 277.169 206.352 279.011C201.102 279.958 196.285 281.963 191.467 284.156C186.407 286.458 181.292 288.544 176.042 290.385C170.305 292.39 164.486 294.123 158.559 295.531C158.045 295.64 158.262 296.425 158.776 296.317Z" fill="#76787C"/>
<path d="M222.725 279.256C227.271 279.147 231.764 278.497 236.148 277.224C240.613 275.952 245.024 274.164 249.76 274.624C252.169 274.841 254.523 275.518 256.851 276.114C259.286 276.737 261.695 277.36 264.131 277.983C268.812 279.174 273.467 280.366 278.149 281.558C278.663 281.693 278.88 280.908 278.365 280.772C273.521 279.527 268.677 278.308 263.833 277.062C259.395 275.924 254.848 274.408 250.302 273.866C245.836 273.352 241.615 274.733 237.393 276.033C232.603 277.495 227.731 278.335 222.752 278.47C222.211 278.443 222.211 279.256 222.725 279.256Z" fill="#76787C"/>
<path d="M270.111 283.454C280.746 281.098 291.923 279.066 302.721 281.558C308.08 282.804 313.113 285.187 318.12 287.381C323.37 289.71 328.647 292.012 333.897 294.341C334.384 294.558 334.79 293.854 334.303 293.637C326.076 290.008 317.93 286.081 309.541 282.858C301.422 279.743 292.979 279.12 284.373 280.095C279.502 280.664 274.657 281.612 269.867 282.695C269.38 282.777 269.597 283.562 270.111 283.454Z" fill="#76787C"/>
<path d="M173.959 305.716C176.746 305.228 179.56 304.741 182.348 304.253C185.135 303.766 187.95 303.143 190.764 302.845C193.362 302.574 196.014 303.034 198.585 303.278C201.427 303.576 204.296 303.847 207.137 304.145C207.651 304.199 207.651 303.386 207.137 303.332C204.296 303.034 201.427 302.764 198.585 302.466C195.825 302.195 193.038 301.734 190.25 302.086C184.729 302.764 179.236 303.982 173.742 304.93C173.228 305.039 173.444 305.824 173.959 305.716Z" fill="#76787C"/>
<path d="M99.2109 183.571C101.064 183.571 102.567 182.068 102.567 180.213C102.567 178.358 101.064 176.854 99.2109 176.854C97.3575 176.854 95.8551 178.358 95.8551 180.213C95.8551 182.068 97.3575 183.571 99.2109 183.571Z" fill="#E4E4E6"/>
<path d="M108.277 190.938C109.248 190.938 110.036 190.15 110.036 189.177C110.036 188.205 109.248 187.417 108.277 187.417C107.305 187.417 106.518 188.205 106.518 189.177C106.518 190.15 107.305 190.938 108.277 190.938Z" fill="#E4E4E6"/>
<path d="M297.011 18.9857C299.298 18.9857 301.152 17.1305 301.152 14.842C301.152 12.5535 299.298 10.6982 297.011 10.6982C294.724 10.6982 292.87 12.5535 292.87 14.842C292.87 17.1305 294.724 18.9857 297.011 18.9857Z" fill="#E4E4E6"/>
<path d="M306.645 23.6715C307.945 23.6715 309 22.6166 309 21.3152C309 20.0139 307.945 18.959 306.645 18.959C305.345 18.959 304.291 20.0139 304.291 21.3152C304.291 22.6166 305.345 23.6715 306.645 23.6715Z" fill="#E4E4E6"/>
<path d="M305.076 22.694C307.243 22.694 309 20.9358 309 18.7669C309 16.5981 307.243 14.8398 305.076 14.8398C302.909 14.8398 301.152 16.5981 301.152 18.7669C301.152 20.9358 302.909 22.694 305.076 22.694Z" fill="#F2F2F2"/>
<path d="M295.685 224.79C298.614 224.79 300.989 222.414 300.989 219.482C300.989 216.55 298.614 214.174 295.685 214.174C292.755 214.174 290.38 216.55 290.38 219.482C290.38 222.414 292.755 224.79 295.685 224.79Z" fill="#F2F2F2"/>
<path d="M103.108 21.6107C104.976 21.6107 106.491 20.095 106.491 18.2253C106.491 16.3555 104.976 14.8398 103.108 14.8398C101.24 14.8398 99.7252 16.3555 99.7252 18.2253C99.7252 20.095 101.24 21.6107 103.108 21.6107Z" fill="#F2F2F2"/>
<path d="M156.638 253.121C158.925 253.121 160.778 251.266 160.778 248.978C160.778 246.689 158.925 244.834 156.638 244.834C154.351 244.834 152.497 246.689 152.497 248.978C152.497 251.266 154.351 253.121 156.638 253.121Z" fill="#F2F2F2"/>
<path d="M186.515 175.176C185.946 174.933 186.596 173.931 186.894 173.795C187.245 173.633 187.949 173.849 188.328 173.958C188.923 174.147 189.437 174.472 190.033 174.635C190.682 174.824 191.467 174.879 192.09 174.581C194.255 173.47 191.684 169.733 194.85 169.733C196.582 169.733 198.043 172.306 199.478 170.383C199.992 169.706 200.208 168.839 200.479 168.026C200.696 167.322 200.885 166.591 201.372 166.022C201.94 165.372 203.672 164.722 203.862 166.131C203.916 166.645 204.755 166.645 204.674 166.131C204.538 165.156 203.835 164.506 202.833 164.451C201.643 164.37 200.777 165.264 200.29 166.239C199.938 166.916 199.775 167.674 199.532 168.406C199.369 168.92 199.153 169.814 198.693 170.139C198.206 170.464 197.827 170.112 197.421 169.868C196.365 169.164 195.094 168.622 193.822 169.083C192.658 169.516 192.198 170.518 192.252 171.71C192.252 172.062 192.36 172.495 192.333 172.847C192.144 174.093 191.305 174.147 190.439 173.958C189.573 173.768 188.842 173.226 187.949 173.064C187.002 172.874 186.055 173.118 185.622 174.066C185.27 174.879 185.486 175.691 186.298 176.016C186.785 176.151 187.002 175.366 186.515 175.176Z" fill="#727272"/>
<path d="M200.479 176.474C200.073 175.851 200.073 175.065 200.506 174.443C201.128 173.549 201.994 173.684 202.942 173.82C203.645 173.928 204.511 174.063 205.025 173.44C205.377 173.034 205.323 172.547 205.458 172.086C205.648 171.409 206.081 170.813 206.649 170.407C207.84 169.54 209.518 169.405 210.709 170.326C211.006 170.543 211.358 170.407 211.412 170.028C211.737 167.401 214.335 165.451 216.933 165.911C217.447 165.992 217.664 165.207 217.149 165.126C213.983 164.584 210.979 166.859 210.6 170.028C210.844 169.92 211.06 169.838 211.304 169.73C210.194 168.863 208.787 168.647 207.461 169.107C205.946 169.622 205.242 170.624 204.674 172.032C204.403 172.736 204.078 173.17 203.293 173.061C202.86 173.007 202.454 172.899 202.021 172.872C201.399 172.845 200.858 173.007 200.371 173.413C199.342 174.28 199.072 175.77 199.802 176.907C200.073 177.34 200.777 176.934 200.479 176.474Z" fill="#727272"/>
<path d="M214.173 28.2503C213.713 27.8169 213.848 27.5461 214.552 27.4107C214.849 27.0044 215.174 26.9232 215.526 27.194C216.013 27.3023 216.338 27.7357 216.69 28.0607C217.123 28.4398 217.501 28.8732 217.989 29.1711C218.665 29.5503 219.504 29.7128 220.208 29.3607C221.074 28.9273 221.101 28.0607 221.398 27.2482C222.21 25.0815 224.971 24.8648 226.27 26.7065C226.432 26.9232 226.838 27.0044 226.973 26.7065C227.488 25.4878 228.137 24.1065 229.301 23.3753C230.464 22.644 232.413 22.7253 232.927 24.2419C233.089 24.7294 233.874 24.5128 233.712 24.0253C233.198 22.5628 231.709 21.9128 230.221 22.1565C228.164 22.5086 227.027 24.5669 226.27 26.3003C226.513 26.3003 226.73 26.3003 226.973 26.3003C226.026 24.9461 224.402 24.2148 222.779 24.8107C222.102 25.0544 221.48 25.5419 221.074 26.1648C220.857 26.4898 220.722 26.8419 220.587 27.2211C220.505 27.4648 220.505 27.7628 220.37 27.9794C220.018 28.5753 219.044 28.819 218.422 28.4669C217.095 27.7357 215.796 25.4065 213.956 26.3544C212.928 26.869 212.793 28.3315 213.767 28.9544C214.227 29.2253 214.633 28.5211 214.173 28.2503Z" fill="#8B8F94"/>
<path d="M231.547 28.0337C231.357 25.3254 234.821 26.2191 236.201 26.8962C236.905 27.2483 237.771 27.8983 238.529 27.3024C238.772 27.1129 238.881 26.842 238.989 26.5712C239.395 25.6774 239.665 25.0274 240.748 24.7024C242.426 24.2149 244.049 25.2712 245.403 26.1379C245.836 26.4087 246.242 25.7045 245.809 25.4337C244.374 24.5399 242.75 23.5379 240.991 23.8358C240.423 23.917 239.855 24.1337 239.395 24.4858C238.691 25.0004 238.556 25.8941 237.852 26.3274C237.176 26.7337 236.905 26.3274 236.228 26.0024C235.877 25.8399 235.525 25.6774 235.146 25.542C234.442 25.2983 233.685 25.1899 232.954 25.3524C231.682 25.6504 230.654 26.6795 230.735 28.0337C230.762 28.5483 231.574 28.5483 231.547 28.0337Z" fill="#8B8F94"/>
<path d="M309.865 140.21C308.079 136.283 314.845 134.549 315.305 138.666C315.467 140.047 314.71 141.51 313.302 141.889C311.733 142.295 310.055 141.239 309.622 139.722C309.487 139.208 308.702 139.424 308.837 139.939C309.378 141.889 311.516 143.189 313.519 142.674C315.494 142.16 316.469 139.966 316.009 138.07C315.521 136.066 313.438 135.091 311.516 135.606C309.27 136.201 308.215 138.558 309.162 140.67C309.378 141.103 310.082 140.67 309.865 140.21Z" fill="#8B8F94"/>
<path d="M314.899 143.324C313.438 143.189 312.896 141.239 313.898 140.264C314.737 139.424 316.171 139.479 317.064 140.183C317.984 140.914 318.877 143.054 317.849 144.083C316.496 145.437 314.845 143.243 314.195 142.268C313.898 141.835 313.194 142.241 313.492 142.674C314.439 144.137 316.604 146.439 318.417 144.651C319.851 143.243 318.823 140.399 317.416 139.397C315.982 138.368 313.627 138.72 312.815 140.399C312.003 142.024 313.194 143.974 314.926 144.137C315.413 144.191 315.413 143.379 314.899 143.324Z" fill="#8B8F94"/>
<path d="M69.0635 109.28C70.146 109.225 70.7143 108.494 71.4721 107.817C73.2582 106.219 75.315 107.736 76.4516 109.307C77.5341 110.796 79.1037 111.852 80.4839 110.065C81.1334 109.225 81.4581 107.98 82.3512 107.384C84.1644 106.165 85.7069 108.575 86.8436 109.632C88.1425 110.823 90.8217 111.365 91.4171 109.144C91.5524 108.63 90.7676 108.413 90.6323 108.927C90.3346 110.092 88.9274 110.065 88.0884 109.577C87.4389 109.198 86.9789 108.602 86.4647 108.088C85.7069 107.275 84.868 106.49 83.7314 106.273C81.8641 105.948 81.0251 107.627 80.1862 108.982C79.9697 109.361 79.6991 109.875 79.2931 110.092C78.3189 110.607 77.6153 109.577 77.1011 108.9C76.4516 107.98 75.7209 107.194 74.6655 106.707C73.7995 106.3 72.7711 106.165 71.878 106.544C70.8497 106.977 70.2002 108.44 69.0365 108.494C68.5493 108.494 68.5493 109.307 69.0635 109.28Z" fill="#8B8F94"/>
<path d="M87.9803 103.704C89.1169 105.058 91.1466 106.873 92.9327 105.383C93.3657 105.004 93.6093 104.462 94.0694 104.083C94.7459 103.569 95.639 103.46 96.4238 103.704C98.1287 104.164 99.1301 105.789 100.023 107.171C100.185 107.414 100.591 107.469 100.727 107.171C101.89 104.625 105.003 104.002 107.438 104.977C107.925 105.167 108.142 104.381 107.655 104.192C104.921 103.081 101.322 103.894 100.023 106.737C100.267 106.737 100.483 106.737 100.727 106.737C99.5089 104.842 97.9664 102.675 95.4225 102.756C94.5294 102.783 93.7175 103.162 93.1222 103.812C92.4185 104.625 91.8232 105.275 90.6595 104.923C89.7664 104.652 89.1169 103.812 88.5215 103.108C88.2238 102.729 87.6555 103.298 87.9803 103.704Z" fill="#8B8F94"/>
<path d="M136.72 132.031C136.368 131.327 135.962 130.595 135.637 129.864C135.285 129.106 135.448 128.808 135.908 128.158C136.503 127.318 137.423 126.56 138.479 127.129C139.236 127.535 139.723 128.456 139.94 129.241C140.319 130.568 139.994 132.464 138.452 132.897C137.18 133.25 135.529 132.464 135.583 131.002C135.583 130.487 134.771 130.487 134.771 131.002C134.717 132.816 136.53 133.954 138.208 133.764C140.265 133.52 141.131 131.354 140.833 129.512C140.535 127.725 138.885 125.45 136.828 126.289C135.827 126.695 135.069 127.752 134.609 128.7C134.338 129.268 134.392 129.295 134.663 129.864C135.096 130.731 135.529 131.597 135.962 132.437C136.26 132.897 136.963 132.491 136.72 132.031Z" fill="#727272"/>
<path d="M139.724 137.337C138.696 136.118 136.936 133.735 138.452 132.218C139.535 131.135 141.483 131.541 142.376 132.624C143.296 133.735 143.486 135.901 142.051 136.714C140.834 137.418 139.074 136.741 138.858 135.333C138.777 134.818 137.992 135.035 138.073 135.549C138.398 137.391 140.644 138.258 142.268 137.526C144.243 136.605 144.325 133.87 143.161 132.272C142.051 130.728 139.616 130.187 138.1 131.46C135.908 133.274 137.802 136.253 139.183 137.878C139.48 138.312 140.049 137.743 139.724 137.337Z" fill="#8B8F94"/>
<path d="M299.744 82.5245C299.771 80.1412 303.046 80.8454 304.453 81.0079C305.671 81.1433 306.78 80.9808 307.863 80.3849C309.054 79.762 310.028 78.787 311.192 78.1099C311.949 77.6495 312.869 77.2433 313.762 77.2433C314.71 77.2704 315.305 77.8391 316.144 78.1912C318.092 78.9766 319.337 77.162 320.555 75.9704C322.964 73.6141 326.401 74.5891 329.215 75.5641C329.702 75.7266 329.919 74.9412 329.432 74.7787C326.915 73.912 323.722 72.9641 321.232 74.3995C320.041 75.0766 319.337 76.3224 318.255 77.1079C316.712 78.2183 315.413 76.4579 313.79 76.4308C310.298 76.3766 308.458 80.412 304.94 80.2224C303.425 80.1412 301.963 79.5724 300.502 80.2495C299.555 80.6829 298.959 81.4412 298.932 82.4974C298.905 83.0391 299.717 83.0391 299.744 82.5245Z" fill="#727272"/>
<path d="M319.987 81.6021C321.719 79.1376 324.967 77.9459 327.889 78.7855C329.161 79.1647 330.352 80.1938 331.759 80.1126C332.923 80.0313 333.546 79.0834 334.33 78.3522C335.602 77.1876 337.253 76.2397 339.039 76.2938C340.122 76.3209 340.961 76.7272 341.8 77.4313C342.07 77.6751 342.287 77.8917 342.666 78.0001C343.207 78.1355 343.694 77.8917 344.181 77.6751C345.02 77.2959 345.886 76.9709 346.779 76.7272C348.619 76.2668 350.487 76.1855 352.354 76.4293C352.868 76.4834 352.868 75.6709 352.354 75.6168C350.568 75.373 348.782 75.4272 347.023 75.8334C346.238 76.023 345.453 76.2668 344.695 76.5647C344.1 76.8084 343.802 76.9709 343.126 76.9709C342.395 76.9709 342.449 76.8626 341.962 76.4834C339.662 74.723 336.577 75.5355 334.493 77.1876C333.924 77.6209 333.464 78.2167 332.923 78.6501C331.624 79.6792 330.596 79.0292 329.27 78.4334C328.133 77.9188 326.942 77.6751 325.697 77.7292C323.126 77.8376 320.799 79.1105 319.338 81.1959C318.986 81.6292 319.69 82.0355 319.987 81.6021Z" fill="#727272"/>
<path d="M261.126 263.252C261.64 266.502 262.154 269.779 262.641 273.029C251.952 276.496 246.701 278.69 246.918 279.61C247.189 280.748 255.74 279.908 272.573 277.173C271.599 272.027 270.652 266.881 269.678 261.735C266.809 262.223 263.967 262.737 261.126 263.252Z" fill="#040B14"/>
<path d="M238.123 154.431C237.934 158.115 237.663 163.369 237.42 169.733C237.176 176.477 237.041 179.998 237.068 184.331C237.068 186.2 237.149 193.81 238.123 203.615C238.935 211.875 240.207 224.225 244.726 239.419C246.513 245.431 249.273 253.502 253.576 262.71C255.552 263.008 257.879 263.171 260.531 263.063C265.511 262.819 269.543 261.6 272.33 260.463C271.518 257.808 270.382 254.044 269.191 249.521C267.594 243.4 262.994 224.956 261.208 200.175C260.315 187.717 259.99 172.171 261.559 154.296C253.765 154.323 245.944 154.377 238.123 154.431Z" fill="white"/>
<path opacity="0.09" d="M260.882 156.518C260.368 158.468 259.692 161.284 258.961 164.697C257.067 173.715 255.118 186.58 255.308 208.328C255.416 221.707 256.363 240.205 259.827 262.549C261.18 262.414 262.56 262.251 263.995 262.034C266.999 261.574 269.786 260.978 272.33 260.301C271.193 256.618 269.624 251.147 268 244.484C262.236 220.732 260.612 200.582 260.179 187.284C259.935 179.376 259.935 168.895 260.882 156.518Z" fill="#464C52"/>
<path d="M260.964 155.133C258.258 182.541 259.935 210.356 265.916 237.249C267.621 244.887 269.651 252.416 272.032 259.864C272.195 260.351 272.979 260.135 272.817 259.647C264.482 233.458 260.314 205.995 260.531 178.505C260.585 170.705 261.018 162.878 261.776 155.105C261.83 154.618 261.018 154.618 260.964 155.133Z" fill="#76787C"/>
<path d="M237.013 179.431C236.012 201.64 239.124 223.983 246.106 245.081C248.055 250.986 250.328 256.781 252.899 262.442C253.115 262.929 253.819 262.496 253.603 262.036C244.537 241.858 239.205 220.056 237.933 197.983C237.582 191.808 237.554 185.633 237.825 179.431C237.852 178.89 237.04 178.917 237.013 179.431Z" fill="#76787C"/>
<path d="M253.224 262.682C254.144 263.711 256.255 263.468 257.5 263.495C259.394 263.522 261.316 263.332 263.183 263.061C265.213 262.763 267.243 262.33 269.245 261.843C270.246 261.599 272.33 261.545 272.844 260.434C273.061 259.974 272.357 259.541 272.141 260.028C271.897 260.597 270.544 260.705 270.03 260.813C269.272 261.003 268.542 261.166 267.784 261.355C266.349 261.68 264.942 261.978 263.508 262.195C262.019 262.438 260.531 262.601 259.043 262.655C257.906 262.709 254.658 263.061 253.82 262.113C253.441 261.707 252.872 262.303 253.224 262.682Z" fill="#76787C"/>
<path d="M230.14 154.268C229.355 155.974 228.299 159.224 227.542 162.095C226.594 165.752 226.351 167.945 225.81 171.141C224.808 177.045 224.132 178.047 222.67 184.52C221.128 191.454 220.424 196.789 219.883 201.041C219.45 204.345 218.665 211.089 218.313 219.81C218.151 223.575 218.07 225.795 218.151 228.856C218.367 238.47 219.91 245.918 220.586 248.843C222.4 256.887 225.052 263.766 227.704 269.345C228.922 269.968 230.762 270.754 233.089 271.268C235.958 271.891 239.638 272.704 243.157 270.916C244.131 270.429 246.35 269.075 248.028 265.879C246.729 262.331 245.132 257.293 243.86 251.118C240.721 235.789 241.858 223.656 242.642 216.018C244.104 201.583 247.46 190.749 253.224 172.062C255.172 165.779 256.904 160.687 258.095 157.302C258.501 154.62 259.448 146.577 255.145 143.218C248.84 138.235 234.145 145.629 230.14 154.268Z" fill="white"/>
<path opacity="0.08" d="M254.279 168.675C252.52 171.464 250.084 175.608 247.676 180.835C244.699 187.281 240.315 198.602 237.96 221.162C236.661 233.485 235.795 250.737 237.798 271.564C238.637 271.646 242.209 271.944 245.267 269.479C246.837 268.206 247.649 266.744 248.055 265.823C246.729 262.166 245.024 256.804 243.725 250.169C239.882 230.831 242.29 215.285 244.076 204.452C245.538 195.406 248.379 182.921 254.279 168.675Z" fill="#464C52"/>
<path d="M234.388 271.214C235.308 274.519 236.228 277.85 237.149 281.154C222.643 285.569 215.526 288.331 215.769 289.414C216.04 290.66 225.918 289.739 245.403 286.652C244.889 281.344 244.374 276.062 243.887 270.754C240.694 270.889 237.527 271.052 234.388 271.214Z" fill="#040B14"/>
<path d="M229.841 154.591C226.973 161.85 225.511 169.541 223.969 177.179C222.345 185.168 220.776 193.158 219.639 201.229C217.528 216.179 216.879 231.481 219.774 246.377C221.317 254.393 223.915 262.193 227.731 269.397C227.974 269.858 228.678 269.452 228.434 268.991C213.956 241.447 218.34 209.218 224.24 179.995C225.944 171.518 227.46 162.879 230.653 154.808C230.816 154.32 230.031 154.104 229.841 154.591Z" fill="#76787C"/>
<path d="M253.928 168.621C244.861 192.807 238.799 218.807 242.318 244.725C243.292 251.875 244.997 258.89 247.487 265.661C247.676 266.148 248.461 265.932 248.271 265.444C239.259 241.096 241.1 214.392 247.865 189.719C249.814 182.65 252.141 175.69 254.712 168.811C254.902 168.323 254.117 168.134 253.928 168.621Z" fill="#76787C"/>
<path d="M227.812 269.374C231.628 271.487 236.012 272.38 240.342 271.812C243.887 271.324 248.001 269.699 248.353 265.61C248.407 265.095 247.595 265.095 247.541 265.61C247.162 269.862 242.02 270.999 238.529 271.162C234.93 271.324 231.385 270.43 228.245 268.67C227.758 268.426 227.352 269.13 227.812 269.374Z" fill="#76787C"/>
<path d="M235.715 83.6902C234.984 84.5569 233.956 85.884 232.981 87.6444C229.653 93.4944 229.436 99.2361 229.382 104.274C229.328 111.613 229.274 115.296 230.059 123.286C230.789 130.761 230.979 141.486 228.354 155.163C230.708 156.896 234.145 158.901 238.638 159.957C251.573 162.99 262.29 155.434 264.32 153.971C261.749 138.886 260.342 126.807 259.53 118.33C259.016 112.967 257.121 105.167 253.36 89.5402C252.223 84.7736 251.059 80.2236 247.541 78.9236C242.67 77.0819 236.689 82.7423 235.715 83.6902Z" fill="url(#paint0_linear)"/>
<path opacity="0.1" d="M247.406 79.3047C247.839 81.0651 248.461 83.7193 249.084 86.9964C249.896 91.2214 250.978 97.613 251.736 107.119C252.521 116.923 253.414 135.313 253.684 159.092C255.525 158.551 257.744 157.738 260.098 156.438C261.668 155.571 263.021 154.651 264.158 153.784C263.968 151.698 263.616 148.53 263.048 144.711C262.317 139.917 261.587 136.586 261.235 134.934C260.369 130.655 259.395 124.263 259.286 115.38C258.177 110.667 257.338 106.876 256.77 104.357C255.2 97.2068 254.74 94.5797 253.549 90.2464C252.358 85.8859 251.114 82.4193 250.329 80.3339C249.354 79.9547 248.38 79.6297 247.406 79.3047Z" fill="#464C52"/>
<path d="M235.687 86.2945C235.931 86.782 236.337 86.9445 237.23 87.3778C237.988 87.757 238.718 88.2174 239.476 88.5424C241.803 89.5445 244.537 93.9862 244.97 94.6903C246.62 97.3716 248.542 100.513 249.651 105.063C249.949 106.255 250.626 109.342 249.841 119.77C249.002 130.467 247.919 131.957 248.758 137.292C249.381 141.165 250.166 145.797 253.981 148.315C257.527 150.645 261.613 149.832 262.452 149.67C267.594 148.667 270.517 144.686 273.358 140.813C277.688 134.936 279.339 129.059 280.043 125.647C280.367 124.049 280.313 119.363 280.232 110.02C280.124 100.378 279.961 97.0466 277.445 94.2299C275.74 92.3341 273.656 91.4403 272.222 90.9799C272.33 90.3841 272.357 89.4903 271.87 88.732C270.95 87.3237 268.758 87.3507 267.35 87.3778C261.315 87.5403 256.823 91.6028 256.607 91.7924C252.845 95.2862 251.735 99.5653 251.383 101.353C250.626 97.9945 249.381 95.4216 248.407 93.7695C247.568 92.3341 246.323 90.8716 243.806 87.8924C241.83 85.5632 240.883 84.6695 239.395 84.182C239.07 84.0737 236.607 83.3424 235.795 84.4528C235.417 84.9674 235.417 85.7528 235.687 86.2945Z" fill="white"/>
<path opacity="0.11" d="M235.499 85.2872C235.661 84.9893 237.474 85.6664 237.664 85.7476C240.343 86.7768 242.724 88.9164 245.782 93.8726C247.352 96.4184 249.328 100.021 251.005 104.706C252.196 103.487 253.198 102.485 253.982 101.727C253.982 101.727 256.878 98.9372 261.56 96.2288C262.02 95.958 262.588 95.633 262.994 95.8768C263.833 96.3372 262.94 98.5851 263.184 100.671C263.373 102.241 264.293 104.408 267.784 106.818C267.865 107.279 267.892 107.929 267.514 108.362C266.756 109.202 264.807 108.525 263.806 108.173C262.182 107.604 259.043 106.114 255.335 101.754C254.984 103.162 254.524 105.166 254.172 107.631C253.847 109.771 252.954 116.893 254.442 126.048C255.038 129.677 256.147 134.525 258.421 140.05C259.422 140.483 260.694 140.889 262.209 141.133C265.376 141.62 268.001 140.998 269.516 140.51C268.623 140.943 267.405 141.675 266.35 142.948C265.078 144.491 265.051 145.656 263.995 147.091C263.292 148.066 262.02 149.285 259.665 150.152C258.935 150.071 257.825 149.881 256.607 149.339C252.9 147.687 251.222 144.193 250.464 142.568C249.463 140.375 247.92 135.933 249.382 120.902C250.221 112.316 251.141 109.635 249.734 104.733C248.651 100.968 246.784 97.8538 246.134 96.7976C244.971 94.9018 242.887 91.5163 239.098 88.4018C237.312 86.8851 235.336 85.6393 235.499 85.2872Z" fill="#464C52"/>
<path d="M265.673 91.3537C265.186 92.0037 264.564 92.9516 264.077 94.1975C263.806 94.9287 263.156 96.635 263.319 98.8016C263.616 103.108 266.702 105.735 267.27 106.195C267.649 106.493 267.974 106.737 268.19 106.872C267.865 107.983 267.486 109.635 267.351 111.666C267.135 114.537 266.918 117.76 268.596 118.708C269.678 119.304 271.302 118.897 272.195 118.031C272.412 117.814 273.034 117.137 273.197 114.077C273.386 110.447 272.628 108.931 273.711 107.875C274.171 107.387 274.956 107.089 275.632 106.791C276.39 106.466 277.066 106.304 277.554 106.195C277.256 108.416 277.039 110.393 276.877 111.991C276.688 113.968 276.606 114.97 277.283 115.593C277.905 116.162 278.934 116.27 279.719 115.918C280.747 115.458 281.072 114.185 281.64 111.639C282.1 109.635 282.479 107.956 282.235 105.681C282.1 104.516 281.856 103.568 281.64 102.918C281.586 102.458 281.451 101.781 281.234 100.995C280.774 99.4245 280.341 98.9641 280.07 97.9621C279.664 96.5266 280.124 95.8225 280.233 94.1975C280.341 92.9245 280.233 91.11 279.313 88.835C278.961 88.862 278.23 88.9162 277.472 89.4308C276.552 90.0266 276.173 90.8933 276.038 91.1912C275.334 91.0287 274.063 90.8662 272.601 91.2725C270.084 91.9495 268.758 93.8183 268.406 94.387C269.11 92.8433 268.515 91.3266 267.568 90.9475C266.756 90.5954 265.781 91.2995 265.673 91.3537Z" fill="#040B14"/>
<path d="M268.731 99.7488C269.002 99.2342 270.355 98.0967 270.815 99.0447C271.031 99.5051 271.735 99.0988 271.518 98.6384C271.221 98.0155 270.49 97.8259 269.84 97.9613C269.056 98.0967 268.406 98.6384 268.027 99.3426C267.784 99.803 268.487 100.209 268.731 99.7488Z" fill="white"/>
<path d="M276.66 97.6635C276.823 97.3114 276.985 96.9051 277.256 96.6343C277.526 96.3635 278.338 96.0655 278.365 96.6885C278.392 97.203 279.204 97.203 279.177 96.6885C279.123 95.903 278.446 95.3885 277.662 95.4968C276.769 95.6593 276.308 96.4718 275.957 97.2301C275.74 97.7176 276.444 98.151 276.66 97.6635Z" fill="white"/>
<path d="M276.877 100.236C276.877 100.264 276.877 100.291 276.877 100.318C276.823 100.372 276.768 100.426 276.741 100.453C276.606 100.534 276.39 100.453 276.417 100.291C276.417 100.291 276.417 100.209 276.444 100.236L276.362 100.318C276.552 100.318 276.741 100.318 276.931 100.318C276.904 100.291 276.904 100.291 276.877 100.264C276.904 100.291 276.904 100.291 276.904 100.291C276.877 100.263 276.904 100.263 276.904 100.318C276.931 100.48 276.85 100.589 276.633 100.67C276.552 100.643 276.498 100.643 276.417 100.616C276.308 100.561 276.335 100.399 276.362 100.318C276.39 100.291 276.362 100.291 276.335 100.345C276.362 100.318 276.362 100.318 276.335 100.345C276.146 100.48 276.065 100.697 276.2 100.914C276.308 101.076 276.579 101.184 276.768 101.049C276.958 100.914 277.147 100.724 277.174 100.453C277.174 100.155 276.958 99.8843 276.66 99.8843C276.362 99.8843 276.146 100.074 276.119 100.372C276.092 100.589 276.227 100.778 276.362 100.914C276.525 101.076 276.768 101.049 276.931 100.914C277.283 100.643 277.364 100.074 276.958 99.8031C276.768 99.6947 276.525 99.6677 276.335 99.776C276.092 99.9114 276.065 100.236 276.119 100.48C276.146 100.697 276.417 100.805 276.606 100.751C276.823 100.67 276.904 100.453 276.877 100.236Z" fill="white"/>
<path d="M272.547 101.079C271.762 101.539 270.706 101.322 270.192 100.564C269.895 100.131 269.191 100.537 269.489 100.97C270.273 102.081 271.762 102.46 272.98 101.783C273.413 101.512 273.007 100.808 272.547 101.079Z" fill="white"/>
<path d="M271.951 102.838C271.356 103.298 270.842 103.894 270.49 104.571C270.246 105.031 270.95 105.438 271.194 104.977C271.518 104.354 271.978 103.84 272.547 103.406C272.709 103.271 272.682 102.973 272.547 102.838C272.357 102.675 272.114 102.702 271.951 102.838Z" fill="white"/>
<path d="M278.528 99.8618C279.069 99.2389 279.475 98.5347 279.745 97.7493C279.908 97.2618 279.123 97.0451 278.961 97.5326C278.744 98.1826 278.392 98.7785 277.959 99.293C277.635 99.6993 278.203 100.268 278.528 99.8618Z" fill="white"/>
<path d="M278.582 100.889C279.231 100.754 279.989 100.591 280.503 101.133C280.855 101.512 281.423 100.943 281.072 100.564C280.341 99.7786 279.285 99.914 278.338 100.131C277.851 100.212 278.068 100.997 278.582 100.889Z" fill="white"/>
<path d="M235.363 85.6677C236.608 83.7177 239.558 84.8823 241.046 85.8573C242.832 86.9948 244.185 88.7011 245.403 90.4073C247.866 93.8469 250.058 97.5844 250.87 101.782C250.978 102.297 251.763 102.08 251.654 101.566C250.707 96.5552 247.785 91.7344 244.483 87.8886C242.562 85.6677 237.122 81.4698 234.659 85.2886C234.389 85.6948 235.092 86.1282 235.363 85.6677Z" fill="#76787C"/>
<path d="M237.041 87.5092C243.536 91.1655 247.189 98.0176 249.029 105.005C249.164 105.52 249.949 105.303 249.814 104.788C247.92 97.6113 244.104 90.5426 237.446 86.8051C236.986 86.5342 236.58 87.2384 237.041 87.5092Z" fill="#76787C"/>
<path d="M251.919 100.948C252.596 96.1543 255.654 92.146 259.849 89.8439C262.014 88.6522 264.422 87.921 266.885 87.5689C268.049 87.4064 269.402 87.2439 270.538 87.6772C271.783 88.1376 272.974 90.1147 271.404 91.0085C270.944 91.2522 271.35 91.9564 271.81 91.7126C273.542 90.7376 273.109 88.246 271.594 87.2981C269.239 85.8085 265.342 86.8647 262.934 87.6772C256.98 89.6001 252.055 94.421 251.162 100.786C251.053 101.246 251.838 101.463 251.919 100.948Z" fill="#76787C"/>
<path d="M253.468 102.649C254.794 101.105 256.472 99.8048 258.096 98.5861C259.665 97.3944 261.343 96.4194 263.291 95.9861C263.806 95.8777 263.589 95.0923 263.075 95.2007C261.072 95.6611 259.313 96.6632 257.69 97.8819C256.012 99.1548 254.28 100.482 252.9 102.08C252.548 102.459 253.116 103.055 253.468 102.649Z" fill="#76787C"/>
<path d="M254.523 101.32C256.39 103.135 258.366 104.814 260.477 106.331C262.56 107.82 264.59 108.876 267.215 108.741C267.729 108.714 267.729 107.901 267.215 107.929C264.536 108.064 262.56 106.872 260.477 105.356C258.555 103.947 256.769 102.404 255.064 100.751C254.712 100.399 254.144 100.968 254.523 101.32Z" fill="#76787C"/>
<path d="M249.057 104.115C252.007 117.223 244.321 131.55 250.681 144.089C251.871 146.446 253.684 148.585 256.174 149.642C258.61 150.671 261.424 150.589 263.941 149.777C269.516 147.989 273.115 142.817 275.876 137.942C277.635 134.881 279.096 131.604 279.962 128.164C280.395 126.458 280.666 124.671 280.747 122.91C280.828 120.879 280.558 118.848 280.639 116.817C280.666 116.302 279.854 116.302 279.827 116.817C279.719 120.121 280.152 123.262 279.502 126.539C278.934 129.464 277.878 132.308 276.552 134.962C274.09 139.946 270.761 145.552 265.646 148.179C262.994 149.533 259.719 150.048 256.878 148.992C254.09 147.962 252.25 145.498 251.059 142.871C248.516 137.156 248.813 130.656 249.49 124.589C250.248 117.71 251.438 110.75 249.896 103.871C249.706 103.41 248.921 103.6 249.057 104.115Z" fill="#76787C"/>
<path d="M261.099 131.223C259.583 133.878 258.582 136.748 258.149 139.782C258.068 140.296 258.853 140.513 258.934 139.998C259.367 137.019 260.314 134.23 261.803 131.63C262.073 131.196 261.37 130.79 261.099 131.223Z" fill="#76787C"/>
<path d="M261.613 131.519C265.619 131.167 269.84 130.409 273.846 130.842C274.36 130.896 274.36 130.084 273.846 130.03C269.84 129.569 265.619 130.355 261.613 130.707C261.099 130.761 261.099 131.573 261.613 131.519Z" fill="#76787C"/>
<path d="M258.556 140.51C260.531 141.674 262.832 141.566 265.051 141.512C267.378 141.43 269.705 141.16 271.735 139.941C272.195 139.67 271.762 138.966 271.329 139.237C269.408 140.401 267.243 140.618 265.051 140.699C262.994 140.78 260.829 140.916 258.962 139.833C258.529 139.562 258.123 140.266 258.556 140.51Z" fill="#76787C"/>
<path d="M273.467 130.654C272.953 133.633 272.168 136.504 271.112 139.32C270.923 139.808 271.708 140.024 271.897 139.537C272.98 136.72 273.765 133.822 274.252 130.87C274.333 130.356 273.548 130.139 273.467 130.654Z" fill="#76787C"/>
<path d="M260.883 132.632C262.209 135.557 265.971 136.288 268.867 136.315C269.381 136.315 269.381 135.503 268.867 135.503C266.269 135.448 262.778 134.853 261.587 132.198C261.37 131.738 260.667 132.171 260.883 132.632Z" fill="#76787C"/>
<path d="M266.728 135.258C266.647 135.935 266.566 136.612 266.485 137.262C266.431 137.777 267.242 137.777 267.297 137.262C267.378 136.585 267.459 135.908 267.54 135.258C267.594 134.743 266.782 134.743 266.728 135.258Z" fill="#76787C"/>
<path d="M268.271 135.258C268.19 135.935 268.109 136.612 268.055 137.289C268.001 137.804 268.812 137.804 268.867 137.289C268.948 136.612 269.029 135.935 269.083 135.258C269.137 134.743 268.325 134.743 268.271 135.258Z" fill="#76787C"/>
<path d="M268.974 136.397C270.896 135.964 272.493 134.772 273.494 133.093C273.764 132.633 273.061 132.226 272.79 132.687C271.87 134.204 270.463 135.206 268.758 135.612C268.244 135.747 268.46 136.533 268.974 136.397Z" fill="#76787C"/>
<path d="M270.246 106.738C271.437 106.115 272.79 106.765 273.061 108.065C273.088 108.201 273.277 108.146 273.25 108.011C272.926 106.576 271.437 105.871 270.138 106.549C270.03 106.63 270.138 106.819 270.246 106.738Z" fill="white"/>
<path d="M272.303 108.119C272.493 108.335 272.628 108.579 272.709 108.85C272.763 108.985 272.953 108.931 272.899 108.796C272.79 108.498 272.628 108.227 272.438 107.983C272.357 107.875 272.195 108.037 272.303 108.119Z" fill="white"/>
<path d="M277.743 106.223C277.986 105.113 278.69 104.192 279.718 103.678C279.826 103.623 279.745 103.434 279.61 103.515C278.527 104.03 277.797 105.005 277.553 106.169C277.526 106.305 277.716 106.359 277.743 106.223Z" fill="white"/>
<path d="M230.085 48.8087C228.218 49.7566 226.648 51.5441 225.944 52.3295C224.212 54.3066 223.319 56.1483 222.345 58.2066C221.533 59.8858 220.586 62.2691 219.828 65.2483C220.884 65.4378 221.939 65.6003 222.995 65.7899C222.94 66.8191 222.94 68.3358 223.346 70.1233C223.725 71.7483 224.348 74.3483 226.513 76.1629C229.49 78.7087 233.441 78.0858 234.171 77.9774C234.225 79.2504 234.496 81.0649 235.524 82.9337C235.795 83.3941 236.066 83.8274 236.336 84.2066C237.825 83.7733 240.125 82.8795 242.371 81.0379C248.109 76.4066 248.893 69.5004 249.137 67.4962C249.489 64.4087 250.165 58.5858 246.349 53.7649C242.371 48.7816 234.821 46.4253 230.085 48.8087Z" fill="white"/>
<path d="M224.538 54.4419C225.296 53.3044 226.757 51.6253 228.408 50.4607C231.06 48.5919 232.251 49.3773 233.604 47.7252C234.578 46.5336 235.201 44.5836 234.47 43.6627C233.306 42.2002 229.166 43.9607 228.624 44.2044C227.434 44.719 223.509 46.3711 221.94 50.5419C220.641 54.0357 221.507 57.8544 222.102 57.9357C222.265 57.9628 222.373 57.6919 223.239 56.3648C223.645 55.6878 224.105 55.0648 224.538 54.4419Z" fill="#37373A"/>
<path d="M230.437 46.2876C230.22 46.9918 229.895 48.4001 230.978 51.1626C232.899 56.1188 237.392 60.5605 239.638 59.748C240.125 59.5584 240.639 59.0709 241.614 59.0167C241.857 59.0167 242.831 58.9626 243.589 59.5584C244.78 60.5063 244.834 62.5647 244.049 63.8917C243.914 64.1355 243.183 65.2459 242.074 65.3272C241.099 65.4084 240.775 64.6501 239.99 64.5959C238.068 64.4876 236.418 68.7126 236.201 69.2813C235.768 70.3647 234.713 73.1813 235.47 76.7834C235.633 77.5688 236.012 79.2209 237.175 80.9272C239.692 84.5834 243.914 85.4771 245.483 85.8022C247.026 86.1271 252.899 87.3459 257.472 83.5542C258.203 82.9584 260.611 80.9001 261.261 77.4063C262.371 71.5022 257.418 67.0876 257.12 66.8438C256.904 63.7834 256.173 58.9084 253.602 53.573C251.978 50.1876 250.463 47.073 247.026 44.7168C242.507 41.6563 235.93 40.7897 232.493 43.4438C232.142 43.7688 230.978 44.6897 230.437 46.2876Z" fill="#37373A"/>
<path d="M225.295 75.3477C224.889 75.7539 223.699 76.9997 223.482 78.9497C223.184 81.6581 224.998 83.5268 225.376 83.906C227.352 85.9372 230.654 86.7497 233.035 85.531C233.225 85.4497 235.308 84.3393 235.39 82.7414C235.417 82.0372 235.038 81.6851 234.496 80.1143C234.145 79.0851 233.928 78.2456 233.766 77.6768C233.035 77.9206 231.79 78.2456 230.248 78.0289C227.487 77.6768 225.782 75.8893 225.295 75.3477Z" fill="#37373A"/>
<path opacity="0.12" d="M230.708 48.6699C230.735 49.5095 230.843 50.7553 231.412 52.0824C231.79 52.9762 232.169 53.5178 232.467 53.9512C233.604 55.6845 233.983 57.3095 234.578 59.1241C235.525 61.9408 235.363 64.297 235.173 67.222C235.011 69.6595 234.47 73.3699 232.711 77.6762C233.441 77.8929 234.497 78.3262 235.633 79.0845C237.717 80.4929 238.664 82.172 239.26 82.9574C240.478 84.5554 243.184 86.2345 249.706 86.1262C249.056 85.4762 248.136 84.5012 247.135 83.3095C244.78 80.547 242.724 78.1366 241.506 75.2116C240.802 73.5324 239.72 70.0929 240.559 65.1095C241.316 65.4887 242.209 65.4616 242.913 65.0012C243.644 64.5137 244.104 63.5387 243.86 62.6449C243.563 61.6158 242.318 60.9116 241.046 61.2366C240.775 60.5595 240.342 59.5845 239.639 58.5283C238.529 56.8762 237.365 55.847 236.932 55.4678C235.552 54.2762 233.55 52.2449 230.708 48.6699Z" fill="#464C52"/>
<path opacity="0.14" d="M220.126 64.7608C220.153 64.3275 221.533 63.9754 222.697 64.0567C223.725 64.1379 224.943 64.5983 224.916 65.0046C224.889 65.3837 223.752 65.6816 222.913 65.7087C221.614 65.7629 220.126 65.1941 220.126 64.7608Z" fill="#464C52"/>
<path d="M223.482 54.6851C221.939 58.0705 220.559 61.5101 219.368 65.031C219.287 65.2476 219.45 65.4643 219.639 65.5185C220.694 65.9247 221.75 66.1143 222.859 66.0872C223.374 66.0872 223.374 65.2747 222.859 65.2747C221.804 65.2747 220.83 65.0851 219.855 64.733C219.937 64.8955 220.045 65.058 220.126 65.2205C221.29 61.7539 222.616 58.3684 224.158 55.0643C224.402 54.6309 223.698 54.1976 223.482 54.6851Z" fill="#76787C"/>
<path d="M222.751 66.2502C222.968 69.7439 223.293 73.6169 225.891 76.2439C228.38 78.7898 231.98 78.5731 235.254 78.1939C235.768 78.1398 235.768 77.3273 235.254 77.3814C232.223 77.7335 228.786 78.0314 226.459 75.6752C224.023 73.2106 223.78 69.5273 223.563 66.2502C223.536 65.7356 222.724 65.7356 222.751 66.2502Z" fill="#76787C"/>
<path d="M233.657 78.2716C234.009 80.1675 234.659 81.982 235.579 83.6612C235.822 84.1216 236.526 83.7154 236.282 83.255C235.389 81.6029 234.794 79.8966 234.442 78.055C234.361 77.5404 233.576 77.7571 233.657 78.2716Z" fill="#76787C"/>
<path d="M223.293 70.3931C224.619 71.5577 226.594 71.016 227.108 69.3098C227.271 68.7952 226.486 68.6056 226.324 69.0931C225.999 70.1764 224.727 70.5827 223.888 69.7973C223.482 69.4723 222.914 70.041 223.293 70.3931Z" fill="#76787C"/>
<path d="M225.782 69.2815C226.215 69.3899 226.54 69.6336 226.811 69.9586C226.946 70.1211 227.244 70.094 227.379 69.9586C227.541 69.7961 227.514 69.5524 227.379 69.3899C227.027 68.9565 226.54 68.6315 225.999 68.4961C225.512 68.3607 225.295 69.1461 225.782 69.2815Z" fill="#76787C"/>
<path d="M227 59.1509C227.217 58.0134 228.624 58.2301 229.382 58.6363C230.031 58.9884 230.491 59.5572 230.762 60.2343C230.951 60.7218 231.736 60.5051 231.547 60.0176C231.114 58.853 230.221 57.9322 228.976 57.6072C227.839 57.3093 226.486 57.6613 226.242 58.9343C226.134 59.4488 226.919 59.6655 227 59.1509Z" fill="#76787C"/>
<path d="M226.973 54.3598C228.191 52.3285 230.573 53.8994 231.06 55.6056C231.195 56.1202 231.98 55.9035 231.845 55.389C231.493 54.1431 230.627 52.9785 229.301 52.6535C228.11 52.3827 226.892 52.8973 226.27 53.9265C225.999 54.414 226.703 54.8202 226.973 54.3598Z" fill="#76787C"/>
<path d="M227.785 63.7559C228.299 63.7559 228.299 62.9434 227.785 62.9434C227.271 62.9434 227.244 63.7559 227.785 63.7559Z" fill="#76787C"/>
<path d="M229.327 62.5371C229.354 62.5371 229.409 62.5371 229.436 62.5371C229.652 62.5371 229.841 62.3475 229.841 62.1308C229.841 61.9142 229.652 61.7246 229.436 61.7246C229.409 61.7246 229.354 61.7246 229.327 61.7246C229.111 61.7246 228.922 61.9142 228.922 62.1308C228.922 62.3746 229.111 62.5371 229.327 62.5371Z" fill="#76787C"/>
<path d="M229.355 63.9191C229.355 63.9462 229.355 63.9733 229.355 64.0004C229.355 64.515 230.167 64.515 230.167 64.0004C230.167 63.9733 230.167 63.9462 230.167 63.9191C230.167 63.4046 229.355 63.4046 229.355 63.9191C229.355 63.9462 229.355 63.9733 229.355 64.0004C229.355 64.515 230.167 64.515 230.167 64.0004C230.167 63.9733 230.167 63.9462 230.167 63.9191C230.167 63.4046 229.355 63.4046 229.355 63.9191Z" fill="#76787C"/>
<path d="M241.153 59.7749C241.884 58.7187 243.129 59.3957 243.562 60.2624C243.914 60.9395 243.914 61.752 243.887 62.4832C243.778 64.3249 242.236 65.6249 240.45 64.4874C240.017 64.1895 239.611 64.8936 240.044 65.1916C241.099 65.8957 242.452 65.977 243.508 65.1645C244.59 64.3249 244.78 62.9437 244.699 61.6437C244.617 60.3978 244.13 59.0166 242.831 58.5562C241.911 58.2312 240.991 58.5832 240.45 59.3687C240.179 59.7749 240.883 60.1812 241.153 59.7749Z" fill="#76787C"/>
<path d="M168.356 44.3094C167.788 44.3094 167.22 44.3365 166.678 44.3365C165.758 46.124 165.244 47.749 164.946 48.9406C164.08 52.4344 164.297 55.3323 164.459 56.7406C164.567 57.6885 164.73 58.474 164.865 59.0156C165.352 59.0156 165.839 59.0156 166.326 59.0156C166.516 59.6656 166.705 60.3156 166.895 60.9656C171.468 60.9385 175.23 60.9385 177.855 60.9656C193.768 61.101 204.864 61.724 207.434 61.8594C210.655 62.049 213.28 62.2385 214.904 62.3469C214.958 61.3448 215.228 60.9927 215.472 60.8844C215.905 60.6948 216.284 61.1552 216.852 61.0469C217.448 60.9385 217.826 60.3156 218.07 59.7469C218.557 59.9906 219.45 60.3156 220.506 60.1531C220.749 60.126 220.966 60.0448 221.155 59.9906C221.615 59.0698 222.075 58.149 222.535 57.2281C221.886 57.0115 220.966 56.8219 219.856 56.8219C219.234 56.8219 218.692 56.9031 218.232 56.9844C218.178 56.849 217.745 55.6302 216.609 55.3594C216.257 55.2781 215.959 55.3052 215.716 55.3594C215.553 55.0615 215.391 54.7635 215.228 54.4656C214.579 54.3573 213.578 54.1948 212.387 53.9781C202.726 52.2177 195.987 50.0781 190.845 48.5344C185.92 47.0448 178.748 45.0135 169.547 42.7656C169.168 43.2802 168.762 43.7948 168.356 44.3094Z" fill="white"/>
<path opacity="0.07" d="M164.54 54.8193C164.783 54.7652 165.054 55.3881 165.352 55.3068C165.839 55.1985 165.731 53.4922 165.839 52.2193C165.92 51.0006 166.272 49.2402 167.463 47.1006C168.247 47.4256 169.438 47.9402 170.873 48.5631C176.041 50.811 179.614 52.5443 180.696 53.0318C187.841 56.3631 195.689 57.8527 197.664 58.2318C202.157 59.0985 208.381 59.8568 215.85 59.5318C215.526 60.4256 215.201 61.3193 214.876 62.2131C213.631 62.186 211.818 62.186 209.599 62.1318C200.073 61.9422 193.416 61.6443 189.6 61.4818C184.214 61.2652 176.502 61.0485 166.759 61.0756C166.651 60.3443 166.543 59.6131 166.434 58.8818C165.812 58.9902 165.189 59.0985 164.567 59.2068C164.161 55.8214 164.269 54.8735 164.54 54.8193Z" fill="#464C52"/>
<path d="M168.924 42.7943C165.542 48.0214 164.594 54.5214 166.326 60.5068C166.462 61.0214 167.246 60.8048 167.111 60.2902C165.433 54.4943 166.353 48.2652 169.628 43.2006C169.926 42.7402 169.222 42.3339 168.924 42.7943Z" fill="#76787C"/>
<path d="M169.628 43.5784C184.864 47.4242 200.073 51.2701 215.309 55.0888C215.824 55.2242 216.04 54.4388 215.526 54.3034C200.29 50.4576 185.081 46.6117 169.844 42.793C169.357 42.6576 169.141 43.443 169.628 43.5784Z" fill="#76787C"/>
<path d="M166.895 61.4018C182.78 61.2664 198.666 61.6455 214.525 62.5122C215.039 62.5393 215.039 61.7268 214.525 61.6997C198.666 60.833 182.78 60.4539 166.895 60.5893C166.38 60.5893 166.38 61.4018 166.895 61.4018Z" fill="#76787C"/>
<path d="M215.066 54.7914C216.148 57.2018 215.905 59.9372 214.416 62.131C214.119 62.5643 214.822 62.9706 215.12 62.5372C216.771 60.0997 216.987 57.0664 215.77 54.3852C215.553 53.9247 214.849 54.331 215.066 54.7914Z" fill="#76787C"/>
<path d="M215.878 55.8487C216.176 56.0654 216.392 55.9841 216.744 56.0654C217.421 56.255 217.691 56.8779 217.826 57.5279C218.043 58.7195 217.745 61.2383 215.986 60.5341C215.499 60.3446 215.283 61.13 215.77 61.3196C217.556 62.0237 218.72 60.155 218.72 58.5841C218.72 57.7175 218.611 56.7425 218.124 56.0112C217.962 55.7675 217.745 55.5237 217.475 55.3883C217.123 55.2258 216.636 55.3341 216.338 55.1175C215.851 54.8466 215.445 55.5508 215.878 55.8487Z" fill="#76787C"/>
<path d="M218.259 57.341C219.639 57.2598 221.019 57.2869 222.373 57.4764C222.887 57.5306 222.887 56.7181 222.373 56.664C220.992 56.5015 219.639 56.4473 218.259 56.5285C217.745 56.5827 217.745 57.3952 218.259 57.341Z" fill="#76787C"/>
<path d="M218.151 60.3198C219.26 60.5094 220.37 60.5906 221.48 60.4823C221.994 60.4281 221.994 59.6156 221.48 59.6698C220.424 59.7511 219.396 59.724 218.367 59.5344C217.853 59.4531 217.637 60.2115 218.151 60.3198Z" fill="#76787C"/>
<path d="M168.464 44.0934C165.839 42.5768 165.108 47.3163 164.757 48.8059C163.945 52.2455 163.566 55.7934 164.567 59.233C164.621 59.3955 164.784 59.5309 164.946 59.5309C165.298 59.5309 165.677 59.5309 166.028 59.5309C166.543 59.5309 166.543 58.7184 166.028 58.7184C165.677 58.7184 165.298 58.7184 164.946 58.7184C165.081 58.8268 165.217 58.908 165.325 59.0164C164.621 56.5247 164.621 54.0059 165.027 51.4601C165.217 50.3226 165.46 49.1851 165.758 48.0747C165.947 47.3434 166.543 43.9038 168.031 44.7976C168.518 45.0684 168.924 44.3643 168.464 44.0934Z" fill="#76787C"/>
<path d="M197.718 49.9207C197.231 49.3248 196.419 49.4061 196.311 49.4061C195.418 49.4602 194.552 50.2727 193.605 52.2498C191.764 56.0144 191.683 59.779 191.683 60.3748C191.656 62.9748 191.9 67.1998 193.74 72.2373C193.902 74.3498 194.254 77.3019 195.039 80.7415C196.419 86.9165 197.881 93.4165 202.914 99.1853C204.809 101.379 208.543 105.631 215.038 107.175C221.831 108.8 227.352 106.389 228.705 105.767C229.896 105.198 233.224 103.519 236.039 99.9707C237.744 97.8311 239.719 95.5019 239.394 92.6311C239.259 91.3853 238.718 90.329 237.906 88.6498C237.094 86.9707 236.661 86.1311 235.795 85.8061C234.604 85.3457 233.332 86.1582 231.925 86.9707C229.544 88.3248 229.327 89.6248 226.756 90.979C226.08 91.3311 225.403 91.5749 224.05 92.0082C221.912 92.7124 219.801 93.4165 217.853 93.5519C213.604 93.8498 210.194 91.4123 209.22 90.7082C205.62 88.1353 204.213 84.6957 203.293 82.4478C201.236 77.4103 201.399 72.779 201.751 70.0707C203.022 69.854 203.807 69.3394 204.186 69.0415C205.62 67.9311 205.972 66.3873 206.514 64.004C206.865 62.5144 207.028 61.729 206.649 61.4311C205.864 60.8352 203.455 62.7852 202.914 63.2457C203.022 61.404 203.293 59.9144 203.564 58.8582C203.916 57.4498 204.105 56.7186 204.592 56.1498C205.539 55.0394 206.649 55.1477 207.028 54.0915C207.244 53.5227 207.217 52.7373 206.757 52.2769C206.216 51.7352 205.052 51.7623 204.051 52.5477C203.726 51.8436 203.077 51.4102 202.373 51.3832C201.669 51.3561 201.209 51.7894 201.074 51.8977C201.155 51.1665 200.83 50.4894 200.289 50.2186C199.558 49.8394 198.395 50.2727 197.962 51.3832C197.989 51.2477 198.178 50.4894 197.718 49.9207Z" fill="white"/>
<path opacity="0.12" d="M196.311 49.4033C195.661 50.5408 194.85 52.22 194.308 54.4137C193.118 59.1804 194.092 63.1616 194.525 65.0846C199.18 84.9366 197.15 85.4241 200.397 90.0825C201.588 91.7616 209.761 103.028 221.939 101.539C232.142 100.293 237.554 91.0033 238.258 89.7575C238.664 90.8408 239.151 92.6825 238.826 94.8762C238.339 98.0991 236.336 100.13 235.606 100.889C234.902 101.593 234.036 102.216 232.277 103.435C230.707 104.545 229.165 105.52 228.488 105.872C225.268 107.687 220.288 108.12 216.824 107.66C207.407 106.414 201.751 97.4762 199.396 93.7658C194.011 85.2887 193.469 76.7033 193.524 72.4241C193.009 70.6908 192.495 68.9304 191.981 67.1971C191.629 64.5158 191.602 62.295 191.656 60.7512C191.792 56.8783 191.9 53.9804 193.875 51.5158C194.741 50.4325 195.689 49.7825 196.311 49.4033Z" fill="#464C52"/>
<path d="M232.954 103.029C237.23 100.997 240.098 96.7453 239.395 91.9245C238.989 88.9995 236.634 83.962 232.872 85.7495C231.195 86.562 229.814 88.0516 228.272 89.1078C226.134 90.5703 223.671 91.7078 221.209 92.4932C218.069 93.4953 214.578 93.712 211.547 92.1953C209.328 91.0849 207.596 89.2703 206.27 87.212C203.347 82.6891 201.832 77.3536 202.184 71.9641C202.211 71.4495 201.399 71.4495 201.372 71.9641C201.074 76.5141 202.075 80.8474 204.078 84.9099C205.837 88.5391 208.408 91.9516 212.305 93.4141C217.041 95.1745 222.21 93.387 226.486 91.1391C228.407 90.1099 230.058 88.7828 231.79 87.4557C233.36 86.237 234.929 85.6412 236.526 87.2662C238.501 89.2703 239.097 92.7641 238.501 95.4182C237.771 98.587 235.416 100.97 232.548 102.324C232.088 102.541 232.494 103.245 232.954 103.029Z" fill="#76787C"/>
<path d="M202.129 72.3173C201.778 70.8277 202.833 70.4485 203.807 69.7443C204.376 69.3381 204.809 68.7693 205.215 68.2006C206.243 66.711 207.055 64.9777 207.271 63.1631C207.38 62.2693 207.569 60.861 206.351 60.8069C204.917 60.7527 204.321 62.5673 202.968 62.7027C202.454 62.7568 202.454 63.5693 202.968 63.5152C203.997 63.4068 204.511 62.7568 205.296 62.161C205.756 61.8089 206.27 61.4027 206.514 62.1881C206.649 62.6214 206.432 63.4339 206.324 63.8673C206.135 64.7881 205.729 65.6818 205.296 66.5214C204.89 67.2798 204.43 68.0652 203.807 68.6881C203.239 69.2839 202.454 69.4193 201.832 69.9068C200.993 70.5568 201.128 71.6673 201.345 72.561C201.48 73.0485 202.265 72.8318 202.129 72.3173Z" fill="#76787C"/>
<path d="M192.685 68.0374C192.144 64.5437 192.089 60.9687 192.631 57.4749C192.847 56.0666 193.118 54.6312 193.605 53.277C193.903 52.4374 194.308 51.4624 194.904 50.7854C195.716 49.8916 197.312 49.4312 197.745 50.9479C197.881 51.4624 198.665 51.2458 198.53 50.7312C198.151 49.4312 196.906 48.727 195.607 49.2416C193.957 49.9187 193.172 51.9499 192.658 53.4937C191.142 58.1791 191.142 63.4333 191.873 68.2541C191.981 68.7687 192.766 68.552 192.685 68.0374Z" fill="#76787C"/>
<path d="M196.609 54.0636C197.258 52.4657 199.098 49.2427 201.101 51.4365C201.453 51.8156 202.021 51.2469 201.669 50.8677C200.749 49.8656 199.423 49.7031 198.259 50.3802C196.96 51.1115 196.365 52.5469 195.824 53.874C195.634 54.3344 196.419 54.5511 196.609 54.0636Z" fill="#76787C"/>
<path d="M200.019 54.738C200.046 53.7088 200.452 52.5713 201.453 52.0838C202.292 51.6775 203.293 51.8671 203.862 52.5984C204.187 53.0046 204.755 52.4359 204.43 52.0296C203.645 51.0546 202.238 50.8109 201.129 51.3255C199.83 51.9484 199.234 53.3567 199.207 54.738C199.18 55.2525 199.992 55.2525 200.019 54.738Z" fill="#76787C"/>
<path d="M202.373 55.0115C202.86 53.1969 204.89 51.5448 206.649 53.0073C207.055 53.3323 207.623 52.7636 207.217 52.4386C204.971 50.5969 202.265 52.3303 201.588 54.7948C201.453 55.3094 202.237 55.5261 202.373 55.0115Z" fill="#76787C"/>
<path d="M206.487 52.8716C207.353 54.0903 205.431 54.8487 204.755 55.4174C204.186 55.8778 203.862 56.4737 203.618 57.1507C202.969 59.0195 202.671 61.0507 202.509 63.0007C202.454 63.5153 203.266 63.5153 203.32 63.0007C203.456 61.5653 203.672 60.1299 204.024 58.7216C204.132 58.2612 204.241 57.8007 204.403 57.3403C204.755 56.3924 205.269 56.0403 206.054 55.4716C207.028 54.7674 208.056 53.6299 207.19 52.4112C206.893 52.032 206.189 52.4382 206.487 52.8716Z" fill="#76787C"/>
<path d="M191.683 67.2228C192.116 69.0645 192.657 70.8791 193.334 72.6666C193.523 73.1541 194.308 72.9374 194.119 72.4499C193.442 70.6624 192.901 68.8478 192.468 67.0061C192.36 66.4916 191.575 66.7082 191.683 67.2228Z" fill="#76787C"/>
<path d="M193.199 73.1814C194.227 82.4981 196.528 92.0585 202.779 99.3169C207.759 105.086 215.661 109.473 223.455 108.038C227.135 107.361 230.491 105.519 233.17 102.946C233.549 102.594 232.981 101.998 232.602 102.377C227.244 107.523 219.612 108.877 212.819 105.817C205.513 102.486 200.398 96.2294 197.502 88.8356C195.554 83.8252 194.579 78.5169 193.984 73.2085C193.957 72.6669 193.145 72.6669 193.199 73.1814Z" fill="#76787C"/>
<defs>
<linearGradient id="paint0_linear" x1="234.937" y1="96.2407" x2="284.899" y2="133.444" gradientUnits="userSpaceOnUse">
<stop stop-color="#419FFF"/>
<stop offset="1" stop-color="#0779FF"/>
</linearGradient>
</defs>
</svg>
