<svg width="185" height="40" viewBox="0 0 185 40" fill="none" xmlns="http://www.w3.org/2000/svg">
<rect width="185" height="40" rx="8" fill="#40A1FF"/>
<path d="M28.75 19.25V14H27.25V19.25H22V20.75H27.25V26H28.75V20.75H34V19.25H28.75Z" fill="white"/>
<path d="M49.9787 25L50.9134 22.3054H54.8906L55.8203 25H57.451L53.7869 14.8182H52.0121L48.348 25H49.9787ZM51.3608 21.0128L52.8622 16.6676H52.9418L54.4432 21.0128H51.3608ZM61.5376 25.1491C62.9297 25.1491 63.4766 24.299 63.745 23.8118H63.8693V25H65.321V14.8182H63.8345V18.6016H63.745C63.4766 18.1293 62.9695 17.2642 61.5476 17.2642C59.7031 17.2642 58.3459 18.7209 58.3459 21.1967C58.3459 23.6676 59.6832 25.1491 61.5376 25.1491ZM61.8658 23.8814C60.5384 23.8814 59.8473 22.7131 59.8473 21.1818C59.8473 19.6655 60.5234 18.527 61.8658 18.527C63.1634 18.527 63.8594 19.5859 63.8594 21.1818C63.8594 22.7876 63.1484 23.8814 61.8658 23.8814ZM70.3013 25.1491C71.6934 25.1491 72.2402 24.299 72.5087 23.8118H72.633V25H74.0847V14.8182H72.5982V18.6016H72.5087C72.2402 18.1293 71.7331 17.2642 70.3113 17.2642C68.4668 17.2642 67.1096 18.7209 67.1096 21.1967C67.1096 23.6676 68.4469 25.1491 70.3013 25.1491ZM70.6294 23.8814C69.302 23.8814 68.611 22.7131 68.611 21.1818C68.611 19.6655 69.2871 18.527 70.6294 18.527C71.927 18.527 72.623 19.5859 72.623 21.1818C72.623 22.7876 71.9121 23.8814 70.6294 23.8814ZM82.1337 25.169C83.3965 25.169 84.1074 24.5277 84.3908 23.956H84.4505V25H85.9022V19.929C85.9022 17.7067 84.1522 17.2642 82.9391 17.2642C81.557 17.2642 80.2843 17.821 79.7871 19.2131L81.1841 19.5312C81.4029 18.9893 81.9597 18.4673 82.959 18.4673C83.9185 18.4673 84.4107 18.9695 84.4107 19.8345V19.8693C84.4107 20.4112 83.8539 20.4013 82.4817 20.5604C81.035 20.7294 79.5534 21.1072 79.5534 22.8423C79.5534 24.3438 80.682 25.169 82.1337 25.169ZM82.4569 23.9759C81.6167 23.9759 81.0101 23.598 81.0101 22.8622C81.0101 22.0668 81.7161 21.7834 82.5762 21.669C83.0584 21.6044 84.2019 21.4751 84.4157 21.2614V22.2457C84.4157 23.1506 83.6948 23.9759 82.4569 23.9759ZM91.0987 25.1541C92.9034 25.1541 94.0717 24.0703 94.2358 22.5838H92.7891C92.6001 23.4091 91.9588 23.8963 91.1087 23.8963C89.8509 23.8963 89.0405 22.8473 89.0405 21.1818C89.0405 19.5462 89.8658 18.517 91.1087 18.517C92.0533 18.517 92.63 19.1136 92.7891 19.8295H94.2358C94.0767 18.2884 92.8189 17.2642 91.0838 17.2642C88.9311 17.2642 87.5391 18.8849 87.5391 21.2166C87.5391 23.5185 88.8814 25.1541 91.0987 25.1541ZM98.6841 25.1491C100.076 25.1491 100.623 24.299 100.892 23.8118H101.016V25H102.468V14.8182H100.981V18.6016H100.892C100.623 18.1293 100.116 17.2642 98.6941 17.2642C96.8496 17.2642 95.4924 18.7209 95.4924 21.1967C95.4924 23.6676 96.8297 25.1491 98.6841 25.1491ZM99.0123 23.8814C97.6848 23.8814 96.9938 22.7131 96.9938 21.1818C96.9938 19.6655 97.6699 18.527 99.0123 18.527C100.31 18.527 101.006 19.5859 101.006 21.1818C101.006 22.7876 100.295 23.8814 99.0123 23.8814ZM107.88 25.1541C109.546 25.1541 110.724 24.3338 111.062 23.0909L109.655 22.8374C109.387 23.5582 108.74 23.9261 107.895 23.9261C106.623 23.9261 105.767 23.1009 105.728 21.6293H111.157V21.1023C111.157 18.343 109.506 17.2642 107.776 17.2642C105.648 17.2642 104.246 18.8849 104.246 21.2315C104.246 23.603 105.628 25.1541 107.88 25.1541ZM105.733 20.5156C105.792 19.4318 106.578 18.4922 107.786 18.4922C108.939 18.4922 109.695 19.3473 109.7 20.5156H105.733ZM112.806 25H114.292V20.2919C114.292 19.2628 115.013 18.5469 115.858 18.5469C116.684 18.5469 117.256 19.0938 117.256 19.924V25H118.737V20.1328C118.737 19.2131 119.299 18.5469 120.268 18.5469C121.054 18.5469 121.7 18.9844 121.7 20.0185V25H123.187V19.8793C123.187 18.1342 122.212 17.2642 120.83 17.2642C119.731 17.2642 118.906 17.7912 118.538 18.6065H118.459C118.126 17.7713 117.425 17.2642 116.405 17.2642C115.396 17.2642 114.645 17.7663 114.327 18.6065H114.233V17.3636H112.806V25ZM125.179 25H126.665V17.3636H125.179V25ZM125.93 16.1854C126.442 16.1854 126.869 15.7876 126.869 15.3004C126.869 14.8132 126.442 14.4105 125.93 14.4105C125.413 14.4105 124.99 14.8132 124.99 15.3004C124.99 15.7876 125.413 16.1854 125.93 16.1854ZM131.882 25.1541C133.687 25.1541 134.855 24.0703 135.019 22.5838H133.572C133.383 23.4091 132.742 23.8963 131.892 23.8963C130.634 23.8963 129.824 22.8473 129.824 21.1818C129.824 19.5462 130.649 18.517 131.892 18.517C132.836 18.517 133.413 19.1136 133.572 19.8295H135.019C134.86 18.2884 133.602 17.2642 131.867 17.2642C129.714 17.2642 128.322 18.8849 128.322 21.2166C128.322 23.5185 129.665 25.1541 131.882 25.1541ZM141.253 27.8636C142.481 27.8636 143.257 27.2223 143.699 26.0192L146.856 17.3786L145.251 17.3636L143.317 23.2898H143.237L141.303 17.3636H139.712L142.506 25.0994L142.322 25.6065C141.944 26.6207 141.412 26.7053 140.597 26.4815L140.239 27.6996C140.418 27.7791 140.806 27.8636 141.253 27.8636ZM151.275 25.1541C152.94 25.1541 154.119 24.3338 154.457 23.0909L153.05 22.8374C152.781 23.5582 152.135 23.9261 151.29 23.9261C150.017 23.9261 149.162 23.1009 149.122 21.6293H154.551V21.1023C154.551 18.343 152.901 17.2642 151.17 17.2642C149.043 17.2642 147.641 18.8849 147.641 21.2315C147.641 23.603 149.023 25.1541 151.275 25.1541ZM149.127 20.5156C149.187 19.4318 149.972 18.4922 151.18 18.4922C152.334 18.4922 153.089 19.3473 153.094 20.5156H149.127ZM158.423 25.169C159.686 25.169 160.396 24.5277 160.68 23.956H160.74V25H162.191V19.929C162.191 17.7067 160.441 17.2642 159.228 17.2642C157.846 17.2642 156.573 17.821 156.076 19.2131L157.473 19.5312C157.692 18.9893 158.249 18.4673 159.248 18.4673C160.208 18.4673 160.7 18.9695 160.7 19.8345V19.8693C160.7 20.4112 160.143 20.4013 158.771 20.5604C157.324 20.7294 155.843 21.1072 155.843 22.8423C155.843 24.3438 156.971 25.169 158.423 25.169ZM158.746 23.9759C157.906 23.9759 157.299 23.598 157.299 22.8622C157.299 22.0668 158.005 21.7834 158.865 21.669C159.347 21.6044 160.491 21.4751 160.705 21.2614V22.2457C160.705 23.1506 159.984 23.9759 158.746 23.9759ZM164.171 25H165.658V20.3366C165.658 19.3374 166.428 18.6165 167.482 18.6165C167.79 18.6165 168.138 18.6712 168.258 18.706V17.2841C168.109 17.2642 167.815 17.2493 167.626 17.2493C166.732 17.2493 165.966 17.7564 165.688 18.5767H165.608V17.3636H164.171V25Z" fill="white"/>
</svg>
