<svg width="174" height="40" viewBox="0 0 174 40" fill="none" xmlns="http://www.w3.org/2000/svg">
<rect width="174" height="40" rx="8" fill="#40A1FF"/>
<path d="M28.75 19.25V14H27.25V19.25H22V20.75H27.25V26H28.75V20.75H34V19.25H28.75Z" fill="white"/>
<path d="M49.9787 25L50.9134 22.3054H54.8906L55.8203 25H57.451L53.7869 14.8182H52.0121L48.348 25H49.9787ZM51.3608 21.0128L52.8622 16.6676H52.9418L54.4432 21.0128H51.3608ZM61.5376 25.1491C62.9297 25.1491 63.4766 24.299 63.745 23.8118H63.8693V25H65.321V14.8182H63.8345V18.6016H63.745C63.4766 18.1293 62.9695 17.2642 61.5476 17.2642C59.7031 17.2642 58.3459 18.7209 58.3459 21.1967C58.3459 23.6676 59.6832 25.1491 61.5376 25.1491ZM61.8658 23.8814C60.5384 23.8814 59.8473 22.7131 59.8473 21.1818C59.8473 19.6655 60.5234 18.527 61.8658 18.527C63.1634 18.527 63.8594 19.5859 63.8594 21.1818C63.8594 22.7876 63.1484 23.8814 61.8658 23.8814ZM70.3013 25.1491C71.6934 25.1491 72.2402 24.299 72.5087 23.8118H72.633V25H74.0847V14.8182H72.5982V18.6016H72.5087C72.2402 18.1293 71.7331 17.2642 70.3113 17.2642C68.4668 17.2642 67.1096 18.7209 67.1096 21.1967C67.1096 23.6676 68.4469 25.1491 70.3013 25.1491ZM70.6294 23.8814C69.302 23.8814 68.611 22.7131 68.611 21.1818C68.611 19.6655 69.2871 18.527 70.6294 18.527C71.927 18.527 72.623 19.5859 72.623 21.1818C72.623 22.7876 71.9121 23.8814 70.6294 23.8814ZM82.7701 25.1491C84.1621 25.1491 84.709 24.299 84.9775 23.8118H85.1017V25H86.5534V14.8182H85.0669V18.6016H84.9775C84.709 18.1293 84.2019 17.2642 82.78 17.2642C80.9355 17.2642 79.5783 18.7209 79.5783 21.1967C79.5783 23.6676 80.9157 25.1491 82.7701 25.1491ZM83.0982 23.8814C81.7708 23.8814 81.0797 22.7131 81.0797 21.1818C81.0797 19.6655 81.7559 18.527 83.0982 18.527C84.3958 18.527 85.0918 19.5859 85.0918 21.1818C85.0918 22.7876 84.3809 23.8814 83.0982 23.8814ZM91.9663 25.1541C93.6317 25.1541 94.81 24.3338 95.1481 23.0909L93.7411 22.8374C93.4727 23.5582 92.8263 23.9261 91.9812 23.9261C90.7085 23.9261 89.8533 23.1009 89.8136 21.6293H95.2425V21.1023C95.2425 18.343 93.592 17.2642 91.8619 17.2642C89.734 17.2642 88.332 18.8849 88.332 21.2315C88.332 23.603 89.7141 25.1541 91.9663 25.1541ZM89.8185 20.5156C89.8782 19.4318 90.6637 18.4922 91.8718 18.4922C93.0252 18.4922 93.7809 19.3473 93.7859 20.5156H89.8185ZM96.8919 27.8636H98.3784V23.8118H98.4679C98.7363 24.299 99.2832 25.1491 100.675 25.1491C102.525 25.1491 103.867 23.6676 103.867 21.1967C103.867 18.7209 102.505 17.2642 100.66 17.2642C99.2434 17.2642 98.7314 18.1293 98.4679 18.6016H98.3436V17.3636H96.8919V27.8636ZM98.3485 21.1818C98.3485 19.5859 99.0446 18.527 100.342 18.527C101.689 18.527 102.366 19.6655 102.366 21.1818C102.366 22.7131 101.67 23.8814 100.342 23.8814C99.0645 23.8814 98.3485 22.7876 98.3485 21.1818ZM107.755 25.169C109.018 25.169 109.729 24.5277 110.012 23.956H110.072V25H111.523V19.929C111.523 17.7067 109.773 17.2642 108.56 17.2642C107.178 17.2642 105.905 17.821 105.408 19.2131L106.805 19.5312C107.024 18.9893 107.581 18.4673 108.58 18.4673C109.54 18.4673 110.032 18.9695 110.032 19.8345V19.8693C110.032 20.4112 109.475 20.4013 108.103 20.5604C106.656 20.7294 105.175 21.1072 105.175 22.8423C105.175 24.3438 106.303 25.169 107.755 25.169ZM108.078 23.9759C107.238 23.9759 106.631 23.598 106.631 22.8622C106.631 22.0668 107.337 21.7834 108.197 21.669C108.68 21.6044 109.823 21.4751 110.037 21.2614V22.2457C110.037 23.1506 109.316 23.9759 108.078 23.9759ZM113.503 25H114.99V20.3366C114.99 19.3374 115.76 18.6165 116.814 18.6165C117.123 18.6165 117.471 18.6712 117.59 18.706V17.2841C117.441 17.2642 117.147 17.2493 116.958 17.2493C116.064 17.2493 115.298 17.7564 115.02 18.5767H114.94V17.3636H113.503V25ZM122.892 17.3636H121.326V15.5341H119.839V17.3636H118.721V18.5568H119.839V23.0661C119.835 24.4531 120.893 25.1243 122.067 25.0994C122.539 25.0945 122.857 25.005 123.031 24.9403L122.763 23.7124C122.663 23.7322 122.479 23.777 122.241 23.777C121.759 23.777 121.326 23.6179 121.326 22.7578V18.5568H122.892V17.3636ZM124.536 25H126.023V20.2919C126.023 19.2628 126.744 18.5469 127.589 18.5469C128.414 18.5469 128.986 19.0938 128.986 19.924V25H130.468V20.1328C130.468 19.2131 131.029 18.5469 131.999 18.5469C132.784 18.5469 133.431 18.9844 133.431 20.0185V25H134.917V19.8793C134.917 18.1342 133.943 17.2642 132.561 17.2642C131.462 17.2642 130.637 17.7912 130.269 18.6065H130.189C129.856 17.7713 129.155 17.2642 128.136 17.2642C127.127 17.2642 126.376 17.7663 126.058 18.6065H125.963V17.3636H124.536V25ZM140.201 25.1541C141.866 25.1541 143.044 24.3338 143.382 23.0909L141.975 22.8374C141.707 23.5582 141.061 23.9261 140.216 23.9261C138.943 23.9261 138.088 23.1009 138.048 21.6293H143.477V21.1023C143.477 18.343 141.826 17.2642 140.096 17.2642C137.968 17.2642 136.566 18.8849 136.566 21.2315C136.566 23.603 137.949 25.1541 140.201 25.1541ZM138.053 20.5156C138.113 19.4318 138.898 18.4922 140.106 18.4922C141.26 18.4922 142.015 19.3473 142.02 20.5156H138.053ZM146.613 20.4659C146.613 19.2479 147.358 18.5518 148.393 18.5518C149.402 18.5518 150.013 19.2131 150.013 20.3217V25H151.5V20.1428C151.5 18.2536 150.461 17.2642 148.9 17.2642C147.751 17.2642 147.001 17.7962 146.648 18.6065H146.553V17.3636H145.126V25H146.613V20.4659ZM157.058 17.3636H155.492V15.5341H154.006V17.3636H152.887V18.5568H154.006V23.0661C154.001 24.4531 155.059 25.1243 156.233 25.0994C156.705 25.0945 157.023 25.005 157.197 24.9403L156.929 23.7124C156.829 23.7322 156.645 23.777 156.407 23.777C155.925 23.777 155.492 23.6179 155.492 22.7578V18.5568H157.058V17.3636Z" fill="white"/>
</svg>
