<svg width="146" height="32" viewBox="0 0 146 32" fill="none" xmlns="http://www.w3.org/2000/svg">
<path d="M9.72449 11.5297C9.2425 11.6601 8.81583 11.9422 8.5082 12.3339C8.20057 12.7256 8.0285 13.2059 8.01771 13.703C8.01455 13.8471 8.06902 13.9866 8.16914 14.0907C8.26926 14.1948 8.40682 14.2551 8.55157 14.2582C8.69632 14.2614 8.83639 14.2071 8.94098 14.1075C9.04557 14.0078 9.1061 13.8708 9.10925 13.7267C9.1166 13.4663 9.2084 13.2152 9.37093 13.011C9.53345 12.8067 9.75799 12.6604 10.011 12.5937C10.264 12.527 10.5319 12.5436 10.7746 12.641C11.0174 12.7383 11.222 12.9113 11.3578 13.134C11.4188 13.2347 11.5111 13.3128 11.6206 13.3567C11.7302 13.4005 11.8511 13.4077 11.9651 13.377C12.015 13.3631 12.063 13.3432 12.108 13.3178C12.2313 13.2425 12.3198 13.1217 12.354 12.9818C12.3882 12.8419 12.3654 12.6942 12.2906 12.5709C12.0328 12.1452 11.6437 11.8137 11.1812 11.6261C10.7188 11.4385 10.2078 11.4047 9.72449 11.5297Z" fill="url(#paint0_linear_1930:12915)"/>
<path d="M14.5943 12.6343C14.7387 12.6369 14.8783 12.5825 14.9825 12.4828C15.0866 12.3832 15.1469 12.2465 15.15 12.1028C15.1581 11.8425 15.2504 11.5918 15.4132 11.3879C15.576 11.184 15.8005 11.0379 16.0534 10.9713C16.3063 10.9047 16.574 10.9212 16.8167 11.0183C17.0594 11.1153 17.2642 11.2878 17.4006 11.5101C17.4613 11.6109 17.5535 11.6893 17.6632 11.7332C17.7728 11.777 17.8939 11.784 18.0079 11.7531C18.0575 11.7404 18.105 11.7204 18.1488 11.6938C18.2724 11.6189 18.3612 11.4982 18.3958 11.3583C18.4304 11.2183 18.4079 11.0705 18.3333 10.947C18.0748 10.5232 17.6854 10.1942 17.2234 10.0093C16.7613 9.82438 16.2515 9.79346 15.7703 9.92117C15.2891 10.0489 14.8625 10.3284 14.5542 10.7177C14.246 11.1071 14.0727 11.5854 14.0604 12.081C14.0589 12.1523 14.0714 12.2232 14.0974 12.2896C14.1234 12.356 14.1623 12.4166 14.2119 12.468C14.2616 12.5194 14.3209 12.5606 14.3865 12.5891C14.4521 12.6176 14.5227 12.633 14.5943 12.6343Z" fill="url(#paint1_linear_1930:12915)"/>
<path d="M30.8839 16.9997L24.7196 15.8143C24.2691 13.9136 22.8898 12.5187 22.1614 11.9635C22.2238 11.1901 22.1663 10.4118 21.9908 9.65586V9.63017C21.8023 8.92886 21.5029 8.26191 21.1036 7.65442C21.6237 6.5036 21.8978 5.2577 21.9084 3.99583C21.9189 2.73395 21.6659 1.48366 21.1652 0.324361C21.1107 0.20049 21.0117 0.101384 20.8876 0.0465382C20.7634 -0.00830719 20.6231 -0.014921 20.4944 0.0279978C18.3507 0.737089 16.5498 2.2165 15.4435 4.17708C13.9752 3.9484 12.475 4.02969 11.0404 4.41569C9.60573 4.80168 8.26866 5.48374 7.11598 6.41759C5.17265 5.27183 2.87001 4.8886 0.658002 5.34278C0.524535 5.36963 0.406116 5.44552 0.326313 5.55536C0.24651 5.66519 0.211174 5.80091 0.227338 5.93551C0.375226 7.19033 0.784295 8.40068 1.42843 9.48928C2.07256 10.5779 2.93762 11.5208 3.96836 12.2579C3.93061 12.9758 4.00628 13.6952 4.19262 14.3898C4.76221 16.4446 6.2229 18.118 8.33454 19.094C8.35956 19.1075 8.38541 19.1194 8.41194 19.1296C10.5159 20.0413 12.8703 20.2073 15.0823 19.5998C15.1012 19.5978 15.1198 19.5938 15.1378 19.588C15.2583 19.5463 15.386 19.5298 15.5131 19.5396C15.6402 19.5493 15.7639 19.585 15.8765 19.6445C15.9892 19.704 16.0882 19.7859 16.1676 19.8853C16.2469 19.9846 16.3048 20.0992 16.3377 20.2218C16.3705 20.3444 16.3776 20.4725 16.3585 20.5979C16.3393 20.7234 16.2944 20.8436 16.2265 20.951C16.1586 21.0584 16.0692 21.1507 15.9638 21.2221C15.8585 21.2936 15.7394 21.3426 15.6142 21.3662L15.5626 21.382C12.532 22.5279 8.08448 22.3698 5.44096 21.0402C5.34539 20.9926 5.2378 20.9744 5.13181 20.9877C5.02583 21.0011 4.92621 21.0455 4.84557 21.1152L0.183676 25.1873C0.110485 25.2517 0.0560685 25.3345 0.026145 25.4271C-0.00377847 25.5196 -0.00810412 25.6185 0.0136226 25.7133C0.0353494 25.8081 0.0823263 25.8954 0.149617 25.9659C0.216907 26.0363 0.302027 26.0875 0.396031 26.1139L9.8766 28.7259L10.7776 31.1442C11.0158 31.7804 11.1349 32.1004 11.6112 31.972C11.6837 31.9537 11.7514 31.92 11.8096 31.8732C13.3636 30.6404 15.4633 29.6288 17.7238 29.0262C19.9843 28.4236 22.2269 28.2615 24.1897 28.5342C24.332 28.554 24.4764 28.5168 24.5913 28.431C24.7062 28.3451 24.7823 28.2174 24.803 28.0758C24.8119 28.0202 24.8119 27.9635 24.803 27.9079L24.2751 24.883L31.1717 17.9007C31.2733 17.7992 31.3304 17.6617 31.3304 17.5184C31.3304 17.375 31.2733 17.2376 31.1717 17.1361C31.0957 17.0613 30.9989 17.011 30.8938 16.9918L30.8839 16.9997ZM5.24448 14.1013C5.06262 13.4277 5.00546 12.7267 5.07578 12.0327C5.08446 11.9327 5.06535 11.8323 5.02055 11.7424C4.97574 11.6525 4.90697 11.5766 4.82175 11.5229C3.1986 10.438 2.02592 8.80375 1.52132 6.92339C1.46575 6.72581 1.41811 6.50848 1.38041 6.30102C3.30156 6.03397 5.25471 6.47145 6.87584 7.53192C6.98266 7.60075 7.1104 7.62995 7.23668 7.61442C7.36296 7.59889 7.47972 7.5396 7.56649 7.44696C8.65493 6.50734 9.94405 5.82685 11.336 5.45713C12.728 5.08741 14.1863 5.03817 15.6003 5.31314C15.6924 5.33887 15.7899 5.33887 15.8821 5.31314C15.9525 5.29246 16.0179 5.25759 16.0743 5.21068C16.1306 5.16378 16.1766 5.10585 16.2095 5.04049C17.0804 3.31473 18.5518 1.963 20.3495 1.23716C20.4209 1.43474 20.4844 1.63231 20.5479 1.84569C21.054 3.71786 20.8616 5.70918 20.0061 7.45091C19.9557 7.54021 19.9321 7.64203 19.9381 7.74429C19.9441 7.84655 19.9794 7.94496 20.0399 8.02783C20.4557 8.59739 20.7625 9.23836 20.9449 9.91863V9.94629C21.2049 10.9144 21.056 12.1532 21.056 12.1651C21.0426 12.2702 21.0606 12.3769 21.108 12.4718C21.1553 12.5667 21.2297 12.6456 21.3219 12.6985C21.3656 12.7242 25.3468 15.5298 23.0903 19.4556C22.3032 20.7623 21.3871 21.9874 20.3554 23.1127C20.1665 23.2661 19.9284 23.3468 19.6846 23.3399C19.4072 23.3622 19.1319 23.2765 18.9166 23.1009C18.7374 22.9298 18.6325 22.6958 18.6243 22.4488C18.6162 22.2018 18.7054 21.9615 18.8729 21.7791C18.8891 21.7643 18.9044 21.7484 18.9186 21.7317C19.8379 20.5862 20.4876 19.2501 20.8198 17.8217C20.9775 17.1447 20.859 16.4331 20.4902 15.8431C20.1215 15.253 19.5327 14.8327 18.8531 14.6743L18.7399 14.6506L13.8002 13.7457C13.7205 13.7309 13.6385 13.7341 13.5603 13.7549C13.482 13.7758 13.4093 13.8138 13.3477 13.8662L8.53301 17.9876C6.85996 17.1361 5.70094 15.7669 5.2544 14.1072L5.24448 14.1013Z" fill="url(#paint2_linear_1930:12915)"/>
<path d="M84.8587 16.2977C86.0614 14.9937 87.0418 14.6796 88.3655 15.2545C88.6315 15.3711 89.0086 15.7287 88.9828 15.9263C88.9054 16.5032 88.6573 17.0584 88.4469 17.6116C88.4291 17.6531 88.175 17.6393 88.05 17.5998C87.3772 17.4022 87.1807 17.6966 87.1847 18.3268C87.2026 20.4626 87.1291 22.6024 87.2026 24.7362C87.3554 29.237 83.9001 30.6476 80.5898 30.3592C79.0646 30.2635 77.6274 29.6156 76.5491 28.5375C75.9537 27.9448 76.0033 27.6228 76.7475 26.8265C77.2377 26.2951 77.6605 26.4314 78.111 26.872C79.276 28.0317 80.7188 28.336 82.2787 28.1187C84.053 27.8717 84.9957 26.2634 84.5134 24.2343C82.7848 25.3467 80.9629 25.645 79.0497 24.8429C78.0485 24.4294 77.2174 23.6905 76.692 22.7466C75.5488 20.7392 75.8981 18.0838 77.5176 16.4874C79.3964 14.6302 81.8434 14.567 84.8587 16.2977ZM84.8111 20.1603C84.8153 19.7638 84.74 19.3705 84.5895 19.0034C84.439 18.6362 84.2163 18.3028 83.9346 18.0225C83.6528 17.7422 83.3177 17.5207 82.9488 17.3711C82.58 17.2215 82.1848 17.1468 81.7865 17.1513C81.388 17.1466 80.9927 17.2229 80.6248 17.3755C80.2568 17.528 79.9241 17.7537 79.6467 18.0387C79.3694 18.3236 79.1534 18.6619 79.0118 19.0328C78.8702 19.4037 78.8062 19.7995 78.8235 20.1959C78.8512 21.9049 80.0896 23.1398 81.8004 23.1595C82.1979 23.1665 82.5927 23.0937 82.9612 22.9454C83.3298 22.7971 83.6646 22.5764 83.9456 22.2965C84.2266 22.0166 84.448 21.6831 84.5967 21.3161C84.7454 20.9491 84.8183 20.556 84.8111 20.1603Z" fill="#1A231D"/>
<path d="M109.492 19.1547C109.605 15.9086 110.993 13.5535 113.912 12.3265C116.889 11.0759 119.727 11.4631 122.226 13.6147C122.865 14.166 122.918 14.569 122.499 15.0254C121.573 16.037 121.172 16.1397 120.445 15.5549C118.084 13.6523 115.168 13.838 113.436 16.0113C111.904 17.9258 112.096 20.8895 113.862 22.5985C115.571 24.2542 118.348 24.3095 120.263 22.7269C120.447 22.5616 120.669 22.4447 120.91 22.3869C121.151 22.329 121.403 22.3321 121.642 22.3957C121.881 22.4593 122.101 22.5815 122.281 22.7511C122.461 22.9208 122.595 23.1325 122.672 23.3671C122.761 23.6239 122.595 24.0941 122.384 24.3115C120.769 25.9671 118.741 26.5856 116.472 26.4532C114.85 26.376 113.299 25.7622 112.067 24.709C110.834 23.6558 109.99 22.2234 109.667 20.6385C109.583 20.1473 109.524 19.652 109.492 19.1547Z" fill="#1A231D"/>
<path d="M133.286 16.3299C133.325 15.6285 133.516 15.1167 134.387 15.1444C135.578 15.1859 135.721 15.2807 135.721 16.4879C135.721 19.2777 135.721 22.0675 135.721 24.8572C135.721 25.8609 135.55 26.1178 134.868 26.1632C133.651 26.2442 133.478 26.1138 133.256 24.8948C132.065 26.017 130.676 26.5998 129.088 26.4418C127.501 26.2837 126.203 25.6041 125.254 24.3119C123.656 22.1386 123.76 18.8964 125.482 16.8633C126.475 15.7035 127.749 15.1365 129.239 15.0199C130.39 14.935 130.755 15.0772 133.286 16.3299ZM126.935 20.7358C126.911 22.6029 128.221 24.0017 130.003 24.0155C131.785 24.0294 133.077 22.6523 133.087 20.7496C133.097 18.847 131.837 17.4541 130.057 17.4323C128.277 17.4106 126.961 18.7778 126.935 20.7358Z" fill="#1A231D"/>
<path d="M99.4441 21.3458C99.3389 23.1615 101.32 24.671 103.378 24.26C104.171 24.102 104.894 23.6515 105.626 23.284C106.202 22.9936 106.521 23.1042 107.123 23.8767C107.47 24.3173 107.275 24.6255 106.946 24.9436C105.041 26.787 101.119 26.9747 98.8408 25.3388C96.6478 23.7582 95.9353 20.6227 97.1876 18.0621C98.3228 15.7425 100.968 14.5808 103.753 15.1834C106.101 15.6912 107.732 17.7183 107.827 20.2433C107.861 21.1482 107.658 21.3616 106.74 21.3636L99.4441 21.3458ZM105.021 19.617C104.884 17.8981 103.554 16.924 101.744 17.1196C100.438 17.2619 99.3627 18.4632 99.5255 19.617H105.021Z" fill="#1A231D"/>
<path d="M56.6099 24.7649C55.7446 25.9721 54.5796 26.4957 53.1427 26.4601C50.7473 26.3989 48.9929 24.682 48.9512 22.2953C48.9155 20.2326 48.9512 18.1679 48.9393 16.1052C48.9393 15.4196 49.2429 15.1588 49.9157 15.1529C51.7019 15.141 51.7019 15.1252 51.7019 16.8876C51.7019 18.4168 51.69 19.9481 51.7019 21.4753C51.7158 22.5007 51.9956 23.4175 53.0474 23.8462C54.5955 24.4943 56.1792 23.4847 56.2387 21.7638C56.3003 19.9856 56.2606 18.2212 56.2645 16.449C56.2645 15.2635 56.3737 15.1529 57.5486 15.1509H57.9157C58.8981 15.1509 59.043 15.2971 59.045 16.3048C59.045 18.4662 59.045 20.6257 59.045 22.7872C59.045 23.0302 59.0549 23.2733 59.0589 23.5143C59.0688 23.9648 59.3089 24.1386 59.7277 24.0102C60.591 23.7415 60.5216 24.4725 60.72 24.9112C60.9324 25.3952 60.984 25.8259 60.3787 26.1243C58.9299 26.8415 57.5426 26.4325 56.8063 25.0337C56.7462 24.9403 56.6806 24.8506 56.6099 24.7649Z" fill="#1A231D"/>
<path d="M65.7079 16.506C66.6287 16.0378 67.494 15.3996 68.4487 15.1487C69.0642 14.9825 69.7096 14.9573 70.3364 15.0748C70.9631 15.1923 71.555 15.4496 72.0677 15.8273C72.5804 16.205 73.0005 16.6934 73.2966 17.2557C73.5927 17.8181 73.7571 18.4399 73.7774 19.0745C73.8667 21.1589 73.8012 23.2493 73.8032 25.3396C73.8032 25.8691 73.5412 26.1615 73.0093 26.1635C71.1418 26.1635 71.0128 26.3611 71.0485 24.3853C71.0763 22.9035 71.0882 21.4217 71.0485 19.9399C70.989 18.0274 69.4846 16.9763 67.76 17.5848C66.7677 17.9404 66.2497 18.7367 66.2278 20.0663C66.2001 21.6469 66.2278 23.2275 66.1981 24.8082C66.1981 25.2725 66.3827 25.9343 65.7734 26.0667C65.1143 26.1722 64.4412 26.1541 63.7887 26.0134C63.632 25.9857 63.4712 25.4523 63.4672 25.15C63.4394 22.9391 63.4533 20.7302 63.4514 18.5193C63.4514 17.5314 63.4514 17.5314 62.4967 17.6381C62.4035 17.65 62.2387 17.6777 62.2268 17.65C62.0105 17.1284 61.7386 16.6107 61.6434 16.0694C61.6056 15.8501 61.9073 15.451 62.1534 15.3245C63.5823 14.5698 64.8346 15.0519 65.7079 16.506Z" fill="#1A231D"/>
<path d="M45.9836 22.0548C45.7673 25.5597 42.9968 26.7511 40.2282 26.4014C39.0293 26.2719 37.913 25.7313 37.0707 24.8722C36.5289 24.3209 36.5309 24.0108 37.0607 23.4496C37.1957 23.3094 37.3465 23.1829 37.4716 23.0347C37.934 22.4914 38.3746 22.4914 38.8826 23.0011C39.5911 23.7124 40.4425 24.0819 41.4626 23.825C42.5423 23.5563 43.1793 22.7976 43.2032 21.5944C43.2488 19.3361 43.2171 17.0778 43.2389 14.8195C43.2389 14.3434 43.0107 14.2485 42.6078 14.2545C41.7306 14.2545 40.8514 14.2683 39.9742 14.2545C39.1922 14.2387 39.0672 14.0668 39.0652 13.1145C39.0632 12.1621 39.2141 11.9685 39.9762 11.9626C41.6829 11.9468 43.3917 11.9626 45.0985 11.9626C45.7455 11.9626 46.0332 12.2629 46.0293 12.8951C46.0293 14.4244 46.0293 15.9536 46.0293 17.4848C46.0174 17.469 46.0769 20.5314 45.9836 22.0548Z" fill="#1A231D"/>
<path d="M139.359 17.3384C137.504 17.127 137.452 17.0974 137.432 16.2735C137.41 15.3943 137.474 15.3528 139.399 15.0881C139.399 14.3155 139.433 13.5213 139.399 12.731C139.359 11.9762 139.683 11.6404 140.417 11.51C142.142 11.2017 142.175 11.2097 142.175 12.9839V15.1612C143.005 15.1612 143.753 15.1612 144.501 15.1612C145.25 15.1612 145.442 15.3785 145.442 16.2044C145.442 17.0302 145.256 17.2515 144.511 17.2653C143.767 17.2792 143.013 17.2653 142.215 17.2653C142.215 19.17 142.152 20.9877 142.241 22.7975C142.291 23.8308 143.303 24.2852 144.329 23.8802C145.355 23.4751 145.365 23.485 145.718 24.2753C146.184 25.3245 146.115 25.5576 145.186 26.0021C142.854 27.1105 139.316 26.2491 139.401 22.5189C139.427 21.0963 139.373 17.6546 139.359 17.3384Z" fill="#1A231D"/>
<path d="M90.8416 12.0615C90.8277 11.3522 91.0758 11.0025 91.7784 10.8404C93.5348 10.4334 93.636 10.4947 93.636 12.3124C93.636 15.8358 93.636 19.3586 93.636 22.8807C93.636 23.8567 93.636 23.837 94.5767 23.8982C94.6878 23.9146 94.7941 23.955 94.888 24.0164C94.9819 24.0778 95.0612 24.1588 95.1205 24.2538C95.8052 25.5697 95.4599 26.2079 93.9813 26.4272C92.1416 26.7097 90.8734 25.6527 90.8575 23.7856C90.8416 21.8553 90.8773 14.0372 90.8416 12.0615Z" fill="#1A231D"/>
<defs>
<linearGradient id="paint0_linear_1930:12915" x1="9.05116" y1="11.5396" x2="10.0551" y2="14.9582" gradientUnits="userSpaceOnUse">
<stop stop-color="#419FFF"/>
<stop offset="1" stop-color="#0779FF"/>
</linearGradient>
<linearGradient id="paint1_linear_1930:12915" x1="15.0938" y1="9.92747" x2="16.0898" y2="13.3335" gradientUnits="userSpaceOnUse">
<stop stop-color="#419FFF"/>
<stop offset="1" stop-color="#0779FF"/>
</linearGradient>
<linearGradient id="paint2_linear_1930:12915" x1="7.44098" y1="0.96" x2="23.6673" y2="35.7995" gradientUnits="userSpaceOnUse">
<stop stop-color="#419FFF"/>
<stop offset="1" stop-color="#0779FF"/>
</linearGradient>
</defs>
</svg>
