<svg width="146" height="32" viewBox="0 0 146 32" fill="none" xmlns="http://www.w3.org/2000/svg">
<path d="M9.68298 11.5299C9.20315 11.6603 8.77838 11.9424 8.47213 12.3342C8.16588 12.7259 7.99458 13.2062 7.98383 13.7033C7.98069 13.8474 8.03492 13.9868 8.13459 14.0909C8.23426 14.1951 8.37121 14.2553 8.51531 14.2585C8.65941 14.2616 8.79886 14.2074 8.90298 14.1077C9.00709 14.008 9.06735 13.8711 9.0705 13.727C9.07781 13.4665 9.1692 13.2154 9.331 13.0112C9.4928 12.807 9.71634 12.6606 9.96821 12.5939C10.2201 12.5272 10.4868 12.5438 10.7284 12.6412C10.9701 12.7386 11.1738 12.9116 11.309 13.1343C11.3698 13.2349 11.4616 13.3131 11.5707 13.3569C11.6797 13.4008 11.8001 13.4079 11.9136 13.3773C11.9632 13.3633 12.011 13.3434 12.0559 13.318C12.1786 13.2427 12.2666 13.122 12.3007 12.9821C12.3348 12.8421 12.3121 12.6944 12.2376 12.5712C11.981 12.1454 11.5936 11.814 11.1332 11.6263C10.6728 11.4387 10.1641 11.4049 9.68298 11.5299Z" fill="#4EC977"/>
<path d="M14.5309 12.6343C14.6747 12.6369 14.8137 12.5825 14.9174 12.4828C15.0211 12.3832 15.081 12.2465 15.0841 12.1028C15.0922 11.8425 15.1841 11.5918 15.3462 11.3879C15.5082 11.184 15.7317 11.0379 15.9835 10.9713C16.2352 10.9047 16.5018 10.9212 16.7434 11.0183C16.9851 11.1153 17.1889 11.2878 17.3247 11.5101C17.3851 11.6109 17.477 11.6893 17.5861 11.7332C17.6952 11.777 17.8157 11.784 17.9292 11.7531C17.9787 11.7404 18.0259 11.7204 18.0695 11.6938C18.1926 11.6189 18.281 11.4982 18.3155 11.3583C18.3499 11.2183 18.3275 11.0705 18.2533 10.947C17.9959 10.5232 17.6082 10.1942 17.1482 10.0093C16.6883 9.82438 16.1807 9.79346 15.7017 9.92117C15.2227 10.0489 14.7979 10.3284 14.491 10.7177C14.1841 11.1071 14.0117 11.5854 13.9995 12.081C13.9979 12.1523 14.0104 12.2232 14.0363 12.2896C14.0622 12.356 14.1009 12.4166 14.1503 12.468C14.1997 12.5194 14.2587 12.5606 14.324 12.5891C14.3894 12.6176 14.4597 12.633 14.5309 12.6343Z" fill="#4EC977"/>
<path d="M30.7478 16.9997L24.6111 15.8143C24.1626 13.9136 22.7894 12.5187 22.0643 11.9635C22.1264 11.1901 22.0691 10.4118 21.8944 9.65586V9.63017C21.7068 8.92886 21.4087 8.26191 21.0112 7.65442C21.529 6.5036 21.8018 5.2577 21.8124 3.99583C21.8229 2.73395 21.571 1.48366 21.0725 0.324361C21.0183 0.20049 20.9197 0.101384 20.7961 0.0465382C20.6725 -0.00830719 20.5329 -0.014921 20.4047 0.0279978C18.2707 0.737089 16.4778 2.2165 15.3764 4.17708C13.9147 3.9484 12.4212 4.02969 10.993 4.41569C9.56474 4.80168 8.23364 5.48374 7.08612 6.41759C5.15148 5.27183 2.85913 4.8886 0.657014 5.34278C0.524144 5.36963 0.406254 5.44552 0.326807 5.55536C0.247361 5.66519 0.212183 5.80091 0.228275 5.93551C0.375502 7.19033 0.782741 8.40068 1.424 9.48928C2.06525 10.5779 2.92644 11.5208 3.95257 12.2579C3.91499 12.9758 3.99033 13.6952 4.17583 14.3898C4.74288 16.4446 6.19703 18.118 8.29924 19.094C8.32414 19.1075 8.34988 19.1194 8.37629 19.1296C10.4708 20.0413 12.8147 20.2073 15.0168 19.5998C15.0356 19.5978 15.0541 19.5938 15.0721 19.588C15.192 19.5463 15.3192 19.5298 15.4457 19.5396C15.5723 19.5493 15.6954 19.585 15.8075 19.6445C15.9196 19.704 16.0183 19.7859 16.0972 19.8853C16.1762 19.9846 16.2339 20.0992 16.2666 20.2218C16.2993 20.3444 16.3063 20.4725 16.2873 20.5979C16.2682 20.7234 16.2235 20.8436 16.1559 20.951C16.0883 21.0584 15.9993 21.1507 15.8944 21.2221C15.7895 21.2936 15.671 21.3426 15.5463 21.3662L15.4949 21.382C12.478 22.5279 8.05029 22.3698 5.41858 21.0402C5.32345 20.9926 5.21634 20.9744 5.11083 20.9877C5.00531 21.0011 4.90614 21.0455 4.82586 21.1152L0.184808 25.1873C0.111944 25.2517 0.0577709 25.3345 0.0279812 25.4271C-0.00180846 25.5196 -0.00611477 25.6185 0.0155148 25.7133C0.0371444 25.8081 0.0839113 25.8954 0.150901 25.9659C0.217891 26.0363 0.30263 26.0875 0.396214 26.1139L9.8344 28.7259L10.7314 31.1442C10.9685 31.7804 11.087 32.1004 11.5612 31.972C11.6334 31.9537 11.7008 31.92 11.7588 31.8732C13.3058 30.6404 15.3961 29.6288 17.6465 29.0262C19.8969 28.4236 22.1295 28.2615 24.0835 28.5342C24.2252 28.554 24.369 28.5168 24.4834 28.431C24.5977 28.3451 24.6735 28.2174 24.6941 28.0758C24.703 28.0202 24.703 27.9635 24.6941 27.9079L24.1685 24.883L31.0343 17.9007C31.1355 17.7992 31.1923 17.6617 31.1923 17.5184C31.1923 17.375 31.1355 17.2376 31.0343 17.1361C30.9586 17.0613 30.8622 17.011 30.7577 16.9918L30.7478 16.9997ZM5.22298 14.1013C5.04194 13.4277 4.98503 12.7267 5.05505 12.0327C5.06368 11.9327 5.04466 11.8323 5.00005 11.7424C4.95545 11.6525 4.88699 11.5766 4.80215 11.5229C3.18626 10.438 2.01881 8.80375 1.51647 6.92339C1.46115 6.72581 1.41373 6.50848 1.37619 6.30102C3.28875 6.03397 5.23317 6.47145 6.84706 7.53192C6.9534 7.60075 7.08057 7.62995 7.20628 7.61442C7.33199 7.59889 7.44823 7.5396 7.53462 7.44696C8.6182 6.50734 9.90155 5.82685 11.2873 5.45713C12.6731 5.08741 14.1248 5.03817 15.5325 5.31314C15.6242 5.33887 15.7213 5.33887 15.813 5.31314C15.8832 5.29246 15.9483 5.25759 16.0044 5.21068C16.0604 5.16378 16.1063 5.10585 16.139 5.04049C17.006 3.31473 18.4708 1.963 20.2605 1.23716C20.3316 1.43474 20.3948 1.63231 20.458 1.84569C20.9619 3.71786 20.7702 5.70918 19.9187 7.45091C19.8685 7.54021 19.845 7.64203 19.8509 7.74429C19.8569 7.84655 19.892 7.94496 19.9522 8.02783C20.3662 8.59739 20.6716 9.23836 20.8532 9.91863V9.94629C21.112 10.9144 20.9638 12.1532 20.9638 12.1651C20.9505 12.2702 20.9684 12.3769 21.0156 12.4718C21.0627 12.5667 21.1368 12.6456 21.2286 12.6985C21.272 12.7242 25.2354 15.5298 22.989 19.4556C22.2055 20.7623 21.2934 21.9874 20.2664 23.1127C20.0783 23.2661 19.8412 23.3468 19.5986 23.3399C19.3224 23.3622 19.0483 23.2765 18.834 23.1009C18.6556 22.9298 18.5512 22.6958 18.543 22.4488C18.5349 22.2018 18.6237 21.9615 18.7905 21.7791C18.8066 21.7643 18.8218 21.7484 18.8359 21.7317C19.7512 20.5862 20.398 19.2501 20.7287 17.8217C20.8857 17.1447 20.7677 16.4331 20.4006 15.8431C20.0335 15.253 19.4474 14.8327 18.7707 14.6743L18.6581 14.6506L13.7405 13.7457C13.6611 13.7309 13.5795 13.7341 13.5016 13.7549C13.4236 13.7758 13.3514 13.8138 13.29 13.8662L8.49681 17.9876C6.83125 17.1361 5.67741 15.7669 5.23286 14.1072L5.22298 14.1013Z" fill="#4EC977"/>
<path d="M84.4812 16.298C85.6785 14.994 86.6545 14.6798 87.9724 15.2548C88.2371 15.3714 88.6125 15.729 88.5868 15.9265C88.5098 16.5035 88.2628 17.0586 88.0534 17.6119C88.0356 17.6533 87.7827 17.6395 87.6582 17.6C86.9884 17.4024 86.7928 17.6968 86.7968 18.3271C86.8146 20.4629 86.7415 22.6026 86.8146 24.7364C86.9667 29.2372 83.5269 30.6479 80.2313 30.3594C78.713 30.2638 77.2822 29.6158 76.2087 28.5378C75.616 27.9451 75.6654 27.623 76.4063 26.8268C76.8943 26.2953 77.3151 26.4316 77.7636 26.8722C78.9234 28.032 80.3598 28.3363 81.9127 28.1189C83.679 27.872 84.6175 26.2637 84.1374 24.2346C82.4165 25.3469 80.6028 25.6453 78.6982 24.8431C77.7014 24.4296 76.874 23.6907 76.351 22.7468C75.2129 20.7395 75.5607 18.0841 77.1729 16.4877C79.0433 14.6304 81.4794 14.5672 84.4812 16.298ZM84.4338 20.1606C84.438 19.7641 84.363 19.3707 84.2132 19.0036C84.0633 18.6365 83.8417 18.303 83.5612 18.0227C83.2807 17.7424 82.9471 17.521 82.5798 17.3714C82.2126 17.2218 81.8192 17.147 81.4227 17.1515C81.026 17.1468 80.6324 17.2231 80.2662 17.3757C79.8999 17.5283 79.5686 17.754 79.2925 18.0389C79.0164 18.3239 78.8013 18.6622 78.6604 19.0331C78.5195 19.404 78.4557 19.7997 78.4729 20.1961C78.5006 21.9052 79.7335 23.14 81.4366 23.1598C81.8322 23.1667 82.2253 23.0939 82.5922 22.9456C82.9591 22.7974 83.2924 22.5767 83.5721 22.2967C83.8519 22.0168 84.0724 21.6834 84.2204 21.3164C84.3684 20.9493 84.441 20.5563 84.4338 20.1606Z" fill="#1A231D"/>
<path d="M109.005 19.1547C109.117 15.9086 110.498 13.5535 113.405 12.3265C116.368 11.0759 119.194 11.4631 121.681 13.6147C122.317 14.166 122.371 14.569 121.954 15.0254C121.031 16.037 120.632 16.1397 119.909 15.5549C117.558 13.6523 114.655 13.838 112.93 16.0113C111.405 17.9258 111.597 20.8895 113.355 22.5985C115.056 24.2542 117.82 24.3095 119.727 22.7269C119.91 22.5616 120.132 22.4447 120.371 22.3869C120.611 22.329 120.862 22.3321 121.1 22.3957C121.338 22.4593 121.557 22.5815 121.736 22.7511C121.915 22.9208 122.049 23.1325 122.126 23.3671C122.214 23.6239 122.048 24.0941 121.839 24.3115C120.231 25.9671 118.212 26.5856 115.953 26.4532C114.338 26.376 112.795 25.7622 111.568 24.709C110.34 23.6558 109.5 22.2234 109.178 20.6385C109.095 20.1473 109.037 19.652 109.005 19.1547Z" fill="#1A231D"/>
<path d="M132.692 16.3299C132.731 15.6285 132.921 15.1167 133.788 15.1444C134.974 15.1859 135.116 15.2807 135.116 16.4879C135.116 19.2777 135.116 22.0675 135.116 24.8572C135.116 25.8609 134.946 26.1178 134.267 26.1632C133.055 26.2442 132.884 26.1138 132.662 24.8948C131.477 26.017 130.094 26.5998 128.513 26.4418C126.933 26.2837 125.64 25.6041 124.696 24.3119C123.106 22.1386 123.208 18.8964 124.923 16.8633C125.911 15.7035 127.18 15.1365 128.663 15.0199C129.809 14.935 130.173 15.0772 132.692 16.3299ZM126.37 20.7358C126.346 22.6029 127.65 24.0017 129.424 24.0155C131.198 24.0294 132.484 22.6523 132.494 20.7496C132.504 18.847 131.25 17.4541 129.477 17.4323C127.705 17.4106 126.395 18.7778 126.37 20.7358Z" fill="#1A231D"/>
<path d="M99.0016 21.346C98.8969 23.1617 100.869 24.6712 102.918 24.2603C103.708 24.1022 104.427 23.6517 105.156 23.2842C105.729 22.9938 106.047 23.1044 106.646 23.877C106.992 24.3176 106.798 24.6258 106.47 24.9439C104.573 26.7873 100.669 26.975 98.4009 25.339C96.2177 23.7584 95.5084 20.6229 96.7551 18.0623C97.8853 15.7428 100.519 14.581 103.291 15.1836C105.628 15.6914 107.252 17.7185 107.347 20.2436C107.381 21.1485 107.179 21.3618 106.264 21.3638L99.0016 21.346ZM104.553 19.6172C104.417 17.8983 103.093 16.9243 101.291 17.1199C99.9914 17.2621 98.9206 18.4634 99.0826 19.6172H104.553Z" fill="#1A231D"/>
<path d="M56.3588 24.7652C55.4974 25.9724 54.3376 26.496 52.9072 26.4604C50.5224 26.3991 48.7759 24.6822 48.7344 22.2955C48.6988 20.2328 48.7344 18.1681 48.7225 16.1055C48.7225 15.4199 49.0248 15.1591 49.6946 15.1531C51.4728 15.1413 51.4728 15.1255 51.4728 16.8879C51.4728 18.4171 51.4609 19.9483 51.4728 21.4756C51.4866 22.501 51.7652 23.4177 52.8123 23.8465C54.3534 24.4945 55.9301 23.4849 55.9893 21.764C56.0506 19.9858 56.0111 18.2215 56.015 16.4492C56.015 15.2638 56.1237 15.1531 57.2933 15.1512H57.6588C58.6368 15.1512 58.7811 15.2974 58.7831 16.305C58.7831 18.4665 58.7831 20.626 58.7831 22.7875C58.7831 23.0305 58.7929 23.2735 58.7969 23.5145C58.8068 23.965 59.0458 24.1389 59.4627 24.0105C60.3222 23.7418 60.253 24.4728 60.4506 24.9114C60.662 25.3955 60.7134 25.8262 60.1108 26.1245C58.6685 26.8417 57.2874 26.4327 56.5544 25.0339C56.4946 24.9405 56.4293 24.8508 56.3588 24.7652Z" fill="#1A231D"/>
<path d="M65.4161 16.5063C66.3329 16.038 67.1943 15.3998 68.1447 15.1489C68.7575 14.9828 69.4 14.9575 70.0239 15.0751C70.6479 15.1926 71.2372 15.4498 71.7475 15.8276C72.2579 16.2053 72.6762 16.6936 72.9709 17.256C73.2657 17.8183 73.4293 18.4401 73.4496 19.0748C73.5385 21.1592 73.4733 23.2495 73.4753 25.3399C73.4753 25.8694 73.2145 26.1618 72.6849 26.1638C70.8258 26.1638 70.6973 26.3613 70.7329 24.3856C70.7606 22.9038 70.7724 21.422 70.7329 19.9401C70.6736 18.0276 69.176 16.9765 67.4591 17.585C66.4712 17.9407 65.9555 18.7369 65.9338 20.0666C65.9061 21.6472 65.9338 23.2278 65.9041 24.8084C65.9041 25.2727 66.0879 25.9346 65.4813 26.067C64.8252 26.1724 64.1551 26.1543 63.5056 26.0136C63.3495 25.9859 63.1895 25.4525 63.1855 25.1502C63.1578 22.9393 63.1717 20.7304 63.1697 18.5196C63.1697 17.5317 63.1697 17.5317 62.2194 17.6384C62.1265 17.6502 61.9625 17.6779 61.9506 17.6502C61.7353 17.1286 61.4646 16.611 61.3698 16.0696C61.3322 15.8503 61.6326 15.4512 61.8775 15.3248C63.3001 14.57 64.5468 15.0521 65.4161 16.5063Z" fill="#1A231D"/>
<path d="M45.7801 22.055C45.5647 25.56 42.8066 26.7514 40.0504 26.4017C38.8569 26.2722 37.7456 25.7315 36.907 24.8724C36.3676 24.3212 36.3696 24.011 36.8971 23.4499C37.0315 23.3096 37.1816 23.1832 37.3061 23.035C37.7664 22.4916 38.2051 22.4916 38.7108 23.0014C39.4162 23.7127 40.2638 24.0821 41.2793 23.8253C42.3541 23.5566 42.9884 22.7979 43.0121 21.5946C43.0575 19.3364 43.0259 17.0781 43.0476 14.8198C43.0476 14.3436 42.8204 14.2488 42.4193 14.2547C41.5461 14.2547 40.6708 14.2685 39.7975 14.2547C39.0191 14.2389 38.8946 14.067 38.8926 13.1147C38.8906 12.1624 39.0408 11.9688 39.7995 11.9628C41.4986 11.947 43.1998 11.9628 44.8989 11.9628C45.543 11.9628 45.8295 12.2632 45.8255 12.8954C45.8255 14.4246 45.8255 15.9539 45.8255 17.4851C45.8137 17.4693 45.873 20.5317 45.7801 22.055Z" fill="#1A231D"/>
<path d="M138.738 17.3382C136.891 17.1268 136.839 17.0972 136.82 16.2733C136.798 15.3941 136.861 15.3526 138.778 15.0878C138.778 14.3153 138.811 13.521 138.778 12.7307C138.738 11.976 139.06 11.6401 139.791 11.5097C141.508 11.2015 141.542 11.2094 141.542 12.9836V15.1609C142.368 15.1609 143.113 15.1609 143.857 15.1609C144.602 15.1609 144.794 15.3783 144.794 16.2041C144.794 17.03 144.608 17.2513 143.867 17.2651C143.126 17.2789 142.376 17.2651 141.581 17.2651C141.581 19.1697 141.518 20.9874 141.607 22.7972C141.656 23.8305 142.664 24.285 143.685 23.8799C144.707 23.4749 144.717 23.4848 145.069 24.2751C145.533 25.3242 145.464 25.5573 144.539 26.0019C142.217 27.1103 138.695 26.2489 138.78 22.5186C138.805 21.0961 138.752 17.6543 138.738 17.3382Z" fill="#1A231D"/>
<path d="M90.4374 12.0617C90.4236 11.3524 90.6706 11.0027 91.37 10.8407C93.1186 10.4337 93.2193 10.4949 93.2193 12.3126C93.2193 15.8361 93.2193 19.3588 93.2193 22.8809C93.2193 23.857 93.2193 23.8372 94.1558 23.8985C94.2665 23.9149 94.3722 23.9552 94.4657 24.0166C94.5592 24.078 94.6382 24.1591 94.6972 24.2541C95.3788 25.5699 95.035 26.2081 93.5631 26.4274C91.7316 26.71 90.469 25.6529 90.4532 23.7858C90.4374 21.8555 90.473 14.0375 90.4374 12.0617Z" fill="#1A231D"/>
</svg>
