<svg width="90" height="74" viewBox="0 0 90 74" fill="none" xmlns="http://www.w3.org/2000/svg">
<rect x="90" width="74" height="90" rx="2" transform="rotate(90 90 0)" fill="#F4F6F8"/>
<path d="M22.9038 48.3231C22.2397 48.3231 21.7462 48.1526 21.4231 47.8115C21.1 47.4526 20.9385 47.0128 20.9385 46.4923V46.0885C20.9385 45.5679 21.1 45.1372 21.4231 44.7962C21.7462 44.4372 22.2397 44.2577 22.9038 44.2577C23.5679 44.2577 24.0615 44.4372 24.3846 44.7962C24.7077 45.1372 24.8692 45.5679 24.8692 46.0885V46.4923C24.8692 47.0128 24.7077 47.4526 24.3846 47.8115C24.0615 48.1526 23.5679 48.3231 22.9038 48.3231ZM34.0048 48.3231C32.9996 48.3231 32.1022 48.1526 31.3125 47.8115C30.5227 47.4705 29.8586 46.9859 29.3202 46.3577C28.7817 45.7115 28.3689 44.9397 28.0817 44.0423C27.7945 43.1269 27.6509 42.1128 27.6509 41C27.6509 39.8872 27.7945 38.8821 28.0817 37.9846C28.3689 37.0692 28.7817 36.2974 29.3202 35.6692C29.8586 35.0231 30.5227 34.5295 31.3125 34.1885C32.1022 33.8474 32.9996 33.6769 34.0048 33.6769C35.4048 33.6769 36.5535 33.991 37.4509 34.6192C38.3484 35.2474 39.0035 36.0821 39.4163 37.1231L36.9932 38.2538C36.7958 37.6077 36.4458 37.0962 35.9432 36.7192C35.4586 36.3244 34.8125 36.1269 34.0048 36.1269C32.9279 36.1269 32.1112 36.4679 31.5548 37.15C31.0163 37.8141 30.7471 38.6846 30.7471 39.7615V42.2654C30.7471 43.3423 31.0163 44.2218 31.5548 44.9038C32.1112 45.5679 32.9279 45.9 34.0048 45.9C34.8663 45.9 35.5484 45.6936 36.0509 45.2808C36.5714 44.85 36.9843 44.2846 37.2894 43.5846L39.524 44.7692C39.0573 45.9179 38.3573 46.7974 37.424 47.4077C36.4907 48.0179 35.3509 48.3231 34.0048 48.3231ZM46.76 48.3231C45.4318 48.3231 44.319 48.0897 43.4215 47.6231C42.5241 47.1564 41.7433 46.5103 41.0792 45.6846L42.9639 43.9615C43.4844 44.5897 44.0587 45.0833 44.6869 45.4423C45.3331 45.7833 46.078 45.9538 46.9215 45.9538C47.7831 45.9538 48.4203 45.7923 48.8331 45.4692C49.2639 45.1282 49.4792 44.6615 49.4792 44.0692C49.4792 43.6205 49.3267 43.2436 49.0215 42.9385C48.7344 42.6154 48.2228 42.409 47.4869 42.3192L46.1946 42.1577C44.7587 41.9782 43.628 41.5654 42.8023 40.9192C41.9946 40.2551 41.5908 39.2769 41.5908 37.9846C41.5908 37.3026 41.7164 36.7013 41.9677 36.1808C42.219 35.6423 42.569 35.1936 43.0177 34.8346C43.4844 34.4577 44.0318 34.1705 44.66 33.9731C45.3062 33.7756 46.0151 33.6769 46.7869 33.6769C48.0433 33.6769 49.0664 33.8744 49.8562 34.2692C50.6639 34.6641 51.3818 35.2115 52.01 35.9115L50.2062 37.6346C49.8472 37.2038 49.3715 36.8359 48.7792 36.5308C48.2049 36.2077 47.5408 36.0462 46.7869 36.0462C45.9792 36.0462 45.378 36.2077 44.9831 36.5308C44.6062 36.8538 44.4177 37.2756 44.4177 37.7962C44.4177 38.3346 44.5882 38.7385 44.9292 39.0077C45.2703 39.2769 45.8177 39.4744 46.5715 39.6L47.8639 39.7615C49.4074 39.9949 50.5292 40.4526 51.2292 41.1346C51.9472 41.7987 52.3062 42.6962 52.3062 43.8269C52.3062 44.509 52.1715 45.1282 51.9023 45.6846C51.651 46.2231 51.2831 46.6897 50.7985 47.0846C50.3139 47.4795 49.7305 47.7846 49.0485 48C48.3664 48.2154 47.6036 48.3231 46.76 48.3231ZM58.322 48L53.5566 34H56.4643L58.5912 40.3808L60.0181 45.2808H60.1797L61.6066 40.3808L63.7874 34H66.5874L61.7681 48H58.322Z" fill="#D8DFE5"/>
</svg>
