<svg width="90" height="74" viewBox="0 0 90 74" fill="none" xmlns="http://www.w3.org/2000/svg">
<rect x="90" width="74" height="90" rx="2" transform="rotate(90 90 0)" fill="#F4F6F8"/>
<mask id="mask0" mask-type="alpha" maskUnits="userSpaceOnUse" x="0" y="30" width="90" height="44">
<rect x="90" y="30" width="44" height="90" rx="2" transform="rotate(90 90 30)" fill="#F4F6F8"/>
</mask>
<g mask="url(#mask0)">
<path opacity="0.3" d="M62.4074 42.6157C75 30.4239 87.3827 31.1859 92 33.0908V73.73L24 75C31.5556 69.2851 49.8148 54.8074 62.4074 42.6157Z" fill="#D8DFE5"/>
<path opacity="0.3" d="M36.8944 45.0119C25.8534 44.5161 6.36439 59.6795 -2 67.3232V76L99 74.1407C88.5445 64.4311 61.4857 45.0119 36.8944 45.0119Z" fill="#E2E7EA"/>
</g>
<path fill-rule="evenodd" clip-rule="evenodd" d="M37 16C37 17.0234 36.7804 17.9955 36.3857 18.8718C38.5409 20.065 40 22.3621 40 25C40 28.866 36.866 32 33 32C31.1331 32 29.437 31.2692 28.182 30.0781C26.7147 31.8622 24.4902 33 22 33C18.6106 33 15.7136 30.8922 14.5481 27.9159C14.2069 27.9713 13.8568 28 13.5 28C9.91015 28 7 25.0899 7 21.5C7 18.0201 9.73456 15.179 13.172 15.0081C13.8462 12.1373 16.4235 10 19.5 10C21.3628 10 23.0425 10.7836 24.2276 12.0391C25.4895 10.2036 27.6042 9 30 9C33.866 9 37 12.134 37 16Z" fill="#E6EAEE"/>
</svg>
