<svg width="90" height="74" viewBox="0 0 90 74" fill="none" xmlns="http://www.w3.org/2000/svg">
<rect x="90" width="74" height="90" rx="2" transform="rotate(90 90 0)" fill="#F4F6F8"/>
<path d="M64.39 42.6724C63.2031 41.4056 60.7781 40.6731 57.3415 40.6731C55.5024 40.6731 53.3766 40.8563 51.0617 41.2877C49.6469 39.8898 48.3594 38.3682 47.2145 36.741C46.3281 35.5068 45.5519 34.1998 44.8408 32.913C46.1966 28.6672 46.8551 25.2042 46.8551 22.7094C46.8551 19.9137 45.8448 17 42.9491 17C42.0552 17 41.1688 17.5418 40.693 18.3396C39.3885 20.6913 39.9757 25.8527 42.2254 30.9475C41.3673 33.5465 40.4211 36.1155 39.3885 38.65C38.4109 40.9751 37.3383 43.2589 36.1735 45.4958C29.6596 48.1486 25.4405 51.2379 25.0499 53.6687C24.8734 54.583 25.1739 55.4196 25.8124 56.0919C26.0339 56.275 26.869 57 28.2837 57C32.6067 57 37.1588 49.8469 39.4799 45.5284C41.2539 44.9276 43.0342 44.3783 44.8069 43.8301C46.6803 43.3119 48.5781 42.8866 50.4933 42.5558C55.0579 46.7438 59.0804 47.4036 61.1023 47.4036C63.5937 47.4036 64.4801 46.3713 64.7806 45.5284C65.2501 44.4372 64.8983 43.2356 64.3637 42.6148L64.3962 42.68L64.39 42.6724ZM62.0814 44.436C61.9048 45.344 61.0122 45.9511 59.7665 45.9511C59.4147 45.9511 59.1142 45.8859 58.7562 45.8332C56.4864 45.2838 54.3618 44.1287 52.2423 42.3049C53.8863 42.0284 55.5505 41.8887 57.2175 41.8873C58.4495 41.8873 59.5199 41.9462 60.236 42.1293C61.0573 42.3062 62.3618 42.8606 62.0688 44.4422H62.1014L62.0814 44.436ZM49.523 41.5812C47.8733 41.9186 46.2338 42.3042 44.6066 42.7377C43.1912 43.1228 41.7887 43.5541 40.4013 44.0308C41.1217 42.6016 41.7935 41.1483 42.4157 39.6735C43.1331 37.9689 43.7203 36.2117 44.3137 34.5774C44.8946 35.6034 45.5456 36.6356 46.1979 37.5563C47.267 39.0125 48.3825 40.3985 49.5043 41.6063V41.5737L49.523 41.5812ZM41.7559 19.0307C41.8603 18.8166 42.0212 18.6353 42.2212 18.5064C42.4212 18.3775 42.6525 18.3059 42.8902 18.2994C44.1359 18.2994 44.37 19.7494 44.37 20.9121C44.37 22.865 43.7766 25.8313 42.7663 29.2154C40.9923 24.4993 40.8758 20.5534 41.7622 19.0307H41.7559ZM35.242 47.2907C32.2236 52.3793 29.3216 55.535 27.5413 55.535C27.1958 55.535 26.8953 55.4108 26.6612 55.234C26.3031 54.8677 26.1266 54.4438 26.2443 53.9596C26.6023 52.1372 29.9801 49.5898 35.2496 47.2894L35.242 47.2907Z" fill="#D8DFE5"/>
</svg>
