<svg width="90" height="74" viewBox="0 0 90 74" fill="none" xmlns="http://www.w3.org/2000/svg">
<rect x="90" width="74" height="90" rx="2" transform="rotate(90 90 0)" fill="#F4F6F8"/>
<path d="M58.9091 25H31.0909C29.3755 25 28 26.335 28 28V46C28 46.7956 28.3256 47.5587 28.9053 48.1213C29.485 48.6839 30.2711 49 31.0909 49H38.8182H51.1818H58.9091C60.6091 49 61.9845 47.65 61.9845 46L62 28C62 27.2044 61.6744 26.4413 61.0947 25.8787C60.515 25.3161 59.7289 25 58.9091 25ZM58.9091 46H31.0909V28H58.9091V46ZM51.1818 37L40.3636 43V31L51.1818 37Z" fill="#D8DFE5"/>
</svg>
