<svg width="170" height="60" viewBox="0 0 170 60" fill="none" xmlns="http://www.w3.org/2000/svg">
<path d="M25.1706 18.8692C27.3487 15.2101 34.3781 3.20913 26.061 2.06757C21.0451 1.3791 16.2176 6.10059 13.1307 9.46185C9.01674 13.9415 8.18833 19.5837 11.3112 24.9085C16.6957 34.0899 32.6184 42.1873 23.0801 54.4083C21.008 57.0632 17.1929 57.9846 13.9824 57.7376C5.33285 57.0723 4.29924 47.0217 2.1748 40.4714" stroke="#FCCA3D" stroke-width="2.49632" stroke-linecap="round"/>
<path d="M37.7138 40.4727C33.2613 42.2187 29.0256 45.6722 28.9645 50.9253C28.9071 55.8662 32.6634 56.7353 35.933 53.5965C41.0576 48.6769 36.2161 39.8451 30.0485 43.9569" stroke="#FCCA3D" stroke-width="2.49632" stroke-linecap="round"/>
<path d="M48.5874 42.0441C49.2611 37.5525 43.7411 43.7211 43.1563 44.8048C42.0423 46.869 41.8483 49.8391 43.6074 51.6433C45.4452 53.5282 47.9554 52.3077 49.8865 51.4628" stroke="#FCCA3D" stroke-width="2.49632" stroke-linecap="round"/>
<path d="M56.057 42.0469C55.4361 45.3583 54.7678 48.7679 54.4331 52.1152" stroke="#FCCA3D" stroke-width="2.49632" stroke-linecap="round"/>
<path d="M55.7324 36.5245C55.475 36.8622 53.9107 38.4645 54.7941 38.9062C55.5217 39.27 56.5619 38.262 56.797 37.6612C57.0933 36.904 56.4823 36.3293 55.7324 36.344C54.6865 36.3645 54.2263 37.3738 53.7837 38.1484" stroke="#FCCA3D" stroke-width="2.49632" stroke-linecap="round"/>
<path d="M66.1255 42.3682C65.2049 41.8422 64.2633 41.0548 63.3468 41.9713C61.8194 43.4987 61.0098 45.9396 60.6945 48.0159C60.5346 49.0684 60.4729 52.579 62.589 51.4622C64.478 50.4652 65.2837 47.6629 65.7827 45.7604C66.1513 44.3553 66.418 42.9212 66.4503 41.4661C66.4783 40.2079 66.4503 43.2813 66.4503 43.3787C66.4503 44.4478 65.6675 51.8536 67.7495 50.8126" stroke="#FCCA3D" stroke-width="2.49632" stroke-linecap="round"/>
<path d="M70.0229 35.5486C72.3547 33.8174 74.5284 32.4212 75.5443 29.5581C76.537 26.7604 77.7035 22.2806 77.1501 19.2372C77.0938 18.9276 76.6406 19.6327 76.4825 19.9049C75.0988 22.2879 74.6254 25.1927 74.173 27.862C73.2739 33.1666 72.4544 38.7398 72.7114 44.1373C72.8324 46.6773 73.3053 48.0907 74.8947 49.839" stroke="#FCCA3D" stroke-width="2.49632" stroke-linecap="round"/>
<path d="M87.5612 35.5488C87.5228 38.9324 87.1587 42.3133 86.7492 45.6712C86.3905 48.6133 87.1883 43.1775 87.3086 42.6219C87.4298 42.0617 89.4992 35.1989 90.6466 35.9638C91.941 36.8267 91.0641 41.7495 91.1519 43.109C91.3242 45.7805 92.4172 40.7927 92.5773 40.3123C92.7428 39.8157 95.6272 31.3444 96.619 33.2573C97.238 34.4511 97.003 36.2973 96.9438 37.5697C96.7892 40.8946 95.9032 44.0671 95.2477 47.3132C95.0035 48.5229 93.796 53.9975 96.3303 51.4632" stroke="#FCCA3D" stroke-width="2.49632" stroke-linecap="round"/>
<path d="M101.527 43.0176C103.024 42.055 104.45 40.8124 104.45 38.8675C104.45 37.3368 102.493 38.7922 102.104 39.3367C101.056 40.8041 99.5372 44.6156 101.274 46.121C102.753 47.4022 105.514 45.0862 106.723 44.3167" stroke="#FCCA3D" stroke-width="2.49632" stroke-linecap="round"/>
<path d="M113.868 38.4739C111.745 38.9875 109.683 40.2177 109.141 42.5157C108.907 43.5073 108.875 45.1386 110.296 44.8974C115.755 43.9703 116.258 33.8076 116.43 29.8491C116.48 28.7014 116.623 25.2674 116.448 26.4028C116.046 29.0201 115.556 31.6261 115.005 34.2156C114.624 36.0041 111.965 47.0776 116.791 44.32" stroke="#FCCA3D" stroke-width="2.49632" stroke-linecap="round"/>
<path d="M121.339 37.8242C121.303 38.7025 120.395 44.6294 121.014 44.3199" stroke="#FCCA3D" stroke-width="2.49632" stroke-linecap="round"/>
<path d="M122.313 30.0273C121.94 30.6908 120.799 32.0729 121.05 32.9504C121.296 33.8113 121.999 33.5377 122.295 32.8963C123.147 31.0502 122.678 30.4941 121.014 31.3265" stroke="#FCCA3D" stroke-width="2.49632" stroke-linecap="round"/>
<path d="M133.031 34.25C129.773 34.7712 126.073 38.178 125.777 41.6478C125.669 42.9258 126.532 43.5954 127.708 43.0913C129.586 42.2864 130.753 40.3245 131.371 38.4722C131.556 37.9155 132.657 32.9469 132.219 35.928C131.875 38.2683 131.478 41.7272 133.031 43.6687" stroke="#FCCA3D" stroke-width="2.49632" stroke-linecap="round"/>
<path d="M152.842 31.3281C149.992 32.7305 146.605 37.8234 148.115 41.1799C149.455 44.1569 153.728 40.9639 154.827 39.5199C156.164 37.7637 157.041 33.6644 154.899 32.122C153.084 30.8153 151.707 31.4349 150.569 32.952" stroke="#FCCA3D" stroke-width="2.49632" stroke-linecap="round"/>
<path d="M152.518 32.3012C160.556 35.159 165.775 26.7065 167.566 20.1399C167.88 18.989 168.176 17.7855 168.36 16.6034C168.501 15.6989 167.105 17.975 166.718 18.8047C162.273 28.3426 159.785 38.8766 158.905 49.3343C158.76 51.0694 158.482 59.124 161.414 53.9715C163.405 50.4708 162.734 45.3485 161.937 41.5756C161.793 40.8969 160.478 35.6256 158.617 36.8663C156.193 38.4824 164.398 35.9025 167.133 34.8995" stroke="#FCCA3D" stroke-width="2.49632" stroke-linecap="round"/>
</svg>
