<svg width="42" height="42" viewBox="0 0 42 42" fill="none" xmlns="http://www.w3.org/2000/svg">
<path d="M31.6431 14.3306H33.4122C34.8461 14.3306 36.0066 15.491 36.0066 16.925V33.4135C36.0066 34.8458 34.8461 36.0063 33.4122 36.0063H15.258C13.8241 36.0063 12.6636 34.8458 12.6636 33.4118V31.0042" stroke="#3C97F0" stroke-width="1.5" stroke-linecap="round" stroke-linejoin="round"/>
<path fill-rule="evenodd" clip-rule="evenodd" d="M7.66332 31.0042H26.5245C27.64 31.0042 28.6804 30.4473 29.299 29.5186L30.5228 27.6811C31.2531 26.5857 31.6433 25.2985 31.6433 23.9813V10.9959C31.6433 9.15342 30.151 7.66113 28.3086 7.66113H11.635C9.79254 7.66113 8.30026 9.15342 8.30026 10.9959V22.7608C8.30026 23.7962 8.05849 24.8166 7.59663 25.7437L6.1727 28.5915C5.61747 29.7003 6.42448 31.0042 7.66332 31.0042Z" stroke="#3C97F0" stroke-width="1.5" stroke-linecap="round" stroke-linejoin="round"/>
<path d="M23.7528 16.9866L19.0626 21.6769L16.248 18.864" stroke="#3C97F0" stroke-width="1.5" stroke-linecap="round" stroke-linejoin="round"/>
<path d="M14.9645 5.99365V9.32837" stroke="#3C97F0" stroke-width="1.5" stroke-linecap="round" stroke-linejoin="round"/>
<path d="M24.9689 5.99365V9.32837" stroke="#3C97F0" stroke-width="1.5" stroke-linecap="round" stroke-linejoin="round"/>
</svg>
