<svg width="30" height="29" viewBox="0 0 30 29" fill="none" xmlns="http://www.w3.org/2000/svg">
<path d="M22.5462 9.8125H23.7901C24.7983 9.8125 25.6143 10.6285 25.6143 11.6367V23.2302C25.6143 24.2373 24.7983 25.0532 23.7901 25.0532H11.0254C10.0171 25.0532 9.20117 24.2373 9.20117 23.229V21.5361" stroke="#40A1FF" stroke-width="1.5" stroke-linecap="round" stroke-linejoin="round"/>
<path fill-rule="evenodd" clip-rule="evenodd" d="M5.68536 21.5342H18.9471C19.7314 21.5342 20.463 21.1426 20.8979 20.4896L21.7585 19.1977C22.272 18.4274 22.5463 17.5224 22.5463 16.5962V7.46582C22.5463 6.17036 21.497 5.12109 20.2016 5.12109H8.47793C7.18247 5.12109 6.13321 6.17036 6.13321 7.46582V15.738C6.13321 16.4661 5.96321 17.1835 5.63847 17.8354L4.63727 19.8378C4.24687 20.6174 4.8143 21.5342 5.68536 21.5342Z" stroke="#40A1FF" stroke-width="1.5" stroke-linecap="round" stroke-linejoin="round"/>
<path d="M16.9985 11.6797L13.7006 14.9775L11.7217 12.9998" stroke="#40A1FF" stroke-width="1.5" stroke-linecap="round" stroke-linejoin="round"/>
<path d="M10.8191 3.94922V6.29395" stroke="#40A1FF" stroke-width="1.5" stroke-linecap="round" stroke-linejoin="round"/>
<path d="M17.8538 3.94922V6.29395" stroke="#40A1FF" stroke-width="1.5" stroke-linecap="round" stroke-linejoin="round"/>
</svg>
