<svg width="24" height="24" viewBox="0 0 24 24" fill="none" xmlns="http://www.w3.org/2000/svg">
<path d="M12 13.5006V12C13.105 12 14.0008 11.1042 14.0008 9.99912C14.0008 8.89409 13.105 7.99829 12 7.99829C10.8949 7.99829 9.99915 8.89409 9.99915 9.99912" stroke="#AAAAAA" stroke-width="1.5" stroke-linecap="round" stroke-linejoin="round"/>
<path d="M13.0004 20.9417C12.6685 20.9826 12.3344 21.0033 12 21.0037C7.02733 21.0037 2.99622 16.9726 2.99622 12C2.99622 7.02733 7.02733 2.99622 12 2.99622C16.9726 2.99622 21.0037 7.02733 21.0037 12C21.0033 12.3344 20.9826 12.6685 20.9417 13.0004" stroke="#AAAAAA" stroke-width="1.5" stroke-linecap="round" stroke-linejoin="round"/>
<path d="M20.0034 17.0021L17.5023 19.5031L16.0017 18.0025" stroke="#AAAAAA" stroke-width="1.5" stroke-linecap="round" stroke-linejoin="round"/>
<path d="M12 15.9517C11.9723 15.9517 11.9499 15.974 11.9499 16.0017C11.9499 16.0293 11.9723 16.0517 12 16.0517C12.0276 16.0517 12.05 16.0293 12.05 16.0017C12.05 15.974 12.0276 15.9517 12 15.9517" stroke="#AAAAAA" stroke-width="1.5" stroke-linecap="round" stroke-linejoin="round"/>
</svg>
