<svg width="24" height="24" viewBox="0 0 24 24" fill="none" xmlns="http://www.w3.org/2000/svg">
<path d="M15.8047 14.8047L18.1954 17.1954" stroke="#AAAAAA" stroke-width="1.5" stroke-linecap="round" stroke-linejoin="round"/>
<path d="M8 12H12" stroke="#AAAAAA" stroke-width="1.5" stroke-linecap="round" stroke-linejoin="round"/>
<path d="M8 15H10" stroke="#AAAAAA" stroke-width="1.5" stroke-linecap="round" stroke-linejoin="round"/>
<path d="M9 21H6.5C5.11929 21 4 19.8807 4 18.5V8.37167C4 7.57602 4.31607 6.81296 4.87868 6.25035L7.25035 3.87868C7.81296 3.31607 8.57602 3 9.37167 3H16.5C17.8807 3 19 4.11929 19 5.5V9" stroke="#AAAAAA" stroke-width="1.5" stroke-linecap="round" stroke-linejoin="round"/>
<path d="M4.02356 7.99994H7.49999C8.32842 7.99994 8.99999 7.32837 8.99999 6.49994V3.02356" stroke="#AAAAAA" stroke-width="1.5" stroke-linecap="round" stroke-linejoin="round"/>
<path d="M19.7054 15.7054L20.46 16.46C20.6944 16.6944 20.8261 17.0124 20.8261 17.3439C20.8261 17.6754 20.6944 17.9934 20.46 18.2278L19.3439 19.3439" stroke="#AAAAAA" stroke-width="1.5" stroke-linecap="round" stroke-linejoin="round"/>
<path fill-rule="evenodd" clip-rule="evenodd" d="M15.0863 20.3244C14.7705 20.6401 14.3582 20.8411 13.915 20.8953L13.1217 20.9924C12.8126 21.0302 12.5035 20.9219 12.2857 20.6994C12.0678 20.4768 11.9661 20.1655 12.0105 19.8573L12.1308 19.0214C12.1923 18.594 12.3907 18.1981 12.6961 17.8928L18.0897 12.4993C18.4094 12.1796 18.8431 12 19.2952 12C19.7474 12 20.181 12.1796 20.5007 12.4993V12.4993C20.8204 12.8191 21.0001 13.2527 21.0001 13.7048C21.0001 14.157 20.8204 14.5906 20.5007 14.9103L15.0863 20.3244Z" stroke="#AAAAAA" stroke-width="1.5" stroke-linecap="round" stroke-linejoin="round"/>
</svg>
