<svg width="36" height="36" viewBox="0 0 36 36" fill="none" xmlns="http://www.w3.org/2000/svg">
<circle cx="18" cy="18" r="18" fill="#2CC87B"/>
<path d="M25.1317 16.8837H19.1163V10.8682C19.1163 10.5942 18.7442 10 18 10C17.2558 10 16.8837 10.5942 16.8837 10.8682V16.8837H10.8682C10.5942 16.8837 10 17.2558 10 18C10 18.7441 10.5942 19.1163 10.8682 19.1163H16.8837V25.1318C16.8837 25.4057 17.2558 26 18 26C18.7442 26 19.1163 25.4057 19.1163 25.1318V19.1163H25.1318C25.4058 19.1163 26.0001 18.7442 26.0001 18C26.0001 17.2558 25.4057 16.8837 25.1317 16.8837Z" fill="white"/>
</svg>
