<svg width="40" height="40" viewBox="0 0 40 40" fill="none" xmlns="http://www.w3.org/2000/svg">
<path opacity="0.2" d="M33.1702 0H6.8298C3.05781 0 0 3.05781 0 6.8298V33.1702C0 36.9422 3.05781 40 6.8298 40H33.1702C36.9422 40 40 36.9422 40 33.1702V6.8298C40 3.05781 36.9422 0 33.1702 0Z" fill="#DEDEDE"/>
<path fill-rule="evenodd" clip-rule="evenodd" d="M18.5875 17.0765L23.7635 20.1378C24.4181 20.5245 24.4181 21.4725 23.7635 21.8591L18.5875 24.9205C17.9208 25.3151 17.0781 24.8338 17.0781 24.0591V17.9378C17.0781 17.1631 17.9208 16.6818 18.5875 17.0765Z" fill="#AEAEAE"/>
<path d="M32 21C32 27.6274 26.6274 33 20 33C13.3726 33 8 27.6274 8 21C8 14.3726 13.3726 9 20 9C26.6274 9 32 14.3726 32 21ZM9.09665 21C9.09665 27.0218 13.9782 31.9033 20 31.9033C26.0218 31.9033 30.9033 27.0218 30.9033 21C30.9033 14.9782 26.0218 10.0967 20 10.0967C13.9782 10.0967 9.09665 14.9782 9.09665 21Z" fill="#DEDEDE"/>
</svg>
