<svg width="92" height="77" viewBox="0 0 92 77" fill="none" xmlns="http://www.w3.org/2000/svg">
<g clip-path="url(#clip0_5290_22537)">
<path opacity="0.1" d="M85.1722 24.3489L61.978 10.9577C61.3957 10.6215 49.3361 2.41775 48.9999 3.00001L47.4999 5.49988L41.4999 14.9999C41.4999 14.9999 40.6954 16.1681 40.3593 16.7504C40.0231 17.3326 20.8812 50.4874 20.8812 50.4874C20.545 51.0696 20.7445 51.8142 21.3268 52.1504L57.1724 72.8459C57.7547 73.182 58.4993 72.9825 58.8355 72.4003L85.6179 26.0118C85.9539 25.4295 85.7545 24.685 85.1722 24.3489Z" fill="#40A1FF"/>
</g>
<path d="M15.6969 10.2182V22.6093H3.3058C2.08118 22.6093 1.08838 23.6021 1.08838 24.8267V63.7829C1.08838 65.0075 2.08118 66.0003 3.3058 66.0003H44.6968C45.9214 66.0003 46.9142 65.0075 46.9142 63.7829V10.218V10.2179C46.914 8.99341 45.9214 8.00073 44.6968 8.00073H17.9144C16.6897 8.00073 15.6969 8.99353 15.6969 10.2182Z" fill="url(#paint0_linear_5290_22537)" stroke="white" stroke-width="2"/>
<path d="M18.3794 9.09306C17.9246 8.90429 17.4008 9.00803 17.0524 9.35601L2.44382 23.9646C1.96779 24.4394 1.96687 25.2102 2.44165 25.6862C2.6706 25.9157 2.9816 26.0445 3.30573 26.0439H17.9143C18.5866 26.0439 19.1317 25.4988 19.1317 24.8265V10.2179C19.1316 9.72533 18.8346 9.28126 18.3794 9.09306Z" fill="#FCCA3D"/>
<g opacity="0.6">
<path d="M24 47V40" stroke="white" stroke-width="1.5" stroke-linecap="round" stroke-linejoin="round"/>
<path d="M21.833 42L24 39.833L26.167 42" stroke="white" stroke-width="1.5" stroke-linecap="round" stroke-linejoin="round"/>
<path d="M28 47H30.56C32.488 47 34.06 45.428 34.06 43.5C34.06 41.572 32.488 40 30.56 40H30.125V39C30.125 35.69 27.435 33 24.125 33C21.148 33 18.68 35.178 18.212 38.023C15.835 38.144 13.94 40.093 13.94 42.5C13.94 44.985 15.955 47 18.44 47H20" stroke="white" stroke-width="1.5" stroke-linecap="round" stroke-linejoin="round"/>
</g>
<defs>
<linearGradient id="paint0_linear_5290_22537" x1="12.497" y1="10.6807" x2="44.7704" y2="66.0699" gradientUnits="userSpaceOnUse">
<stop stop-color="#419FFF"/>
<stop offset="1" stop-color="#0779FF"/>
</linearGradient>
<clipPath id="clip0_5290_22537">
<rect width="56" height="56" fill="white" transform="translate(43) rotate(30)"/>
</clipPath>
</defs>
</svg>
