<svg width="96" height="96" viewBox="0 0 96 96" fill="none" xmlns="http://www.w3.org/2000/svg">
<path d="M48 92C72.3005 92 92 72.3005 92 48C92 23.6995 72.3005 4 48 4C23.6995 4 4 23.6995 4 48C4 72.3005 23.6995 92 48 92Z" fill="#00ABFF" stroke="#DBF3FF" stroke-width="8"/>
<path d="M42.75 34V65.5M37.5 34H56.75C57.6783 34 58.5685 34.3687 59.2249 35.0251C59.8813 35.6815 60.25 36.5717 60.25 37.5V58.5C60.25 59.4283 59.8813 60.3185 59.2249 60.9749C58.5685 61.6313 57.6783 62 56.75 62H37.5C37.0359 62 36.5908 61.8156 36.2626 61.4874C35.9344 61.1592 35.75 60.7141 35.75 60.25V35.75C35.75 35.2859 35.9344 34.8408 36.2626 34.5126C36.5908 34.1844 37.0359 34 37.5 34V34Z" stroke="white" stroke-width="3" stroke-linecap="round" stroke-linejoin="round"/>
<path d="M49.75 41H53.25" stroke="white" stroke-width="3" stroke-linecap="round" stroke-linejoin="round"/>
<path d="M49.75 48H53.25" stroke="white" stroke-width="3" stroke-linecap="round" stroke-linejoin="round"/>
</svg>