<svg width="50" height="50" viewBox="0 0 50 50" fill="none" xmlns="http://www.w3.org/2000/svg">
<path fill-rule="evenodd" clip-rule="evenodd" d="M33.004 30.5403C30.2309 30.5507 27.9744 28.3112 27.9639 25.5382C27.9534 22.7651 30.1929 20.5086 32.966 20.4981C35.739 20.4876 37.9955 22.7271 38.0061 25.5001C38.013 26.8324 37.4894 28.1126 36.5509 29.0582C35.6124 30.0038 34.3362 30.5371 33.004 30.5403V30.5403Z" stroke="#E0E0E0" stroke-width="2" stroke-linecap="round" stroke-linejoin="round"/>
<path fill-rule="evenodd" clip-rule="evenodd" d="M41.7568 43.008H24.2495C23.5597 43.006 23.001 42.4473 22.999 41.7575V40.507C23.0071 37.7477 25.2419 35.513 28.0011 35.5049H38.0053C40.7645 35.513 42.9993 37.7477 43.0074 40.507V41.7575C43.0053 42.4473 42.4466 43.006 41.7568 43.008V43.008Z" stroke="#E0E0E0" stroke-width="2" stroke-linecap="round" stroke-linejoin="round"/>
<path d="M32.4502 12.995C28.9361 7.96513 22.5544 5.81226 16.7115 7.68554C10.8686 9.55882 6.92837 15.021 6.99397 21.1565C7.05958 27.292 11.1157 32.6686 16.9973 34.4166" stroke="#E0E0E0" stroke-width="2" stroke-linecap="round" stroke-linejoin="round"/>
<path d="M23.6657 19.6641L20.3343 22.9995L18.3335 20.9986" stroke="#E0E0E0" stroke-width="2" stroke-linecap="round" stroke-linejoin="round"/>
</svg>
