<svg width="32" height="32" viewBox="0 0 32 32" fill="none" xmlns="http://www.w3.org/2000/svg">
<circle cx="16" cy="16" r="16" fill="#EBF5FF"/>
<path d="M21 23H20V21.5C19.9992 20.8372 19.7356 20.2018 19.2669 19.7331C18.7982 19.2644 18.1628 19.0008 17.5 19H14.5C13.8372 19.0008 13.2018 19.2644 12.7331 19.7331C12.2644 20.2018 12.0008 20.8372 12 21.5V23H11V21.5C11.0011 20.5721 11.3702 19.6825 12.0263 19.0263C12.6825 18.3702 13.5721 18.0011 14.5 18H17.5C18.4279 18.0011 19.3175 18.3702 19.9737 19.0263C20.6298 19.6825 20.9989 20.5721 21 21.5V23Z" fill="#40A1FF"/>
<path d="M10.5 11C10.3674 11 10.2402 11.0527 10.1464 11.1464C10.0527 11.2402 10 11.3674 10 11.5V16H11V11.5C11 11.3674 10.9473 11.2402 10.8536 11.1464C10.7598 11.0527 10.6326 11 10.5 11Z" fill="#40A1FF"/>
<path d="M10 9V10H12.5V13.5C12.5 14.4283 12.8687 15.3185 13.5251 15.9749C14.1815 16.6313 15.0717 17 16 17C16.9283 17 17.8185 16.6313 18.4749 15.9749C19.1313 15.3185 19.5 14.4283 19.5 13.5V10H22V9H10ZM13.5 10H18.5V11.5H13.5V10ZM16 16C15.337 16 14.7011 15.7366 14.2322 15.2678C13.7634 14.7989 13.5 14.163 13.5 13.5V12.5H18.5V13.5C18.5 14.163 18.2366 14.7989 17.7678 15.2678C17.2989 15.7366 16.663 16 16 16Z" fill="#40A1FF"/>
</svg>
