<svg width="24" height="24" viewBox="0 0 24 24" fill="none" xmlns="http://www.w3.org/2000/svg">
<path fill-rule="evenodd" clip-rule="evenodd" d="M9.55802 21.4562C5.88602 21.4562 2.74902 20.9012 2.74902 18.6772C2.74902 16.4532 5.86602 14.4492 9.55802 14.4492C13.23 14.4492 16.366 16.4342 16.366 18.6572C16.366 20.8802 13.25 21.4562 9.55802 21.4562Z" stroke="#40A1FF" stroke-width="1.5" stroke-linecap="round" stroke-linejoin="round"/>
<path fill-rule="evenodd" clip-rule="evenodd" d="M9.55837 11.2776C11.9684 11.2776 13.9224 9.32356 13.9224 6.91356C13.9224 4.50356 11.9684 2.54956 9.55837 2.54956C7.14837 2.54956 5.19437 4.50356 5.19437 6.91356C5.18537 9.31556 7.12637 11.2696 9.52737 11.2776H9.55837Z" stroke="#40A1FF" stroke-width="1.5" stroke-linecap="round" stroke-linejoin="round"/>
<path d="M16.8003 10.0789C18.2033 9.70388 19.2373 8.42488 19.2373 6.90288C19.2383 5.31488 18.1113 3.98888 16.6133 3.68188" stroke="#40A1FF" stroke-width="1.5" stroke-linecap="round" stroke-linejoin="round"/>
<path d="M17.46 13.6536C19.448 13.6536 21.146 15.0016 21.146 16.2046C21.146 16.9136 20.561 17.6416 19.671 17.8506" stroke="#40A1FF" stroke-width="1.5" stroke-linecap="round" stroke-linejoin="round"/>
</svg>
