<svg width="18" height="20" viewBox="0 0 18 20" fill="none" xmlns="http://www.w3.org/2000/svg">
<path d="M15.8088 7.021C15.3573 7.021 14.7592 7.011 14.0146 7.011C12.1987 7.011 10.7055 5.508 10.7055 3.675V0.459C10.7055 0.206 10.5036 0 10.253 0H4.96363C2.49517 0 0.5 2.026 0.5 4.509V15.284C0.5 17.889 2.59022 20 5.16958 20H13.0463C15.5058 20 17.5 17.987 17.5 15.502V7.471C17.5 7.217 17.299 7.012 17.0475 7.013C16.6247 7.016 16.1177 7.021 15.8088 7.021Z" fill="#B7D8FF"/>
<path d="M13.084 0.567301C12.785 0.256301 12.263 0.470301 12.263 0.901301V3.5383C12.263 4.6443 13.174 5.5543 14.28 5.5543C14.977 5.5623 15.945 5.5643 16.767 5.5623C17.188 5.5613 17.402 5.0583 17.11 4.7543C16.055 3.6573 14.166 1.6913 13.084 0.567301Z" fill="#B7D8FF"/>
<path fill-rule="evenodd" clip-rule="evenodd" d="M5.97392 9.3876H9.35892C9.76992 9.3876 10.1039 9.0546 10.1039 8.6436C10.1039 8.2326 9.76992 7.8986 9.35892 7.8986H5.97392C5.56292 7.8986 5.22992 8.2326 5.22992 8.6436C5.22992 9.0546 5.56292 9.3876 5.97392 9.3876ZM5.97402 14.3818H11.418C11.829 14.3818 12.163 14.0488 12.163 13.6378C12.163 13.2268 11.829 12.8928 11.418 12.8928H5.97402C5.56302 12.8928 5.23002 13.2268 5.23002 13.6378C5.23002 14.0488 5.56302 14.3818 5.97402 14.3818Z" fill="#5BA1F2"/>
</svg>
