<svg width="18" height="20" viewBox="0 0 18 20" fill="none" xmlns="http://www.w3.org/2000/svg">
<path fill-rule="evenodd" clip-rule="evenodd" d="M11.6067 0.0118984C11.5636 0.0042104 11.5193 0.000198364 11.474 0.000198364C11.4287 0.000198364 11.3844 0.0042104 11.3413 0.0118984H5.08369C2.5964 0.0118984 0.499695 2.02973 0.499695 4.4909V15.2039C0.499695 17.8045 2.50429 19.8649 5.08369 19.8649H13.0727C15.526 19.8649 17.5517 17.703 17.5517 15.2039V6.0379C17.5517 5.84428 17.4768 5.65817 17.3427 5.5185L12.2777 0.242497C12.1363 0.0951762 11.9409 0.0118984 11.7367 0.0118984H11.6067ZM10.724 1.5111L5.08369 1.5119C3.41223 1.5119 1.99969 2.8713 1.99969 4.4909V15.2039C1.99969 16.9851 3.34208 18.3649 5.08369 18.3649H13.0727C14.675 18.3649 16.0517 16.8956 16.0517 15.2039L16.051 6.98328L15.1755 6.98627C14.8419 6.98586 14.4624 6.98516 14.0404 6.9842C12.2709 6.98046 10.8267 5.59348 10.7292 3.84759L10.724 3.6592V1.5111ZM15.2302 5.48404L14.0437 5.4842C13.0382 5.48207 12.224 4.66565 12.224 3.6592V2.35264L15.2302 5.48404ZM11.284 12.8078C11.6982 12.8078 12.034 13.1436 12.034 13.5578C12.034 13.9375 11.7518 14.2513 11.3858 14.301L11.284 14.3078H5.88699C5.47278 14.3078 5.13699 13.972 5.13699 13.5578C5.13699 13.1781 5.41915 12.8643 5.78522 12.8146L5.88699 12.8078H11.284ZM9.99249 8.6056C9.99249 8.19139 9.65671 7.8556 9.24249 7.8556H5.88649L5.78472 7.86244C5.41865 7.91211 5.13649 8.2259 5.13649 8.6056C5.13649 9.01981 5.47228 9.3556 5.88649 9.3556H9.24249L9.34426 9.34875C9.71034 9.29909 9.99249 8.98529 9.99249 8.6056Z" fill="white"/>
</svg>
