<svg width="56" height="56" viewBox="0 0 56 56" fill="none" xmlns="http://www.w3.org/2000/svg">
<circle cx="28" cy="28" r="28" fill="#EBF5FF"/>
<path d="M41.583 21.8043L39.2845 19.5107C39.0192 19.2426 38.7245 19.0639 38.312 19.1235C37.9583 19.1235 37.6047 19.2724 37.3395 19.5405L35.0704 21.8341C34.5989 21.2086 33.8916 20.7915 33.0665 20.7915H26.7012C25.6697 18.4383 23.3417 16.8 20.6305 16.8C16.9764 16.8 14 19.8086 14 23.5022C14 26.2128 15.6208 28.5362 17.9194 29.5788V36.6383C17.9194 38.0383 19.0392 39.2001 20.4537 39.2001H33.096C34.481 39.2001 35.6303 38.0383 35.6303 36.6383V29.8766L41.642 23.7405C42.143 23.2043 42.1135 22.3405 41.583 21.8043ZM28.9113 30.8894L30.3848 32.3788L28.1746 33.4213C28.0567 33.4809 27.9683 33.4213 27.9094 33.3915C27.8505 33.332 27.821 33.2426 27.8505 33.1235L28.9113 30.8894ZM32.0056 31.2469C31.9172 31.3362 31.8288 31.3958 31.7404 31.4852L29.7954 29.549C29.8838 29.4596 29.9428 29.3405 30.0312 29.2809L35.7776 23.4426L37.7521 25.4383L32.0056 31.2469ZM15.5913 23.5022C15.5913 20.7022 17.8604 18.4086 20.6305 18.4086C23.4006 18.4086 25.6697 20.7022 25.6697 23.5022C25.6697 26.3022 23.4006 28.5958 20.6305 28.5958C17.831 28.5958 15.5913 26.3022 15.5913 23.5022ZM34.0095 36.6383C34.0095 37.1745 33.5675 37.6213 33.0665 37.6213H20.4243C19.8938 37.6213 19.4812 37.1745 19.4812 36.6383V30.0554C19.8643 30.1149 20.218 30.1745 20.6305 30.1745C24.2847 30.1745 27.2611 27.166 27.2611 23.4724C27.2611 23.1149 27.2021 22.7575 27.1432 22.4H33.0665C33.4496 22.4 33.8032 22.6383 33.9506 22.9958L28.9408 28.1192C28.3514 28.7149 27.8799 29.4001 27.5263 30.1447L26.4654 32.4681C26.1413 33.183 26.2886 33.9873 26.819 34.5235C27.1727 34.8809 27.6147 35.0596 28.0862 35.0596C28.3514 35.0596 28.6167 35 28.8524 34.8809L31.1215 33.8086C31.8582 33.4511 32.536 32.9745 33.1254 32.3788L34.0095 31.4852V36.6383ZM38.8719 24.2766L36.8975 22.2809L38.3709 20.7915L40.3453 22.7873L38.8719 24.2766Z" fill="#40A1FF"/>
<path d="M23.0829 21.3907C22.7588 21.0928 22.2578 21.1226 21.9631 21.4205L20.0181 23.5354L19.252 22.7311C18.9573 22.4035 18.4563 22.4035 18.1321 22.7013C17.808 22.9992 17.808 23.5056 18.1027 23.8333L19.4288 25.2928C19.5761 25.4418 19.7824 25.5609 20.0181 25.5609C20.2244 25.5609 20.4602 25.4716 20.6075 25.2928L23.1419 22.5524C23.4366 22.195 23.4071 21.6886 23.0829 21.3907Z" fill="#40A1FF"/>
</svg>
