<svg width="20" height="20" viewBox="0 0 20 20" fill="none" xmlns="http://www.w3.org/2000/svg">
<path d="M1.49658 17.0029V2.99708C1.49658 1.89162 2.39195 0.996246 3.49742 0.996246H16.5028C17.6083 0.996246 18.5037 1.89162 18.5037 2.99708V13.0012C18.5037 14.1067 17.6083 15.0021 16.5028 15.0021H3.49742C2.39195 15.0021 1.49658 15.8975 1.49658 17.0029V17.0029C1.49658 18.1084 2.39195 19.0037 3.49742 19.0037H16.5028C17.6083 19.0037 18.5037 18.1084 18.5037 17.0029V12.0008" stroke="url(#paint0_linear_3492_160)" stroke-width="1.5" stroke-linecap="round" stroke-linejoin="round"/>
<path d="M14.502 5.65519H5.49829" stroke="url(#paint1_linear_3492_160)" stroke-width="1.5" stroke-linecap="round" stroke-linejoin="round"/>
<path d="M14.502 9.99999H5.49829" stroke="url(#paint2_linear_3492_160)" stroke-width="1.5" stroke-linecap="round" stroke-linejoin="round"/>
<defs>
<linearGradient id="paint0_linear_3492_160" x1="5.53576" y1="1.53647" x2="14.8773" y2="20.8843" gradientUnits="userSpaceOnUse">
<stop stop-color="#419FFF"/>
<stop offset="1" stop-color="#0779FF"/>
</linearGradient>
<linearGradient id="paint1_linear_3492_160" x1="7.63668" y1="5.185" x2="7.70367" y2="6.50705" gradientUnits="userSpaceOnUse">
<stop stop-color="#419FFF"/>
<stop offset="1" stop-color="#0779FF"/>
</linearGradient>
<linearGradient id="paint2_linear_3492_160" x1="7.63668" y1="9.5298" x2="7.70367" y2="10.8519" gradientUnits="userSpaceOnUse">
<stop stop-color="#419FFF"/>
<stop offset="1" stop-color="#0779FF"/>
</linearGradient>
</defs>
</svg>
