<svg width="20" height="16" viewBox="0 0 20 16" fill="none" xmlns="http://www.w3.org/2000/svg">
<path d="M19.4004 3.42629L17.8096 1.85591C17.626 1.67236 17.4221 1.54999 17.1366 1.59078C16.8918 1.59078 16.6471 1.69275 16.4635 1.8763L14.8932 3.44668C14.5668 3.0184 14.0774 2.73287 13.5063 2.73287H9.1011C8.38729 1.1217 6.77612 0 4.89982 0C2.37089 0 0.311035 2.05985 0.311035 4.58878C0.311035 6.44469 1.43274 8.03547 3.02351 8.74928V13.5828C3.02351 14.5413 3.79851 15.3367 4.77745 15.3367H13.5267C14.4853 15.3367 15.2807 14.5413 15.2807 13.5828V8.95322L19.4412 4.75194C19.7879 4.38484 19.7675 3.79339 19.4004 3.42629ZM10.6307 9.64664L11.6504 10.6664L10.1208 11.3802C10.0392 11.421 9.97807 11.3802 9.93728 11.3598C9.89649 11.319 9.87609 11.2578 9.89649 11.1762L10.6307 9.64664ZM12.7721 9.89137C12.7109 9.95256 12.6498 9.99335 12.5886 10.0545L11.2425 8.72888C11.3037 8.6677 11.3445 8.58612 11.4057 8.54533L15.3826 4.54799L16.7491 5.91443L12.7721 9.89137ZM1.41234 4.58878C1.41234 2.67169 2.98273 1.10131 4.89982 1.10131C6.81691 1.10131 8.38729 2.67169 8.38729 4.58878C8.38729 6.50587 6.81691 8.07625 4.89982 8.07625C2.96233 8.07625 1.41234 6.50587 1.41234 4.58878ZM14.159 13.5828C14.159 13.9499 13.853 14.2558 13.5063 14.2558H4.75705C4.38995 14.2558 4.10443 13.9499 4.10443 13.5828V9.07559C4.36956 9.11638 4.61429 9.15717 4.89982 9.15717C7.42874 9.15717 9.4886 7.09731 9.4886 4.56839C9.4886 4.32365 9.44781 4.07892 9.40702 3.83418H13.5063C13.7715 3.83418 14.0162 3.99734 14.1182 4.24207L10.6511 7.74994C10.2432 8.15783 9.91688 8.62691 9.67215 9.13677L8.93794 10.7275C8.7136 11.217 8.81557 11.7677 9.18268 12.1348C9.42741 12.3795 9.73333 12.5019 10.0596 12.5019C10.2432 12.5019 10.4267 12.4611 10.5899 12.3795L12.1603 11.6453C12.6702 11.4006 13.1392 11.0743 13.5471 10.6664L14.159 10.0545V13.5828ZM17.5241 5.11904L16.1576 3.7526L17.1774 2.73287L18.5438 4.09931L17.5241 5.11904Z" fill="#525252"/>
<path d="M6.59719 3.14314C6.37284 2.9392 6.02614 2.95959 5.82219 3.16354L4.47615 4.61155L3.94589 4.0609C3.74194 3.83656 3.39524 3.83656 3.1709 4.04051C2.94656 4.24445 2.94656 4.59116 3.1505 4.8155L4.06826 5.81483C4.17023 5.91681 4.31299 5.99838 4.47615 5.99838C4.61891 5.99838 4.78207 5.9372 4.88404 5.81483L6.63797 3.93853C6.84192 3.6938 6.82153 3.34709 6.59719 3.14314Z" fill="#525252"/>
</svg>
