<svg width="12" height="12" viewBox="0 0 12 12" fill="none" xmlns="http://www.w3.org/2000/svg">
<path d="M4.5 5.5C5.60457 5.5 6.5 4.60457 6.5 3.5C6.5 2.39543 5.60457 1.5 4.5 1.5C3.39543 1.5 2.5 2.39543 2.5 3.5C2.5 4.60457 3.39543 5.5 4.5 5.5Z" stroke="#40A1FF" stroke-linecap="round" stroke-linejoin="round"/>
<path d="M1.5 10.5V9.5C1.5 8.96957 1.71071 8.46086 2.08579 8.08579C2.46086 7.71071 2.96957 7.5 3.5 7.5H5.5C6.03043 7.5 6.53914 7.71071 6.91421 8.08579C7.28929 8.46086 7.5 8.96957 7.5 9.5V10.5" stroke="#40A1FF" stroke-linecap="round" stroke-linejoin="round"/>
<path d="M8 1.56509C8.43021 1.67524 8.81152 1.92544 9.08382 2.27625C9.35612 2.62705 9.50392 3.05851 9.50392 3.50259C9.50392 3.94668 9.35612 4.37813 9.08382 4.72894C8.81152 5.07974 8.43021 5.32994 8 5.44009" stroke="#40A1FF" stroke-linecap="round" stroke-linejoin="round"/>
<path d="M10.5 10.5V9.50004C10.4975 9.05862 10.349 8.63044 10.0776 8.28224C9.80631 7.93405 9.42741 7.68539 9 7.57504" stroke="#40A1FF" stroke-linecap="round" stroke-linejoin="round"/>
</svg>
