<svg width="15" height="16" viewBox="0 0 15 16" fill="none" xmlns="http://www.w3.org/2000/svg">
<path d="M5.15027 16C3.81464 16 2.47857 15.5022 1.46231 14.5063C-0.561588 12.5228 -0.448384 9.17191 1.57724 7.1901L7.65755 1.24131C8.37379 0.540565 9.313 0.0693277 10.3241 0.00784368C11.4858 -0.062905 12.5903 0.347269 13.4043 1.14446C14.2191 1.94122 14.6383 3.02182 14.566 4.15801C14.5032 5.14681 14.0211 6.06612 13.3053 6.76687L7.33429 12.6087C6.85307 13.0795 6.22851 13.4067 5.55101 13.4648C4.71596 13.5364 3.9188 13.2509 3.33556 12.6799C2.75189 12.1092 2.46006 11.3293 2.53323 10.5123C2.59263 9.84949 2.92708 9.23802 3.4083 8.76763L7.57017 4.69621C7.65411 4.61409 7.79055 4.61409 7.87449 4.69621L8.48312 5.29168C8.56706 5.3738 8.56706 5.50729 8.48312 5.58941L4.28725 9.69452C4.06472 9.91224 3.89426 10.1851 3.83874 10.4883C3.74921 10.9752 3.90373 11.4493 4.24894 11.7871C4.8098 12.3358 5.78688 12.3366 6.34903 11.7871L12.4918 5.77723C13.0018 5.27694 13.2829 4.61325 13.2829 3.90702C13.2829 3.2008 13.0018 2.53669 12.4913 2.03766C11.9808 1.53863 11.302 1.26321 10.5806 1.26321C9.85922 1.26321 9.18043 1.53821 8.66993 2.03766L2.37871 8.19238C0.850666 9.68778 0.850666 12.1206 2.37871 13.616C3.90761 15.111 6.39423 15.1106 7.92227 13.616L14.0241 7.64618C14.108 7.56406 14.2445 7.56406 14.3284 7.64618L14.937 8.24165C15.021 8.32376 15.021 8.45726 14.937 8.53938L8.83522 14.5092C7.81982 15.5031 6.48505 16 5.15027 16Z" fill="#515151"/>
</svg>
