<svg width="16" height="16" viewBox="0 0 16 16" fill="none" xmlns="http://www.w3.org/2000/svg">
<path d="M14.5018 1.92386C12.5077 -0.0703241 9.26289 -0.0703241 7.26845 1.92386L1.0682 8.12408C-0.356145 9.54858 -0.356051 11.8664 1.06839 13.2908C1.78067 14.003 2.71598 14.3592 3.65167 14.3591C4.58711 14.359 5.52292 14.003 6.23508 13.2908L11.9185 7.60724C12.3325 7.19324 12.5606 6.64277 12.5606 6.05727C12.5606 5.47174 12.3327 4.9213 11.9186 4.50717C11.0638 3.65252 9.67305 3.65255 8.81849 4.50733L5.10176 8.22396C4.81642 8.50927 4.81642 8.97192 5.1017 9.2573C5.38701 9.5427 5.84967 9.54261 6.13505 9.2573L9.8518 5.54064C10.1367 5.25574 10.6002 5.25567 10.8851 5.54058C11.0231 5.67858 11.0992 5.86208 11.0992 6.05724C11.0992 6.25239 11.0232 6.43583 10.8851 6.57389L5.20173 12.2574C4.34701 13.112 2.95639 13.1121 2.10173 12.2575C1.24707 11.4027 1.24701 10.012 2.10158 9.15733L8.3018 2.95721C9.72636 1.53271 12.0441 1.53271 13.4685 2.95721C14.1586 3.64721 14.5386 4.56467 14.5386 5.54052C14.5386 6.51636 14.1586 7.43383 13.4685 8.12389L7.26836 14.3242C6.98305 14.6095 6.98305 15.0722 7.26842 15.3575C7.41111 15.5003 7.59811 15.5715 7.78508 15.5715C7.97208 15.5715 8.15908 15.5002 8.30177 15.3575L14.5018 9.15727C15.4679 8.19124 16 6.9068 16 5.54055C16 4.17433 15.4679 2.88989 14.5018 1.92386Z" fill="#40A1FF"/>
</svg>
