<svg width="24" height="24" viewBox="0 0 24 24" fill="none" xmlns="http://www.w3.org/2000/svg">
<path fill-rule="evenodd" clip-rule="evenodd" d="M9.60241 15.1365C9.41041 15.1365 9.21841 15.0635 9.07241 14.9165C8.77941 14.6235 8.77941 14.1495 9.07241 13.8565L13.8644 9.06448C14.1574 8.77148 14.6314 8.77148 14.9244 9.06448C15.2174 9.35748 15.2174 9.83148 14.9244 10.1245L10.1324 14.9165C9.98641 15.0635 9.79441 15.1365 9.60241 15.1365Z" fill="#C0C0C0"/>
<path fill-rule="evenodd" clip-rule="evenodd" d="M14.3965 15.1395C14.2045 15.1395 14.0125 15.0665 13.8665 14.9195L9.07046 10.1225C8.77746 9.82952 8.77746 9.35552 9.07046 9.06252C9.36446 8.76952 9.83846 8.76952 10.1305 9.06252L14.9265 13.8595C15.2195 14.1525 15.2195 14.6265 14.9265 14.9195C14.7805 15.0665 14.5875 15.1395 14.3965 15.1395Z" fill="#C0C0C0"/>
<path fill-rule="evenodd" clip-rule="evenodd" d="M7.66494 3.50049C5.13494 3.50049 3.49994 5.23349 3.49994 7.91649V16.0845C3.49994 18.7675 5.13494 20.5005 7.66494 20.5005H16.3329C18.8639 20.5005 20.4999 18.7675 20.4999 16.0845V7.91649C20.4999 5.23349 18.8639 3.50049 16.3339 3.50049H7.66494ZM16.3329 22.0005H7.66494C4.27594 22.0005 1.99994 19.6225 1.99994 16.0845V7.91649C1.99994 4.37849 4.27594 2.00049 7.66494 2.00049H16.3339C19.7229 2.00049 21.9999 4.37849 21.9999 7.91649V16.0845C21.9999 19.6225 19.7229 22.0005 16.3329 22.0005Z" fill="#C0C0C0"/>
</svg>
