<svg width="20" height="20" viewBox="0 0 20 20" fill="none" xmlns="http://www.w3.org/2000/svg">
<path d="M17.5 8.92758V15.8242C17.5 16.7501 16.7742 17.5001 15.8783 17.5001H4.12167C3.22583 17.5001 2.5 16.7501 2.5 15.8251V5.84175C2.5 4.91675 3.22583 4.16675 4.12167 4.16675H8.58083" stroke="#40A1FF" stroke-width="1.5" stroke-linecap="round" stroke-linejoin="round"/>
<path fill-rule="evenodd" clip-rule="evenodd" d="M15.0517 2.9208C15.6117 2.3608 16.52 2.35997 17.08 2.9208V2.9208C17.64 3.4808 17.64 4.38913 17.0792 4.94913L12.2675 9.75663C12.1117 9.91247 11.9 9.99997 11.6792 9.99997H10V8.3208C10 8.09997 10.0875 7.8883 10.2442 7.73163L15.0517 2.9208V2.9208Z" stroke="#40A1FF" stroke-width="1.5" stroke-linecap="round" stroke-linejoin="round"/>
<path d="M6.66667 9.99992H5" stroke="#40A1FF" stroke-width="1.5" stroke-linecap="round" stroke-linejoin="round"/>
<path d="M5 13.3334H15" stroke="#40A1FF" stroke-width="1.5" stroke-linecap="round" stroke-linejoin="round"/>
<path d="M16.1915 5.83335L14.1665 3.80835" stroke="#40A1FF" stroke-width="1.5" stroke-linecap="round" stroke-linejoin="round"/>
</svg>
