<svg width="146" height="32" viewBox="0 0 146 32" fill="none" xmlns="http://www.w3.org/2000/svg">
<path d="M9.72449 11.5302C9.2425 11.6606 8.81583 11.9427 8.5082 12.3344C8.20057 12.7261 8.0285 13.2064 8.01771 13.7035C8.01455 13.8476 8.06902 13.9871 8.16914 14.0912C8.26926 14.1953 8.40682 14.2556 8.55157 14.2587C8.69632 14.2619 8.83639 14.2076 8.94098 14.108C9.04557 14.0083 9.1061 13.8713 9.10925 13.7272C9.1166 13.4668 9.2084 13.2157 9.37093 13.0115C9.53345 12.8072 9.75799 12.6608 10.011 12.5941C10.264 12.5275 10.5319 12.544 10.7746 12.6414C11.0174 12.7388 11.222 12.9118 11.3578 13.1345C11.4188 13.2352 11.5111 13.3133 11.6206 13.3572C11.7302 13.401 11.8511 13.4082 11.9651 13.3775C12.015 13.3636 12.063 13.3437 12.108 13.3182C12.2313 13.243 12.3198 13.1222 12.354 12.9823C12.3882 12.8424 12.3654 12.6947 12.2906 12.5714C12.0328 12.1456 11.6437 11.8142 11.1812 11.6266C10.7188 11.439 10.2078 11.4051 9.72449 11.5302Z" fill="url(#paint0_linear)"/>
<path d="M14.5942 12.6343C14.7387 12.6369 14.8782 12.5825 14.9824 12.4828C15.0866 12.3832 15.1468 12.2465 15.1499 12.1028C15.158 11.8425 15.2504 11.5918 15.4131 11.3879C15.5759 11.184 15.8004 11.0379 16.0533 10.9713C16.3062 10.9047 16.5739 10.9212 16.8167 11.0183C17.0594 11.1153 17.2642 11.2878 17.4005 11.5101C17.4613 11.6109 17.5535 11.6893 17.6631 11.7332C17.7728 11.777 17.8938 11.784 18.0078 11.7531C18.0575 11.7404 18.1049 11.7204 18.1487 11.6938C18.2724 11.6189 18.3612 11.4982 18.3958 11.3583C18.4304 11.2183 18.4079 11.0705 18.3333 10.947C18.0748 10.5232 17.6854 10.1942 17.2233 10.0093C16.7612 9.82438 16.2514 9.79346 15.7703 9.92117C15.2891 10.0489 14.8624 10.3284 14.5541 10.7177C14.2459 11.1071 14.0727 11.5854 14.0604 12.081C14.0588 12.1523 14.0714 12.2232 14.0974 12.2896C14.1234 12.356 14.1623 12.4166 14.2119 12.468C14.2615 12.5194 14.3208 12.5606 14.3864 12.5891C14.452 12.6176 14.5227 12.633 14.5942 12.6343Z" fill="url(#paint1_linear)"/>
<path d="M30.8839 16.9997L24.7196 15.8143C24.2691 13.9136 22.8898 12.5187 22.1614 11.9635C22.2238 11.1901 22.1663 10.4118 21.9908 9.65586V9.63017C21.8023 8.92886 21.5029 8.26191 21.1036 7.65442C21.6237 6.5036 21.8978 5.2577 21.9084 3.99583C21.9189 2.73395 21.6659 1.48366 21.1652 0.324361C21.1107 0.20049 21.0117 0.101384 20.8876 0.0465382C20.7634 -0.00830719 20.6231 -0.014921 20.4944 0.0279978C18.3507 0.737089 16.5498 2.2165 15.4435 4.17708C13.9752 3.9484 12.475 4.02969 11.0404 4.41569C9.60573 4.80168 8.26866 5.48374 7.11598 6.41759C5.17265 5.27183 2.87001 4.8886 0.658002 5.34278C0.524535 5.36963 0.406116 5.44552 0.326313 5.55536C0.24651 5.66519 0.211174 5.80091 0.227338 5.93551C0.375226 7.19033 0.784295 8.40068 1.42843 9.48928C2.07256 10.5779 2.93762 11.5208 3.96836 12.2579C3.93061 12.9758 4.00628 13.6952 4.19262 14.3898C4.76221 16.4446 6.2229 18.118 8.33454 19.094C8.35956 19.1075 8.38541 19.1194 8.41194 19.1296C10.5159 20.0413 12.8703 20.2073 15.0823 19.5998C15.1012 19.5978 15.1198 19.5938 15.1378 19.588C15.2583 19.5463 15.386 19.5298 15.5131 19.5396C15.6402 19.5493 15.7639 19.585 15.8765 19.6445C15.9892 19.704 16.0882 19.7859 16.1676 19.8853C16.2469 19.9846 16.3048 20.0992 16.3377 20.2218C16.3705 20.3444 16.3776 20.4725 16.3585 20.5979C16.3393 20.7234 16.2944 20.8436 16.2265 20.951C16.1586 21.0584 16.0692 21.1507 15.9638 21.2221C15.8585 21.2936 15.7394 21.3426 15.6142 21.3662L15.5626 21.382C12.532 22.5279 8.08448 22.3698 5.44096 21.0402C5.34539 20.9926 5.2378 20.9744 5.13181 20.9877C5.02583 21.0011 4.92621 21.0455 4.84557 21.1152L0.183676 25.1873C0.110485 25.2517 0.0560685 25.3345 0.026145 25.4271C-0.00377847 25.5196 -0.00810412 25.6185 0.0136226 25.7133C0.0353494 25.8081 0.0823263 25.8954 0.149617 25.9659C0.216907 26.0363 0.302027 26.0875 0.396031 26.1139L9.8766 28.7259L10.7776 31.1442C11.0158 31.7804 11.1349 32.1004 11.6112 31.972C11.6837 31.9537 11.7514 31.92 11.8096 31.8732C13.3636 30.6404 15.4633 29.6288 17.7238 29.0262C19.9843 28.4236 22.2269 28.2615 24.1897 28.5342C24.332 28.554 24.4764 28.5168 24.5913 28.431C24.7062 28.3451 24.7823 28.2174 24.803 28.0758C24.8119 28.0202 24.8119 27.9635 24.803 27.9079L24.2751 24.883L31.1717 17.9007C31.2733 17.7992 31.3304 17.6617 31.3304 17.5184C31.3304 17.375 31.2733 17.2376 31.1717 17.1361C31.0957 17.0613 30.9989 17.011 30.8938 16.9918L30.8839 16.9997ZM5.24448 14.1013C5.06262 13.4277 5.00546 12.7267 5.07578 12.0327C5.08446 11.9327 5.06535 11.8323 5.02055 11.7424C4.97574 11.6525 4.90697 11.5766 4.82175 11.5229C3.1986 10.438 2.02592 8.80375 1.52132 6.92339C1.46575 6.72581 1.41811 6.50848 1.38041 6.30102C3.30156 6.03397 5.25471 6.47145 6.87584 7.53192C6.98266 7.60075 7.1104 7.62995 7.23668 7.61442C7.36296 7.59889 7.47972 7.5396 7.56649 7.44696C8.65493 6.50734 9.94405 5.82685 11.336 5.45713C12.728 5.08741 14.1863 5.03817 15.6003 5.31314C15.6924 5.33887 15.7899 5.33887 15.8821 5.31314C15.9525 5.29246 16.0179 5.25759 16.0743 5.21068C16.1306 5.16378 16.1766 5.10585 16.2095 5.04049C17.0804 3.31473 18.5518 1.963 20.3495 1.23716C20.4209 1.43474 20.4844 1.63231 20.5479 1.84569C21.054 3.71786 20.8616 5.70918 20.0061 7.45091C19.9557 7.54021 19.9321 7.64203 19.9381 7.74429C19.9441 7.84655 19.9794 7.94496 20.0399 8.02783C20.4557 8.59739 20.7625 9.23836 20.9449 9.91863V9.94629C21.2049 10.9144 21.056 12.1532 21.056 12.1651C21.0426 12.2702 21.0606 12.3769 21.108 12.4718C21.1553 12.5667 21.2297 12.6456 21.3219 12.6985C21.3656 12.7242 25.3468 15.5298 23.0903 19.4556C22.3032 20.7623 21.3871 21.9874 20.3554 23.1127C20.1665 23.2661 19.9284 23.3468 19.6846 23.3399C19.4072 23.3622 19.1319 23.2765 18.9166 23.1009C18.7374 22.9298 18.6325 22.6958 18.6243 22.4488C18.6162 22.2018 18.7054 21.9615 18.8729 21.7791C18.8891 21.7643 18.9044 21.7484 18.9186 21.7317C19.8379 20.5862 20.4876 19.2501 20.8198 17.8217C20.9775 17.1447 20.859 16.4331 20.4902 15.8431C20.1215 15.253 19.5327 14.8327 18.8531 14.6743L18.7399 14.6506L13.8002 13.7457C13.7205 13.7309 13.6385 13.7341 13.5603 13.7549C13.482 13.7758 13.4093 13.8138 13.3477 13.8662L8.53301 17.9876C6.85996 17.1361 5.70094 15.7669 5.2544 14.1072L5.24448 14.1013Z" fill="url(#paint2_linear)"/>
<path d="M84.8586 16.2982C86.0613 14.9942 87.0417 14.6801 88.3655 15.255C88.6314 15.3716 89.0085 15.7292 88.9827 15.9268C88.9053 16.5037 88.6572 17.0589 88.4469 17.6121C88.429 17.6536 88.175 17.6398 88.0499 17.6002C87.3771 17.4027 87.1807 17.6971 87.1846 18.3273C87.2025 20.4631 87.1291 22.6029 87.2025 24.7367C87.3553 29.2374 83.9001 30.6481 80.5897 30.3597C79.0646 30.264 77.6273 29.6161 76.549 28.538C75.9536 27.9453 76.0032 27.6233 76.7475 26.827C77.2377 26.2955 77.6604 26.4319 78.1109 26.8725C79.2759 28.0322 80.7187 28.3365 82.2786 28.1192C84.0529 27.8722 84.9956 26.2639 84.5133 24.2348C82.7847 25.3472 80.9628 25.6455 79.0496 24.8434C78.0484 24.4299 77.2173 23.691 76.6919 22.7471C75.5488 20.7397 75.8981 18.0843 77.5175 16.4879C79.3963 14.6307 81.8433 14.5675 84.8586 16.2982ZM84.811 20.1608C84.8153 19.7643 84.7399 19.371 84.5894 19.0039C84.4389 18.6367 84.2162 18.3032 83.9345 18.0229C83.6528 17.7427 83.3176 17.5212 82.9488 17.3716C82.5799 17.222 82.1847 17.1473 81.7864 17.1518C81.3879 17.1471 80.9926 17.2234 80.6247 17.3759C80.2568 17.5285 79.924 17.7542 79.6467 18.0392C79.3693 18.3241 79.1533 18.6624 79.0117 19.0333C78.8702 19.4042 78.8061 19.8 78.8234 20.1964C78.8512 21.9054 80.0896 23.1403 81.8003 23.16C82.1978 23.167 82.5926 23.0942 82.9612 22.9459C83.3297 22.7976 83.6645 22.5769 83.9455 22.297C84.2265 22.017 84.448 21.6836 84.5967 21.3166C84.7454 20.9496 84.8183 20.5565 84.811 20.1608Z" fill="#1A231D"/>
<path d="M109.492 19.1547C109.605 15.9086 110.992 13.5535 113.912 12.3265C116.889 11.0759 119.727 11.4631 122.225 13.6147C122.865 14.166 122.918 14.569 122.499 15.0254C121.573 16.037 121.172 16.1397 120.445 15.5549C118.084 13.6523 115.168 13.838 113.436 16.0113C111.903 17.9258 112.096 20.8895 113.862 22.5985C115.571 24.2542 118.347 24.3095 120.263 22.7269C120.447 22.5616 120.669 22.4447 120.91 22.3869C121.151 22.329 121.403 22.3321 121.642 22.3957C121.881 22.4593 122.101 22.5815 122.281 22.7511C122.461 22.9208 122.595 23.1325 122.672 23.3671C122.761 23.6239 122.595 24.0941 122.384 24.3115C120.769 25.9671 118.74 26.5856 116.472 26.4532C114.85 26.376 113.299 25.7622 112.067 24.709C110.834 23.6558 109.989 22.2234 109.667 20.6385C109.583 20.1473 109.524 19.652 109.492 19.1547Z" fill="#1A231D"/>
<path d="M133.286 16.3299C133.326 15.6285 133.516 15.1167 134.387 15.1444C135.578 15.1859 135.721 15.2807 135.721 16.4879C135.721 19.2777 135.721 22.0675 135.721 24.8572C135.721 25.8609 135.55 26.1178 134.868 26.1632C133.651 26.2442 133.478 26.1138 133.256 24.8948C132.065 26.017 130.676 26.5998 129.088 26.4418C127.501 26.2837 126.203 25.6041 125.254 24.3119C123.656 22.1386 123.76 18.8964 125.482 16.8633C126.475 15.7035 127.749 15.1365 129.239 15.0199C130.39 14.935 130.755 15.0772 133.286 16.3299ZM126.935 20.7358C126.911 22.6029 128.221 24.0017 130.003 24.0155C131.786 24.0294 133.078 22.6523 133.087 20.7496C133.097 18.847 131.837 17.4541 130.057 17.4323C128.277 17.4106 126.961 18.7778 126.935 20.7358Z" fill="#1A231D"/>
<path d="M99.4442 21.3463C99.339 23.162 101.32 24.6715 103.378 24.2605C104.172 24.1024 104.894 23.652 105.626 23.2845C106.202 22.9941 106.521 23.1047 107.123 23.8772C107.47 24.3178 107.275 24.626 106.946 24.9441C105.041 26.7875 101.119 26.9752 98.8408 25.3393C96.6478 23.7587 95.9353 20.6231 97.1876 18.0626C98.3228 15.743 100.968 14.5813 103.753 15.1839C106.101 15.6917 107.732 17.7188 107.827 20.2438C107.861 21.1487 107.659 21.3621 106.74 21.3641L99.4442 21.3463ZM105.021 19.6175C104.884 17.8986 103.554 16.9245 101.744 17.1201C100.438 17.2624 99.3628 18.4636 99.5255 19.6175H105.021Z" fill="#1A231D"/>
<path d="M56.6099 24.7654C55.7446 25.9726 54.5796 26.4962 53.1428 26.4606C50.7473 26.3994 48.9929 24.6825 48.9512 22.2957C48.9155 20.2331 48.9512 18.1684 48.9393 16.1057C48.9393 15.4201 49.243 15.1593 49.9158 15.1534C51.7019 15.1415 51.7019 15.1257 51.7019 16.8881C51.7019 18.4173 51.69 19.9485 51.7019 21.4758C51.7158 22.5012 51.9957 23.418 53.0475 23.8467C54.5955 24.4948 56.1792 23.4851 56.2388 21.7643C56.3003 19.9861 56.2606 18.2217 56.2646 16.4495C56.2646 15.264 56.3737 15.1534 57.5486 15.1514H57.9158C58.8982 15.1514 59.0431 15.2976 59.045 16.3052C59.045 18.4667 59.045 20.6262 59.045 22.7877C59.045 23.0307 59.055 23.2737 59.0589 23.5148C59.0689 23.9653 59.309 24.1391 59.7278 24.0107C60.5911 23.742 60.5216 24.473 60.7201 24.9116C60.9324 25.3957 60.984 25.8264 60.3787 26.1248C58.9299 26.842 57.5427 26.433 56.8064 25.0341C56.7463 24.9408 56.6807 24.8511 56.6099 24.7654Z" fill="#1A231D"/>
<path d="M65.7079 16.5065C66.6287 16.0383 67.494 15.4001 68.4487 15.1492C69.0642 14.983 69.7096 14.9578 70.3364 15.0753C70.9631 15.1928 71.555 15.4501 72.0677 15.8278C72.5804 16.2055 73.0005 16.6938 73.2966 17.2562C73.5927 17.8186 73.7571 18.4404 73.7774 19.075C73.8667 21.1594 73.8012 23.2498 73.8032 25.3401C73.8032 25.8696 73.5412 26.162 73.0093 26.164C71.1418 26.164 71.0128 26.3616 71.0485 24.3858C71.0763 22.904 71.0882 21.4222 71.0485 19.9404C70.989 18.0278 69.4846 16.9767 67.76 17.5853C66.7677 17.9409 66.2497 18.7371 66.2278 20.0668C66.2001 21.6474 66.2278 23.228 66.1981 24.8086C66.1981 25.2729 66.3827 25.9348 65.7734 26.0672C65.1143 26.1726 64.4412 26.1545 63.7887 26.0139C63.632 25.9862 63.4712 25.4527 63.4672 25.1504C63.4394 22.9396 63.4533 20.7307 63.4514 18.5198C63.4514 17.5319 63.4514 17.5319 62.4967 17.6386C62.4035 17.6505 62.2387 17.6781 62.2268 17.6505C62.0105 17.1289 61.7386 16.6112 61.6434 16.0699C61.6056 15.8506 61.9073 15.4515 62.1534 15.325C63.5823 14.5703 64.8346 15.0524 65.7079 16.5065Z" fill="#1A231D"/>
<path d="M45.9837 22.0552C45.7674 25.5602 42.9968 26.7516 40.2283 26.4019C39.0294 26.2724 37.9131 25.7318 37.0707 24.8727C36.5289 24.3214 36.5309 24.0112 37.0608 23.4501C37.1958 23.3098 37.3466 23.1834 37.4716 23.0352C37.934 22.4919 38.3746 22.4919 38.8827 23.0016C39.5912 23.7129 40.4426 24.0824 41.4627 23.8255C42.5423 23.5568 43.1794 22.7981 43.2032 21.5949C43.2489 19.3366 43.2171 17.0783 43.2389 14.82C43.2389 14.3439 43.0107 14.249 42.6078 14.255C41.7306 14.255 40.8514 14.2688 39.9742 14.255C39.1923 14.2392 39.0673 14.0673 39.0653 13.1149C39.0633 12.1626 39.2141 11.969 39.9762 11.9631C41.683 11.9473 43.3918 11.9631 45.0985 11.9631C45.7455 11.9631 46.0333 12.2634 46.0293 12.8956C46.0293 14.4249 46.0293 15.9541 46.0293 17.4853C46.0174 17.4695 46.077 20.5319 45.9837 22.0552Z" fill="#1A231D"/>
<path d="M139.359 17.338C137.504 17.1266 137.452 17.0969 137.432 16.273C137.41 15.3938 137.474 15.3523 139.399 15.0876C139.399 14.3151 139.433 13.5208 139.399 12.7305C139.359 11.9758 139.683 11.6399 140.417 11.5095C142.142 11.2013 142.175 11.2092 142.175 12.9834V15.1607C143.005 15.1607 143.753 15.1607 144.501 15.1607C145.25 15.1607 145.442 15.378 145.442 16.2039C145.442 17.0297 145.256 17.251 144.511 17.2649C143.767 17.2787 143.013 17.2649 142.215 17.2649C142.215 19.1695 142.152 20.9872 142.241 22.797C142.291 23.8303 143.303 24.2847 144.329 23.8797C145.355 23.4747 145.365 23.4845 145.718 24.2748C146.184 25.324 146.115 25.5571 145.186 26.0016C142.854 27.11 139.316 26.2486 139.401 22.5184C139.427 21.0958 139.373 17.6541 139.359 17.338Z" fill="#1A231D"/>
<path d="M90.8416 12.0619C90.8277 11.3526 91.0757 11.0029 91.7783 10.8409C93.5347 10.4339 93.6359 10.4952 93.6359 12.3129C93.6359 15.8363 93.6359 19.3591 93.6359 22.8812C93.6359 23.8572 93.6359 23.8375 94.5766 23.8987C94.6878 23.9151 94.794 23.9555 94.8879 24.0169C94.9818 24.0783 95.0612 24.1593 95.1204 24.2543C95.8051 25.5702 95.4598 26.2084 93.9813 26.4277C92.1415 26.7102 90.8733 25.6532 90.8574 23.7861C90.8415 21.8558 90.8773 14.0377 90.8416 12.0619Z" fill="#1A231D"/>
<defs>
<linearGradient id="paint0_linear" x1="9.05116" y1="11.5401" x2="10.0551" y2="14.9587" gradientUnits="userSpaceOnUse">
<stop stop-color="#419FFF"/>
<stop offset="1" stop-color="#0779FF"/>
</linearGradient>
<linearGradient id="paint1_linear" x1="15.0937" y1="9.92747" x2="16.0897" y2="13.3335" gradientUnits="userSpaceOnUse">
<stop stop-color="#419FFF"/>
<stop offset="1" stop-color="#0779FF"/>
</linearGradient>
<linearGradient id="paint2_linear" x1="7.44098" y1="0.96" x2="23.6673" y2="35.7995" gradientUnits="userSpaceOnUse">
<stop stop-color="#419FFF"/>
<stop offset="1" stop-color="#0779FF"/>
</linearGradient>
</defs>
</svg>
