<svg width="20" height="20" viewBox="0 0 20 20" fill="none" xmlns="http://www.w3.org/2000/svg">
<path d="M13.3334 1.6665V4.99984" stroke="#C0C0C0" stroke-width="1.5" stroke-linecap="round" stroke-linejoin="round"/>
<path d="M6.66667 1.6665V4.99984" stroke="#C0C0C0" stroke-width="1.5" stroke-linecap="round" stroke-linejoin="round"/>
<path d="M2.5 7.50016H17.5" stroke="#C0C0C0" stroke-width="1.5" stroke-linecap="round" stroke-linejoin="round"/>
<path fill-rule="evenodd" clip-rule="evenodd" d="M15.8333 3.3335H4.16667C3.24583 3.3335 2.5 4.07933 2.5 5.00016V15.8335C2.5 16.7543 3.24583 17.5002 4.16667 17.5002H15.8333C16.7542 17.5002 17.5 16.7543 17.5 15.8335V5.00016C17.5 4.07933 16.7542 3.3335 15.8333 3.3335Z" stroke="#C0C0C0" stroke-width="1.5" stroke-linecap="round" stroke-linejoin="round"/>
<path d="M5.84412 10.6073C5.72912 10.6073 5.63579 10.7006 5.63662 10.8156C5.63662 10.9306 5.72995 11.0239 5.84495 11.0239C5.95995 11.0239 6.05329 10.9306 6.05329 10.8156C6.05329 10.7006 5.95995 10.6073 5.84412 10.6073" stroke="#C0C0C0" stroke-width="1.5" stroke-linecap="round" stroke-linejoin="round"/>
<path d="M10.0108 10.6073C9.89581 10.6073 9.80247 10.7006 9.80331 10.8156C9.80331 10.9306 9.89664 11.0239 10.0116 11.0239C10.1266 11.0239 10.22 10.9306 10.22 10.8156C10.22 10.7006 10.1266 10.6073 10.0108 10.6073" stroke="#C0C0C0" stroke-width="1.5" stroke-linecap="round" stroke-linejoin="round"/>
<path d="M14.1775 10.6073C14.0625 10.6073 13.9692 10.7006 13.97 10.8156C13.97 10.9306 14.0633 11.0239 14.1783 11.0239C14.2933 11.0239 14.3867 10.9306 14.3867 10.8156C14.3867 10.7006 14.2933 10.6073 14.1775 10.6073" stroke="#C0C0C0" stroke-width="1.5" stroke-linecap="round" stroke-linejoin="round"/>
<path d="M5.84412 13.9408C5.72912 13.9408 5.63579 14.0341 5.63662 14.1491C5.63662 14.2641 5.72995 14.3574 5.84495 14.3574C5.95995 14.3574 6.05329 14.2641 6.05329 14.1491C6.05329 14.0341 5.95995 13.9408 5.84412 13.9408" stroke="#C0C0C0" stroke-width="1.5" stroke-linecap="round" stroke-linejoin="round"/>
<path d="M10.0108 13.9408C9.89581 13.9408 9.80247 14.0341 9.80331 14.1491C9.80331 14.2641 9.89664 14.3574 10.0116 14.3574C10.1266 14.3574 10.22 14.2641 10.22 14.1491C10.22 14.0341 10.1266 13.9408 10.0108 13.9408" stroke="#C0C0C0" stroke-width="1.5" stroke-linecap="round" stroke-linejoin="round"/>
</svg>
