<svg width="20" height="20" viewBox="0 0 20 20" fill="none" xmlns="http://www.w3.org/2000/svg">
<path d="M1.66663 15.8333C1.66663 14 3.16663 12.5 4.99996 12.5H8.33329C10.1666 12.5 11.6666 14 11.6666 15.8333" stroke="#1973DA" stroke-linecap="round" stroke-linejoin="round"/>
<path d="M8.74998 5.00004C9.91665 6.16671 9.91665 8.00004 8.74998 9.08338C7.58331 10.1667 5.74998 10.25 4.66665 9.08338C3.58331 7.91671 3.49998 6.16671 4.58331 5.00004C5.66665 3.83338 7.58331 3.91671 8.74998 5.00004" stroke="#1973DA" stroke-linecap="round" stroke-linejoin="round"/>
<path d="M13.3333 11.6667H15.8333C17.2499 11.6667 18.3333 12.7501 18.3333 14.1667" stroke="#1973DA" stroke-linecap="round" stroke-linejoin="round"/>
<path d="M16.0833 5.58337C16.9167 6.41671 16.9167 7.75004 16.0833 8.50004C15.25 9.25004 13.9167 9.33338 13.1667 8.50004C12.4167 7.66671 12.3333 6.33337 13.1667 5.58337C13.9167 4.83337 15.25 4.83337 16.0833 5.58337" stroke="#1973DA" stroke-linecap="round" stroke-linejoin="round"/>
</svg>
