<svg width="20" height="20" viewBox="0 0 20 20" fill="none" xmlns="http://www.w3.org/2000/svg">
<path d="M13.3332 1.66602V4.99935" stroke="#8A8C94" stroke-width="1.5" stroke-linecap="round" stroke-linejoin="round"/>
<path d="M6.66667 1.66602V4.99935" stroke="#8A8C94" stroke-width="1.5" stroke-linecap="round" stroke-linejoin="round"/>
<path d="M2.5 7.50065H17.5" stroke="#8A8C94" stroke-width="1.5" stroke-linecap="round" stroke-linejoin="round"/>
<path fill-rule="evenodd" clip-rule="evenodd" d="M15.8333 3.33398H4.16667C3.24583 3.33398 2.5 4.07982 2.5 5.00065V15.834C2.5 16.7548 3.24583 17.5007 4.16667 17.5007H15.8333C16.7542 17.5007 17.5 16.7548 17.5 15.834V5.00065C17.5 4.07982 16.7542 3.33398 15.8333 3.33398Z" stroke="#8A8C94" stroke-width="1.5" stroke-linecap="round" stroke-linejoin="round"/>
<path d="M5.84406 10.6068C5.72906 10.6068 5.63573 10.7001 5.63656 10.8151C5.63656 10.9301 5.72989 11.0234 5.84489 11.0234C5.95989 11.0234 6.05323 10.9301 6.05323 10.8151C6.05323 10.7001 5.95989 10.6068 5.84406 10.6068" stroke="#8A8C94" stroke-width="1.5" stroke-linecap="round" stroke-linejoin="round"/>
<path d="M10.0111 10.6068C9.89605 10.6068 9.80272 10.7001 9.80355 10.8151C9.80355 10.9301 9.89688 11.0234 10.0119 11.0234C10.1269 11.0234 10.2202 10.9301 10.2202 10.8151C10.2202 10.7001 10.1269 10.6068 10.0111 10.6068" stroke="#8A8C94" stroke-width="1.5" stroke-linecap="round" stroke-linejoin="round"/>
<path d="M14.1776 10.6068C14.0626 10.6068 13.9692 10.7001 13.9701 10.8151C13.9701 10.9301 14.0634 11.0234 14.1784 11.0234C14.2934 11.0234 14.3867 10.9301 14.3867 10.8151C14.3867 10.7001 14.2934 10.6068 14.1776 10.6068" stroke="#8A8C94" stroke-width="1.5" stroke-linecap="round" stroke-linejoin="round"/>
<path d="M5.84406 13.9408C5.72906 13.9408 5.63573 14.0341 5.63656 14.1491C5.63656 14.2641 5.72989 14.3574 5.84489 14.3574C5.95989 14.3574 6.05323 14.2641 6.05323 14.1491C6.05323 14.0341 5.95989 13.9408 5.84406 13.9408" stroke="#8A8C94" stroke-width="1.5" stroke-linecap="round" stroke-linejoin="round"/>
<path d="M10.0111 13.9408C9.89605 13.9408 9.80272 14.0341 9.80355 14.1491C9.80355 14.2641 9.89688 14.3574 10.0119 14.3574C10.1269 14.3574 10.2202 14.2641 10.2202 14.1491C10.2202 14.0341 10.1269 13.9408 10.0111 13.9408" stroke="#8A8C94" stroke-width="1.5" stroke-linecap="round" stroke-linejoin="round"/>
</svg>
