<svg width="237" height="200" viewBox="0 0 237 200" fill="none" xmlns="http://www.w3.org/2000/svg">
<g clip-path="url(#clip0)">
<path d="M215.651 170.518C220.789 170.518 224.954 163.301 224.954 154.398C224.954 145.496 220.789 138.279 215.651 138.279C210.513 138.279 206.348 145.496 206.348 154.398C206.348 163.301 210.513 170.518 215.651 170.518Z" stroke="#FFCD52" stroke-miterlimit="10"/>
<path d="M207.672 161.489C206.348 158.435 207.346 156.564 207.346 154.399C207.346 149.846 208.873 144.694 211.6 141.461C212.332 143.776 212.722 146.185 212.758 148.613C212.744 153.155 210.385 158.256 207.672 161.489Z" fill="#FFCD52"/>
<path d="M201.338 164.765C206.476 164.765 210.641 157.548 210.641 148.646C210.641 139.743 206.476 132.527 201.338 132.527C196.2 132.527 192.035 139.743 192.035 148.646C192.035 157.548 196.2 164.765 201.338 164.765Z" fill="white"/>
<path d="M224.179 154.904C224.179 156.705 224.907 158.142 223.914 160.577C219.636 157.169 216.426 151.444 216.426 145.55C216.483 143.473 216.786 141.41 217.329 139.405C221.602 142.784 224.179 149.01 224.179 154.904Z" fill="#FFCD52"/>
<path d="M227.393 160.742C232.531 160.742 236.696 153.525 236.696 144.623C236.696 135.721 232.531 128.504 227.393 128.504C222.255 128.504 218.09 135.721 218.09 144.623C218.09 153.525 222.255 160.742 227.393 160.742Z" fill="white"/>
<path d="M215.651 170.517V146.344" stroke="#FFCD52" stroke-linecap="round" stroke-linejoin="round"/>
<path d="M215.651 155.812L219.419 151.506" stroke="#FFCD52" stroke-linecap="round" stroke-linejoin="round"/>
<path d="M215.651 160.955L221.082 154.748" stroke="#FFCD52" stroke-linecap="round" stroke-linejoin="round"/>
<path d="M215.651 166.259L221.257 159.844" stroke="#FFCD52" stroke-linecap="round" stroke-linejoin="round"/>
<path d="M215.651 155.826L211.085 150.598" stroke="#FFCD52" stroke-linecap="round" stroke-linejoin="round"/>
<path d="M215.651 160.964L210.045 154.554" stroke="#FFCD52" stroke-linecap="round" stroke-linejoin="round"/>
<path d="M215.651 166.268L210.045 159.858" stroke="#FFCD52" stroke-linecap="round" stroke-linejoin="round"/>
<path d="M227.393 160.742C232.531 160.742 236.696 153.525 236.696 144.623C236.696 135.721 232.531 128.504 227.393 128.504C222.255 128.504 218.09 135.721 218.09 144.623C218.09 153.525 222.255 160.742 227.393 160.742Z" stroke="#008EF8" stroke-miterlimit="10"/>
<path d="M227.393 136.568V160.742V170.584" stroke="#008EF8" stroke-linecap="round" stroke-linejoin="round"/>
<path d="M227.393 146.036L231.95 140.823" stroke="#008EF8" stroke-linecap="round" stroke-linejoin="round"/>
<path d="M227.393 151.179L232.999 144.77" stroke="#008EF8" stroke-linecap="round" stroke-linejoin="round"/>
<path d="M227.393 156.478L232.999 150.069" stroke="#008EF8" stroke-linecap="round" stroke-linejoin="round"/>
<path d="M227.393 146.046L222.822 140.823" stroke="#008EF8" stroke-linecap="round" stroke-linejoin="round"/>
<path d="M227.393 151.189L221.787 144.779" stroke="#008EF8" stroke-linecap="round" stroke-linejoin="round"/>
<path d="M227.393 156.492L221.787 150.078" stroke="#008EF8" stroke-linecap="round" stroke-linejoin="round"/>
<path d="M201.338 164.765C206.476 164.765 210.641 157.548 210.641 148.646C210.641 139.743 206.476 132.527 201.338 132.527C196.2 132.527 192.035 139.743 192.035 148.646C192.035 157.548 196.2 164.765 201.338 164.765Z" stroke="#FF5061" stroke-linecap="round" stroke-linejoin="round"/>
<path d="M201.338 140.591V164.765V170.584" stroke="#FF5061" stroke-linecap="round" stroke-linejoin="round"/>
<path d="M201.338 150.059L205.899 144.845" stroke="#FF5061" stroke-linecap="round" stroke-linejoin="round"/>
<path d="M201.338 155.202L206.944 148.792" stroke="#FF5061" stroke-linecap="round" stroke-linejoin="round"/>
<path d="M201.338 160.501L206.944 154.091" stroke="#FF5061" stroke-linecap="round" stroke-linejoin="round"/>
<path d="M201.338 150.069L196.771 144.845" stroke="#FF5061" stroke-linecap="round" stroke-linejoin="round"/>
<path d="M201.338 155.212L195.732 148.802" stroke="#FF5061" stroke-linecap="round" stroke-linejoin="round"/>
<path d="M201.338 160.51L195.732 154.101" stroke="#FF5061" stroke-linecap="round" stroke-linejoin="round"/>
<path d="M11.9404 170.584H232.999" stroke="#545454" stroke-linecap="round" stroke-linejoin="round"/>
<path d="M71.3874 105.028L47.6355 81.2764C45.2357 78.8766 41.3448 78.8766 38.945 81.2764L14.8456 105.376C12.4458 107.776 12.4458 111.667 14.8456 114.066L38.5974 137.818C40.9972 140.218 44.8881 140.218 47.2879 137.818L71.3874 113.719C73.7872 111.319 73.7872 107.428 71.3874 105.028Z" fill="#C1E3F7"/>
<path d="M76.9827 105.202L47.4617 75.6809C45.0619 73.2811 41.171 73.2811 38.7712 75.6809L9.2502 105.202C6.85038 107.602 6.85038 111.493 9.2502 113.892L38.7712 143.413C41.171 145.813 45.0619 145.813 47.4617 143.413L76.9827 113.892C79.3825 111.493 79.3825 107.602 76.9827 105.202Z" stroke="#40A1FF" stroke-linecap="round" stroke-linejoin="round"/>
<path d="M14.8145 148.097C15.0681 149.33 15.259 150.575 15.3865 151.827C15.5283 153.07 15.6134 154.318 15.689 155.566C15.7646 156.814 15.7977 158.067 15.7883 159.324C15.7971 160.587 15.7419 161.849 15.6228 163.106C15.3692 161.873 15.1783 160.628 15.0509 159.376C14.909 158.133 14.824 156.88 14.7483 155.632C14.6727 154.384 14.6443 153.132 14.6491 151.879C14.6538 150.626 14.6869 149.374 14.8145 148.097Z" fill="#439916"/>
<path d="M22.718 155.188C21.4852 155.441 20.2404 155.632 18.9884 155.76C17.7404 155.902 16.4925 155.987 15.2446 156.067C13.9966 156.147 12.744 156.171 11.4913 156.162C10.2288 156.173 8.96647 156.118 7.70972 155.996C8.94212 155.742 10.187 155.553 11.4393 155.429C12.6825 155.287 13.9305 155.197 15.1784 155.122C16.4263 155.046 17.679 155.018 18.9316 155.027C20.1957 155.017 21.4594 155.07 22.718 155.188Z" fill="#439916"/>
<path d="M49.0239 131.038C49.2525 131.859 49.42 132.697 49.5249 133.543C49.6431 134.38 49.7235 135.221 49.766 136.062C49.8086 136.904 49.8228 137.745 49.7991 138.591C49.7851 139.444 49.7077 140.294 49.5675 141.135C49.3396 140.312 49.1706 139.475 49.0617 138.629C48.9483 137.792 48.8679 136.956 48.8254 136.114C48.7828 135.273 48.7686 134.427 48.7923 133.581C48.8065 132.728 48.8839 131.878 49.0239 131.038Z" fill="#0850EC"/>
<path d="M54.3607 135.817C53.5408 136.046 52.705 136.213 51.8601 136.318C51.0187 136.431 50.182 136.516 49.3406 136.559C48.4992 136.601 47.6578 136.615 46.8117 136.592C45.9594 136.578 45.1093 136.5 44.2686 136.36C45.0878 136.127 45.9238 135.958 46.7691 135.854C47.6106 135.741 48.4472 135.656 49.2886 135.613C50.1301 135.571 50.9715 135.561 51.8176 135.585C52.6699 135.599 53.5199 135.676 54.3607 135.817Z" fill="#0850EC"/>
<path d="M82.8409 0C83.1009 1.23848 83.2711 2.48168 83.4081 3.72961C83.5452 4.97755 83.6398 6.22075 83.7154 7.47341C83.791 8.72607 83.8194 9.974 83.8147 11.2267C83.8219 12.4893 83.7651 13.7514 83.6445 15.0083C83.3845 13.7698 83.2143 12.5266 83.0773 11.2787C82.9402 10.0307 82.8456 8.78752 82.77 7.53486C82.6944 6.2822 82.666 5.03427 82.6755 3.78161C82.6666 2.51909 82.7219 1.25693 82.8409 0V0Z" fill="#439916"/>
<path d="M90.7586 7.09054C89.5202 7.35053 88.277 7.5207 87.029 7.65778C85.7811 7.79487 84.5379 7.88941 83.2852 7.96504C82.0326 8.04067 80.7846 8.06903 79.532 8.06431C78.2694 8.07155 77.0072 8.01475 75.7504 7.89413C76.9888 7.63415 78.232 7.46397 79.48 7.32689C80.7279 7.18981 81.9711 7.09527 83.2238 7.01964C84.4764 6.944 85.7244 6.91564 86.977 6.92509C88.2396 6.91386 89.5019 6.96909 90.7586 7.09054ZM92.7345 9.18934C92.9631 10.0109 93.1306 10.8483 93.2356 11.6947C93.349 12.5313 93.4341 13.3727 93.4767 14.2142C93.5192 15.0556 93.5334 15.897 93.5098 16.7431C93.4955 17.5954 93.4181 18.4454 93.2781 19.2862C93.048 18.4647 92.8789 17.6274 92.7723 16.7809C92.6589 15.9442 92.5738 15.1028 92.5313 14.2614C92.4887 13.42 92.4793 12.5786 92.5029 11.7325C92.5169 10.8802 92.5943 10.0301 92.7345 9.18934Z" fill="#439916"/>
<path d="M98.0524 13.9637C97.2305 14.192 96.3933 14.3611 95.5471 14.4695C94.7104 14.5829 93.8738 14.6633 93.0324 14.7105C92.1909 14.7578 91.3448 14.7625 90.5034 14.7436C89.6495 14.7278 88.7978 14.6488 87.9555 14.5073C88.7771 14.2787 89.6145 14.1112 90.4609 14.0062C91.2975 13.8928 92.139 13.8077 92.9804 13.7651C93.8218 13.7226 94.6632 13.7131 95.5093 13.7368C96.3614 13.7516 97.2112 13.8274 98.0524 13.9637ZM4.77426 141.437C5.00259 142.257 5.17162 143.093 5.28005 143.938C5.3935 144.779 5.47386 145.616 5.52113 146.457C5.5684 147.299 5.57313 148.14 5.55422 148.986C5.53625 149.838 5.45726 150.688 5.31787 151.529C5.08881 150.709 4.92132 149.874 4.8168 149.029C4.70335 148.187 4.61827 147.351 4.57573 146.509C4.53318 145.668 4.519 144.822 4.54264 143.98C4.56136 143.128 4.63875 142.278 4.77426 141.437Z" fill="#439916"/>
<path d="M10.0969 146.211C9.27531 146.44 8.43791 146.607 7.59159 146.712C6.7549 146.831 5.9135 146.911 5.07209 146.953C4.23068 146.996 3.38927 147.01 2.54313 146.987C1.69085 146.972 0.840793 146.895 0 146.755C0.822037 146.527 1.65926 146.358 2.50532 146.249C3.342 146.136 4.17868 146.055 5.02009 146.013C5.8615 145.97 6.70763 145.956 7.55377 145.98C8.40603 145.994 9.25606 146.072 10.0969 146.211ZM212.03 77.3623C212.284 78.595 212.475 79.8398 212.602 81.0919C212.744 82.3351 212.829 83.5831 212.91 84.8357C212.99 86.0884 213.013 87.3363 213.004 88.589C213.013 89.8515 212.958 91.1136 212.839 92.3706C212.584 91.1382 212.395 89.8933 212.271 88.641C212.125 87.3978 212.04 86.1498 211.964 84.8972C211.888 83.6445 211.86 82.3966 211.865 81.1439C211.87 79.8913 211.903 78.6244 212.03 77.3623Z" fill="#439916"/>
<path d="M219.934 84.4576C218.695 84.7176 217.447 84.8878 216.204 85.0249C214.961 85.1619 213.708 85.2565 212.46 85.3321C211.212 85.4077 209.96 85.4361 208.707 85.4314C207.445 85.4388 206.182 85.382 204.926 85.2612C206.164 85.0012 207.407 84.8311 208.655 84.694C209.903 84.5569 211.146 84.4623 212.394 84.3867C213.642 84.3111 214.895 84.2827 216.152 84.2922C217.415 84.2809 218.677 84.3362 219.934 84.4576ZM206.821 68.6978C207.049 69.5181 207.218 70.3538 207.327 71.1983C207.44 72.035 207.521 72.8764 207.568 73.7178C207.615 74.5592 207.62 75.4007 207.596 76.2468C207.582 77.0991 207.505 77.9491 207.365 78.7899C207.136 77.9699 206.969 77.1341 206.864 76.2893C206.75 75.4479 206.665 74.6112 206.623 73.7698C206.58 72.9284 206.566 72.0823 206.589 71.2409C206.608 70.3889 206.686 69.5391 206.821 68.6978Z" fill="#439916"/>
<path d="M212.144 73.472C211.322 73.7006 210.485 73.8681 209.638 73.9731C208.802 74.0865 207.96 74.1716 207.119 74.2141C206.277 74.2567 205.436 74.2709 204.59 74.2472C203.738 74.2332 202.888 74.1558 202.047 74.0156C202.868 73.7855 203.706 73.6164 204.552 73.5098C205.389 73.3964 206.225 73.316 207.067 73.2735C207.908 73.2309 208.754 73.2168 209.601 73.2404C210.453 73.2548 211.303 73.3323 212.144 73.472Z" fill="#439916"/>
<path d="M116.138 96.0388L49.2933 121.286L104.718 148.844L177.098 121.286L116.138 96.0388Z" fill="#D86C1D"/>
<path d="M116.138 96.0388L104.718 148.844L177.098 121.286L116.138 96.0388Z" fill="#F46534"/>
<path d="M116.138 96.0955L177.098 121.286L196.823 121.9L136.554 94.8145L116.138 96.0955Z" fill="#FFCD52"/>
<path d="M31.5953 112.943L97.7026 89.4351L116.138 96.0387L49.2933 121.286L31.5953 112.943Z" fill="#FFCD52"/>
<path d="M132.295 94.0205C132.079 96.4567 131.499 98.8468 130.574 101.111C129.44 103.853 128.305 105.091 127.776 107.781C127.391 109.48 127.391 111.244 127.776 112.943C128.159 114.517 128.873 115.84 131.222 118.752C133.916 122.099 134.833 122.661 136.601 124.779C138.303 126.826 139.551 129.109 141.976 133.6C145.134 139.438 146.703 142.359 146.925 143.498C148.518 151.945 137.641 160.652 135.954 162C122.742 172.574 103.559 172.924 89.4777 167.379C83.6213 165.213 78.3271 161.757 73.9873 157.268C65.2943 148.135 63.5453 137.476 62.7984 132.522C62.2217 128.665 60.1891 113.751 68.3952 99.8205C76.7289 85.6726 87.3742 86.5423 90.9856 73.7841C93.7367 64.0701 89.9787 55.0226 92.0586 54.4034C94.2614 53.7652 96.5257 64.4388 106.712 69.8938C109.879 71.5908 110.754 71.1417 115.264 73.5761C121.319 76.8472 122.548 79.1729 126.722 81.943C136.365 88.3386 145.157 86.098 145.63 88.8255C145.909 90.3287 143.621 92.9994 131 98.0763L132.295 94.0205Z" fill="url(#paint0_linear)"/>
<path d="M104.718 148.844L103.432 200L49.2933 170.343V121.286L104.718 148.844Z" fill="#FFCD52"/>
<path d="M104.718 148.844L103.432 200L174.148 176.223L177.098 121.286L104.718 148.844Z" fill="#FFD26E"/>
<path d="M137.674 135.33C137.287 131.832 140.416 130.692 144.131 124.358C146.764 119.863 148.05 115.552 149.723 109.941C151.737 103.191 151.444 101.484 153.595 99.3995C156.313 96.7619 161.158 95.2303 164.784 97.036C169.359 99.3145 169.761 105.852 169.95 108.854C170.659 120.43 162.798 129.057 159.835 132.309C156.351 136.128 149.435 143.701 143.29 141.763C140.52 140.926 137.996 138.218 137.674 135.33Z" fill="url(#paint1_linear)"/>
<path d="M99.2248 75.2209L109.497 79.2342C109.497 79.2342 107.861 88.4613 102.226 86.7738C96.5919 85.0862 99.2248 75.2209 99.2248 75.2209Z" fill="white"/>
<path d="M99.2248 75.2209L109.497 79.2342C109.497 79.2342 107.861 88.4613 102.226 86.7738C96.5919 85.0862 99.2248 75.2209 99.2248 75.2209Z" stroke="#63717C" stroke-linecap="round" stroke-linejoin="round"/>
<path d="M104.358 77.2251C104.358 77.2251 100.104 84.3156 102.226 86.7737C102.226 86.7737 105.682 84.1076 104.358 77.2251Z" fill="#63717C"/>
<path d="M113.231 80.832L120.794 87.6011C120.794 87.6011 116.412 95.0414 112.092 91.7703C107.771 88.4992 113.231 80.832 113.231 80.832Z" fill="white"/>
<path d="M113.231 80.832L120.794 87.6011C120.794 87.6011 116.412 95.0414 112.092 91.7703C107.771 88.4992 113.231 80.832 113.231 80.832Z" stroke="#63717C" stroke-linecap="round" stroke-linejoin="round"/>
<path d="M117.017 84.207C117.017 84.207 111.09 88.934 112.101 91.7702C112.101 91.7608 115.944 90.5743 117.017 84.207Z" fill="#63717C"/>
<path d="M97.5609 86.6888C97.1572 86.1854 96.718 85.7114 96.2468 85.2707C95.785 84.8199 95.2956 84.3984 94.7814 84.0086C93.7632 83.2212 92.6518 82.5623 91.4725 82.0468C90.2993 81.5226 89.0656 81.1463 87.7996 80.9265C86.5213 80.7044 85.2255 80.5984 83.9282 80.6098C84.2433 80.572 84.5695 80.5389 84.9066 80.5106C85.2313 80.4697 85.558 80.4476 85.8851 80.4444C86.5442 80.4428 87.2026 80.4838 87.8563 80.5673C89.1625 80.7246 90.4375 81.0783 91.6379 81.6167C92.8511 82.1483 93.9777 82.8589 94.9799 83.7249C96.0006 84.5609 96.8731 85.5629 97.5609 86.6888ZM94.4032 88.1211C93.3099 87.4924 92.145 86.9972 90.9336 86.6462C89.7336 86.2866 88.4996 86.0521 87.2513 85.9466C86.9393 85.8994 86.6226 85.9135 86.3058 85.8899C85.9909 85.873 85.6754 85.873 85.3604 85.8899H84.415L83.4696 85.9797C82.2136 86.1257 80.969 86.3579 79.7448 86.6746C80.3404 86.4477 80.936 86.2019 81.5457 86.0317C82.1683 85.8612 82.7994 85.7239 83.4365 85.6205C84.704 85.404 85.9938 85.35 87.2749 85.4597C88.5666 85.566 89.8384 85.8442 91.0565 86.287C91.6582 86.5069 92.2455 86.7642 92.8149 87.0575C93.3761 87.3622 93.9078 87.7183 94.4032 88.1211ZM92.6826 90.286C92.139 90.286 91.5954 90.2624 91.0518 90.286C90.5082 90.3097 89.9693 90.286 89.4304 90.3333C88.3527 90.3889 87.2794 90.5088 86.216 90.6926C85.1594 90.8712 84.1226 91.1513 83.1198 91.5292C82.8646 91.619 82.6471 91.7467 82.3872 91.8554C82.2642 91.9121 82.1414 91.9641 82.0232 92.0303L81.6781 92.2383C81.2096 92.5156 80.7653 92.8319 80.3498 93.1837C80.7091 92.7686 81.1116 92.3931 81.5505 92.0634L81.8861 91.8176C81.9995 91.742 82.1272 91.6805 82.2453 91.6096C82.4864 91.482 82.718 91.326 82.9733 91.2125C83.9812 90.7543 85.0441 90.4286 86.1357 90.2435C88.3054 89.8855 90.5211 89.9095 92.6826 90.3144V90.286ZM114.02 94.356C115.329 94.2093 116.654 94.2812 117.939 94.5687C119.237 94.8351 120.486 95.2974 121.645 95.9395C122.811 96.5606 123.875 97.3578 124.798 98.303C125.262 98.7691 125.693 99.2666 126.088 99.7921C126.289 100.052 126.473 100.325 126.637 100.61C126.812 100.884 126.987 101.163 127.152 101.442C126.371 100.407 125.499 99.4436 124.547 98.563C123.6 97.6961 122.55 96.947 121.423 96.3319C120.295 95.7156 119.097 95.2394 117.854 94.9138C117.233 94.7412 116.601 94.6085 115.963 94.5167C115.32 94.4182 114.671 94.3645 114.02 94.356ZM114.805 97.7358C115.425 97.8899 116.029 98.1004 116.611 98.3645C117.19 98.6458 117.752 98.9615 118.294 99.3099C119.378 100.005 120.366 100.84 121.234 101.792C122.1 102.742 122.843 103.799 123.446 104.935C123.746 105.5 124.016 106.081 124.254 106.675C124.481 107.27 124.661 107.885 124.845 108.49C124.349 107.328 123.776 106.2 123.129 105.115L122.628 104.321L122.075 103.522C121.896 103.264 121.704 103.016 121.498 102.78C121.29 102.548 121.111 102.307 120.884 102.07C120.041 101.145 119.105 100.308 118.09 99.5746C117.072 98.834 115.969 98.2168 114.805 97.7358ZM114.143 100.411C115.781 101.88 117.149 103.623 118.185 105.564C118.702 106.543 119.089 107.586 119.338 108.665C119.404 108.929 119.423 109.208 119.466 109.482C119.466 109.62 119.513 109.757 119.523 109.894V110.31C119.53 110.859 119.478 111.407 119.367 111.945C119.386 111.404 119.362 110.862 119.296 110.324L119.253 109.927C119.253 109.794 119.196 109.662 119.168 109.53C119.102 109.27 119.064 109.005 118.979 108.75C118.67 107.723 118.261 106.729 117.759 105.781C117.258 104.828 116.701 103.904 116.091 103.016C115.788 102.543 115.472 102.132 115.145 101.697C114.819 101.262 114.488 100.837 114.143 100.411Z" fill="#0234C1"/>
<path d="M104.628 152.508L123.351 174.427L175.495 152.739L176.908 124.973L104.717 148.844L104.628 152.508Z" fill="#D8821D"/>
<path d="M85.3888 166.197L104.628 152.493L104.718 148.844L49.2933 124.874V144.268L85.3888 166.197Z" fill="#D8821D"/>
<path d="M94.5119 67.7522L94.181 60.3213L98.6339 66.7926C98.6339 66.7926 96.5445 65.3083 94.5119 67.7522ZM133.108 90.2858L140.529 89.8131L134.129 94.37C134.129 94.37 135.58 92.2617 133.108 90.2858Z" fill="#FFCCD8"/>
<path d="M85.3888 162.609L35.306 132.186L49.2933 121.286L104.718 148.844L85.3888 162.609Z" fill="#FFCD52"/>
<path d="M191.728 142.373L123.451 170.773L104.718 148.844L177.098 121.286L191.728 142.373Z" fill="#FFCD52"/>
<path d="M49.2933 147.483C50.0377 146.738 50.8442 146.058 51.7041 145.45C52.5487 144.822 53.4472 144.27 54.389 143.801C53.6456 144.546 52.839 145.227 51.9782 145.833C51.1314 146.458 50.2332 147.01 49.2933 147.483ZM49.2933 151.515C50.5486 150.402 51.8614 149.356 53.2262 148.381C54.5784 147.389 55.9827 146.471 57.4332 145.63C56.1817 146.745 54.8704 147.791 53.5051 148.764C52.1513 149.755 50.7453 150.674 49.2933 151.515ZM49.2886 156.025C50.2009 155.297 51.1416 154.607 52.0917 153.945C53.0418 153.283 53.9825 152.616 54.9657 151.969C55.9489 151.321 56.9085 150.693 57.9012 150.078L59.3902 149.17C59.896 148.877 60.3923 148.58 60.9029 148.301C60.4301 148.665 59.9574 149.005 59.5178 149.36L58.0997 150.381C57.1543 151.057 56.2089 151.709 55.2257 152.352C54.2425 152.995 53.2829 153.628 52.2902 154.243C51.2976 154.857 50.3096 155.462 49.2886 156.025ZM49.2933 162.236C50.6216 161.205 51.983 160.213 53.3491 159.225C54.7152 158.237 56.0908 157.277 57.471 156.318C58.8513 155.358 60.2505 154.427 61.6592 153.481L63.7769 152.106C64.4907 151.662 65.195 151.203 65.9182 150.768C65.2564 151.293 64.5757 151.789 63.9092 152.295L61.8672 153.784C60.5058 154.772 59.1255 155.732 57.7405 156.691C56.3555 157.651 54.961 158.582 53.5523 159.527C52.1437 160.473 50.735 161.366 49.2933 162.236ZM49.2886 168.329C51.0139 167.024 52.7677 165.767 54.5261 164.51C56.2846 163.252 58.0666 162.037 59.8393 160.799C61.6119 159.56 63.4082 158.369 65.2092 157.178L67.9177 155.401C68.8301 154.819 69.7376 154.228 70.6547 153.661C69.7944 154.318 68.9199 154.947 68.0501 155.59L65.4172 157.481C63.6587 158.738 61.8766 159.957 60.104 161.196C58.3314 162.434 56.5351 163.626 54.7294 164.817C52.9236 166.008 51.1227 167.185 49.2886 168.329ZM53.3633 172.446C55.1312 171.118 56.9322 169.827 58.7332 168.542C60.5341 167.256 62.3635 166.013 64.1739 164.76C65.9844 163.507 67.8327 162.274 69.6762 161.054L72.451 159.23C73.3964 158.634 74.3087 158.029 75.2493 157.447C74.3701 158.119 73.472 158.762 72.5786 159.419L69.8842 161.352C68.0785 162.633 66.2538 163.886 64.4434 165.134C62.6329 166.381 60.7847 167.625 58.9364 168.844C57.0882 170.064 55.2446 171.279 53.3633 172.446ZM58.8088 175.538C60.5767 174.205 62.373 172.914 64.1787 171.633C65.9844 170.352 67.8043 169.1 69.6195 167.852C71.4346 166.604 73.2734 165.36 75.1217 164.141L77.8917 162.316C78.8371 161.725 79.7542 161.116 80.6949 160.534C79.8109 161.205 78.9128 161.853 78.0241 162.51L75.325 164.443C73.524 165.724 71.6994 166.972 69.8842 168.225C68.069 169.478 66.2255 170.716 64.3819 171.936C62.5384 173.155 60.6854 174.365 58.8088 175.538ZM64.2874 178.45C66.0553 177.117 67.8563 175.826 69.6573 174.545C71.4583 173.264 73.2876 172.011 75.0981 170.763C76.9085 169.516 78.7568 168.272 80.6003 167.053L83.3751 165.228C84.3205 164.633 85.2328 164.027 86.1735 163.446C85.2943 164.117 84.3961 164.76 83.5074 165.417L80.8319 167.336C79.0262 168.617 77.2016 169.87 75.3912 171.118C73.5807 172.366 71.7324 173.609 69.8842 174.829C68.0359 176.048 66.1782 177.263 64.2874 178.45ZM69.7518 181.22C72.588 179.154 75.4479 177.135 78.3124 175.122L86.9487 169.128L95.6464 163.224L100.019 160.307L104.415 157.429L100.161 160.496L95.8686 163.526L87.2323 169.515L78.5346 175.42C75.6322 177.372 72.6968 179.315 69.7518 181.22ZM104.344 163.555C101.905 165.346 99.4375 167.095 96.9653 168.84C94.493 170.584 91.9924 172.295 89.5107 174.039C87.0291 175.784 84.5096 177.452 81.9948 179.135L78.2132 181.645C76.9463 182.472 75.6842 183.309 74.4079 184.122C75.6228 183.219 76.8613 182.345 78.0856 181.456L81.7868 178.832C84.2638 177.088 86.7596 175.377 89.2413 173.633C91.723 171.888 94.2425 170.22 96.7573 168.542C99.272 166.864 101.796 165.186 104.344 163.555ZM104.183 170.078C102.189 171.567 100.165 173.009 98.1423 174.446C96.1191 175.883 94.0629 177.282 92.0255 178.7C89.9882 180.118 87.9225 181.517 85.852 182.879L82.7228 184.935C81.6734 185.602 80.6381 186.287 79.584 186.944C80.5767 186.197 81.5883 185.479 82.5904 184.741L85.6251 182.581C87.653 181.163 89.6998 179.745 91.7419 178.327C93.784 176.909 95.8449 175.528 97.9154 174.157C99.9858 172.787 102.104 171.406 104.183 170.078ZM103.994 177.112C102.482 178.27 100.941 179.381 99.3997 180.487C97.8587 181.593 96.2846 182.671 94.7294 183.763C93.1742 184.855 91.5859 185.899 90.0024 186.944L87.6388 188.499C86.8305 189.005 86.0364 189.525 85.2233 190.017C85.9749 189.435 86.7454 188.877 87.5065 188.31L89.818 186.641C91.3637 185.535 92.9284 184.462 94.4883 183.37C96.0482 182.278 97.627 181.234 99.2153 180.189C100.804 179.144 102.382 178.109 103.994 177.112ZM103.838 183.881C102.789 184.718 101.706 185.516 100.624 186.306C99.5415 187.095 98.4448 187.861 97.3434 188.622C96.242 189.383 95.1264 190.13 93.9967 190.853L92.3044 191.917C91.7277 192.262 91.1652 192.621 90.579 192.957C91.1037 192.536 91.6426 192.139 92.1721 191.728L93.7934 190.537C94.8712 189.742 95.9726 188.977 97.074 188.216C98.1754 187.455 99.2909 186.708 100.421 185.984C101.55 185.261 102.675 184.538 103.838 183.881ZM103.668 190.546C101.265 192.579 98.6634 194.364 95.9017 195.873C97.0957 194.849 98.3472 193.895 99.6502 193.014C100.942 192.116 102.284 191.293 103.668 190.546ZM103.522 196.053C103.087 196.555 102.586 196.995 102.033 197.362C101.491 197.745 100.902 198.053 100.279 198.279C101.166 197.288 102.278 196.524 103.522 196.053Z" fill="#D8821D"/>
<path d="M100.586 98.8324C100.66 98.115 100.876 97.4195 101.22 96.7856C101.541 96.1444 101.97 95.5625 102.486 95.0649C102.258 95.7329 101.975 96.3811 101.64 97.003C101.321 97.6305 100.969 98.2411 100.586 98.8324Z" fill="#0234C1"/>
<path d="M101.432 88.9294L108.102 92.5976C108.102 92.5976 99.9196 100.756 101.432 88.9294Z" fill="#FFCCD8"/>
<path d="M180.099 56.1238L138.067 47.0715C137.279 46.9019 136.572 46.4674 136.066 45.8403C135.559 45.2133 135.283 44.4316 135.282 43.6255V24.1975C135.282 23.2623 135.654 22.3653 136.315 21.704C136.977 21.0427 137.874 20.6712 138.809 20.6712H180.818C181.282 20.6699 181.741 20.7602 182.17 20.9369C182.599 21.1135 182.989 21.3731 183.317 21.7007C183.646 22.0282 183.906 22.4174 184.084 22.8458C184.262 23.2743 184.354 23.7336 184.354 24.1975V52.6778C184.354 53.2026 184.237 53.7207 184.011 54.1945C183.785 54.6682 183.456 55.0854 183.049 55.4157C182.641 55.746 182.164 55.981 181.654 56.1035C181.144 56.226 180.613 56.233 180.099 56.1238V56.1238Z" stroke="#40A1FF" stroke-linecap="round" stroke-linejoin="round"/>
<path d="M139.215 47.3174L140.865 51.9262L148.291 49.2744L139.215 47.3174Z" stroke="#008EF8" stroke-linecap="round" stroke-linejoin="round"/>
<path d="M147.984 49.3831L148.291 49.2744L139.215 47.3174L139.801 48.9482L147.984 49.3831Z" fill="#40A1FF"/>
<path d="M160.666 26.0321L159.371 43.3053H158.939L157.239 26.767L160.666 26.0321Z" fill="#40A1FF" stroke="#40A1FF"/>
<path d="M159.088 47.3174C159.672 47.3174 160.147 46.8433 160.147 46.2586C160.147 45.6738 159.672 45.1997 159.088 45.1997C158.503 45.1997 158.029 45.6738 158.029 46.2586C158.029 46.8433 158.503 47.3174 159.088 47.3174Z" fill="#008EF8"/>
<path d="M77.003 123.919C75.9538 123.353 74.9682 122.676 74.0628 121.9C73.1778 121.099 72.3851 120.202 71.6993 119.225C70.34 117.239 69.3769 115.01 68.8631 112.659C68.3539 110.319 68.1442 107.924 68.2391 105.531C68.3187 103.149 68.6547 100.783 69.2413 98.4731C69.0427 99.6454 68.8773 100.837 68.7686 101.999C68.6598 103.162 68.5937 104.363 68.5937 105.54C68.5549 107.897 68.7961 110.25 69.3122 112.55C69.8001 114.853 70.707 117.046 71.9877 119.021C72.6339 120.003 73.3852 120.911 74.2283 121.73C75.0819 122.546 76.011 123.278 77.003 123.919ZM63.342 112.735C63.4034 114.37 63.5074 116.001 63.7107 117.613C63.9161 119.224 64.232 120.819 64.6561 122.387C65.0693 123.953 65.6279 125.477 66.3247 126.939C67.0292 128.404 67.9034 129.781 68.9293 131.042C68.6457 130.749 68.3668 130.451 68.0879 130.149C67.809 129.846 67.5726 129.511 67.3126 129.203C67.0527 128.896 66.8399 128.523 66.6225 128.178C66.3954 127.835 66.1871 127.48 65.9985 127.114C65.2232 125.657 64.6189 124.115 64.1975 122.519C63.7764 120.928 63.4996 119.301 63.3703 117.66C63.228 116.022 63.2185 114.374 63.342 112.735ZM129.161 115.996C129.587 117.02 129.904 118.087 130.106 119.177C130.283 120.271 130.354 121.379 130.319 122.486C130.194 124.713 129.716 126.905 128.901 128.981C128.084 131.045 127.046 133.013 125.805 134.852C124.57 136.693 123.144 138.398 121.55 139.939C122.278 139.113 122.967 138.256 123.616 137.367C124.278 136.493 124.897 135.585 125.479 134.654C126.659 132.81 127.652 130.853 128.442 128.811C128.837 127.793 129.165 126.751 129.426 125.691C129.659 124.628 129.817 123.549 129.898 122.463C130.064 120.28 129.814 118.086 129.161 115.996ZM135.391 137.164C135.721 136.05 135.994 134.921 136.209 133.779C136.419 132.645 136.541 131.496 136.573 130.343C136.603 129.191 136.529 128.039 136.351 126.901C136.261 126.33 136.141 125.763 135.991 125.204C135.916 124.926 135.845 124.647 135.76 124.368C135.675 124.089 135.575 123.815 135.49 123.536C135.627 123.796 135.755 124.06 135.878 124.325C136.001 124.59 136.1 124.869 136.214 125.143C136.405 125.699 136.562 126.265 136.686 126.84C136.944 127.994 137.058 129.175 137.027 130.357C136.995 131.538 136.837 132.712 136.554 133.86C136.279 134.997 135.889 136.105 135.391 137.164Z" fill="#0234C1"/>
</g>
<defs>
<linearGradient id="paint0_linear" x1="82.3233" y1="57.8725" x2="151.763" y2="168.839" gradientUnits="userSpaceOnUse">
<stop stop-color="#419FFF"/>
<stop offset="1" stop-color="#0779FF"/>
</linearGradient>
<linearGradient id="paint1_linear" x1="145.326" y1="97.6264" x2="172.995" y2="140.468" gradientUnits="userSpaceOnUse">
<stop stop-color="#419FFF"/>
<stop offset="1" stop-color="#0779FF"/>
</linearGradient>
<clipPath id="clip0">
<rect width="236.932" height="200" fill="white"/>
</clipPath>
</defs>
</svg>
