<svg width="32" height="32" viewBox="0 0 32 32" fill="none" xmlns="http://www.w3.org/2000/svg">
<path d="M32 16C32 24.8366 24.8366 32 16 32C7.16344 32 0 24.8366 0 16C0 7.16344 7.16344 0 16 0C24.8366 0 32 7.16344 32 16Z" fill="#46B56B"/>
<path d="M22.3009 12.2031L16.0042 18.4998L12.8567 15.3515" stroke="white" stroke-width="1.5" stroke-linecap="round" stroke-linejoin="round"/>
<path d="M23.5 16C23.5 20.1425 20.1425 23.5 16 23.5C11.8575 23.5 8.5 20.1425 8.5 16C8.5 11.8575 11.8575 8.5 16 8.5C17.2108 8.5 18.3508 8.79417 19.3633 9.30333" stroke="white" stroke-width="1.5" stroke-linecap="round" stroke-linejoin="round"/>
</svg>
