<svg width="24" height="24" viewBox="0 0 24 24" fill="none" xmlns="http://www.w3.org/2000/svg">
<path d="M3.99683 4.99708V8.99875V16.0025C3.99683 17.1071 4.89226 18.0025 5.99683 18.0025H20.0035C21.1085 18.0025 22.0043 17.1067 22.0043 16.0017V4.99708C22.0043 3.89205 21.1085 2.99625 20.0035 2.99625H5.99766C4.89263 2.99625 3.99683 3.89205 3.99683 4.99708Z" fill="#5BA1F2" stroke="#5BA1F2" stroke-width="1.5" stroke-linecap="round" stroke-linejoin="round"/>
<mask id="path-2-outside-1_5699_23832" maskUnits="userSpaceOnUse" x="0.49585" y="16.5025" width="11" height="7" fill="black">
<rect fill="white" x="0.49585" y="16.5025" width="11" height="7"/>
<path fill-rule="evenodd" clip-rule="evenodd" d="M4.09072 17.5025L4.0893 17.5025C2.65867 17.5066 1.49993 18.6653 1.49585 20.096V20.5035C1.49585 21.0559 1.94366 21.5038 2.49606 21.5038H8.99877C9.55117 21.5038 9.99897 21.0559 9.99897 20.5035L9.99898 20.0974L9.99897 20.096C9.99489 18.6653 8.83615 17.5066 7.40553 17.5025L4.09072 17.5025Z"/>
</mask>
<path fill-rule="evenodd" clip-rule="evenodd" d="M4.09072 17.5025L4.0893 17.5025C2.65867 17.5066 1.49993 18.6653 1.49585 20.096V20.5035C1.49585 21.0559 1.94366 21.5038 2.49606 21.5038H8.99877C9.55117 21.5038 9.99897 21.0559 9.99897 20.5035L9.99898 20.0974L9.99897 20.096C9.99489 18.6653 8.83615 17.5066 7.40553 17.5025L4.09072 17.5025Z" fill="#40A1FF"/>
<path d="M4.0893 17.5025L4.08645 16.5025H4.08644L4.0893 17.5025ZM4.09072 17.5025L4.09072 16.5025L4.08788 16.5025L4.09072 17.5025ZM1.49585 20.096L0.49585 20.0931V20.096H1.49585ZM9.99897 20.5035L8.99897 20.5035V20.5035H9.99897ZM9.99898 20.0974L10.999 20.0974L10.999 20.0947L9.99898 20.0974ZM9.99897 20.096L10.999 20.0933V20.0931L9.99897 20.096ZM7.40553 17.5025L7.40838 16.5025H7.40553L7.40553 17.5025ZM4.09214 18.5025L4.09356 18.5025L4.08788 16.5025L4.08645 16.5025L4.09214 18.5025ZM2.49585 20.0988C2.49836 19.2182 3.21158 18.505 4.09215 18.5025L4.08644 16.5025C2.10576 16.5082 0.501505 18.1124 0.495854 20.0931L2.49585 20.0988ZM2.49585 20.5035V20.096H0.49585V20.5035H2.49585ZM2.49606 20.5038L2.49585 20.5035H0.49585C0.49585 21.6082 1.39137 22.5038 2.49606 22.5038V20.5038ZM8.99877 20.5038H2.49606V22.5038H8.99877V20.5038ZM8.99897 20.5035L8.99877 20.5038V22.5038C10.1035 22.5038 10.999 21.6082 10.999 20.5035H8.99897ZM8.99898 20.0974L8.99897 20.5035L10.999 20.5036L10.999 20.0974L8.99898 20.0974ZM8.99898 20.0986L8.99898 20.1001L10.999 20.0947L10.999 20.0933L8.99898 20.0986ZM7.40267 18.5025C8.28325 18.505 8.99646 19.2182 8.99898 20.0988L10.999 20.0931C10.9933 18.1124 9.38906 16.5082 7.40838 16.5025L7.40267 18.5025ZM4.09072 18.5025L7.40553 18.5025L7.40553 16.5025L4.09072 16.5025L4.09072 18.5025Z" fill="white" mask="url(#path-2-outside-1_5699_23832)"/>
<mask id="path-4-outside-2_5699_23832" maskUnits="userSpaceOnUse" x="2.24976" y="9.9978" width="8" height="8" fill="black">
<rect fill="white" x="2.24976" y="9.9978" width="8" height="8"/>
<path fill-rule="evenodd" clip-rule="evenodd" d="M5.75159 10.9978C4.37084 10.9978 3.25114 12.1164 3.24976 13.4971C3.24838 14.8779 4.36684 15.9987 5.74759 16.0015L5.75659 16.0015C7.13734 15.9987 8.2548 14.8779 8.25343 13.4971C8.25204 12.1164 7.13234 10.9978 5.75159 10.9978Z"/>
</mask>
<path fill-rule="evenodd" clip-rule="evenodd" d="M5.75159 10.9978C4.37084 10.9978 3.25114 12.1164 3.24976 13.4971C3.24838 14.8779 4.36684 15.9987 5.74759 16.0015L5.75659 16.0015C7.13734 15.9987 8.2548 14.8779 8.25343 13.4971C8.25204 12.1164 7.13234 10.9978 5.75159 10.9978Z" fill="#B3D9FF"/>
<path d="M3.24976 13.4971L2.24976 13.4961V13.4961L3.24976 13.4971ZM5.74759 16.0015L5.74559 17.0015H5.7477L5.74759 16.0015ZM5.75659 16.0015L5.7567 17.0015L5.75859 17.0015L5.75659 16.0015ZM8.25343 13.4971L9.25343 13.4961V13.4961L8.25343 13.4971ZM4.24976 13.4981C4.25059 12.6693 4.92274 11.9978 5.75159 11.9978V9.9978C3.81895 9.9978 2.25169 11.5635 2.24976 13.4961L4.24976 13.4981ZM5.74959 15.0015C4.92022 14.9998 4.24893 14.3265 4.24976 13.4981L2.24976 13.4961C2.24783 15.4293 3.81347 16.9976 5.74559 17.0015L5.74959 15.0015ZM5.75649 15.0015L5.74748 15.0015L5.7477 17.0015L5.7567 17.0015L5.75649 15.0015ZM7.25343 13.4981C7.25425 14.327 6.58345 14.9998 5.75459 15.0015L5.75859 17.0015C7.69123 16.9976 9.25536 15.4288 9.25343 13.4961L7.25343 13.4981ZM5.75159 11.9978C6.58045 11.9978 7.2526 12.6693 7.25343 13.4981L9.25343 13.4961C9.25149 11.5635 7.68423 9.9978 5.75159 9.9978V11.9978Z" fill="white" mask="url(#path-4-outside-2_5699_23832)"/>
<path d="M13 16C13 15.4477 13.4477 15 14 15H17C17.5523 15 18 15.4477 18 16V17H13V16Z" fill="#B3D9FF"/>
</svg>
