<svg width="26" height="26" viewBox="0 0 26 26" fill="none" xmlns="http://www.w3.org/2000/svg">
<rect x="14.0005" y="16.0013" width="5.00208" height="3.00125" rx="1" stroke="white" stroke-width="1.5" stroke-linecap="round" stroke-linejoin="round"/>
<path fill-rule="evenodd" clip-rule="evenodd" d="M9.99877 22.0038H3.49606C3.2198 22.0038 2.99585 21.7798 2.99585 21.5035V21.0974C2.99915 19.9418 3.93512 19.0058 5.09072 19.0025H8.4041C9.5597 19.0058 10.4957 19.9418 10.499 21.0974V21.5035C10.499 21.7798 10.275 22.0038 9.99877 22.0038Z" stroke="white" stroke-width="1.5" stroke-linecap="round" stroke-linejoin="round"/>
<path fill-rule="evenodd" clip-rule="evenodd" d="M6.74759 16.5015C5.64279 16.4993 4.74865 15.6024 4.74976 14.4976C4.75086 13.3928 5.64679 12.4978 6.75159 12.4978C7.85639 12.4978 8.75232 13.3928 8.75342 14.4976C8.75453 15.6024 7.86039 16.4993 6.75559 16.5015H6.74759Z" stroke="white" stroke-width="1.5" stroke-linecap="round" stroke-linejoin="round"/>
<path d="M4.99683 9.99875V5.99708C4.99683 4.89205 5.89263 3.99625 6.99766 3.99625H21.0035C22.1085 3.99625 23.0043 4.89205 23.0043 5.99708V17.0017C23.0043 18.1067 22.1085 19.0025 21.0035 19.0025H13.0002" stroke="white" stroke-width="1.5" stroke-linecap="round" stroke-linejoin="round"/>
</svg>
