<svg width="20" height="20" viewBox="0 0 20 20" fill="none" xmlns="http://www.w3.org/2000/svg">
<path d="M20 10C20 4.47803 15.522 0 10 0C4.47803 0 0 4.47803 0 10C0 15.522 4.47803 20 10 20C15.522 20 20 15.522 20 10Z" fill="#E6E6E6"/>
<path fill-rule="evenodd" clip-rule="evenodd" d="M13.8326 6.97549C14.0558 6.75233 14.0558 6.39052 13.8326 6.16737C13.6095 5.94421 13.2477 5.94421 13.0245 6.16737L10 9.19188L6.97549 6.16737C6.75233 5.94421 6.39052 5.94421 6.16737 6.16737C5.94421 6.39052 5.94421 6.75233 6.16737 6.97549L9.19188 10L6.16737 13.0245C5.94421 13.2477 5.94421 13.6095 6.16737 13.8326C6.39052 14.0558 6.75233 14.0558 6.97549 13.8326L10 10.8081L13.0245 13.8326C13.2477 14.0558 13.6095 14.0558 13.8326 13.8326C14.0558 13.6095 14.0558 13.2477 13.8326 13.0245L10.8081 10L13.8326 6.97549Z" fill="white"/>
</svg>
