<svg width="16" height="16" viewBox="0 0 16 16" fill="none" xmlns="http://www.w3.org/2000/svg">
<mask id="path-1-inside-1" fill="white">
<path fill-rule="evenodd" clip-rule="evenodd" d="M8 16C12.4183 16 16 12.4183 16 8C16 3.58172 12.4183 0 8 0C3.58172 0 0 3.58172 0 8C0 12.4183 3.58172 16 8 16ZM11.4842 4.51579C11.6871 4.71866 11.6871 5.04758 11.4842 5.25045L8.73468 8.00002L11.4842 10.7496C11.6871 10.9525 11.6871 11.2814 11.4842 11.4842C11.2814 11.6871 10.9525 11.6871 10.7496 11.4842L8.00002 8.73468L5.25045 11.4842C5.04758 11.6871 4.71866 11.6871 4.51579 11.4842C4.31292 11.2814 4.31292 10.9525 4.51579 10.7496L7.26536 8.00002L4.51579 5.25045C4.31292 5.04758 4.31292 4.71866 4.51579 4.51579C4.71866 4.31292 5.04758 4.31292 5.25045 4.51579L8.00002 7.26536L10.7496 4.51579C10.9525 4.31292 11.2814 4.31292 11.4842 4.51579Z"/>
</mask>
<path fill-rule="evenodd" clip-rule="evenodd" d="M8 16C12.4183 16 16 12.4183 16 8C16 3.58172 12.4183 0 8 0C3.58172 0 0 3.58172 0 8C0 12.4183 3.58172 16 8 16ZM11.4842 4.51579C11.6871 4.71866 11.6871 5.04758 11.4842 5.25045L8.73468 8.00002L11.4842 10.7496C11.6871 10.9525 11.6871 11.2814 11.4842 11.4842C11.2814 11.6871 10.9525 11.6871 10.7496 11.4842L8.00002 8.73468L5.25045 11.4842C5.04758 11.6871 4.71866 11.6871 4.51579 11.4842C4.31292 11.2814 4.31292 10.9525 4.51579 10.7496L7.26536 8.00002L4.51579 5.25045C4.31292 5.04758 4.31292 4.71866 4.51579 4.51579C4.71866 4.31292 5.04758 4.31292 5.25045 4.51579L8.00002 7.26536L10.7496 4.51579C10.9525 4.31292 11.2814 4.31292 11.4842 4.51579Z" fill="#FF8888"/>
<path d="M11.4842 5.25045L11.1307 4.8969L11.1307 4.8969L11.4842 5.25045ZM11.4842 4.51579L11.1307 4.86934L11.1307 4.86934L11.4842 4.51579ZM8.73468 8.00002L8.38112 7.64646L8.02757 8.00002L8.38112 8.35357L8.73468 8.00002ZM11.4842 10.7496L11.1307 11.1031H11.1307L11.4842 10.7496ZM11.4842 11.4842L11.1307 11.1307L11.1307 11.1307L11.4842 11.4842ZM10.7496 11.4842L11.1031 11.1307V11.1307L10.7496 11.4842ZM8.00002 8.73468L8.35357 8.38112L8.00002 8.02757L7.64646 8.38112L8.00002 8.73468ZM5.25045 11.4842L4.8969 11.1307L4.8969 11.1307L5.25045 11.4842ZM4.51579 11.4842L4.86934 11.1307L4.86934 11.1307L4.51579 11.4842ZM4.51579 10.7496L4.86934 11.1031H4.86934L4.51579 10.7496ZM7.26536 8.00002L7.61891 8.35357L7.97246 8.00002L7.61891 7.64646L7.26536 8.00002ZM8.00002 7.26536L7.64646 7.61891L8.00002 7.97246L8.35357 7.61891L8.00002 7.26536ZM10.7496 4.51579L11.1031 4.86934V4.86934L10.7496 4.51579ZM15.5 8C15.5 12.1421 12.1421 15.5 8 15.5V16.5C12.6944 16.5 16.5 12.6944 16.5 8H15.5ZM8 0.5C12.1421 0.5 15.5 3.85786 15.5 8H16.5C16.5 3.30558 12.6944 -0.5 8 -0.5V0.5ZM0.5 8C0.5 3.85786 3.85786 0.5 8 0.5V-0.5C3.30558 -0.5 -0.5 3.30558 -0.5 8H0.5ZM8 15.5C3.85786 15.5 0.5 12.1421 0.5 8H-0.5C-0.5 12.6944 3.30558 16.5 8 16.5V15.5ZM11.8378 5.604C12.2359 5.20587 12.2359 4.56037 11.8378 4.16224L11.1307 4.86934C11.1383 4.87695 11.1383 4.88929 11.1307 4.8969L11.8378 5.604ZM9.08823 8.35357L11.8378 5.604L11.1307 4.8969L8.38112 7.64646L9.08823 8.35357ZM11.8378 10.396L9.08823 7.64646L8.38112 8.35357L11.1307 11.1031L11.8378 10.396ZM11.8378 11.8378C12.2359 11.4397 12.2359 10.7942 11.8378 10.396L11.1307 11.1031C11.1383 11.1107 11.1383 11.1231 11.1307 11.1307L11.8378 11.8378ZM10.396 11.8378C10.7942 12.2359 11.4397 12.2359 11.8378 11.8378L11.1307 11.1307C11.1231 11.1383 11.1107 11.1383 11.1031 11.1307L10.396 11.8378ZM7.64646 9.08823L10.396 11.8378L11.1031 11.1307L8.35357 8.38112L7.64646 9.08823ZM5.604 11.8378L8.35357 9.08823L7.64646 8.38112L4.8969 11.1307L5.604 11.8378ZM4.16224 11.8378C4.56037 12.2359 5.20587 12.2359 5.604 11.8378L4.8969 11.1307C4.88929 11.1383 4.87695 11.1383 4.86934 11.1307L4.16224 11.8378ZM4.16224 10.396C3.7641 10.7942 3.7641 11.4397 4.16224 11.8378L4.86934 11.1307C4.86173 11.1231 4.86173 11.1107 4.86934 11.1031L4.16224 10.396ZM6.9118 7.64646L4.16224 10.396L4.86934 11.1031L7.61891 8.35357L6.9118 7.64646ZM4.16224 5.604L6.9118 8.35357L7.61891 7.64646L4.86934 4.8969L4.16224 5.604ZM4.16224 4.16224C3.7641 4.56037 3.7641 5.20587 4.16224 5.604L4.86934 4.8969C4.86173 4.88929 4.86173 4.87695 4.86934 4.86934L4.16224 4.16224ZM5.604 4.16224C5.20587 3.7641 4.56037 3.7641 4.16224 4.16224L4.86934 4.86934C4.87695 4.86173 4.88929 4.86173 4.8969 4.86934L5.604 4.16224ZM8.35357 6.9118L5.604 4.16224L4.8969 4.86934L7.64646 7.61891L8.35357 6.9118ZM10.396 4.16224L7.64646 6.9118L8.35357 7.61891L11.1031 4.86934L10.396 4.16224ZM11.8378 4.16224C11.4397 3.7641 10.7942 3.7641 10.396 4.16224L11.1031 4.86934C11.1107 4.86173 11.1231 4.86173 11.1307 4.86934L11.8378 4.16224Z" fill="#FF8888" fill-opacity="0.12" mask="url(#path-1-inside-1)"/>
</svg>
