<svg width="40" height="40" viewBox="0 0 40 40" fill="none" xmlns="http://www.w3.org/2000/svg">
<path fill-rule="evenodd" clip-rule="evenodd" d="M16.0042 25.2278C15.6842 25.2278 15.3642 25.1062 15.1209 24.8612C14.6326 24.3728 14.6326 23.5828 15.1209 23.0945L23.1076 15.1078C23.5959 14.6195 24.3859 14.6195 24.8742 15.1078C25.3626 15.5962 25.3626 16.3862 24.8742 16.8745L16.8876 24.8612C16.6442 25.1062 16.3242 25.2278 16.0042 25.2278Z" fill="#B8BAC7"/>
<path fill-rule="evenodd" clip-rule="evenodd" d="M23.9941 25.2326C23.6741 25.2326 23.3541 25.111 23.1108 24.866L15.1175 16.871C14.6291 16.3826 14.6291 15.5926 15.1175 15.1043C15.6075 14.616 16.3975 14.616 16.8841 15.1043L24.8775 23.0993C25.3658 23.5876 25.3658 24.3776 24.8775 24.866C24.6341 25.111 24.3125 25.2326 23.9941 25.2326Z" fill="#B8BAC7"/>
<path fill-rule="evenodd" clip-rule="evenodd" d="M12.7749 5.83331C8.55825 5.83331 5.83325 8.72165 5.83325 13.1933V26.8066C5.83325 31.2783 8.55825 34.1666 12.7749 34.1666H27.2216C31.4399 34.1666 34.1666 31.2783 34.1666 26.8066V13.1933C34.1666 8.72165 31.4399 5.83331 27.2233 5.83331H12.7749ZM27.2216 36.6666H12.7749C7.12659 36.6666 3.33325 32.7033 3.33325 26.8066V13.1933C3.33325 7.29665 7.12659 3.33331 12.7749 3.33331H27.2233C32.8716 3.33331 36.6666 7.29665 36.6666 13.1933V26.8066C36.6666 32.7033 32.8716 36.6666 27.2216 36.6666Z" fill="#B8BAC7"/>
</svg>
