<svg width="42" height="42" viewBox="0 0 42 42" fill="none" xmlns="http://www.w3.org/2000/svg">
<path d="M24.3765 29.2068V33.0834C24.3763 33.9357 24.8579 34.7149 25.6203 35.0959L26.4907 35.5311C27.7576 36.1643 29.2487 36.1643 30.5157 35.5311L31.3861 35.0959C32.1485 34.7149 32.6301 33.9357 32.6299 33.0834V29.2068" stroke="#3C97F0" stroke-width="2" stroke-linecap="round" stroke-linejoin="round"/>
<path fill-rule="evenodd" clip-rule="evenodd" d="M21.6888 27.863L26.836 30.434C27.889 30.9593 29.1276 30.9593 30.1807 30.434L35.3228 27.863C35.7455 27.6522 36.0125 27.2206 36.0125 26.7483C36.0125 26.2761 35.7455 25.8444 35.3228 25.6337L30.1707 23.0626C29.118 22.5358 27.8786 22.5358 26.826 23.0626L21.6838 25.6337C21.2617 25.8454 20.9955 26.2776 20.9966 26.7499C20.9976 27.2221 21.2657 27.6532 21.6888 27.863Z" stroke="#3C97F0" stroke-width="2" stroke-linecap="round" stroke-linejoin="round"/>
<path d="M34.3393 19.3325V9.32837C34.3393 7.48666 32.8463 5.99365 31.0046 5.99365H9.32886C7.48715 5.99365 5.99414 7.48666 5.99414 9.32837V29.3367C5.99414 31.1784 7.48715 32.6714 9.32886 32.6714H19.333" stroke="#3C97F0" stroke-width="2" stroke-linecap="round" stroke-linejoin="round"/>
<path d="M16.415 19.3327H21.0003" stroke="#3C97F0" stroke-width="2" stroke-linecap="round" stroke-linejoin="round"/>
<path d="M16.415 12.8715H27.6697" stroke="#3C97F0" stroke-width="2" stroke-linecap="round" stroke-linejoin="round"/>
<path d="M11.2043 19.5411C11.3194 19.5411 11.4127 19.4478 11.4127 19.3327C11.4127 19.2176 11.3194 19.1243 11.2043 19.1243C11.0892 19.1243 10.9959 19.2176 10.9959 19.3327C10.9959 19.4478 11.0892 19.5411 11.2043 19.5411" stroke="#3C97F0" stroke-width="2" stroke-linecap="round" stroke-linejoin="round"/>
<path d="M11.2043 13.0799C11.3194 13.0799 11.4127 12.9866 11.4127 12.8715C11.4127 12.7564 11.3194 12.6631 11.2043 12.6631C11.0892 12.6631 10.9959 12.7564 10.9959 12.8715C10.9959 12.9866 11.0892 13.0799 11.2043 13.0799" stroke="#3C97F0" stroke-width="2" stroke-linecap="round" stroke-linejoin="round"/>
<path d="M36.006 26.7473V29.7486" stroke="#3C97F0" stroke-width="2" stroke-linecap="round" stroke-linejoin="round"/>
</svg>
