<svg width="20" height="20" viewBox="0 0 20 20" fill="none" xmlns="http://www.w3.org/2000/svg">
<path d="M3.33337 5.83398H16.6667" stroke="#FF6D7D" stroke-width="1.5" stroke-linecap="round" stroke-linejoin="round"/>
<path d="M8.33337 9.16602V14.166" stroke="#FF6D7D" stroke-width="1.5" stroke-linecap="round" stroke-linejoin="round"/>
<path d="M11.6666 9.16602V14.166" stroke="#FF6D7D" stroke-width="1.5" stroke-linecap="round" stroke-linejoin="round"/>
<path d="M4.16663 5.83398L4.99996 15.834C4.99996 16.276 5.17555 16.6999 5.48811 17.0125C5.80068 17.3251 6.2246 17.5007 6.66663 17.5007H13.3333C13.7753 17.5007 14.1992 17.3251 14.5118 17.0125C14.8244 16.6999 15 16.276 15 15.834L15.8333 5.83398" stroke="#FF6D7D" stroke-width="1.5" stroke-linecap="round" stroke-linejoin="round"/>
<path d="M7.5 5.83333V3.33333C7.5 3.11232 7.5878 2.90036 7.74408 2.74408C7.90036 2.5878 8.11232 2.5 8.33333 2.5H11.6667C11.8877 2.5 12.0996 2.5878 12.2559 2.74408C12.4122 2.90036 12.5 3.11232 12.5 3.33333V5.83333" stroke="#FF6D7D" stroke-width="1.5" stroke-linecap="round" stroke-linejoin="round"/>
</svg>
