<svg width="40" height="40" viewBox="0 0 40 40" fill="none" xmlns="http://www.w3.org/2000/svg">
<path d="M20 18.2238C21.6493 17.2751 23.5044 16.7416 25.4057 16.6689C25.7335 16.647 26.0557 16.7626 26.2949 16.9878C26.5341 17.213 26.6688 17.5276 26.6667 17.8562V25.5733C26.6584 26.2048 26.1608 26.7213 25.53 26.753C23.5788 26.7776 21.6696 27.3232 20 28.3334" stroke="#3C97F0" stroke-width="1.5" stroke-linecap="round" stroke-linejoin="round"/>
<path d="M20.0002 18.2238C18.3509 17.2751 16.4957 16.7416 14.5945 16.6689C14.2667 16.647 13.9445 16.7626 13.7053 16.9878C13.4661 17.213 13.3314 17.5276 13.3335 17.8562V25.5733C13.3418 26.2048 13.8394 26.7213 14.4702 26.753C16.4214 26.7776 18.3306 27.3232 20.0002 28.3334" stroke="#3C97F0" stroke-width="1.5" stroke-linecap="round" stroke-linejoin="round"/>
<path d="M19.9998 18.2239V28.3335" stroke="#3C97F0" stroke-width="1.5" stroke-linecap="round" stroke-linejoin="round"/>
<path fill-rule="evenodd" clip-rule="evenodd" d="M5 30V17.7783C4.99999 16.2355 5.7123 14.779 6.93015 13.8317L16.9301 6.05335C18.7358 4.64888 21.2642 4.64888 23.0698 6.05335L33.0698 13.8317C34.2877 14.779 35 16.2354 35 17.7783V30C35 32.7614 32.7614 35 30 35H10C7.23858 35 5 32.7614 5 30Z" stroke="#3C97F0" stroke-width="1.5" stroke-linecap="round" stroke-linejoin="round"/>
</svg>
