<svg width="29" height="29" viewBox="0 0 29 29" fill="none" xmlns="http://www.w3.org/2000/svg">
<path d="M14.0625 20.4531V25.0473" stroke="#40A1FF" stroke-width="1.5" stroke-linecap="round" stroke-linejoin="round"/>
<path d="M3.51562 25.0469V23.3225C3.51563 21.6466 4.69849 20.2038 6.34178 19.8751L9.67693 19.2081C9.9526 19.153 10.2389 19.2096 10.4728 19.3655V19.3655C12.6466 20.8147 15.4785 20.8147 17.6523 19.3655V19.3655C17.8862 19.2096 18.1725 19.153 18.4481 19.2081L21.7833 19.8751C23.4266 20.2038 24.6094 21.6467 24.6094 23.3225V25.0469" stroke="#40A1FF" stroke-width="1.5" stroke-linecap="round" stroke-linejoin="round"/>
<path d="M18.75 9.10938V12.1582C18.75 14.747 16.6513 16.8457 14.0625 16.8457V16.8457C11.4737 16.8457 9.375 14.747 9.375 12.1582V9.10938" stroke="#40A1FF" stroke-width="1.5" stroke-linecap="round" stroke-linejoin="round"/>
<path d="M16.5245 16.1484L17.373 19.5427" stroke="#40A1FF" stroke-width="1.5" stroke-linecap="round" stroke-linejoin="round"/>
<path d="M11.603 16.1484L10.7545 19.5426" stroke="#40A1FF" stroke-width="1.5" stroke-linecap="round" stroke-linejoin="round"/>
<path fill-rule="evenodd" clip-rule="evenodd" d="M7.14476 8.00333L12.3649 10.5876C13.4348 11.1166 14.6902 11.1166 15.7601 10.5876L20.9802 8.00333C21.4083 7.79407 21.6797 7.35925 21.6797 6.88281C21.6797 6.40637 21.4083 5.97155 20.9802 5.76229L15.7601 3.17803C14.6902 2.64899 13.4348 2.64899 12.3649 3.17803L7.14476 5.76229C6.71673 5.97155 6.44531 6.40637 6.44531 6.88281C6.44531 7.35925 6.71673 7.79407 7.14476 8.00333Z" stroke="#40A1FF" stroke-width="1.5" stroke-linecap="round" stroke-linejoin="round"/>
<path d="M21.6797 6.92188V9.96875" stroke="#40A1FF" stroke-width="1.5" stroke-linecap="round" stroke-linejoin="round"/>
</svg>
