<svg width="16" height="16" viewBox="0 0 16 16" fill="none" xmlns="http://www.w3.org/2000/svg">
<path d="M12 2.66666H4C2.89543 2.66666 2 3.56209 2 4.66666V11.3333C2 12.4379 2.89543 13.3333 4 13.3333H12C13.1046 13.3333 14 12.4379 14 11.3333V4.66666C14 3.56209 13.1046 2.66666 12 2.66666Z" stroke="#00ABFF" stroke-width="1.5" stroke-linecap="round" stroke-linejoin="round"/>
<path fill-rule="evenodd" clip-rule="evenodd" d="M3.9165 5.33334C3.9165 4.91913 4.25229 4.58334 4.6665 4.58334H11.3332C11.7474 4.58334 12.0832 4.91913 12.0832 5.33334C12.0832 5.74756 11.7474 6.08334 11.3332 6.08334H4.6665C4.25229 6.08334 3.9165 5.74756 3.9165 5.33334ZM3.9165 8.00001C3.9165 7.5858 4.25229 7.25001 4.6665 7.25001H11.3332C11.7474 7.25001 12.0832 7.5858 12.0832 8.00001C12.0832 8.41423 11.7474 8.75001 11.3332 8.75001H4.6665C4.25229 8.75001 3.9165 8.41423 3.9165 8.00001ZM4.6665 9.91668C4.25229 9.91668 3.9165 10.2525 3.9165 10.6667C3.9165 11.0809 4.25229 11.4167 4.6665 11.4167H8.6665C9.08072 11.4167 9.4165 11.0809 9.4165 10.6667C9.4165 10.2525 9.08072 9.91668 8.6665 9.91668H4.6665Z" fill="#00ABFF"/>
</svg>
