<svg width="40" height="40" viewBox="0 0 40 40" fill="none" xmlns="http://www.w3.org/2000/svg">
<rect width="40" height="40" rx="3" fill="#EBF5FF"/>
<path d="M20.4523 21.4625L20.4594 21.4297C20.5953 20.8695 20.7664 20.1711 20.6328 19.5383C20.5437 19.0391 20.1758 18.8445 19.8617 18.8305C19.4914 18.8141 19.1609 19.025 19.0789 19.332C18.9242 19.8945 19.0625 20.6633 19.3156 21.643C18.9969 22.4023 18.4883 23.5062 18.1156 24.1625C17.4219 24.5211 16.4914 25.0742 16.3531 25.7727C16.325 25.9016 16.3578 26.0656 16.4352 26.2133C16.5219 26.3773 16.6602 26.5039 16.8219 26.5648C16.8922 26.5906 16.9766 26.6117 17.075 26.6117C17.4875 26.6117 18.1555 26.2789 19.0461 24.7508C19.182 24.7063 19.3227 24.6594 19.4586 24.6125C20.0961 24.3969 20.757 24.1719 21.3547 24.0711C22.0156 24.425 22.768 24.6523 23.2789 24.6523C23.7852 24.6523 23.9844 24.3523 24.0594 24.1719C24.1906 23.8555 24.1273 23.457 23.9141 23.2438C23.6047 22.9391 22.8523 22.8594 21.6805 23.0047C21.1039 22.6531 20.7266 22.175 20.4523 21.4625ZM17.8813 25.0227C17.5555 25.4961 17.3094 25.7328 17.1758 25.8359C17.3328 25.5477 17.6398 25.243 17.8813 25.0227ZM19.9344 19.5031C20.0563 19.7117 20.0398 20.3422 19.9461 20.6609C19.8313 20.1945 19.8148 19.5336 19.8828 19.4562C19.9016 19.4586 19.918 19.4727 19.9344 19.5031ZM19.8969 22.3273C20.1477 22.7609 20.4641 23.1336 20.8133 23.4102C20.307 23.525 19.8453 23.7148 19.4328 23.8836C19.3344 23.9234 19.2383 23.9633 19.1445 24.0008C19.4563 23.4359 19.7164 22.7961 19.8969 22.3273ZM23.5438 23.8625C23.5461 23.8672 23.5484 23.8742 23.5344 23.8836H23.5297L23.525 23.8906C23.5063 23.9023 23.3141 24.0148 22.4867 23.6891C23.4383 23.6445 23.5414 23.8602 23.5438 23.8625ZM28.0297 14.7641L22.9859 9.72031C22.8453 9.57969 22.6555 9.5 22.4562 9.5H12.5C12.0852 9.5 11.75 9.83516 11.75 10.25V29.75C11.75 30.1648 12.0852 30.5 12.5 30.5H27.5C27.9148 30.5 28.25 30.1648 28.25 29.75V15.2961C28.25 15.0969 28.1703 14.9047 28.0297 14.7641ZM26.5203 15.6406H22.1094V11.2297L26.5203 15.6406ZM26.5625 28.8125H13.4375V11.1875H20.5156V16.25C20.5156 16.5111 20.6193 16.7615 20.8039 16.9461C20.9885 17.1307 21.2389 17.2344 21.5 17.2344H26.5625V28.8125Z" fill="#40A1FF"/>
</svg>
