<svg width="40" height="40" viewBox="0 0 40 40" fill="none" xmlns="http://www.w3.org/2000/svg">
<path opacity="0.2" d="M33.1702 0H6.8298C3.05781 0 0 3.05781 0 6.8298V33.1702C0 36.9422 3.05781 40 6.8298 40H33.1702C36.9422 40 40 36.9422 40 33.1702V6.8298C40 3.05781 36.9422 0 33.1702 0Z" fill="#DEDEDE"/>
<path d="M27 16H23C22.448 16 22 15.552 22 15V11" stroke="#AEAEAE" stroke-width="1.5" stroke-linecap="round" stroke-linejoin="round"/>
<path fill-rule="evenodd" clip-rule="evenodd" d="M26.414 14.414L23.586 11.586C23.211 11.211 22.702 11 22.172 11H15C13.895 11 13 11.895 13 13V27C13 28.105 13.895 29 15 29H25C26.105 29 27 28.105 27 27V15.828C27 15.298 26.789 14.789 26.414 14.414Z" stroke="#AEAEAE" stroke-width="1.5" stroke-linecap="round" stroke-linejoin="round"/>
</svg>
