<svg width="48" height="48" viewBox="0 0 48 48" fill="none" xmlns="http://www.w3.org/2000/svg">
<rect width="48" height="48" rx="5" fill="#EBF5FF"/>
<path d="M20.586 30L24 33.414L27.414 30H31C32.103 30 33 29.103 33 28V16C33 14.897 32.103 14 31 14H17C15.897 14 15 14.897 15 16V28C15 29.103 15.897 30 17 30H20.586ZM17 16H31V28H26.586L24 30.586L21.414 28H17V16Z" fill="#40A1FF"/>
<path d="M24.479 19.219L19.502 24.188V25.987H21.302L26.277 21.018L24.479 19.219Z" fill="#40A1FF"/>
<path d="M26.6982 16.999L28.4983 18.7981L27.1276 20.1696L25.3275 18.3705L26.6982 16.999Z" fill="#40A1FF"/>
</svg>
