<svg width="24" height="24" viewBox="0 0 24 24" fill="none" xmlns="http://www.w3.org/2000/svg">
<path d="M7 6H4.538C3.689 6 3 6.689 3 7.538V19.23C3 20.08 3.689 20.768 4.538 20.768H19.461C20.311 20.768 20.999 20.079 20.999 19.23V7.538C21 6.689 20.311 6 19.462 6H17" stroke="url(#paint0_linear_4683_347)" stroke-width="1.5" stroke-linecap="round" stroke-linejoin="round"/>
<path d="M15 10L12 13L9 10" stroke="url(#paint1_linear_4683_347)" stroke-width="1.5" stroke-linecap="round" stroke-linejoin="round"/>
<path d="M12 3V13" stroke="url(#paint2_linear_4683_347)" stroke-width="1.5" stroke-linecap="round" stroke-linejoin="round"/>
<path d="M8 16H16" stroke="url(#paint3_linear_4683_347)" stroke-width="1.5" stroke-linecap="round" stroke-linejoin="round"/>
<defs>
<linearGradient id="paint0_linear_4683_347" x1="7.27476" y1="6.44304" x2="13.6964" y2="23.6066" gradientUnits="userSpaceOnUse">
<stop stop-color="#419FFF"/>
<stop offset="1" stop-color="#0779FF"/>
</linearGradient>
<linearGradient id="paint1_linear_4683_347" x1="10.425" y1="10.09" x2="11.2864" y2="13.8683" gradientUnits="userSpaceOnUse">
<stop stop-color="#419FFF"/>
<stop offset="1" stop-color="#0779FF"/>
</linearGradient>
<linearGradient id="paint2_linear_4683_347" x1="11.7375" y1="3.3" x2="14.5097" y2="3.90793" gradientUnits="userSpaceOnUse">
<stop stop-color="#419FFF"/>
<stop offset="1" stop-color="#0779FF"/>
</linearGradient>
<linearGradient id="paint3_linear_4683_347" x1="9.9" y1="15.53" x2="9.97527" y2="16.8506" gradientUnits="userSpaceOnUse">
<stop stop-color="#419FFF"/>
<stop offset="1" stop-color="#0779FF"/>
</linearGradient>
</defs>
</svg>
