<svg width="78" height="83" viewBox="0 0 78 83" fill="none" xmlns="http://www.w3.org/2000/svg">
<path opacity="0.1" d="M4.60438 0.0231069C2.06784 0.0231069 0 1.75615 0 3.88202V78.4451C0 80.571 2.06784 82.304 4.60438 82.304H57.6513C60.1878 82.304 62.2556 80.571 62.2556 78.4451V17.9081L40.0057 0H4.60438V0.0231069Z" fill="#1CB5D2"/>
<path d="M62.2846 17.9316H44.6666C42.1301 17.9316 40.0623 16.1985 40.0623 14.0726V0.0234375L62.2846 17.9316Z" fill="#A7E4F0"/>
<path d="M55.7781 23.2218C55.7781 23.8919 55.144 24.4234 54.3444 24.4234H8.27305C7.47349 24.4234 6.83936 23.8919 6.83936 23.2218C6.83936 22.5517 7.47349 22.0202 8.27305 22.0202H54.3444C55.144 21.9971 55.7781 22.5517 55.7781 23.2218ZM55.7781 29.5532C55.7781 30.2233 55.144 30.7548 54.3444 30.7548H8.27305C7.47349 30.7548 6.83936 30.2233 6.83936 29.5532C6.83936 28.8831 7.47349 28.3516 8.27305 28.3516H54.3444C55.144 28.3516 55.7781 28.8831 55.7781 29.5532ZM55.7781 35.5842C55.7781 36.2543 55.144 36.7858 54.3444 36.7858H8.27305C7.47349 36.7858 6.83936 36.2543 6.83936 35.5842C6.83936 34.9141 7.47349 34.3826 8.27305 34.3826H54.3444C55.144 34.3826 55.7781 34.9141 55.7781 35.5842ZM55.7781 41.9156C55.7781 42.5857 55.144 43.1171 54.3444 43.1171H8.27305C7.47349 43.1171 6.83936 42.5857 6.83936 41.9156C6.83936 41.2455 7.47349 40.714 8.27305 40.714H54.3444C55.144 40.714 55.7781 41.2455 55.7781 41.9156ZM32.3978 47.0454H8.27305C7.47349 47.0454 6.83936 47.5768 6.83936 48.2469C6.83936 48.9171 7.47349 49.4485 8.27305 49.4485H32.3978C33.1974 49.4485 33.8315 48.9171 33.8315 48.2469C33.8315 47.5999 33.1974 47.0454 32.3978 47.0454Z" fill="#A7E4F0"/>
<path fill-rule="evenodd" clip-rule="evenodd" d="M59.305 60.3843C57.7177 57.5216 54.665 55.584 51.1599 55.584C46.0196 55.584 41.8526 59.751 41.8526 64.8913C41.8526 66.0309 42.0574 67.1228 42.4323 68.132C40.8036 69.6429 39.7844 71.8017 39.7844 74.1985C39.7844 78.7676 43.4884 82.4716 48.0575 82.4716H68.7403C73.3094 82.4716 77.0134 78.7676 77.0134 74.1985C77.0134 69.947 73.8065 66.4445 69.6797 65.9781C69.742 65.6252 69.7745 65.262 69.7745 64.8913C69.7745 61.4644 66.9965 58.6864 63.5697 58.6864C61.9179 58.6864 60.4169 59.3318 59.305 60.3843Z" fill="#1CB5D2"/>
<path fill-rule="evenodd" clip-rule="evenodd" d="M58.7608 65.1629L64.2371 70.2721C65.0203 71.0027 64.4656 72.252 63.3581 72.252H60.8744C60.8839 72.3097 60.8888 72.3688 60.8888 72.429V78.1756C60.8888 78.8161 60.3322 79.3354 59.6457 79.3354H55.948C55.2614 79.3354 54.7049 78.8161 54.7049 78.1756V72.429C54.7049 72.3688 54.7098 72.3097 54.7193 72.252H52.4055C51.298 72.252 50.7434 71.0027 51.5265 70.2721L57.0028 65.1629C57.4883 64.71 58.2754 64.71 58.7608 65.1629Z" fill="white"/>
</svg>
