<svg width="92" height="77" viewBox="0 0 92 77" fill="none" xmlns="http://www.w3.org/2000/svg">
<g clip-path="url(#clip0)">
<path opacity="0.1" d="M85.1723 24.3487L61.9781 10.9575C61.3958 10.6214 49.3362 2.41763 49.0001 2.99989L47.5 5.49976L41.5 14.9998C41.5 14.9998 40.6956 16.168 40.3594 16.7502C40.0232 17.3325 20.8813 50.4872 20.8813 50.4872C20.5451 51.0695 20.7447 51.8141 21.3269 52.1503L57.1726 72.8458C57.7548 73.1819 58.4994 72.9824 58.8356 72.4002L85.618 26.0117C85.9541 25.4293 85.7546 24.6849 85.1723 24.3487Z" fill="#40A1FF"/>
<g opacity="0.5">
<path d="M54.499 62.868L31.3047 49.4768C30.7225 49.1406 30.5229 48.396 30.8591 47.8138L43.0329 26.7281C43.3691 26.1459 44.1137 25.9464 44.6959 26.2825L67.8902 39.6737C68.4724 40.0099 68.6719 40.7545 68.3358 41.3368L56.162 62.4224C55.8257 63.0047 55.0812 63.2042 54.499 62.868ZM33.5764 47.977L54.662 60.1508L65.6184 41.1737L44.5328 28.9999L33.5764 47.977Z" fill="#40A1FF"/>
<path d="M37.6304 53.1291C37.0481 52.793 36.8486 52.0484 37.1848 51.4661L49.3586 30.3805C49.6947 29.7982 50.4393 29.5987 51.0216 29.9349C51.6039 30.271 51.8034 31.0156 51.4672 31.5979L39.2934 52.6835C38.9572 53.2659 38.2127 53.4653 37.6304 53.1291Z" fill="#40A1FF"/>
<path d="M46.0647 57.9983C45.4825 57.6621 45.2829 56.9175 45.6191 56.3352L57.7929 35.2496C58.1291 34.6674 58.8737 34.4679 59.4559 34.804C60.0382 35.1402 60.2377 35.8848 59.9015 36.467L47.7277 57.5527C47.3915 58.135 46.647 58.3344 46.0647 57.9983Z" fill="#40A1FF"/>
<path d="M64.2379 45.9997L41.0437 32.6085C40.4614 32.2723 40.2619 31.5277 40.5981 30.9454C40.9342 30.3632 41.6788 30.1637 42.2611 30.4998L65.4554 43.891C66.0376 44.2272 66.2371 44.9718 65.901 45.5541C65.5647 46.1363 64.8202 46.3358 64.2379 45.9997Z" fill="#40A1FF"/>
<path d="M61.8034 50.2165L38.6091 36.8252C38.0269 36.4891 37.8273 35.7445 38.1635 35.1622C38.4997 34.58 39.2443 34.3805 39.8265 34.7166L63.0208 48.1078C63.603 48.444 63.8026 49.1886 63.4664 49.7709C63.1301 50.3532 62.3856 50.5526 61.8034 50.2165Z" fill="#40A1FF"/>
<path d="M59.3685 54.4337L36.1743 41.0425C35.592 40.7064 35.3925 39.9618 35.7287 39.3795C36.0649 38.7972 36.8095 38.5977 37.3917 38.9339L60.586 52.3251C61.1682 52.6613 61.3677 53.4059 61.0316 53.9881C60.6953 54.5703 59.9508 54.7699 59.3685 54.4337Z" fill="#40A1FF"/>
<path d="M56.9337 58.651L33.7395 45.2598C33.1572 44.9237 32.9577 44.1791 33.2939 43.5968C33.63 43.0145 34.3746 42.815 34.9569 43.1512L58.1512 56.5424C58.7334 56.8786 58.9329 57.6232 58.5968 58.2054C58.2606 58.7877 57.516 58.9872 56.9337 58.651Z" fill="#40A1FF"/>
</g>
</g>
<path d="M15.6969 10.2184V22.6095H3.3058C2.08118 22.6095 1.08838 23.6023 1.08838 24.827V63.7831C1.08838 65.0077 2.08118 66.0005 3.3058 66.0005H44.6968C45.9214 66.0005 46.9142 65.0077 46.9142 63.7831V10.2183V10.2181C46.914 8.99365 45.9214 8.00098 44.6968 8.00098H17.9144C16.6897 8.00098 15.6969 8.99377 15.6969 10.2184Z" fill="url(#paint0_linear)" stroke="white" stroke-width="2"/>
<path d="M18.3794 9.09306C17.9246 8.90429 17.4008 9.00803 17.0524 9.35601L2.44382 23.9646C1.96779 24.4394 1.96687 25.2102 2.44165 25.6862C2.6706 25.9157 2.9816 26.0445 3.30573 26.0439H17.9143C18.5866 26.0439 19.1317 25.4988 19.1317 24.8265V10.2179C19.1316 9.72533 18.8346 9.28126 18.3794 9.09306Z" fill="#FCCA3D"/>
<g opacity="0.5">
<path d="M37.3924 57.696H10.61C9.93766 57.696 9.39258 57.1509 9.39258 56.4786V32.131C9.39258 31.4587 9.93766 30.9136 10.61 30.9136H37.3924C38.0647 30.9136 38.6098 31.4587 38.6098 32.131V56.4786C38.6097 57.151 38.0647 57.696 37.3924 57.696ZM11.8274 55.2613H36.175V33.3484H11.8274V55.2613Z" fill="white"/>
<path d="M17.9142 57.696C17.2419 57.696 16.6968 57.1509 16.6968 56.4786V32.131C16.6968 31.4587 17.2419 30.9136 17.9142 30.9136C18.5865 30.9136 19.1316 31.4587 19.1316 32.131V56.4786C19.1316 57.151 18.5865 57.696 17.9142 57.696Z" fill="white"/>
<path d="M27.6532 57.696C26.9809 57.696 26.4358 57.1509 26.4358 56.4786V32.131C26.4358 31.4587 26.9809 30.9136 27.6532 30.9136C28.3255 30.9136 28.8706 31.4587 28.8706 32.131V56.4786C28.8706 57.151 28.3255 57.696 27.6532 57.696Z" fill="white"/>
<path d="M37.3924 38.2181H10.61C9.93766 38.2181 9.39258 37.673 9.39258 37.0006C9.39258 36.3283 9.93766 35.7832 10.61 35.7832H37.3924C38.0647 35.7832 38.6098 36.3283 38.6098 37.0006C38.6097 37.673 38.0647 38.2181 37.3924 38.2181Z" fill="white"/>
<path d="M37.3924 43.0872H10.61C9.93766 43.0872 9.39258 42.5421 9.39258 41.8698C9.39258 41.1974 9.93766 40.6523 10.61 40.6523H37.3924C38.0647 40.6523 38.6098 41.1974 38.6098 41.8698C38.6097 42.5422 38.0647 43.0872 37.3924 43.0872Z" fill="white"/>
<path d="M37.3924 47.9568H10.61C9.93766 47.9568 9.39258 47.4117 9.39258 46.7394C9.39258 46.0671 9.93766 45.522 10.61 45.522H37.3924C38.0647 45.522 38.6098 46.0671 38.6098 46.7394C38.6097 47.4117 38.0647 47.9568 37.3924 47.9568Z" fill="white"/>
<path d="M37.3924 52.8264H10.61C9.93766 52.8264 9.39258 52.2814 9.39258 51.609C9.39258 50.9367 9.93766 50.3916 10.61 50.3916H37.3924C38.0647 50.3916 38.6098 50.9367 38.6098 51.609C38.6098 52.2814 38.0647 52.8264 37.3924 52.8264Z" fill="white"/>
</g>
<defs>
<linearGradient id="paint0_linear" x1="12.497" y1="10.681" x2="44.7704" y2="66.0702" gradientUnits="userSpaceOnUse">
<stop stop-color="#419FFF"/>
<stop offset="1" stop-color="#0779FF"/>
</linearGradient>
<clipPath id="clip0">
<rect width="56" height="56" fill="white" transform="translate(43) rotate(30)"/>
</clipPath>
</defs>
</svg>
