<svg width="24" height="24" viewBox="0 0 24 24" fill="none" xmlns="http://www.w3.org/2000/svg">
<path d="M21.0037 7.99834H2.99622" stroke="#EB5757" stroke-width="1.5" stroke-linecap="round" stroke-linejoin="round"/>
<path d="M17.5022 13.0004C19.9886 13.0004 22.0041 15.016 22.0041 17.5023C22.0041 19.9886 19.9886 22.0042 17.5022 22.0042C15.0159 22.0042 13.0004 19.9886 13.0004 17.5023C13.0004 15.016 15.0159 13.0004 17.5022 13.0004" stroke="#EB5757" stroke-width="1.5" stroke-linecap="round" stroke-linejoin="round"/>
<path d="M14.6741 21.0038H5.99747C4.33992 21.0038 2.99622 19.66 2.99622 18.0025V5.9975C2.99622 4.33996 4.33992 2.99625 5.99747 2.99625H18.0025C19.66 2.99625 21.0037 4.33996 21.0037 5.9975V14.6741" stroke="#EB5757" stroke-width="1.5" stroke-linecap="round" stroke-linejoin="round"/>
<path d="M17.3953 15.9847V17.7434L18.7778 18.5867" stroke="#EB5757" stroke-width="1.5" stroke-linecap="round" stroke-linejoin="round"/>
<path d="M13.7497 11.4498C13.7226 11.4498 13.7007 11.4717 13.7007 11.4988C13.7007 11.5259 13.7226 11.5478 13.7497 11.5478C13.7768 11.5478 13.7987 11.5259 13.7987 11.4988C13.7987 11.4717 13.7768 11.4498 13.7497 11.4498" stroke="#EB5757" stroke-width="1.5" stroke-linecap="round" stroke-linejoin="round"/>
<path d="M10.2482 11.4498C10.2353 11.4498 10.223 11.455 10.2139 11.4642C10.2049 11.4734 10.1999 11.4859 10.2002 11.4988C10.2002 11.5187 10.2123 11.5366 10.2307 11.5442C10.2492 11.5517 10.2703 11.5473 10.2843 11.5331C10.2982 11.5189 10.3021 11.4976 10.2942 11.4793C10.2863 11.461 10.2681 11.4494 10.2482 11.4498" stroke="#EB5757" stroke-width="1.5" stroke-linecap="round" stroke-linejoin="round"/>
<path d="M6.74681 11.4498C6.73355 11.4495 6.72076 11.4547 6.71147 11.4642C6.70219 11.4736 6.69723 11.4865 6.69779 11.4998C6.69779 11.5197 6.70985 11.5376 6.72829 11.5452C6.74673 11.5527 6.76789 11.5483 6.78183 11.5341C6.79577 11.5199 6.79971 11.4986 6.79181 11.4803C6.7839 11.4621 6.76572 11.4504 6.74581 11.4508" stroke="#EB5757" stroke-width="1.5" stroke-linecap="round" stroke-linejoin="round"/>
<path d="M10.2482 14.451C10.2353 14.451 10.223 14.4562 10.2139 14.4654C10.2049 14.4747 10.1999 14.4871 10.2002 14.5C10.2002 14.52 10.2123 14.5379 10.2307 14.5454C10.2492 14.5529 10.2703 14.5486 10.2843 14.5343C10.2982 14.5201 10.3021 14.4989 10.2942 14.4806C10.2863 14.4623 10.2681 14.4506 10.2482 14.451" stroke="#EB5757" stroke-width="1.5" stroke-linecap="round" stroke-linejoin="round"/>
<path d="M6.74681 14.451C6.73355 14.4507 6.72076 14.4559 6.71147 14.4654C6.70219 14.4749 6.69723 14.4878 6.69779 14.501C6.69779 14.521 6.70985 14.5389 6.72829 14.5464C6.74673 14.5539 6.76789 14.5496 6.78183 14.5353C6.79577 14.5211 6.79971 14.4999 6.79181 14.4816C6.7839 14.4633 6.76572 14.4516 6.74581 14.452" stroke="#EB5757" stroke-width="1.5" stroke-linecap="round" stroke-linejoin="round"/>
<path d="M10.2482 17.4533C10.2353 17.4533 10.223 17.4585 10.2139 17.4677C10.2049 17.4769 10.1999 17.4894 10.2002 17.5023C10.2002 17.5222 10.2123 17.5401 10.2307 17.5477C10.2492 17.5552 10.2703 17.5508 10.2843 17.5366C10.2982 17.5224 10.3021 17.5011 10.2942 17.4828C10.2863 17.4645 10.2681 17.4529 10.2482 17.4533" stroke="#EB5757" stroke-width="1.5" stroke-linecap="round" stroke-linejoin="round"/>
<path d="M6.74679 17.4533C6.73371 17.453 6.72108 17.4581 6.71183 17.4673C6.70258 17.4766 6.6975 17.4892 6.69777 17.5023C6.69778 17.5222 6.70983 17.5401 6.72827 17.5477C6.74671 17.5552 6.76788 17.5508 6.78181 17.5366C6.79575 17.5224 6.79969 17.5011 6.79179 17.4828C6.78389 17.4645 6.76571 17.4529 6.74579 17.4533" stroke="#EB5757" stroke-width="1.5" stroke-linecap="round" stroke-linejoin="round"/>
</svg>
