<svg width="20" height="20" viewBox="0 0 20 20" fill="none" xmlns="http://www.w3.org/2000/svg">
<path d="M7.50004 5.83398H5.00004C4.55801 5.83398 4.13409 6.00958 3.82153 6.32214C3.50897 6.6347 3.33337 7.05862 3.33337 7.50065V15.0007C3.33337 15.4427 3.50897 15.8666 3.82153 16.1792C4.13409 16.4917 4.55801 16.6673 5.00004 16.6673H12.5C12.9421 16.6673 13.366 16.4917 13.6786 16.1792C13.9911 15.8666 14.1667 15.4427 14.1667 15.0007V12.5007" stroke="#888888" stroke-width="1.5" stroke-linecap="round" stroke-linejoin="round"/>
<path d="M7.5 12.4995H10L17.0833 5.4162C17.4149 5.08468 17.6011 4.63505 17.6011 4.1662C17.6011 3.69736 17.4149 3.24773 17.0833 2.9162C16.7518 2.58468 16.3022 2.39844 15.8333 2.39844C15.3645 2.39844 14.9149 2.58468 14.5833 2.9162L7.5 9.99954V12.4995Z" stroke="#888888" stroke-width="1.5" stroke-linecap="round" stroke-linejoin="round"/>
<path d="M13.3334 4.16602L15.8334 6.66602" stroke="#888888" stroke-width="1.5" stroke-linecap="round" stroke-linejoin="round"/>
</svg>
