<svg width="3" height="12" viewBox="0 0 3 12" fill="none" xmlns="http://www.w3.org/2000/svg">
<path d="M3 1.5C3 0.671875 2.32812 -2.93686e-08 1.5 -6.55671e-08C0.671875 -1.01766e-07 -2.93686e-08 0.671875 -6.55671e-08 1.5C-1.01766e-07 2.32812 0.671875 3 1.5 3C2.32812 3 3 2.32812 3 1.5ZM3 6C3 5.17188 2.32812 4.5 1.5 4.5C0.671875 4.5 -2.2607e-07 5.17187 -2.62268e-07 6C-2.98467e-07 6.82812 0.671875 7.5 1.5 7.5C2.32812 7.5 3 6.82812 3 6ZM3 10.5C3 9.67188 2.32812 9 1.5 9C0.671875 9 -4.22771e-07 9.67187 -4.5897e-07 10.5C-4.95168e-07 11.3281 0.671874 12 1.5 12C2.32812 12 3 11.3281 3 10.5Z" fill="#888888"/>
</svg>
