<svg width="20" height="20" viewBox="0 0 20 20" fill="none" xmlns="http://www.w3.org/2000/svg">
<path d="M9.99921 13.3333C9.88421 13.3333 9.79088 13.4267 9.79171 13.5417C9.79171 13.6567 9.88504 13.75 10 13.75C10.115 13.75 10.2084 13.6567 10.2084 13.5417C10.2084 13.4267 10.115 13.3333 9.99921 13.3333" stroke="white" stroke-width="1.5" stroke-linecap="round" stroke-linejoin="round"/>
<path opacity="0.6" fill-rule="evenodd" clip-rule="evenodd" d="M6.17833 17.0117L2.98833 13.8217C2.67583 13.5092 2.5 13.085 2.5 12.6433V7.35667C2.5 6.915 2.67583 6.49083 2.98833 6.17833L6.17833 2.98833C6.49083 2.67583 6.915 2.5 7.35667 2.5H12.6425C13.0842 2.5 13.5083 2.67583 13.8208 2.98833L17.0108 6.17833C17.3242 6.49083 17.5 6.915 17.5 7.35667V12.6425C17.5 13.0842 17.3242 13.5083 17.0117 13.8208L13.3333 17.5H7.35667C6.915 17.5 6.49083 17.3242 6.17833 17.0117V17.0117Z" stroke="white" stroke-linecap="round" stroke-linejoin="round"/>
<path d="M10 10.4167V6.25" stroke="white" stroke-width="1.5" stroke-linecap="round" stroke-linejoin="round"/>
</svg>
