<svg width="16" height="12" viewBox="0 0 16 12" fill="none" xmlns="http://www.w3.org/2000/svg">
<g opacity="0.3" clip-path="url(#clip0)">
<path fill-rule="evenodd" clip-rule="evenodd" d="M1.71628 6.47165C1.59662 6.28637 1.50002 6.12591 1.42716 6C1.50002 5.87409 1.59662 5.71363 1.71628 5.52835C2.02362 5.05246 2.47878 4.4196 3.06969 3.78929C4.26368 2.51571 5.933 1.33333 8 1.33333C10.067 1.33333 11.7363 2.51571 12.9303 3.78929C13.5212 4.4196 13.9764 5.05246 14.2837 5.52835C14.4034 5.71363 14.5 5.87409 14.5728 6C14.5 6.12591 14.4034 6.28637 14.2837 6.47165C13.9764 6.94754 13.5212 7.5804 12.9303 8.21071C11.7363 9.48429 10.067 10.6667 8 10.6667C5.933 10.6667 4.26368 9.48429 3.06969 8.21071C2.47878 7.5804 2.02362 6.94754 1.71628 6.47165ZM15.3333 6C15.9296 5.70186 15.9295 5.70163 15.9294 5.70139L15.3333 6ZM15.9294 5.70139C16.0232 5.88907 16.0235 6.11046 15.9296 6.29814L15.3333 6C15.9296 6.29814 15.9292 6.29896 15.9291 6.2992L15.9283 6.30075L15.926 6.30531L15.9184 6.32012C15.9121 6.33248 15.9031 6.34979 15.8915 6.37171C15.8683 6.41553 15.8347 6.47785 15.7907 6.55601C15.7028 6.71224 15.5734 6.93232 15.4038 7.19502C15.0653 7.71913 14.5621 8.4196 13.903 9.12263C12.597 10.5157 10.5997 12 8 12C5.40033 12 3.40299 10.5157 2.09698 9.12263C1.43789 8.4196 0.93471 7.71913 0.596224 7.19502C0.426567 6.93232 0.297195 6.71224 0.209314 6.55601C0.165349 6.47785 0.131693 6.41553 0.108502 6.37171C0.0969045 6.34979 0.0879168 6.33248 0.0815586 6.32012L0.0739933 6.30531L0.0716926 6.30075L0.0703819 6.29814L0.666642 6.00001C0.0744806 6.29609 0.0702892 6.29789 0.0703796 6.29814L0.0703819 6.29814C-0.0234606 6.11046 -0.0234606 5.88954 0.0703819 5.70186L0.666667 6C0.0703819 5.70186 0.0707909 5.70104 0.0709134 5.7008L0.0716926 5.69925L0.0739933 5.69469L0.0815586 5.67988C0.0879168 5.66752 0.0969045 5.65021 0.108502 5.62829C0.131693 5.58447 0.165349 5.52215 0.209314 5.44399C0.297195 5.28776 0.426567 5.06768 0.596224 4.80498C0.93471 4.28088 1.43789 3.5804 2.09698 2.87737C3.40299 1.48429 5.40033 0 8 0C10.5997 0 12.597 1.48429 13.903 2.87737C14.5621 3.5804 15.0653 4.28088 15.4038 4.80498C15.5734 5.06768 15.7028 5.28776 15.7907 5.44399C15.8347 5.52215 15.8683 5.58447 15.8915 5.62829C15.9031 5.65021 15.9121 5.66752 15.9184 5.67988L15.926 5.69469L15.9283 5.69925L15.9294 5.70139ZM6.66667 6C6.66667 5.26362 7.26362 4.66667 8 4.66667C8.73638 4.66667 9.33333 5.26362 9.33333 6C9.33333 6.73638 8.73638 7.33333 8 7.33333C7.26362 7.33333 6.66667 6.73638 6.66667 6ZM8 3.33333C6.52724 3.33333 5.33333 4.52724 5.33333 6C5.33333 7.47276 6.52724 8.66667 8 8.66667C9.47276 8.66667 10.6667 7.47276 10.6667 6C10.6667 4.52724 9.47276 3.33333 8 3.33333Z" fill="black"/>
</g>
</svg>
