<svg width="20" height="20" viewBox="0 0 20 20" fill="none" xmlns="http://www.w3.org/2000/svg">
<path d="M17.5 9.41016C17.5 13.1927 14.1267 16.2285 10 16.2285C9.46584 16.2285 8.94584 16.176 8.4425 16.0793" stroke="#40A1FF" stroke-width="1.5" stroke-linecap="round" stroke-linejoin="round"/>
<path d="M5.49917 14.856C3.68333 13.6143 2.5 11.646 2.5 9.41016" stroke="#5BA1F2" stroke-width="1.5" stroke-linecap="round" stroke-linejoin="round"/>
<path d="M5.49913 14.8555C5.4983 15.5671 5.49996 16.5271 5.49996 17.5346" stroke="#5BA1F2" stroke-width="1.5" stroke-linecap="round" stroke-linejoin="round"/>
<path d="M2.5 9.4093C2.5 5.6268 5.87333 2.5918 10 2.5918C14.1267 2.5918 17.5 5.62763 17.5 9.41013" stroke="#5BA1F2" stroke-width="1.5" stroke-linecap="round" stroke-linejoin="round"/>
<path d="M8.44167 16.0742L5.5 17.5326" stroke="#5BA1F2" stroke-width="1.5" stroke-linecap="round" stroke-linejoin="round"/>
<path d="M10.1474 9.43537C10.2287 9.51673 10.2287 9.64864 10.1474 9.73C10.066 9.81136 9.93409 9.81136 9.85273 9.73C9.77137 9.64864 9.77137 9.51673 9.85273 9.43537C9.93409 9.35401 10.066 9.35401 10.1474 9.43537" stroke="#5BA1F2" stroke-width="1.5" stroke-linecap="round" stroke-linejoin="round"/>
<path d="M13.4807 9.43537C13.5621 9.51673 13.5621 9.64864 13.4807 9.73C13.3994 9.81136 13.2675 9.81136 13.1861 9.73C13.1047 9.64864 13.1047 9.51673 13.1861 9.43537C13.2675 9.35401 13.3994 9.35401 13.4807 9.43537" stroke="#5BA1F2" stroke-width="1.5" stroke-linecap="round" stroke-linejoin="round"/>
<path d="M6.81398 9.43537C6.89534 9.51673 6.89534 9.64864 6.81398 9.73C6.73262 9.81136 6.60071 9.81136 6.51935 9.73C6.43799 9.64864 6.43799 9.51673 6.51935 9.43537C6.60071 9.35401 6.73262 9.35401 6.81398 9.43537" stroke="#5BA1F2" stroke-width="1.5" stroke-linecap="round" stroke-linejoin="round"/>
</svg>
