<svg width="16" height="16" viewBox="0 0 16 16" fill="none" xmlns="http://www.w3.org/2000/svg">
<path fill-rule="evenodd" clip-rule="evenodd" d="M10 1.25C10.4142 1.25 10.75 1.58579 10.75 2V4.58333H13.3333C13.7475 4.58333 14.0833 4.91912 14.0833 5.33333C14.0833 5.74755 13.7475 6.08333 13.3333 6.08333H10.6667C10.2909 6.08333 9.93061 5.93408 9.66493 5.6684C9.39926 5.40273 9.25 5.04239 9.25 4.66667V2C9.25 1.58579 9.58579 1.25 10 1.25Z" fill="#AEAEAE"/>
<path fill-rule="evenodd" clip-rule="evenodd" d="M6.92102 2.92085C7.03042 2.81146 7.17879 2.75 7.3335 2.75H9.68951L12.5835 5.64399V10C12.5835 10.1547 12.522 10.3031 12.4126 10.4125C12.3032 10.5219 12.1549 10.5833 12.0002 10.5833H7.3335C7.17879 10.5833 7.03042 10.5219 6.92102 10.4125C6.81163 10.3031 6.75017 10.1547 6.75017 10V3.33333C6.75017 3.17862 6.81163 3.03025 6.92102 2.92085ZM7.3335 1.25C6.78097 1.25 6.25106 1.46949 5.86036 1.86019C5.46966 2.25089 5.25017 2.7808 5.25017 3.33333V3.91667H4.66683C4.1143 3.91667 3.58439 4.13616 3.19369 4.52686C2.80299 4.91756 2.5835 5.44747 2.5835 6V12.6667C2.5835 13.2192 2.80299 13.7491 3.19369 14.1398C3.58439 14.5305 4.11429 14.75 4.66683 14.75H9.3335C9.88603 14.75 10.4159 14.5305 10.8066 14.1398C11.1973 13.7491 11.4168 13.2192 11.4168 12.6667V12.0833H12.0002C12.5527 12.0833 13.0826 11.8638 13.4733 11.4731C13.864 11.0824 14.0835 10.5525 14.0835 10V5.33333C14.0835 5.13442 14.0045 4.94366 13.8638 4.803L10.5305 1.46967C10.3898 1.32902 10.1991 1.25 10.0002 1.25H7.3335ZM9.91683 12.0833H7.3335C6.78097 12.0833 6.25106 11.8638 5.86036 11.4731C5.46966 11.0824 5.25017 10.5525 5.25017 10V5.41667H4.66683C4.51212 5.41667 4.36375 5.47813 4.25435 5.58752C4.14495 5.69692 4.0835 5.84529 4.0835 6V12.6667C4.0835 12.8214 4.14495 12.9698 4.25435 13.0791C4.36375 13.1885 4.51212 13.25 4.66683 13.25H9.3335C9.48821 13.25 9.63658 13.1885 9.74598 13.0791C9.85537 12.9698 9.91683 12.8214 9.91683 12.6667V12.0833Z" fill="#AEAEAE"/>
</svg>
