<svg width="92" height="77" viewBox="0 0 92 77" fill="none" xmlns="http://www.w3.org/2000/svg">
<g clip-path="url(#clip0_3320_13147)">
<path opacity="0.1" d="M85.0863 24.3487L61.892 10.9575C61.3098 10.6214 49.2502 2.41763 48.914 2.99989L47.4139 5.49976L41.4139 14.9998C41.4139 14.9998 40.6095 16.168 40.2733 16.7502C39.9372 17.3325 20.7953 50.4872 20.7953 50.4872C20.4591 51.0695 20.6586 51.8141 21.2409 52.1503L57.0865 72.8458C57.6688 73.1819 58.4134 72.9824 58.7495 72.4002L85.5319 26.0117C85.868 25.4293 85.6685 24.6849 85.0863 24.3487Z" fill="#40A1FF"/>
<g opacity="0.5">
<path d="M71.5526 30.1086L48.3584 16.7174C47.7761 16.3812 47.5766 15.6366 47.9128 15.0543C48.2489 14.4721 48.9935 14.2725 49.5758 14.6087L72.77 27.9999C73.3523 28.3361 73.5518 29.0807 73.2157 29.6629C72.8794 30.2452 72.1349 30.4447 71.5526 30.1086Z" fill="#40A1FF"/>
<path d="M69.1179 34.3253L45.9237 20.9341C45.3414 20.598 45.1419 19.8534 45.4781 19.2711C45.8143 18.6889 46.5588 18.4893 47.1411 18.8255L70.3354 32.2167C70.9176 32.5529 71.1171 33.2975 70.781 33.8797C70.4446 34.462 69.7002 34.6615 69.1179 34.3253Z" fill="#40A1FF"/>
<path d="M66.6831 38.5426L43.4889 25.1514C42.9066 24.8153 42.7071 24.0707 43.0433 23.4884C43.3794 22.9061 44.124 22.7066 44.7063 23.0428L67.9005 36.434C68.4828 36.7702 68.6823 37.5148 68.3462 38.097C68.0099 38.6792 67.2654 38.8788 66.6831 38.5426Z" fill="#40A1FF"/>
<path d="M52.9589 36.2417L40.5627 29.0848C40.2515 28.9052 40.2718 28.2875 40.608 27.7052C40.9441 27.1229 41.469 26.7965 41.7802 26.9762L54.1763 34.1331C54.4875 34.3128 54.4672 34.9305 54.1311 35.5128C53.7949 36.095 53.2701 36.4214 52.9589 36.2417Z" fill="#40A1FF"/>
</g>
</g>
<path d="M15.6086 10.2174V22.6086H3.21742C1.9928 22.6086 1 23.6014 1 24.826V63.7821C1 65.0067 1.9928 65.9995 3.21742 65.9995H44.6084C45.833 65.9995 46.8258 65.0067 46.8258 63.7821V10.2173V10.2171C46.8256 8.99267 45.833 8 44.6084 8H17.826C16.6014 8 15.6086 8.9928 15.6086 10.2174Z" fill="url(#paint0_linear_3320_13147)" stroke="white" stroke-width="2"/>
<path d="M31.5 37.0622C32.1667 37.4471 32.1667 38.4093 31.5 38.7942L22.5 43.9904C21.8333 44.3753 21 43.8942 21 43.1244L21 32.732C21 31.9622 21.8333 31.4811 22.5 31.866L31.5 37.0622Z" fill="white"/>
<g opacity="0.2">
<path d="M15.7161 48.9011L2.23827 64.3928C2.08462 64.5694 2 64.7956 2 65.0297C2 65.5656 2.43443 66 2.97032 66H28.9103C29.7504 66 30.2161 65.0269 29.6891 64.3727L17.2493 48.9301C16.8587 48.4452 16.1247 48.4313 15.7161 48.9011Z" fill="white"/>
<path d="M34.2137 50.91L23.197 63.6609C23.0699 63.8079 23 63.9959 23 64.1903C23 64.6375 23.3625 65 23.8097 65H44.9194C45.7579 65 46.2241 64.0301 45.7002 63.3753L35.7513 50.9391C35.3606 50.4508 34.6226 50.4368 34.2137 50.91Z" fill="white"/>
</g>
<path d="M18.2932 9.09306C17.8384 8.90429 17.3146 9.00803 16.9662 9.35601L2.35764 23.9646C1.88161 24.4394 1.88069 25.2102 2.35547 25.6862C2.58442 25.9157 2.89542 26.0445 3.21955 26.0439H17.8281C18.5004 26.0439 19.0455 25.4988 19.0455 24.8265V10.2179C19.0454 9.72533 18.7485 9.28126 18.2932 9.09306Z" fill="#FCCA3D"/>
<defs>
<linearGradient id="paint0_linear_3320_13147" x1="12.4086" y1="10.68" x2="44.682" y2="66.0692" gradientUnits="userSpaceOnUse">
<stop stop-color="#419FFF"/>
<stop offset="1" stop-color="#0779FF"/>
</linearGradient>
<clipPath id="clip0_3320_13147">
<rect width="56" height="56" fill="white" transform="translate(42.9141) rotate(30)"/>
</clipPath>
</defs>
</svg>
