<svg width="62" height="44" viewBox="0 0 62 44" fill="none" xmlns="http://www.w3.org/2000/svg">
<path d="M33.0833 23.25L37.4225 18.9108C37.5791 18.7542 37.6666 18.5425 37.6666 18.3217V16.1667C37.6666 15.7067 37.2933 15.3333 36.8333 15.3333H25.1666C24.7066 15.3333 24.3333 15.7067 24.3333 16.1667V18.3217C24.3333 18.5425 24.4208 18.755 24.5775 18.9108L28.9166 23.25" stroke="#40A1FF" stroke-width="1.5" stroke-linecap="round" stroke-linejoin="round"/>
<path d="M28.9166 23.25V28.4575C28.9166 29.135 29.5533 29.6325 30.2108 29.4683L32.2941 28.9475C32.7575 28.8317 33.0833 28.415 33.0833 27.9367V23.25" stroke="#40A1FF" stroke-width="1.5" stroke-linecap="round" stroke-linejoin="round"/>
<path d="M3.34315 40.6569L4.05025 39.9497L3.34315 40.6569ZM58.6569 40.6569L59.364 41.364L58.6569 40.6569ZM58.6569 3.34315L57.9497 4.05025L58.6569 3.34315ZM3.34315 3.34315L2.63604 2.63604L3.34315 3.34315ZM17 2H45V0H17V2ZM60 17V27H62V17H60ZM45 42H17V44H45V42ZM2 27V17H0V27H2ZM17 42C13.2005 42 10.4515 41.9979 8.35507 41.716C6.28745 41.438 5.00506 40.9046 4.05025 39.9497L2.63604 41.364C4.02438 42.7523 5.79918 43.3904 8.08858 43.6982C10.3492 44.0021 13.257 44 17 44V42ZM0 27C0 30.743 -0.00212371 33.6508 0.30181 35.9114C0.609612 38.2008 1.2477 39.9756 2.63604 41.364L4.05025 39.9497C3.09545 38.9949 2.56196 37.7126 2.28398 35.6449C2.00212 33.5485 2 30.7995 2 27H0ZM60 27C60 30.7995 59.9979 33.5485 59.716 35.6449C59.438 37.7126 58.9046 38.9949 57.9497 39.9497L59.364 41.364C60.7523 39.9756 61.3904 38.2008 61.6982 35.9114C62.0021 33.6508 62 30.743 62 27H60ZM45 44C48.743 44 51.6508 44.0021 53.9114 43.6982C56.2008 43.3904 57.9756 42.7523 59.364 41.364L57.9497 39.9497C56.9949 40.9046 55.7126 41.438 53.6449 41.716C51.5485 41.9979 48.7995 42 45 42V44ZM45 2C48.7995 2 51.5485 2.00212 53.6449 2.28398C55.7126 2.56196 56.9949 3.09545 57.9497 4.05025L59.364 2.63604C57.9756 1.2477 56.2008 0.609612 53.9114 0.30181C51.6508 -0.00212371 48.743 0 45 0V2ZM62 17C62 13.257 62.0021 10.3492 61.6982 8.08858C61.3904 5.79918 60.7523 4.02438 59.364 2.63604L57.9497 4.05025C58.9046 5.00506 59.438 6.28745 59.716 8.35507C59.9979 10.4515 60 13.2005 60 17H62ZM17 0C13.257 0 10.3492 -0.00212371 8.08858 0.30181C5.79918 0.609612 4.02438 1.2477 2.63604 2.63604L4.05025 4.05025C5.00506 3.09545 6.28745 2.56196 8.35507 2.28398C10.4515 2.00212 13.2005 2 17 2V0ZM2 17C2 13.2005 2.00212 10.4515 2.28398 8.35507C2.56196 6.28745 3.09545 5.00506 4.05025 4.05025L2.63604 2.63604C1.2477 4.02438 0.609612 5.79918 0.30181 8.08858C-0.00212371 10.3492 0 13.257 0 17H2Z" fill="#40A1FF"/>
</svg>
