<svg width="32" height="32" viewBox="0 0 32 32" fill="none" xmlns="http://www.w3.org/2000/svg">
<mask id="path-1-inside-1" fill="white">
<path d="M16 0C12.2273 -4.49887e-08 8.57599 1.33313 5.69082 3.76395C2.80565 6.19478 0.872253 9.56693 0.232052 13.2849C-0.40815 17.0029 0.286032 20.8275 2.19201 24.0833C4.09798 27.3391 7.09314 29.8167 10.6485 31.0785C14.2039 32.3404 18.0909 32.3053 21.6229 30.9794C25.1549 29.6536 28.1049 27.1223 29.9517 23.8326C31.7986 20.5429 32.4236 16.7064 31.7163 13.0006C31.0091 9.29477 29.0151 5.95808 26.0865 3.57976L23.59 6.65384C25.7938 8.44352 27.2943 10.9544 27.8265 13.7429C28.3587 16.5315 27.8883 19.4185 26.4986 21.894C25.1088 24.3695 22.889 26.2742 20.2312 27.2719C17.5734 28.2696 14.6485 28.296 11.9731 27.3465C9.29764 26.397 7.0438 24.5326 5.60957 22.0826C4.17533 19.6326 3.65296 16.7546 4.13471 13.9569C4.61646 11.1592 6.07133 8.62163 8.2424 6.79245C10.4135 4.96326 13.1611 3.96009 16 3.96009V0Z"/>
</mask>
<path d="M16 0C12.2273 -4.49887e-08 8.57599 1.33313 5.69082 3.76395C2.80565 6.19478 0.872253 9.56693 0.232052 13.2849C-0.40815 17.0029 0.286032 20.8275 2.19201 24.0833C4.09798 27.3391 7.09314 29.8167 10.6485 31.0785C14.2039 32.3404 18.0909 32.3053 21.6229 30.9794C25.1549 29.6536 28.1049 27.1223 29.9517 23.8326C31.7986 20.5429 32.4236 16.7064 31.7163 13.0006C31.0091 9.29477 29.0151 5.95808 26.0865 3.57976L23.59 6.65384C25.7938 8.44352 27.2943 10.9544 27.8265 13.7429C28.3587 16.5315 27.8883 19.4185 26.4986 21.894C25.1088 24.3695 22.889 26.2742 20.2312 27.2719C17.5734 28.2696 14.6485 28.296 11.9731 27.3465C9.29764 26.397 7.0438 24.5326 5.60957 22.0826C4.17533 19.6326 3.65296 16.7546 4.13471 13.9569C4.61646 11.1592 6.07133 8.62163 8.2424 6.79245C10.4135 4.96326 13.1611 3.96009 16 3.96009V0Z" stroke="#4EC977" stroke-width="8" mask="url(#path-1-inside-1)"/>
</svg>
