<svg width="24" height="24" viewBox="0 0 24 24" fill="none" xmlns="http://www.w3.org/2000/svg">
<path d="M15.0015 17.0019H18.4029C19.287 17.0019 20.0036 16.2853 20.0036 15.4013V4.99693C20.0036 3.8919 19.1078 2.99609 18.0028 2.99609H10.5997C9.71567 2.99609 8.99902 3.71274 8.99902 4.59676V6.99776" stroke="#DEDEDE" stroke-width="1.5" stroke-linecap="round" stroke-linejoin="round"/>
<path fill-rule="evenodd" clip-rule="evenodd" d="M15.0017 19.4013V10.8607C15.0017 10.4359 14.8329 10.0285 14.5325 9.72823L12.2695 7.46529C11.9692 7.16482 11.5618 6.99609 11.137 6.99609H5.59774C4.71371 6.99609 3.99707 7.71274 3.99707 8.59676V19.4013C3.99707 20.2853 4.71371 21.0019 5.59774 21.0019H13.401C14.285 21.0019 15.0017 20.2853 15.0017 19.4013V19.4013Z" stroke="#DEDEDE" stroke-width="1.5" stroke-linecap="round" stroke-linejoin="round"/>
<path d="M15.0017 10.9978H11.8003C11.3583 10.9978 11 10.6394 11 10.1974V6.99609" stroke="#DEDEDE" stroke-width="1.5" stroke-linecap="round" stroke-linejoin="round"/>
</svg>
