<svg width="26" height="26" viewBox="0 0 26 26" fill="none" xmlns="http://www.w3.org/2000/svg">
<path d="M16.0013 18.0022H19.4027C20.2867 18.0022 21.0034 17.2855 21.0034 16.4015V5.99717C21.0034 4.89214 20.1076 3.99634 19.0025 3.99634H11.5994C10.7154 3.99634 9.99878 4.71298 9.99878 5.597V7.998" stroke="#5BA1F2" stroke-width="1.5" stroke-linecap="round" stroke-linejoin="round"/>
<path fill-rule="evenodd" clip-rule="evenodd" d="M16.0014 20.4032V11.8627C16.0014 11.4379 15.8327 11.0305 15.5322 10.7302L13.2693 8.46724C12.969 8.16677 12.5616 7.99805 12.1368 7.99805H6.59749C5.71347 7.99805 4.99683 8.71469 4.99683 9.59871V20.4032C4.99683 21.2872 5.71347 22.0039 6.59749 22.0039H14.4007C15.2848 22.0039 16.0014 21.2872 16.0014 20.4032V20.4032Z" stroke="#5BA1F2" stroke-width="1.5" stroke-linecap="round" stroke-linejoin="round"/>
<path d="M16.0014 11.9997H12.8001C12.3581 11.9997 11.9998 11.6414 11.9998 11.1994V7.99805" stroke="#5BA1F2" stroke-width="1.5" stroke-linecap="round" stroke-linejoin="round"/>
</svg>
