<svg width="24" height="24" viewBox="0 0 24 24" fill="none" xmlns="http://www.w3.org/2000/svg">
<path fill-rule="evenodd" clip-rule="evenodd" d="M9.60327 15.1365C9.41127 15.1365 9.21927 15.0635 9.07327 14.9165C8.78027 14.6235 8.78027 14.1495 9.07327 13.8565L13.8653 9.06448C14.1583 8.77148 14.6323 8.77148 14.9253 9.06448C15.2183 9.35748 15.2183 9.83148 14.9253 10.1245L10.1333 14.9165C9.98726 15.0635 9.79527 15.1365 9.60327 15.1365Z" fill="#B8BAC7"/>
<path fill-rule="evenodd" clip-rule="evenodd" d="M14.3973 15.1395C14.2053 15.1395 14.0133 15.0665 13.8673 14.9195L9.07131 10.1225C8.77831 9.82952 8.77831 9.35552 9.07131 9.06252C9.36531 8.76952 9.83931 8.76952 10.1313 9.06252L14.9273 13.8595C15.2203 14.1525 15.2203 14.6265 14.9273 14.9195C14.7813 15.0665 14.5883 15.1395 14.3973 15.1395Z" fill="#B8BAC7"/>
<path fill-rule="evenodd" clip-rule="evenodd" d="M7.665 3.50098C5.135 3.50098 3.5 5.23398 3.5 7.91698V16.085C3.5 18.768 5.135 20.501 7.665 20.501H16.333C18.864 20.501 20.5 18.768 20.5 16.085V7.91698C20.5 5.23398 18.864 3.50098 16.334 3.50098H7.665ZM16.333 22.001H7.665C4.276 22.001 2 19.623 2 16.085V7.91698C2 4.37898 4.276 2.00098 7.665 2.00098H16.334C19.723 2.00098 22 4.37898 22 7.91698V16.085C22 19.623 19.723 22.001 16.333 22.001Z" fill="#B8BAC7"/>
</svg>
