<svg width="152" height="32" viewBox="0 0 152 32" fill="none" xmlns="http://www.w3.org/2000/svg">
<path d="M9.93259 11.5297C9.44031 11.6601 9.00451 11.9422 8.69031 12.3339C8.37611 12.7256 8.20037 13.2059 8.18934 13.703C8.18612 13.8471 8.24175 13.9866 8.34401 14.0907C8.44627 14.1948 8.58677 14.2551 8.73461 14.2582C8.88246 14.2614 9.02552 14.2071 9.13234 14.1075C9.23916 14.0078 9.30099 13.8708 9.30421 13.7267C9.31172 13.4663 9.40547 13.2152 9.57148 13.011C9.73748 12.8067 9.96682 12.6604 10.2252 12.5937C10.4836 12.527 10.7573 12.5436 11.0052 12.641C11.2531 12.7383 11.4621 12.9113 11.6008 13.134C11.6631 13.2347 11.7574 13.3128 11.8693 13.3567C11.9812 13.4005 12.1047 13.4077 12.2211 13.377C12.272 13.3631 12.3211 13.3432 12.3671 13.3178C12.493 13.2425 12.5833 13.1217 12.6183 12.9818C12.6532 12.8419 12.6299 12.6942 12.5536 12.5709C12.2902 12.1452 11.8928 11.8137 11.4205 11.6261C10.9481 11.4385 10.4262 11.4047 9.93259 11.5297Z" fill="white"/>
<path d="M14.9062 12.6343C15.0538 12.6369 15.1963 12.5825 15.3027 12.4828C15.4091 12.3832 15.4706 12.2465 15.4738 12.1028C15.4821 11.8425 15.5764 11.5918 15.7426 11.3879C15.9089 11.184 16.1382 11.0379 16.3965 10.9713C16.6548 10.9047 16.9282 10.9212 17.1762 11.0183C17.4241 11.1153 17.6332 11.2878 17.7725 11.5101C17.8345 11.611 17.9287 11.6893 18.0407 11.7332C18.1527 11.777 18.2763 11.784 18.3928 11.7531C18.4435 11.7404 18.492 11.7204 18.5367 11.6938C18.663 11.6189 18.7537 11.4982 18.789 11.3583C18.8243 11.2184 18.8014 11.0705 18.7252 10.947C18.4612 10.5232 18.0634 10.1942 17.5915 10.0093C17.1196 9.82438 16.5989 9.79346 16.1074 9.92117C15.6159 10.0489 15.1801 10.3284 14.8653 10.7177C14.5505 11.1071 14.3735 11.5854 14.361 12.0811C14.3594 12.1523 14.3722 12.2232 14.3988 12.2896C14.4253 12.356 14.4651 12.4166 14.5157 12.468C14.5664 12.5194 14.627 12.5606 14.694 12.5891C14.761 12.6176 14.8331 12.633 14.9062 12.6343Z" fill="white"/>
<path d="M31.5439 16.9997L25.2479 15.8143C24.7878 13.9136 23.379 12.5187 22.6351 11.9635C22.6988 11.1901 22.64 10.4118 22.4607 9.65586V9.63017C22.2683 8.92886 21.9624 8.26191 21.5546 7.65442C22.0858 6.5036 22.3657 5.2577 22.3766 3.99583C22.3874 2.73395 22.1289 1.48366 21.6175 0.324361C21.5619 0.20049 21.4607 0.101384 21.3339 0.0465382C21.2071 -0.00830719 21.0639 -0.014921 20.9323 0.0279978C18.7429 0.737089 16.9035 2.2165 15.7735 4.17708C14.2739 3.9484 12.7417 4.02969 11.2763 4.41569C9.81101 4.80168 8.44536 5.48374 7.26806 6.41759C5.28319 5.27183 2.93135 4.8886 0.672064 5.34278C0.535745 5.36963 0.414795 5.44552 0.333287 5.55536C0.251778 5.66519 0.215687 5.80091 0.232196 5.93551C0.383245 7.19033 0.801056 8.40068 1.45896 9.48928C2.11686 10.5779 3.00039 11.5208 4.05317 12.2579C4.01461 12.9758 4.0919 13.6952 4.28222 14.3898C4.86399 16.4446 6.35589 18.118 8.51266 19.094C8.53821 19.1075 8.56462 19.1194 8.59171 19.1296C10.7406 20.0413 13.1453 20.2073 15.4046 19.5998C15.4239 19.5978 15.4429 19.5938 15.4614 19.588C15.5843 19.5463 15.7148 19.5298 15.8446 19.5396C15.9745 19.5493 16.1008 19.585 16.2158 19.6445C16.3309 19.704 16.432 19.7859 16.5131 19.8853C16.5941 19.9846 16.6533 20.0992 16.6868 20.2218C16.7204 20.3444 16.7276 20.4725 16.7081 20.5979C16.6885 20.7234 16.6426 20.8436 16.5733 20.951C16.5039 21.0584 16.4126 21.1507 16.305 21.2221C16.1974 21.2936 16.0758 21.3426 15.9478 21.3662L15.8951 21.382C12.7999 22.5279 8.25725 22.3698 5.55723 21.0402C5.45963 20.9926 5.34974 20.9744 5.24149 20.9877C5.13323 21.0011 5.03149 21.0455 4.94912 21.1152L0.187601 25.1873C0.112846 25.2517 0.0572667 25.3345 0.0267037 25.4271C-0.00385922 25.5196 -0.00827731 25.6185 0.0139137 25.7133C0.0361048 25.8081 0.0840856 25.8954 0.152814 25.9659C0.221543 26.0363 0.308482 26.0875 0.404495 26.1139L10.0877 28.7259L11.0079 31.1442C11.2512 31.7804 11.3728 32.1004 11.8593 31.972C11.9334 31.9537 12.0025 31.92 12.062 31.8732C13.6492 30.6404 15.7938 29.6288 18.1026 29.0262C20.4114 28.4236 22.7019 28.2615 24.7067 28.5342C24.852 28.554 24.9995 28.5168 25.1169 28.431C25.2342 28.3451 25.312 28.2174 25.333 28.0758C25.3422 28.0202 25.3422 27.9635 25.333 27.9079L24.7939 24.883L31.8378 17.9007C31.9417 17.7992 32 17.6617 32 17.5184C32 17.375 31.9417 17.2376 31.8378 17.1361C31.7602 17.0613 31.6613 17.011 31.554 16.9918L31.5439 16.9997ZM5.35656 14.1013C5.17081 13.4277 5.11243 12.7267 5.18426 12.0327C5.19312 11.9327 5.1736 11.8323 5.12784 11.7424C5.08208 11.6525 5.01184 11.5766 4.9248 11.5229C3.26696 10.438 2.06921 8.80375 1.55383 6.92339C1.49707 6.72581 1.44842 6.50848 1.40991 6.30102C3.37212 6.03397 5.36701 6.47145 7.02279 7.53192C7.13189 7.60075 7.26236 7.62995 7.39133 7.61442C7.52031 7.59889 7.63957 7.5396 7.7282 7.44696C8.8399 6.50734 10.1566 5.82685 11.5783 5.45713C13 5.08741 14.4895 5.03817 15.9337 5.31314C16.0278 5.33887 16.1274 5.33887 16.2215 5.31314C16.2934 5.29246 16.3603 5.25759 16.4178 5.21068C16.4753 5.16378 16.5224 5.10585 16.556 5.04049C17.4454 3.31473 18.9482 1.963 20.7844 1.23716C20.8573 1.43474 20.9222 1.63231 20.9871 1.84569C21.504 3.71786 21.3074 5.70918 20.4337 7.45091C20.3822 7.54021 20.3581 7.64203 20.3642 7.74429C20.3703 7.84655 20.4064 7.94496 20.4681 8.02783C20.8928 8.59739 21.2062 9.23836 21.3925 9.91863V9.94629C21.658 10.9144 21.506 12.1532 21.506 12.1651C21.4923 12.2702 21.5107 12.3769 21.5591 12.4718C21.6074 12.5667 21.6834 12.6456 21.7776 12.6985C21.8222 12.7242 25.8885 15.5298 23.5837 19.4556C22.7799 20.7623 21.8441 21.9874 20.7904 23.1127C20.5974 23.2661 20.3543 23.3468 20.1053 23.3399C19.8219 23.3622 19.5408 23.2765 19.3208 23.1009C19.1378 22.9298 19.0307 22.6958 19.0224 22.4488C19.014 22.2018 19.1052 21.9615 19.2762 21.7791C19.2928 21.7643 19.3084 21.7484 19.3229 21.7317C20.2619 20.5862 20.9255 19.2501 21.2648 17.8217C21.4258 17.1447 21.3047 16.4331 20.9281 15.8431C20.5515 15.253 19.9502 14.8327 19.256 14.6743L19.1404 14.6506L14.0951 13.7457C14.0138 13.7309 13.93 13.7341 13.8501 13.7549C13.7701 13.7758 13.6959 13.8138 13.633 13.8662L8.71536 17.9876C7.00657 17.1361 5.82278 15.7669 5.36669 14.1072L5.35656 14.1013Z" fill="white"/>
<path d="M87.8828 16.2977C89.1284 14.9937 90.1437 14.6796 91.5146 15.2545C91.79 15.3711 92.1806 15.7287 92.1538 15.9263C92.0737 16.5032 91.8168 17.0584 91.5989 17.6116C91.5804 17.6531 91.3173 17.6393 91.1878 17.5998C90.4911 17.4022 90.2876 17.6966 90.2917 18.3268C90.3102 20.4626 90.2341 22.6024 90.3102 24.7362C90.4685 29.237 86.8901 30.6476 83.4618 30.3592C81.8823 30.2635 80.3938 29.6156 79.2771 28.5375C78.6605 27.9448 78.7119 27.6228 79.4826 26.8265C79.9903 26.2951 80.4281 26.4314 80.8946 26.872C82.1011 28.0317 83.5954 28.336 85.2109 28.1187C87.0484 27.8717 88.0246 26.2634 87.5252 24.2343C85.735 25.3467 83.8482 25.645 81.8668 24.8429C80.8299 24.4294 79.9692 23.6905 79.4251 22.7466C78.2412 20.7392 78.6029 18.0838 80.2801 16.4874C82.2258 14.6302 84.7601 14.567 87.8828 16.2977ZM87.8335 20.1603C87.8379 19.7638 87.7599 19.3705 87.604 19.0034C87.4481 18.6362 87.2175 18.3028 86.9257 18.0225C86.634 17.7422 86.2869 17.5207 85.9049 17.3711C85.5229 17.2215 85.1136 17.1468 84.7011 17.1513C84.2884 17.1466 83.879 17.2229 83.498 17.3755C83.117 17.528 82.7723 17.7537 82.4851 18.0387C82.1979 18.3236 81.9742 18.6619 81.8276 19.0328C81.681 19.4037 81.6146 19.7995 81.6325 20.1959C81.6613 21.9049 82.9438 23.1398 84.7155 23.1595C85.1272 23.1665 85.536 23.0937 85.9177 22.9454C86.2994 22.7971 86.6461 22.5764 86.9371 22.2965C87.2282 22.0166 87.4575 21.6831 87.6115 21.3161C87.7655 20.9491 87.841 20.556 87.8335 20.1603Z" fill="white"/>
<path d="M113.394 19.1545C113.511 15.9083 114.947 13.5532 117.971 12.3263C121.054 11.0756 123.993 11.4629 126.581 13.6145C127.243 14.1657 127.298 14.5688 126.864 15.0252C125.904 16.0368 125.489 16.1395 124.737 15.5547C122.291 13.652 119.272 13.8377 117.478 16.0111C115.891 17.9256 116.09 20.8892 117.919 22.5982C119.689 24.2539 122.565 24.3092 124.548 22.7267C124.738 22.5614 124.969 22.4445 125.218 22.3866C125.468 22.3288 125.728 22.3318 125.976 22.3954C126.224 22.459 126.452 22.5812 126.638 22.7509C126.824 22.9205 126.964 23.1323 127.043 23.3668C127.136 23.6237 126.963 24.0939 126.745 24.3112C125.072 25.9669 122.972 26.5853 120.622 26.4529C118.942 26.3757 117.336 25.7619 116.06 24.7087C114.783 23.6555 113.909 22.2231 113.574 20.6383C113.487 20.147 113.427 19.6518 113.394 19.1545Z" fill="white"/>
<path d="M138.035 16.3301C138.076 15.6287 138.274 15.117 139.176 15.1446C140.409 15.1861 140.557 15.281 140.557 16.4882C140.557 19.2779 140.557 22.0677 140.557 24.8575C140.557 25.8611 140.38 26.118 139.673 26.1634C138.413 26.2444 138.235 26.114 138.004 24.895C136.771 26.0172 135.332 26.6001 133.688 26.442C132.044 26.2839 130.7 25.6043 129.717 24.3121C128.063 22.1388 128.17 18.8966 129.954 16.8636C130.981 15.7038 132.301 15.1367 133.844 15.0202C135.036 14.9352 135.415 15.0775 138.035 16.3301ZM131.458 20.736C131.433 22.6031 132.79 24.002 134.636 24.0158C136.481 24.0296 137.819 22.6525 137.83 20.7499C137.84 18.8472 136.535 17.4543 134.691 17.4326C132.848 17.4108 131.485 18.7781 131.458 20.736Z" fill="white"/>
<path d="M102.988 21.3458C102.879 23.1615 104.93 24.671 107.062 24.26C107.884 24.102 108.632 23.6515 109.39 23.284C109.986 22.9936 110.317 23.1042 110.94 23.8767C111.3 24.3173 111.098 24.6255 110.757 24.9436C108.784 26.787 104.723 26.9747 102.363 25.3388C100.092 23.7582 99.354 20.6227 100.651 18.0621C101.827 15.7425 104.566 14.5808 107.45 15.1834C109.881 15.6912 111.571 17.7183 111.67 20.2433C111.705 21.1482 111.495 21.3616 110.543 21.3636L102.988 21.3458ZM108.763 19.617C108.622 17.8981 107.244 16.924 105.37 17.1196C104.018 17.2619 102.904 18.4632 103.072 19.617H108.763Z" fill="white"/>
<path d="M58.627 24.7652C57.7309 25.9724 56.5244 26.496 55.0363 26.4604C52.5555 26.3991 50.7386 24.6822 50.6954 22.2955C50.6584 20.2328 50.6954 18.1681 50.6831 16.1055C50.6831 15.4199 50.9975 15.1591 51.6943 15.1531C53.5441 15.1413 53.5441 15.1255 53.5441 16.8879C53.5441 18.4171 53.5318 19.9483 53.5441 21.4756C53.5585 22.501 53.8483 23.4177 54.9377 23.8465C56.5408 24.4945 58.181 23.4849 58.2427 21.764C58.3064 19.9858 58.2653 18.2215 58.2694 16.4492C58.2694 15.2638 58.3824 15.1531 59.5992 15.1512H59.9794C60.9968 15.1512 61.1469 15.2974 61.1489 16.305C61.1489 18.4665 61.1489 20.626 61.1489 22.7875C61.1489 23.0305 61.1592 23.2735 61.1633 23.5145C61.1736 23.965 61.4223 24.1389 61.856 24.0105C62.75 23.7417 62.6781 24.4728 62.8836 24.9114C63.1036 25.3955 63.157 25.8262 62.5301 26.1245C61.0297 26.8417 59.593 26.4327 58.8305 25.0339C58.7683 24.9405 58.7003 24.8508 58.627 24.7652Z" fill="white"/>
<path d="M68.0494 16.506C69.003 16.0378 69.8992 15.3996 70.8878 15.1487C71.5253 14.9825 72.1937 14.9573 72.8428 15.0748C73.4919 15.1923 74.1049 15.4496 74.6358 15.8273C75.1668 16.205 75.6019 16.6934 75.9085 17.2557C76.2152 17.8181 76.3854 18.4399 76.4064 19.0745C76.4989 21.1589 76.4311 23.2493 76.4332 25.3396C76.4332 25.8691 76.1618 26.1615 75.611 26.1635C73.6769 26.1635 73.5433 26.3611 73.5803 24.3853C73.6091 22.9035 73.6214 21.4217 73.5803 19.9399C73.5187 18.0274 71.9607 16.9763 70.1746 17.5848C69.1469 17.9404 68.6105 18.7367 68.5879 20.0663C68.5591 21.6469 68.5879 23.2275 68.557 24.8082C68.557 25.2725 68.7482 25.9343 68.1172 26.0667C67.4346 26.1722 66.7375 26.1541 66.0618 26.0134C65.8995 25.9857 65.733 25.4523 65.7289 25.15C65.7001 22.9391 65.7145 20.7302 65.7124 18.5193C65.7124 17.5314 65.7124 17.5314 64.7238 17.6381C64.6272 17.65 64.4566 17.6777 64.4443 17.65C64.2202 17.1284 63.9387 16.6107 63.84 16.0694C63.8009 15.8501 64.1134 15.451 64.3682 15.3245C65.8481 14.5698 67.145 15.0519 68.0494 16.506Z" fill="white"/>
<path d="M47.6224 22.0548C47.3983 25.5597 44.5291 26.7511 41.6619 26.4014C40.4203 26.2719 39.2642 25.7313 38.3918 24.8722C37.8307 24.3209 37.8328 24.0107 38.3815 23.4496C38.5213 23.3094 38.6775 23.1829 38.807 23.0347C39.2859 22.4914 39.7422 22.4914 40.2683 23.0011C41.0021 23.7124 41.8838 24.0819 42.9403 23.825C44.0584 23.5563 44.7182 22.7976 44.7428 21.5944C44.7901 19.3361 44.7572 17.0778 44.7798 14.8195C44.7798 14.3434 44.5435 14.2485 44.1262 14.2545C43.2178 14.2545 42.3072 14.2683 41.3988 14.2545C40.589 14.2387 40.4595 14.0668 40.4574 13.1145C40.4554 12.1621 40.6116 11.9685 41.4008 11.9626C43.1684 11.9468 44.9381 11.9626 46.7057 11.9626C47.3757 11.9626 47.6738 12.2629 47.6696 12.8951C47.6696 14.4244 47.6696 15.9536 47.6696 17.4848C47.6573 17.469 47.719 20.5314 47.6224 22.0548Z" fill="white"/>
<path d="M144.325 17.3382C142.403 17.1268 142.35 17.0972 142.329 16.2733C142.307 15.3941 142.373 15.3526 144.366 15.0878C144.366 14.3153 144.401 13.521 144.366 12.7307C144.325 11.976 144.66 11.6401 145.421 11.5097C147.207 11.2015 147.242 11.2094 147.242 12.9836V15.1609C148.101 15.1609 148.876 15.1609 149.651 15.1609C150.426 15.1609 150.625 15.3782 150.625 16.2041C150.625 17.03 150.432 17.2513 149.661 17.2651C148.89 17.2789 148.109 17.2651 147.283 17.2651C147.283 19.1697 147.217 20.9874 147.31 22.7972C147.361 23.8305 148.409 24.285 149.472 23.8799C150.534 23.4749 150.545 23.4848 150.911 24.2751C151.394 25.3242 151.322 25.5573 150.36 26.0019C147.945 27.1103 144.28 26.2489 144.368 22.5186C144.395 21.0961 144.34 17.6543 144.325 17.3382Z" fill="white"/>
<path d="M94.0787 12.0617C94.0643 11.3524 94.3212 11.0027 95.0488 10.8407C96.8678 10.4337 96.9726 10.4949 96.9726 12.3126C96.9726 15.8361 96.9726 19.3588 96.9726 22.8809C96.9726 23.857 96.9726 23.8372 97.9469 23.8985C98.062 23.9149 98.172 23.9552 98.2692 24.0166C98.3665 24.078 98.4487 24.1591 98.5101 24.2541C99.2192 25.5699 98.8615 26.2081 97.3303 26.4274C95.425 26.71 94.1116 25.6529 94.0951 23.7858C94.0787 21.8555 94.1157 14.0375 94.0787 12.0617Z" fill="white"/>
</svg>
