<svg width="32" height="32" viewBox="0 0 32 32" fill="none" xmlns="http://www.w3.org/2000/svg">
<path d="M9.93229 11.5299C9.44001 11.6603 9.00421 11.9424 8.69001 12.3342C8.37581 12.7259 8.20006 13.2062 8.18904 13.7033C8.18581 13.8474 8.24145 13.9868 8.34371 14.0909C8.44596 14.1951 8.58647 14.2553 8.73431 14.2585C8.88215 14.2616 9.02522 14.2074 9.13204 14.1077C9.23886 14.008 9.30068 13.8711 9.30391 13.727C9.31141 13.4665 9.40517 13.2154 9.57117 13.0112C9.73717 12.807 9.96651 12.6606 10.2249 12.5939C10.4833 12.5272 10.757 12.5438 11.0049 12.6412C11.2528 12.7386 11.4618 12.9116 11.6005 13.1343C11.6628 13.2349 11.7571 13.3131 11.869 13.3569C11.9809 13.4008 12.1044 13.4079 12.2208 13.3773C12.2717 13.3633 12.3207 13.3434 12.3668 13.318C12.4927 13.2427 12.583 13.122 12.618 12.9821C12.6529 12.8421 12.6296 12.6944 12.5533 12.5712C12.2899 12.1454 11.8925 11.814 11.4202 11.6263C10.9478 11.4387 10.4259 11.4049 9.93229 11.5299Z" fill="white"/>
<path d="M14.9061 12.6343C15.0536 12.6369 15.1961 12.5825 15.3025 12.4828C15.4089 12.3832 15.4704 12.2465 15.4736 12.1028C15.4819 11.8425 15.5762 11.5918 15.7425 11.3879C15.9087 11.184 16.138 11.0379 16.3963 10.9713C16.6546 10.9047 16.9281 10.9212 17.176 11.0183C17.4239 11.1153 17.633 11.2878 17.7723 11.5101C17.8344 11.611 17.9286 11.6893 18.0405 11.7332C18.1525 11.777 18.2761 11.784 18.3926 11.7531C18.4433 11.7404 18.4918 11.7204 18.5365 11.6938C18.6628 11.6189 18.7535 11.4982 18.7888 11.3583C18.8242 11.2184 18.8012 11.0705 18.725 10.947C18.461 10.5232 18.0632 10.1942 17.5913 10.0093C17.1194 9.82438 16.5987 9.79346 16.1072 9.92117C15.6157 10.0489 15.18 10.3284 14.8651 10.7177C14.5503 11.1071 14.3733 11.5854 14.3608 12.0811C14.3592 12.1523 14.372 12.2232 14.3986 12.2896C14.4251 12.356 14.4649 12.4166 14.5155 12.468C14.5662 12.5194 14.6268 12.5606 14.6938 12.5891C14.7608 12.6176 14.833 12.633 14.9061 12.6343Z" fill="white"/>
<path d="M31.5439 16.9997L25.2479 15.8143C24.7878 13.9136 23.379 12.5187 22.6351 11.9635C22.6988 11.1901 22.64 10.4118 22.4607 9.65586V9.63017C22.2683 8.92886 21.9624 8.26191 21.5546 7.65442C22.0858 6.5036 22.3657 5.2577 22.3766 3.99583C22.3874 2.73395 22.1289 1.48366 21.6175 0.324361C21.5619 0.20049 21.4607 0.101384 21.3339 0.0465382C21.2071 -0.00830719 21.0639 -0.014921 20.9323 0.0279978C18.7429 0.737089 16.9035 2.2165 15.7735 4.17708C14.2739 3.9484 12.7417 4.02969 11.2763 4.41569C9.81101 4.80168 8.44536 5.48374 7.26806 6.41759C5.28319 5.27183 2.93135 4.8886 0.672064 5.34278C0.535745 5.36963 0.414795 5.44552 0.333287 5.55536C0.251778 5.66519 0.215687 5.80091 0.232196 5.93551C0.383245 7.19033 0.801056 8.40068 1.45896 9.48928C2.11686 10.5779 3.00039 11.5208 4.05317 12.2579C4.01461 12.9758 4.0919 13.6952 4.28222 14.3898C4.86399 16.4446 6.35589 18.118 8.51266 19.094C8.53821 19.1075 8.56462 19.1194 8.59171 19.1296C10.7406 20.0413 13.1453 20.2073 15.4046 19.5998C15.4239 19.5978 15.4429 19.5938 15.4614 19.588C15.5843 19.5463 15.7148 19.5298 15.8446 19.5396C15.9745 19.5493 16.1008 19.585 16.2158 19.6445C16.3309 19.704 16.432 19.7859 16.5131 19.8853C16.5941 19.9846 16.6533 20.0992 16.6868 20.2218C16.7204 20.3444 16.7276 20.4725 16.7081 20.5979C16.6885 20.7234 16.6426 20.8436 16.5733 20.951C16.5039 21.0584 16.4126 21.1507 16.305 21.2221C16.1974 21.2936 16.0758 21.3426 15.9478 21.3662L15.8951 21.382C12.7999 22.5279 8.25725 22.3698 5.55723 21.0402C5.45963 20.9926 5.34974 20.9744 5.24149 20.9877C5.13323 21.0011 5.03149 21.0455 4.94912 21.1152L0.187601 25.1873C0.112846 25.2517 0.0572667 25.3345 0.0267037 25.4271C-0.00385922 25.5196 -0.00827731 25.6185 0.0139137 25.7133C0.0361048 25.8081 0.0840856 25.8954 0.152814 25.9659C0.221543 26.0363 0.308482 26.0875 0.404495 26.1139L10.0877 28.7259L11.0079 31.1442C11.2512 31.7804 11.3728 32.1004 11.8593 31.972C11.9334 31.9537 12.0025 31.92 12.062 31.8732C13.6492 30.6404 15.7938 29.6288 18.1026 29.0262C20.4114 28.4236 22.7019 28.2615 24.7067 28.5342C24.852 28.554 24.9995 28.5168 25.1169 28.431C25.2342 28.3451 25.312 28.2174 25.333 28.0758C25.3422 28.0202 25.3422 27.9635 25.333 27.9079L24.7939 24.883L31.8378 17.9007C31.9417 17.7992 32 17.6617 32 17.5184C32 17.375 31.9417 17.2376 31.8378 17.1361C31.7602 17.0613 31.6613 17.011 31.554 16.9918L31.5439 16.9997ZM5.35656 14.1013C5.17081 13.4277 5.11243 12.7267 5.18426 12.0327C5.19312 11.9327 5.1736 11.8323 5.12784 11.7424C5.08208 11.6525 5.01184 11.5766 4.9248 11.5229C3.26696 10.438 2.06921 8.80375 1.55383 6.92339C1.49707 6.72581 1.44842 6.50848 1.40991 6.30102C3.37212 6.03397 5.36701 6.47145 7.02279 7.53192C7.13189 7.60075 7.26236 7.62995 7.39133 7.61442C7.52031 7.59889 7.63957 7.5396 7.7282 7.44696C8.8399 6.50734 10.1566 5.82685 11.5783 5.45713C13 5.08741 14.4895 5.03817 15.9337 5.31314C16.0278 5.33887 16.1274 5.33887 16.2215 5.31314C16.2934 5.29246 16.3603 5.25759 16.4178 5.21068C16.4753 5.16378 16.5224 5.10585 16.556 5.04049C17.4454 3.31473 18.9482 1.963 20.7844 1.23716C20.8573 1.43474 20.9222 1.63231 20.9871 1.84569C21.504 3.71786 21.3074 5.70918 20.4337 7.45091C20.3822 7.54021 20.3581 7.64203 20.3642 7.74429C20.3703 7.84655 20.4064 7.94496 20.4681 8.02783C20.8928 8.59739 21.2062 9.23836 21.3925 9.91863V9.94629C21.658 10.9144 21.506 12.1532 21.506 12.1651C21.4923 12.2702 21.5107 12.3769 21.5591 12.4718C21.6074 12.5667 21.6834 12.6456 21.7776 12.6985C21.8222 12.7242 25.8885 15.5298 23.5837 19.4556C22.7799 20.7623 21.8441 21.9874 20.7904 23.1127C20.5974 23.2661 20.3543 23.3468 20.1053 23.3399C19.8219 23.3622 19.5408 23.2765 19.3208 23.1009C19.1378 22.9298 19.0307 22.6958 19.0224 22.4488C19.014 22.2018 19.1052 21.9615 19.2762 21.7791C19.2928 21.7643 19.3084 21.7484 19.3229 21.7317C20.2619 20.5862 20.9255 19.2501 21.2648 17.8217C21.4258 17.1447 21.3047 16.4331 20.9281 15.8431C20.5515 15.253 19.9502 14.8327 19.256 14.6743L19.1404 14.6506L14.0951 13.7457C14.0138 13.7309 13.93 13.7341 13.8501 13.7549C13.7701 13.7758 13.6959 13.8138 13.633 13.8662L8.71536 17.9876C7.00657 17.1361 5.82278 15.7669 5.36669 14.1072L5.35656 14.1013Z" fill="white"/>
</svg>
