<svg width="32" height="32" viewBox="0 0 32 32" fill="none" xmlns="http://www.w3.org/2000/svg">
<path d="M9.7245 11.5299C9.24252 11.6603 8.81584 11.9424 8.50821 12.3341C8.20059 12.7258 8.02852 13.2061 8.01772 13.7032C8.01457 13.8473 8.06904 13.9868 8.16916 14.0909C8.26928 14.195 8.40684 14.2553 8.55159 14.2584C8.69634 14.2615 8.83641 14.2073 8.941 14.1076C9.04558 14.008 9.10611 13.871 9.10927 13.7269C9.11662 13.4665 9.20841 13.2154 9.37094 13.0112C9.53347 12.8069 9.75801 12.6605 10.011 12.5938C10.264 12.5272 10.5319 12.5437 10.7747 12.6411C11.0174 12.7385 11.222 12.9115 11.3579 13.1342C11.4188 13.2349 11.5111 13.313 11.6207 13.3569C11.7302 13.4007 11.8511 13.4078 11.9651 13.3772C12.015 13.3633 12.063 13.3434 12.108 13.3179C12.2314 13.2427 12.3198 13.1219 12.354 12.982C12.3882 12.8421 12.3654 12.6944 12.2906 12.5711C12.0328 12.1453 11.6437 11.8139 11.1812 11.6263C10.7188 11.4386 10.2078 11.4048 9.7245 11.5299Z" fill="url(#paint0_linear)"/>
<path d="M14.5942 12.6343C14.7386 12.6369 14.8782 12.5825 14.9824 12.4828C15.0866 12.3832 15.1468 12.2465 15.1499 12.1028C15.158 11.8425 15.2503 11.5918 15.4131 11.3879C15.5759 11.184 15.8004 11.0379 16.0533 10.9713C16.3062 10.9047 16.5739 10.9212 16.8166 11.0183C17.0594 11.1153 17.2641 11.2878 17.4005 11.5101C17.4612 11.6109 17.5535 11.6893 17.6631 11.7332C17.7728 11.777 17.8938 11.784 18.0078 11.7531C18.0574 11.7404 18.1049 11.7204 18.1487 11.6938C18.2723 11.6189 18.3612 11.4982 18.3958 11.3583C18.4303 11.2183 18.4079 11.0705 18.3333 10.947C18.0748 10.5232 17.6853 10.1942 17.2233 10.0093C16.7612 9.82438 16.2514 9.79346 15.7703 9.92117C15.2891 10.0489 14.8624 10.3284 14.5541 10.7177C14.2459 11.1071 14.0726 11.5854 14.0604 12.081C14.0588 12.1523 14.0714 12.2232 14.0974 12.2896C14.1234 12.356 14.1623 12.4166 14.2119 12.468C14.2615 12.5194 14.3208 12.5606 14.3864 12.5891C14.452 12.6176 14.5226 12.633 14.5942 12.6343Z" fill="url(#paint1_linear)"/>
<path d="M30.8839 16.9997L24.7196 15.8143C24.2691 13.9136 22.8898 12.5187 22.1614 11.9635C22.2238 11.1901 22.1663 10.4118 21.9908 9.65586V9.63017C21.8023 8.92886 21.5029 8.26191 21.1036 7.65442C21.6237 6.5036 21.8978 5.2577 21.9084 3.99583C21.9189 2.73395 21.6659 1.48366 21.1652 0.324361C21.1107 0.20049 21.0117 0.101384 20.8876 0.0465382C20.7634 -0.00830719 20.6231 -0.014921 20.4944 0.0279978C18.3507 0.737089 16.5498 2.2165 15.4435 4.17708C13.9752 3.9484 12.475 4.02969 11.0404 4.41569C9.60573 4.80168 8.26866 5.48374 7.11598 6.41759C5.17265 5.27183 2.87001 4.8886 0.658002 5.34278C0.524535 5.36963 0.406116 5.44552 0.326313 5.55536C0.24651 5.66519 0.211174 5.80091 0.227338 5.93551C0.375226 7.19033 0.784295 8.40068 1.42843 9.48928C2.07256 10.5779 2.93762 11.5208 3.96836 12.2579C3.93061 12.9758 4.00628 13.6952 4.19262 14.3898C4.76221 16.4446 6.2229 18.118 8.33454 19.094C8.35956 19.1075 8.38541 19.1194 8.41194 19.1296C10.5159 20.0413 12.8703 20.2073 15.0823 19.5998C15.1012 19.5978 15.1198 19.5938 15.1378 19.588C15.2583 19.5463 15.386 19.5298 15.5131 19.5396C15.6402 19.5493 15.7639 19.585 15.8765 19.6445C15.9892 19.704 16.0882 19.7859 16.1676 19.8853C16.2469 19.9846 16.3048 20.0992 16.3377 20.2218C16.3705 20.3444 16.3776 20.4725 16.3585 20.5979C16.3393 20.7234 16.2944 20.8436 16.2265 20.951C16.1586 21.0584 16.0692 21.1507 15.9638 21.2221C15.8585 21.2936 15.7394 21.3426 15.6142 21.3662L15.5626 21.382C12.532 22.5279 8.08448 22.3698 5.44096 21.0402C5.34539 20.9926 5.2378 20.9744 5.13181 20.9877C5.02583 21.0011 4.92621 21.0455 4.84557 21.1152L0.183676 25.1873C0.110485 25.2517 0.0560685 25.3345 0.026145 25.4271C-0.00377847 25.5196 -0.00810412 25.6185 0.0136226 25.7133C0.0353494 25.8081 0.0823263 25.8954 0.149617 25.9659C0.216907 26.0363 0.302027 26.0875 0.396031 26.1139L9.8766 28.7259L10.7776 31.1442C11.0158 31.7804 11.1349 32.1004 11.6112 31.972C11.6837 31.9537 11.7514 31.92 11.8096 31.8732C13.3636 30.6404 15.4633 29.6288 17.7238 29.0262C19.9843 28.4236 22.2269 28.2615 24.1897 28.5342C24.332 28.554 24.4764 28.5168 24.5913 28.431C24.7062 28.3451 24.7823 28.2174 24.803 28.0758C24.8119 28.0202 24.8119 27.9635 24.803 27.9079L24.2751 24.883L31.1717 17.9007C31.2733 17.7992 31.3304 17.6617 31.3304 17.5184C31.3304 17.375 31.2733 17.2376 31.1717 17.1361C31.0957 17.0613 30.9989 17.011 30.8938 16.9918L30.8839 16.9997ZM5.24448 14.1013C5.06262 13.4277 5.00546 12.7267 5.07578 12.0327C5.08446 11.9327 5.06535 11.8323 5.02055 11.7424C4.97574 11.6525 4.90697 11.5766 4.82175 11.5229C3.1986 10.438 2.02592 8.80375 1.52132 6.92339C1.46575 6.72581 1.41811 6.50848 1.38041 6.30102C3.30156 6.03397 5.25471 6.47145 6.87584 7.53192C6.98266 7.60075 7.1104 7.62995 7.23668 7.61442C7.36296 7.59889 7.47972 7.5396 7.56649 7.44696C8.65493 6.50734 9.94405 5.82685 11.336 5.45713C12.728 5.08741 14.1863 5.03817 15.6003 5.31314C15.6924 5.33887 15.7899 5.33887 15.8821 5.31314C15.9525 5.29246 16.0179 5.25759 16.0743 5.21068C16.1306 5.16378 16.1766 5.10585 16.2095 5.04049C17.0804 3.31473 18.5518 1.963 20.3495 1.23716C20.4209 1.43474 20.4844 1.63231 20.5479 1.84569C21.054 3.71786 20.8616 5.70918 20.0061 7.45091C19.9557 7.54021 19.9321 7.64203 19.9381 7.74429C19.9441 7.84655 19.9794 7.94496 20.0399 8.02783C20.4557 8.59739 20.7625 9.23836 20.9449 9.91863V9.94629C21.2049 10.9144 21.056 12.1532 21.056 12.1651C21.0426 12.2702 21.0606 12.3769 21.108 12.4718C21.1553 12.5667 21.2297 12.6456 21.3219 12.6985C21.3656 12.7242 25.3468 15.5298 23.0903 19.4556C22.3032 20.7623 21.3871 21.9874 20.3554 23.1127C20.1665 23.2661 19.9284 23.3468 19.6846 23.3399C19.4072 23.3622 19.1319 23.2765 18.9166 23.1009C18.7374 22.9298 18.6325 22.6958 18.6243 22.4488C18.6162 22.2018 18.7054 21.9615 18.8729 21.7791C18.8891 21.7643 18.9044 21.7484 18.9186 21.7317C19.8379 20.5862 20.4876 19.2501 20.8198 17.8217C20.9775 17.1447 20.859 16.4331 20.4902 15.8431C20.1215 15.253 19.5327 14.8327 18.8531 14.6743L18.7399 14.6506L13.8002 13.7457C13.7205 13.7309 13.6385 13.7341 13.5603 13.7549C13.482 13.7758 13.4093 13.8138 13.3477 13.8662L8.53301 17.9876C6.85996 17.1361 5.70094 15.7669 5.2544 14.1072L5.24448 14.1013Z" fill="url(#paint2_linear)"/>
<defs>
<linearGradient id="paint0_linear" x1="9.05118" y1="11.5398" x2="10.0551" y2="14.9584" gradientUnits="userSpaceOnUse">
<stop stop-color="#419FFF"/>
<stop offset="1" stop-color="#0779FF"/>
</linearGradient>
<linearGradient id="paint1_linear" x1="15.0937" y1="9.92747" x2="16.0897" y2="13.3335" gradientUnits="userSpaceOnUse">
<stop stop-color="#419FFF"/>
<stop offset="1" stop-color="#0779FF"/>
</linearGradient>
<linearGradient id="paint2_linear" x1="7.44098" y1="0.96" x2="23.6673" y2="35.7995" gradientUnits="userSpaceOnUse">
<stop stop-color="#419FFF"/>
<stop offset="1" stop-color="#0779FF"/>
</linearGradient>
</defs>
</svg>
