<svg width="168" height="37" viewBox="0 0 168 37" fill="none" xmlns="http://www.w3.org/2000/svg">
<g clip-path="url(#clip0)">
<path d="M11.1902 13.324C10.6356 13.4748 10.1446 13.8011 9.79063 14.2541C9.43664 14.7072 9.23865 15.2627 9.22622 15.8376C9.22259 16.0043 9.28527 16.1656 9.40048 16.286C9.51569 16.4064 9.67398 16.4761 9.84055 16.4797C10.0071 16.4834 10.1683 16.4206 10.2886 16.3054C10.409 16.1901 10.4786 16.0317 10.4823 15.865C10.4907 15.5638 10.5964 15.2734 10.7834 15.0372C10.9704 14.801 11.2288 14.6317 11.5199 14.5546C11.8111 14.4774 12.1193 14.4966 12.3987 14.6092C12.678 14.7219 12.9134 14.9219 13.0697 15.1795C13.1399 15.2959 13.2461 15.3863 13.3721 15.437C13.4982 15.4877 13.6374 15.496 13.7686 15.4606C13.8259 15.4445 13.8811 15.4214 13.933 15.392C14.0749 15.305 14.1766 15.1653 14.216 15.0035C14.2553 14.8417 14.2291 14.6708 14.1431 14.5283C13.8464 14.0358 13.3986 13.6525 12.8665 13.4355C12.3344 13.2185 11.7464 13.1794 11.1902 13.324Z" fill="white"/>
<path d="M16.7947 14.6014C16.9608 14.6045 17.1215 14.5415 17.2413 14.4263C17.3612 14.3111 17.4305 14.153 17.4341 13.9867C17.4434 13.6857 17.5497 13.3957 17.737 13.1599C17.9242 12.9242 18.1826 12.7552 18.4736 12.6782C18.7646 12.6011 19.0727 12.6202 19.352 12.7324C19.6313 12.8447 19.867 13.0442 20.0238 13.3012C20.0938 13.4179 20.1999 13.5085 20.326 13.5593C20.4522 13.61 20.5915 13.6181 20.7227 13.5823C20.7798 13.5676 20.8344 13.5445 20.8848 13.5137C21.0271 13.427 21.1293 13.2875 21.1691 13.1257C21.2089 12.9638 21.183 12.7928 21.0972 12.65C20.7997 12.1599 20.3516 11.7794 19.8199 11.5655C19.2882 11.3516 18.7016 11.3159 18.1479 11.4636C17.5942 11.6113 17.1032 11.9345 16.7485 12.3848C16.3938 12.8352 16.1945 13.3884 16.1803 13.9616C16.1785 14.044 16.193 14.126 16.2229 14.2028C16.2528 14.2796 16.2976 14.3497 16.3547 14.4092C16.4118 14.4686 16.48 14.5162 16.5555 14.5492C16.631 14.5822 16.7123 14.5999 16.7947 14.6014Z" fill="white"/>
<path d="M35.5393 19.6519L28.446 18.2809C27.9276 16.0826 26.3404 14.4694 25.5023 13.8273C25.5741 12.9328 25.5078 12.0326 25.3059 11.1583V11.1286C25.0891 10.3175 24.7445 9.54612 24.2851 8.84351C24.8836 7.51253 25.1989 6.07157 25.2111 4.61213C25.2233 3.1527 24.932 1.70667 24.3559 0.365866C24.2932 0.222601 24.1793 0.107979 24.0364 0.0445469C23.8936 -0.0188851 23.7322 -0.0265344 23.584 0.0231037C21.1173 0.84321 19.0449 2.55424 17.7719 4.82177C16.0824 4.55728 14.3561 4.6513 12.7052 5.09773C11.0544 5.54415 9.51578 6.333 8.18939 7.41305C5.95318 6.08791 3.30352 5.64468 0.758144 6.16997C0.604563 6.20102 0.468298 6.28879 0.376467 6.41582C0.284637 6.54285 0.243976 6.69982 0.262576 6.85549C0.432752 8.30677 0.90347 9.70661 1.64468 10.9656C2.38589 12.2247 3.38131 13.3153 4.5674 14.1677C4.52396 14.9981 4.61104 15.8301 4.82546 16.6333C5.48089 19.0098 7.16171 20.9453 9.5916 22.0741C9.62039 22.0897 9.65013 22.1034 9.68066 22.1152C12.1017 23.1697 14.8109 23.3616 17.3563 22.6591C17.378 22.6567 17.3994 22.6521 17.4202 22.6454C17.5588 22.5972 17.7058 22.5781 17.852 22.5894C17.9983 22.6006 18.1407 22.6419 18.2702 22.7107C18.3998 22.7795 18.5138 22.8743 18.6051 22.9892C18.6964 23.1041 18.763 23.2366 18.8008 23.3784C18.8386 23.5202 18.8468 23.6683 18.8248 23.8134C18.8028 23.9586 18.7511 24.0976 18.673 24.2218C18.5948 24.346 18.4919 24.4528 18.3707 24.5354C18.2494 24.618 18.1124 24.6747 17.9683 24.702L17.9089 24.7202C14.4217 26.0456 9.30385 25.8628 6.26192 24.3249C6.15196 24.2699 6.02815 24.2488 5.90619 24.2643C5.78423 24.2797 5.6696 24.3311 5.57681 24.4118L0.212334 29.1213C0.128112 29.1958 0.065495 29.2916 0.0310618 29.3986C-0.00337136 29.5057 -0.00834891 29.6201 0.0166522 29.7297C0.0416533 29.8394 0.09571 29.9402 0.173142 30.0218C0.250574 30.1033 0.348521 30.1624 0.456693 30.193L11.3661 33.2139L12.4029 36.0108C12.6769 36.7466 12.8139 37.1168 13.362 36.9683C13.4455 36.9471 13.5234 36.9081 13.5904 36.854C15.3786 35.4281 17.7947 34.2582 20.3959 33.5612C22.9971 32.8643 25.5777 32.6769 27.8363 32.9922C28 33.0151 28.1662 32.9721 28.2984 32.8728C28.4306 32.7735 28.5182 32.6258 28.542 32.4621C28.5522 32.3978 28.5522 32.3322 28.542 32.2679L27.9345 28.7694L35.8704 20.6939C35.9874 20.5766 36.0531 20.4175 36.0531 20.2518C36.0531 20.086 35.9874 19.927 35.8704 19.8096C35.783 19.7231 35.6716 19.665 35.5507 19.6428L35.5393 19.6519ZM6.03583 16.2997C5.82657 15.5206 5.76079 14.7099 5.84172 13.9072C5.8517 13.7916 5.82971 13.6754 5.77816 13.5715C5.7266 13.4675 5.64746 13.3797 5.5494 13.3177C3.68163 12.0629 2.33221 10.1728 1.75157 7.99803C1.68762 7.76952 1.63281 7.51816 1.58942 7.27823C3.8001 6.96937 6.04761 7.47534 7.91306 8.70183C8.03597 8.78144 8.18297 8.81522 8.32828 8.79725C8.47359 8.77929 8.60794 8.71072 8.7078 8.60358C9.96027 7.51684 11.4437 6.72982 13.0454 6.30222C14.6472 5.87461 16.3253 5.81767 17.9523 6.13569C18.0584 6.16544 18.1706 6.16544 18.2766 6.13569C18.3577 6.11177 18.4329 6.07143 18.4978 6.01719C18.5626 5.96294 18.6156 5.89594 18.6534 5.82035C19.6555 3.82441 21.3486 2.26105 23.4173 1.42157C23.4995 1.65008 23.5726 1.87859 23.6456 2.12538C24.228 4.29065 24.0065 6.59372 23.0222 8.60814C22.9642 8.71143 22.937 8.82919 22.9439 8.94746C22.9508 9.06573 22.9914 9.17954 23.061 9.27539C23.5395 9.93412 23.8925 10.6754 24.1024 11.4622V11.4942C24.4016 12.6139 24.2303 14.0466 24.2303 14.0603C24.2148 14.1819 24.2356 14.3053 24.2901 14.4151C24.3445 14.5249 24.4302 14.6161 24.5363 14.6773C24.5865 14.707 29.1677 17.9518 26.5711 22.4923C25.6655 24.0035 24.6112 25.4204 23.4241 26.722C23.2067 26.8994 22.9327 26.9927 22.6522 26.9848C22.333 27.0105 22.0162 26.9114 21.7684 26.7083C21.5622 26.5105 21.4415 26.2398 21.4322 25.9541C21.4228 25.6685 21.5254 25.3905 21.7182 25.1795C21.7368 25.1624 21.7544 25.1441 21.7707 25.1247C22.8286 23.7999 23.5762 22.2546 23.9585 20.6025C24.1399 19.8196 24.0035 18.9966 23.5793 18.3142C23.155 17.6317 22.4774 17.1456 21.6953 16.9624L21.5652 16.935L15.881 15.8884C15.7893 15.8714 15.695 15.875 15.6049 15.8991C15.5148 15.9232 15.4312 15.9672 15.3603 16.0278L9.81997 20.7945C7.89479 19.8096 6.56109 18.226 6.04725 16.3066L6.03583 16.2997Z" fill="white"/>
<path d="M97.6497 18.8401C99.0336 17.332 100.162 16.9687 101.685 17.6336C101.991 17.7684 102.425 18.182 102.395 18.4105C102.306 19.0778 102.021 19.7199 101.779 20.3597C101.758 20.4077 101.466 20.3917 101.322 20.346C100.548 20.1175 100.322 20.458 100.326 21.1869C100.347 23.6571 100.262 26.1318 100.347 28.5997C100.523 33.8051 96.5466 35.4367 92.7374 35.103C90.9824 34.9924 89.3285 34.243 88.0877 32.9962C87.4026 32.3107 87.4597 31.9382 88.3161 31.0173C88.8802 30.4026 89.3666 30.5603 89.885 31.0699C91.2255 32.4112 92.8858 32.7631 94.6808 32.5118C96.7225 32.2261 97.8072 30.3661 97.2523 28.0193C95.2632 29.3058 93.1667 29.6508 90.9652 28.7231C89.813 28.2449 88.8567 27.3903 88.2521 26.2986C86.9367 23.977 87.3386 20.9058 89.2022 19.0595C91.3641 16.9115 94.1799 16.8384 97.6497 18.8401ZM97.5949 23.3075C97.5997 22.8489 97.5131 22.394 97.3398 21.9694C97.1666 21.5448 96.9104 21.1591 96.5862 20.8349C96.262 20.5107 95.8764 20.2546 95.4519 20.0816C95.0275 19.9085 94.5728 19.8221 94.1145 19.8273C93.6559 19.8219 93.201 19.9101 92.7776 20.0866C92.3543 20.2631 91.9713 20.5241 91.6522 20.8536C91.3331 21.1832 91.0845 21.5745 90.9216 22.0034C90.7587 22.4324 90.6849 22.8901 90.7049 23.3486C90.7368 25.3252 92.1619 26.7534 94.1304 26.7762C94.5878 26.7843 95.0421 26.7 95.4662 26.5285C95.8903 26.357 96.2756 26.1018 96.5989 25.778C96.9222 25.4543 97.1771 25.0687 97.3482 24.6442C97.5193 24.2197 97.6032 23.7651 97.5949 23.3075Z" fill="white"/>
<path d="M125.996 22.1449C126.126 18.3905 127.722 15.6667 131.081 14.2476C134.507 12.8012 137.773 13.2491 140.648 15.7375C141.383 16.375 141.445 16.8412 140.963 17.3691C139.897 18.539 139.435 18.6578 138.6 17.9815C135.882 15.7809 132.527 15.9957 130.533 18.5093C128.77 20.7236 128.992 24.1512 131.024 26.1278C132.991 28.0427 136.186 28.1066 138.389 26.2763C138.601 26.0851 138.857 25.95 139.134 25.883C139.412 25.8161 139.701 25.8196 139.977 25.8932C140.252 25.9668 140.505 26.1081 140.712 26.3043C140.919 26.5005 141.074 26.7454 141.162 27.0167C141.265 27.3137 141.073 27.8576 140.831 28.1089C138.972 30.0238 136.638 30.7391 134.027 30.586C132.16 30.4966 130.377 29.7867 128.958 28.5687C127.54 27.3506 126.568 25.6939 126.197 23.861C126.1 23.2928 126.033 22.72 125.996 22.1449Z" fill="white"/>
<path d="M153.373 18.8764C153.419 18.0652 153.638 17.4734 154.64 17.5054C156.011 17.5534 156.175 17.6631 156.175 19.0592C156.175 22.2858 156.175 25.5123 156.175 28.7388C156.175 29.8997 155.979 30.1967 155.193 30.2493C153.793 30.343 153.594 30.1922 153.339 28.7823C151.968 30.0802 150.37 30.7543 148.543 30.5715C146.716 30.3887 145.222 29.6026 144.131 28.1082C142.292 25.5946 142.411 21.8448 144.393 19.4934C145.535 18.1521 147.001 17.4963 148.716 17.3614C150.041 17.2632 150.461 17.4277 153.373 18.8764ZM146.065 23.9722C146.038 26.1316 147.545 27.7494 149.596 27.7654C151.646 27.7814 153.133 26.1887 153.145 23.9882C153.156 21.7876 151.706 20.1767 149.657 20.1515C147.609 20.1264 146.095 21.7077 146.065 23.9722Z" fill="white"/>
<path d="M114.433 24.6785C114.312 26.7785 116.591 28.5243 118.959 28.049C119.873 27.8662 120.704 27.3452 121.547 26.9201C122.209 26.5842 122.577 26.7122 123.269 27.6057C123.668 28.1152 123.445 28.4717 123.066 28.8396C120.873 30.9716 116.361 31.1887 113.739 29.2966C111.215 27.4686 110.395 23.8421 111.836 20.8807C113.143 18.198 116.187 16.8544 119.391 17.5513C122.093 18.1386 123.97 20.4831 124.08 23.4034C124.118 24.45 123.885 24.6968 122.828 24.6991L114.433 24.6785ZM120.85 22.679C120.693 20.691 119.163 19.5645 117.08 19.7907C115.577 19.9552 114.339 21.3446 114.527 22.679H120.85Z" fill="white"/>
<path d="M65.1432 28.6314C64.1475 30.0276 62.807 30.6332 61.1536 30.592C58.3971 30.5212 56.3783 28.5355 56.3303 25.7751C56.2892 23.3895 56.3304 21.0016 56.3166 18.6159C56.3166 17.823 56.6661 17.5214 57.4402 17.5145C59.4956 17.5008 59.4956 17.4825 59.4956 19.5208C59.4956 21.2895 59.4819 23.0604 59.4956 24.8268C59.5116 26.0127 59.8336 27.073 61.044 27.5689C62.8253 28.3184 64.6477 27.1507 64.7162 25.1604C64.787 23.1038 64.7413 21.0633 64.7459 19.0135C64.7459 17.6425 64.8715 17.5145 66.2234 17.5123H66.6459C67.7764 17.5123 67.9431 17.6813 67.9454 18.8467C67.9454 21.3466 67.9454 23.8442 67.9454 26.3441C67.9454 26.6251 67.9568 26.9062 67.9614 27.185C67.9728 27.706 68.2491 27.9071 68.731 27.7585C69.7244 27.4478 69.6445 28.2933 69.8728 28.8005C70.1172 29.3604 70.1766 29.8585 69.48 30.2036C67.8129 31.0331 66.2166 30.5601 65.3693 28.9422C65.3002 28.8342 65.2247 28.7305 65.1432 28.6314Z" fill="white"/>
<path d="M75.6119 19.0798C76.6716 18.5383 77.6673 17.8002 78.7658 17.51C79.4741 17.3178 80.2167 17.2886 80.938 17.4245C81.6592 17.5605 82.3403 17.858 82.9302 18.2948C83.5202 18.7317 84.0036 19.2965 84.3443 19.9469C84.6851 20.5973 84.8742 21.3164 84.8976 22.0504C85.0003 24.4612 84.925 26.8788 84.9273 29.2964C84.9273 29.9088 84.6258 30.247 84.0138 30.2493C81.8648 30.2493 81.7163 30.4778 81.7575 28.1927C81.7894 26.4789 81.8031 24.7651 81.7575 23.0513C81.6889 20.8393 79.9579 19.6237 77.9733 20.3275C76.8314 20.7388 76.2354 21.6597 76.2103 23.1975C76.1783 25.0256 76.2103 26.8537 76.176 28.6817C76.176 29.2187 76.3884 29.9842 75.6873 30.1373C74.9289 30.2593 74.1543 30.2383 73.4036 30.0756C73.2232 30.0436 73.0382 29.4267 73.0336 29.077C73.0016 26.52 73.0176 23.9653 73.0153 21.4083C73.0153 20.2658 73.0153 20.2658 71.9169 20.3892C71.8095 20.4029 71.62 20.4349 71.6063 20.4029C71.3573 19.7996 71.0445 19.2009 70.9349 18.5748C70.8915 18.3212 71.2386 17.8596 71.5218 17.7133C73.1661 16.8404 74.6071 17.398 75.6119 19.0798Z" fill="white"/>
<path d="M52.9163 25.4962C52.6673 29.55 49.4793 30.9279 46.2935 30.5234C44.9139 30.3736 43.6294 29.7483 42.6601 28.7548C42.0366 28.1172 42.0389 27.7585 42.6486 27.1095C42.8039 26.9473 42.9775 26.801 43.1214 26.6296C43.6535 26.0012 44.1605 26.0012 44.7451 26.5908C45.5604 27.4134 46.5401 27.8407 47.7139 27.5437C48.9563 27.2329 49.6894 26.3554 49.7168 24.9638C49.7693 22.352 49.7328 19.7401 49.7579 17.1283C49.7579 16.5776 49.4952 16.4679 49.0317 16.4747C48.0222 16.4747 47.0106 16.4907 46.0011 16.4747C45.1014 16.4565 44.9575 16.2577 44.9552 15.1562C44.9529 14.0548 45.1265 13.8309 46.0034 13.824C47.9674 13.8058 49.9337 13.824 51.8977 13.824C52.6422 13.824 52.9734 14.1714 52.9688 14.9026C52.9688 16.6713 52.9688 18.4399 52.9688 20.2108C52.9551 20.1926 53.0236 23.7344 52.9163 25.4962Z" fill="white"/>
<path d="M160.363 20.042C158.228 19.7975 158.169 19.7632 158.146 18.8103C158.121 17.7935 158.194 17.7455 160.409 17.4393C160.409 16.5458 160.448 15.6272 160.409 14.7132C160.363 13.8403 160.735 13.4518 161.58 13.301C163.565 12.9445 163.604 12.9537 163.604 15.0057V17.5238C164.558 17.5238 165.419 17.5238 166.28 17.5238C167.141 17.5238 167.363 17.7752 167.363 18.7304C167.363 19.6855 167.148 19.9415 166.292 19.9575C165.435 19.9734 164.568 19.9575 163.65 19.9575C163.65 22.1603 163.576 24.2625 163.679 26.3557C163.736 27.5508 164.901 28.0763 166.082 27.6079C167.262 27.1395 167.274 27.1509 167.68 28.0649C168.217 29.2783 168.137 29.5479 167.068 30.0621C164.385 31.344 160.313 30.3477 160.411 26.0335C160.441 24.3882 160.379 20.4076 160.363 20.042Z" fill="white"/>
<path d="M104.53 13.9386C104.514 13.1182 104.8 12.7137 105.608 12.5264C107.629 12.0556 107.746 12.1265 107.746 14.2288C107.746 18.3038 107.746 22.3781 107.746 26.4516C107.746 27.5805 107.746 27.5576 108.828 27.6285C108.956 27.6475 109.079 27.6941 109.187 27.7651C109.295 27.8362 109.386 27.9299 109.454 28.0398C110.242 29.5616 109.845 30.2997 108.143 30.5534C106.026 30.8801 104.567 29.6576 104.549 27.4982C104.53 25.2657 104.572 16.2236 104.53 13.9386Z" fill="white"/>
</g>
<defs>
<clipPath id="clip0">
<rect width="168" height="37" fill="white"/>
</clipPath>
</defs>
</svg>
