<svg width="24" height="24" viewBox="0 0 24 24" fill="none" xmlns="http://www.w3.org/2000/svg">
<path fill-rule="evenodd" clip-rule="evenodd" d="M18.3525 21.0037H5.64723C4.61968 21.0037 3.75916 20.2254 3.6564 19.203L3.00613 12.7003C2.94959 12.1377 3.13376 11.5774 3.51309 11.158C3.89242 10.7386 4.43149 10.4994 4.99696 10.4994H19.0028C19.5683 10.4994 20.1074 10.7386 20.4867 11.158C20.866 11.5774 21.0502 12.1377 20.9936 12.7003L20.3434 19.203C20.2406 20.2254 19.3801 21.0037 18.3525 21.0037Z" fill="#5BA1F2" stroke="#5BA1F2" stroke-linecap="round" stroke-linejoin="round"/>
<path d="M6 6.5H18C18.2761 6.5 18.5 6.72386 18.5 7V8H5.5V7C5.5 6.72386 5.72386 6.5 6 6.5Z" fill="#CFE7FF" stroke="#CFE7FF"/>
<path d="M8 2.5H16C16.2761 2.5 16.5 2.72386 16.5 3V4H7.5V3C7.5 2.72386 7.72386 2.5 8 2.5Z" fill="#5BA1F2" stroke="#5BA1F2"/>
</svg>
