<svg width="26" height="26" viewBox="0 0 26 26" fill="none" xmlns="http://www.w3.org/2000/svg">
<path d="M11.8293 14.0993C11.5173 13.8269 11.0435 13.859 10.7711 14.171C10.4986 14.4831 10.5308 14.9569 10.8428 15.2293L11.8293 14.0993ZM17.9951 14.6643L18.4884 15.2293C18.5011 15.2181 18.5135 15.2066 18.5255 15.1946L17.9951 14.6643ZM12.4753 5.8053C12.1794 6.09508 12.1743 6.56993 12.4641 6.8659C12.7539 7.16188 13.2287 7.16691 13.5247 6.87714L12.4753 5.8053ZM14.1707 11.9013C14.4828 12.1737 14.9566 12.1416 15.229 11.8296C15.5014 11.5175 15.4693 11.0437 15.1572 10.7713L14.1707 11.9013ZM8.00489 11.3363L7.51164 10.7713C7.49889 10.7825 7.48652 10.794 7.47455 10.806L8.00489 11.3363ZM13.5247 20.1953C13.8207 19.9056 13.8257 19.4307 13.5359 19.1347C13.2462 18.8388 12.7713 18.8337 12.4753 19.1235L13.5247 20.1953ZM10.8428 15.2293C13.0327 17.1412 16.2984 17.1412 18.4884 15.2293L17.5019 14.0993C15.8771 15.5178 13.4541 15.5178 11.8293 14.0993L10.8428 15.2293ZM18.5255 15.1946L20.1895 13.5307L19.1288 12.47L17.4648 14.134L18.5255 15.1946ZM20.195 13.525C22.2884 11.3868 22.2703 7.96187 20.1544 5.84596L19.0937 6.90662C20.6282 8.44113 20.6414 10.925 19.1232 12.4756L20.195 13.525ZM20.1544 5.84596C18.0385 3.73005 14.6135 3.71192 12.4753 5.8053L13.5247 6.87714C15.0754 5.35897 17.5592 5.37212 19.0937 6.90662L20.1544 5.84596ZM15.1572 10.7713C12.9673 8.8594 9.70159 8.8594 7.51164 10.7713L8.49814 11.9013C10.123 10.4828 12.5459 10.4828 14.1707 11.9013L15.1572 10.7713ZM7.47455 10.806L5.81058 12.47L6.87125 13.5306L8.53523 11.8666L7.47455 10.806ZM5.805 12.4756C3.71161 14.6138 3.72975 18.0388 5.84566 20.1547L6.90632 19.094C5.37181 17.5595 5.35866 15.0757 6.87683 13.525L5.805 12.4756ZM5.84566 20.1547C7.96157 22.2706 11.3865 22.2887 13.5247 20.1953L12.4753 19.1235C10.9247 20.6417 8.44082 20.6285 6.90632 19.094L5.84566 20.1547Z" fill="#3D4457"/>
</svg>
