<svg width="40" height="40" viewBox="0 0 40 40" fill="none" xmlns="http://www.w3.org/2000/svg">
<path fill-rule="evenodd" clip-rule="evenodd" d="M28.3333 35H11.6666C9.82492 35 8.33325 33.5083 8.33325 31.6667V18.3333C8.33325 16.4917 9.82492 15 11.6666 15H28.3333C30.1749 15 31.6666 16.4917 31.6666 18.3333V31.6667C31.6666 33.5083 30.1749 35 28.3333 35Z" stroke="#40A1FF" stroke-width="2" stroke-linecap="round" stroke-linejoin="round"/>
<path d="M26.6666 15V11.6667C26.6666 7.985 23.6816 5 19.9999 5V5C16.3183 5 13.3333 7.985 13.3333 11.6667V15" stroke="#40A1FF" stroke-width="2" stroke-linecap="round" stroke-linejoin="round"/>
<path d="M19.9965 24.1667C19.5365 24.1667 19.1632 24.5401 19.1665 25.0001C19.1665 25.4601 19.5399 25.8334 19.9999 25.8334C20.4599 25.8334 20.8332 25.4601 20.8332 25.0001C20.8332 24.5401 20.4599 24.1667 19.9965 24.1667" stroke="#40A1FF" stroke-width="2" stroke-linecap="round" stroke-linejoin="round"/>
</svg>
