<svg width="110" height="110" viewBox="0 0 110 110" fill="none" xmlns="http://www.w3.org/2000/svg">
<path fill-rule="evenodd" clip-rule="evenodd" d="M77.9165 96.25H32.0832C27.0186 96.25 22.9165 92.1479 22.9165 87.0833V50.4167C22.9165 45.3521 27.0186 41.25 32.0832 41.25H77.9165C82.9811 41.25 87.0832 45.3521 87.0832 50.4167V87.0833C87.0832 92.1479 82.9811 96.25 77.9165 96.25Z" stroke="#40A1FF" stroke-width="5.5" stroke-linecap="round" stroke-linejoin="round"/>
<path d="M73.3332 41.25V32.0833C73.3332 21.9587 65.1244 13.75 54.9998 13.75V13.75C44.8753 13.75 36.6665 21.9587 36.6665 32.0833V41.25" stroke="#40A1FF" stroke-width="5.5" stroke-linecap="round" stroke-linejoin="round"/>
<path d="M54.9906 66.4609C53.7256 66.4609 52.6989 67.4876 52.7081 68.7526C52.7081 70.0176 53.7347 71.0442 54.9997 71.0442C56.2647 71.0442 57.2914 70.0176 57.2914 68.7526C57.2914 67.4876 56.2647 66.4609 54.9906 66.4609" stroke="#40A1FF" stroke-width="5.5" stroke-linecap="round" stroke-linejoin="round"/>
</svg>
