<svg width="26" height="26" viewBox="0 0 26 26" fill="none" xmlns="http://www.w3.org/2000/svg">
<path d="M8.99849 5.99708H6.99766C5.89263 5.99708 4.99683 6.89289 4.99683 7.99792V20.0029C4.99683 21.1079 5.89263 22.0037 6.99766 22.0037H9.99891" stroke="#E6E7E8" stroke-width="1.5" stroke-linecap="round" stroke-linejoin="round"/>
<rect x="8.99854" y="3.99625" width="8.00333" height="4.00167" rx="1" stroke="#E6E7E8" stroke-width="1.5" stroke-linecap="round" stroke-linejoin="round"/>
<path d="M17.0017 5.99708H19.0025C20.1076 5.99708 21.0034 6.89289 21.0034 7.99792V13" stroke="#E6E7E8" stroke-width="1.5" stroke-linecap="round" stroke-linejoin="round"/>
<path d="M16.0013 22.0038C14.3441 22.0027 13.001 20.6596 13 19.0025V19.0025C13.001 17.3454 14.3441 16.0023 16.0013 16.0013" stroke="#E6E7E8" stroke-width="1.5" stroke-linecap="round" stroke-linejoin="round"/>
<path d="M19.0027 16.0013C20.6598 16.0023 22.0029 17.3454 22.0039 19.0025V19.0025C22.0029 20.6596 20.6598 22.0027 19.0027 22.0038" stroke="#E6E7E8" stroke-width="1.5" stroke-linecap="round" stroke-linejoin="round"/>
<path d="M16.0015 19.0025H19.0027" stroke="#E6E7E8" stroke-width="1.5" stroke-linecap="round" stroke-linejoin="round"/>
</svg>
