<svg width="16" height="13" viewBox="0 0 16 13" fill="none" xmlns="http://www.w3.org/2000/svg">
<path d="M14.132 0H0V12.3452H14.132V9.64873H16V5.94518H14.132V0ZM12.8325 1.29949V3.5736H1.29949V1.29949H12.8325ZM12.8325 11.0457H1.29949V4.8731H12.8325V5.94518H8.77157L5.8802 7.79696L8.77157 9.64873H12.8325V11.0457ZM8.28426 7.79696H8.30051V7.82944L8.28426 7.79696ZM14.7005 8.34924H9.6V7.24467H14.7005V8.34924Z" fill="#525252"/>
<path d="M2.35531 3.08624C2.71416 3.08624 3.00506 2.79533 3.00506 2.43649C3.00506 2.07764 2.71416 1.78674 2.35531 1.78674C1.99647 1.78674 1.70557 2.07764 1.70557 2.43649C1.70557 2.79533 1.99647 3.08624 2.35531 3.08624Z" fill="#525252"/>
<path d="M4.06076 3.08624C4.4196 3.08624 4.7105 2.79533 4.7105 2.43649C4.7105 2.07764 4.4196 1.78674 4.06076 1.78674C3.70191 1.78674 3.41101 2.07764 3.41101 2.43649C3.41101 2.79533 3.70191 3.08624 4.06076 3.08624Z" fill="#525252"/>
<path d="M5.7341 3.08624C6.09294 3.08624 6.38384 2.79533 6.38384 2.43649C6.38384 2.07764 6.09294 1.78674 5.7341 1.78674C5.37525 1.78674 5.08435 2.07764 5.08435 2.43649C5.08435 2.79533 5.37525 3.08624 5.7341 3.08624Z" fill="#525252"/>
</svg>
