<svg width="172" height="172" viewBox="0 0 172 172" fill="none" xmlns="http://www.w3.org/2000/svg">
<circle opacity="0.1" cx="86" cy="86" r="86" fill="#4EC977"/>
<path d="M86.1385 93.1011C86.3024 93.2246 86.527 93.2246 86.6909 93.1011L118.932 68.8215C119.237 68.5915 119.671 68.8122 119.671 69.1974V87.7379C119.671 87.93 119.786 88.1033 119.964 88.1706C120.657 88.4332 121.317 88.6258 121.913 88.7339C121.913 88.7339 121.913 88.7341 121.913 88.7343C121.914 88.7344 121.914 88.7346 121.914 88.7346C123.052 88.9415 124.129 89.3025 125.128 89.7918C125.447 89.948 125.83 89.7201 125.83 89.3614V66.3529C125.83 61.1957 121.686 57 116.592 57H56.2378C51.1441 57 47 61.1957 47 66.3529V106.259C47 111.416 51.1441 115.611 56.2378 115.611H83.0834C83.3867 115.611 83.6079 115.321 83.5381 115.022C83.1419 113.327 82.9209 111.598 82.8813 109.843C82.8755 109.585 82.6691 109.376 82.4142 109.376H56.2378C54.5397 109.376 53.1585 107.978 53.1585 106.259V69.1974C53.1585 68.8122 53.5922 68.5915 53.8975 68.8215L86.1385 93.1011ZM57.9208 64.0798C57.5632 63.8105 57.7514 63.2353 58.1971 63.2353H114.633C115.079 63.2353 115.267 63.8105 114.909 64.0798L86.6909 85.3302C86.527 85.4537 86.3024 85.4537 86.1385 85.3302L57.9208 64.0798Z" fill="url(#paint0_linear)"/>
<path fill-rule="evenodd" clip-rule="evenodd" d="M110.557 127.596C118.907 127.596 125.675 120.743 125.675 112.29C125.675 103.837 118.907 96.9838 110.557 96.9838C102.208 96.9838 95.4392 103.837 95.4392 112.29C95.4392 120.743 102.208 127.596 110.557 127.596ZM110.557 134C122.4 134 132 124.28 132 112.29C132 100.3 122.4 90.5801 110.557 90.5801C98.7146 90.5801 89.1143 100.3 89.1143 112.29C89.1143 124.28 98.7146 134 110.557 134Z" fill="url(#paint1_linear)"/>
<path fill-rule="evenodd" clip-rule="evenodd" d="M119.658 105.497C120.893 106.747 120.893 108.774 119.658 110.025L108.725 121.094C108.544 121.277 108.251 121.277 108.07 121.094L101.533 114.476C100.298 113.226 100.298 111.198 101.533 109.948C102.768 108.698 104.771 108.698 106.006 109.948L108.07 112.038C108.251 112.221 108.544 112.221 108.725 112.038L115.186 105.497C116.421 104.246 118.423 104.246 119.658 105.497Z" fill="url(#paint2_linear)"/>
<defs>
<linearGradient id="paint0_linear" x1="21.6181" y1="57" x2="164.549" y2="68.2971" gradientUnits="userSpaceOnUse">
<stop stop-color="#76DB64"/>
<stop offset="1" stop-color="#1CB5D2"/>
</linearGradient>
<linearGradient id="paint1_linear" x1="21.6181" y1="57" x2="164.549" y2="68.2971" gradientUnits="userSpaceOnUse">
<stop stop-color="#76DB64"/>
<stop offset="1" stop-color="#1CB5D2"/>
</linearGradient>
<linearGradient id="paint2_linear" x1="21.6181" y1="57" x2="164.549" y2="68.2971" gradientUnits="userSpaceOnUse">
<stop stop-color="#76DB64"/>
<stop offset="1" stop-color="#1CB5D2"/>
</linearGradient>
</defs>
</svg>
