<svg width="24" height="24" viewBox="0 0 24 24" fill="none" xmlns="http://www.w3.org/2000/svg">
<path d="M12.001 15.5015C10.0672 15.5015 8.49951 13.9338 8.49951 12" stroke="#3D4457" stroke-width="1.5" stroke-linecap="round" stroke-linejoin="round"/>
<path d="M8.49948 9.49981V9.49988" stroke="#3D4457" stroke-width="1.5" stroke-linecap="round" stroke-linejoin="round"/>
<path d="M8.49948 12V8.49945" stroke="#3D4457" stroke-width="1.5" stroke-linecap="round" stroke-linejoin="round"/>
<path d="M17.0437 17.0435C14.8497 19.0464 11.6797 19.5643 8.96235 18.3636C6.24503 17.163 4.49347 14.4705 4.49708 11.4998" stroke="#3D4457" stroke-width="1.5" stroke-linecap="round" stroke-linejoin="round"/>
<path d="M12.0002 19.0029V21.0037" stroke="#3D4457" stroke-width="1.5" stroke-linecap="round" stroke-linejoin="round"/>
<path d="M15.5026 10.9996V6.49771C15.5096 4.8818 14.4053 3.47284 12.8345 3.09359C11.2637 2.71435 9.63823 3.46425 8.90723 4.90538" stroke="#3D4457" stroke-width="1.5" stroke-linecap="round" stroke-linejoin="round"/>
<path d="M19.5033 11.4998C19.5001 12.6245 19.2408 13.7337 18.7451 14.7433" stroke="#3D4457" stroke-width="1.5" stroke-linecap="round" stroke-linejoin="round"/>
<path d="M14.4764 14.4763C13.8205 15.1337 12.9296 15.5027 12.001 15.5015" stroke="#3D4457" stroke-width="1.5" stroke-linecap="round" stroke-linejoin="round"/>
<path d="M20.0035 20.0033L3.99683 3.99667" stroke="#D64727" stroke-width="1.5" stroke-linecap="round" stroke-linejoin="round"/>
</svg>
