<svg width="24" height="24" viewBox="0 0 24 24" fill="none" xmlns="http://www.w3.org/2000/svg">
<path fill-rule="evenodd" clip-rule="evenodd" d="M17.5024 17.3614C18.5498 17.3614 19.3998 16.514 19.4031 15.4666V15.4666V15.4666C19.4025 14.9336 19.1897 14.4228 18.8119 14.047L17.5524 12.7865V9.0419C17.5521 7.57006 16.9668 6.15868 15.9254 5.11859C14.884 4.0785 13.4719 3.495 12.0001 3.49659V3.49659C8.93848 3.49825 6.4573 5.98032 6.45675 9.0419V12.7835L5.19723 14.044C4.8191 14.4197 4.60602 14.9305 4.60498 15.4636V15.4636V15.4636C4.60829 16.511 5.45833 17.3584 6.50577 17.3584L17.5024 17.3614Z" stroke="#9EA3A5" stroke-width="1.5" stroke-linecap="round" stroke-linejoin="round"/>
<path d="M10.5205 20.5036H13.4787" stroke="#9EA3A5" stroke-width="1.5" stroke-linecap="round" stroke-linejoin="round"/>
<circle cx="16" cy="4" r="2" fill="#FF6969"/>
</svg>
