<svg width="26" height="26" viewBox="0 0 26 26" fill="none" xmlns="http://www.w3.org/2000/svg">
<path fill-rule="evenodd" clip-rule="evenodd" d="M18.5023 18.3612C19.5497 18.3612 20.3998 17.5139 20.4031 16.4665V16.4665V16.4665C20.4024 15.9335 20.1897 15.4227 19.8118 15.0469L18.5523 13.7863V10.0418C18.552 8.56994 17.9668 7.15856 16.9254 6.11847C15.884 5.07837 14.4718 4.49487 13 4.49646V4.49646C9.93842 4.49812 7.45724 6.9802 7.45669 10.0418V13.7833L6.19717 15.0439C5.81904 15.4196 5.60596 15.9304 5.60492 16.4635V16.4635V16.4635C5.60823 17.5109 6.45827 18.3582 7.50571 18.3582L18.5023 18.3612Z" stroke="#0C181F" stroke-width="1.5" stroke-linecap="round" stroke-linejoin="round"/>
<path d="M11.5204 21.5035H14.4786" stroke="#0C181F" stroke-width="1.5" stroke-linecap="round" stroke-linejoin="round"/>
</svg>
