<svg width="26" height="26" viewBox="0 0 26 26" fill="none" xmlns="http://www.w3.org/2000/svg">
<path fill-rule="evenodd" clip-rule="evenodd" d="M18.5024 18.3614C19.5498 18.3614 20.3998 17.514 20.4031 16.4666V16.4666V16.4666C20.4025 15.9336 20.1897 15.4228 19.8119 15.047L18.5524 13.7865V10.0419C18.5521 8.57006 17.9668 7.15868 16.9254 6.11859C15.884 5.0785 14.4719 4.495 13.0001 4.49659V4.49659C9.93848 4.49825 7.4573 6.98032 7.45675 10.0419V13.7835L6.19723 15.044C5.8191 15.4197 5.60602 15.9305 5.60498 16.4636V16.4636V16.4636C5.60829 17.511 6.45833 18.3584 7.50577 18.3584L18.5024 18.3614Z" stroke="#9EA3A5" stroke-width="1.5" stroke-linecap="round" stroke-linejoin="round"/>
<path d="M11.5205 21.5036H14.4787" stroke="#9EA3A5" stroke-width="1.5" stroke-linecap="round" stroke-linejoin="round"/>
</svg>
