<svg width="20" height="20" viewBox="0 0 20 20" fill="none" xmlns="http://www.w3.org/2000/svg">
<path d="M9.99743 14.5859C9.76817 14.5859 9.58059 14.7735 9.58309 15.0028C9.58309 15.232 9.77067 15.4196 9.99993 15.4196C10.2292 15.4196 10.4168 15.232 10.4168 15.0028C10.4168 14.7735 10.2292 14.5859 9.99743 14.5859" stroke="#3D4457" stroke-width="1.5" stroke-linecap="round" stroke-linejoin="round"/>
<path d="M9.99743 9.58594C9.76817 9.58594 9.58059 9.77352 9.58309 10.0028C9.58309 10.232 9.77067 10.4196 9.99993 10.4196C10.2292 10.4196 10.4168 10.232 10.4168 10.0028C10.4168 9.77352 10.2292 9.58594 9.99743 9.58594" stroke="#3D4457" stroke-width="1.5" stroke-linecap="round" stroke-linejoin="round"/>
<path d="M9.99743 4.58203C9.76817 4.58203 9.58059 4.76961 9.58309 4.99887C9.58309 5.22813 9.77067 5.41571 9.99993 5.41571C10.2292 5.41571 10.4168 5.22813 10.4168 4.99887C10.4168 4.76961 10.2292 4.58203 9.99743 4.58203" stroke="#3D4457" stroke-width="1.5" stroke-linecap="round" stroke-linejoin="round"/>
</svg>
