<svg width="104" height="99" viewBox="0 0 104 99" fill="none" xmlns="http://www.w3.org/2000/svg">
<path d="M71.1294 85.6204V97.2502C71.1289 99.8072 72.5737 102.145 74.8609 103.288L77.472 104.593C81.2729 106.493 85.7462 106.493 89.5471 104.593L92.1582 103.288C94.4454 102.145 95.8902 99.8072 95.8897 97.2502V85.6204" stroke="#ECF6FF" stroke-width="2" stroke-linecap="round" stroke-linejoin="round"/>
<path fill-rule="evenodd" clip-rule="evenodd" d="M63.0664 81.5889L78.5079 89.3021C81.667 90.8779 85.3829 90.8779 88.542 89.3021L103.968 81.5889C105.236 80.9566 106.038 79.6617 106.038 78.245C106.038 76.8282 105.236 75.5333 103.968 74.9011L88.512 67.1879C85.354 65.6073 81.6359 65.6073 78.4779 67.1879L63.0514 74.9011C61.785 75.5361 60.9866 76.8328 60.9898 78.2496C60.9929 79.6664 61.7971 80.9595 63.0664 81.5889Z" stroke="#ECF6FF" stroke-width="2" stroke-linecap="round" stroke-linejoin="round"/>
<path d="M101.017 55.9976V25.9851C101.017 20.46 96.5383 15.981 91.0132 15.981H25.9861C20.461 15.981 15.9819 20.46 15.9819 25.9851V86.0101C15.9819 91.5353 20.461 96.0143 25.9861 96.0143H55.9986" stroke="#ECF6FF" stroke-width="2" stroke-linecap="round" stroke-linejoin="round"/>
<path d="M47.2446 55.9981H61.0004" stroke="#ECF6FF" stroke-width="2" stroke-linecap="round" stroke-linejoin="round"/>
<path d="M47.2446 36.6146H81.0087" stroke="#ECF6FF" stroke-width="2" stroke-linecap="round" stroke-linejoin="round"/>
<path d="M31.6129 56.6234C31.9582 56.6234 32.2381 56.3434 32.2381 55.9981C32.2381 55.6528 31.9582 55.3729 31.6129 55.3729C31.2675 55.3729 30.9876 55.6528 30.9876 55.9981C30.9876 56.3434 31.2675 56.6234 31.6129 56.6234" stroke="#ECF6FF" stroke-width="2" stroke-linecap="round" stroke-linejoin="round"/>
<path d="M31.6129 37.2398C31.9582 37.2398 32.2381 36.9599 32.2381 36.6146C32.2381 36.2692 31.9582 35.9893 31.6129 35.9893C31.2675 35.9893 30.9876 36.2692 30.9876 36.6146C30.9876 36.9599 31.2675 37.2398 31.6129 37.2398" stroke="#ECF6FF" stroke-width="2" stroke-linecap="round" stroke-linejoin="round"/>
</svg>
