<svg width="40" height="40" viewBox="0 0 40 40" fill="none" xmlns="http://www.w3.org/2000/svg">
<g clip-path="url(#clip0)">
<path d="M10.4159 30.8855C7.74768 30.8855 5.37427 29.1771 4.51243 26.6337L4.45414 26.442C4.25089 25.7685 4.16575 25.202 4.16575 24.6353V13.2715L0.122371 26.7685C-0.397661 28.7538 0.787366 30.8119 2.77564 31.3603L28.5481 38.2624C28.8697 38.3457 29.1914 38.3857 29.5082 38.3857C31.1681 38.3857 32.6848 37.2839 33.1099 35.6604L34.6114 30.8855H10.4159Z" fill="#E7F5FF"/>
<path d="M40.0001 5.46714V24.6345C40.0001 26.7012 38.3167 28.3846 36.25 28.3846H10.416C10.2493 28.3846 10.0827 28.3678 9.93256 28.351C8.18264 28.1346 6.81603 26.7012 6.68267 24.9345C6.66588 24.8344 6.66588 24.7343 6.66588 24.6345V5.46714C6.66588 3.40044 8.34927 1.71705 10.416 1.71705H36.25C38.3167 1.71705 40.0001 3.40044 40.0001 5.46714Z" fill="#E1F3FF"/>
<path d="M18.3326 10.0517C18.3326 11.8926 16.8403 13.3852 14.9994 13.3852C13.1582 13.3852 11.6659 11.8926 11.6659 10.0517C11.6659 8.21085 13.1582 6.7182 14.9994 6.7182C16.8403 6.7182 18.3326 8.21085 18.3326 10.0517Z" fill="#FCCA3D"/>
<path d="M40.0003 19.9522V24.6358C40.0003 26.7025 38.3169 28.3859 36.2502 28.3859H10.4162C10.2495 28.3859 10.0829 28.3691 9.93276 28.3524L27.0999 11.1855C28.2334 10.052 30.0999 10.052 31.2333 11.1855L40.0003 19.9522Z" fill="url(#paint0_linear)"/>
<path d="M30.0998 28.3848H10.4161C10.2495 28.3848 10.0828 28.368 9.93267 28.3513C8.18275 28.1349 6.81614 26.7014 6.68277 24.9347L14.5995 17.0177C15.733 15.8845 17.5995 15.8845 18.7329 17.0177L30.0998 28.3848Z" fill="#40A1FF"/>
</g>
<defs>
<linearGradient id="paint0_linear" x1="17.0738" y1="10.8769" x2="23.1642" y2="33.1248" gradientUnits="userSpaceOnUse">
<stop stop-color="#419FFF"/>
<stop offset="1" stop-color="#0779FF"/>
</linearGradient>
<clipPath id="clip0">
<rect width="40" height="40" fill="white"/>
</clipPath>
</defs>
</svg>
