<svg width="25" height="10" viewBox="0 0 25 10" fill="none" xmlns="http://www.w3.org/2000/svg">
<path fill-rule="evenodd" clip-rule="evenodd" d="M20.5425 10H22.5C23.8813 10 25 8.88125 25 7.5V6.2325C25 4.94625 24.34 3.75 23.2475 3.00375C20.5512 1.165 16.7512 0 12.5 0C8.24875 0 4.44875 1.165 1.7525 3.005C0.66 3.75125 0 4.9475 0 6.2325V7.5C0 8.88125 1.11875 10 2.5 10H4.4575C5.4925 10 6.3325 9.16 6.3325 8.125V6.42125C6.3325 6.0375 6.55875 5.6825 6.91625 5.54375C8.57375 4.90125 10.4738 4.53125 12.5 4.53125C14.5262 4.53125 16.4263 4.90125 18.0837 5.54375C18.4412 5.6825 18.6675 6.0375 18.6675 6.42125V8.125C18.6675 9.16 19.5075 10 20.5425 10Z" fill="white"/>
</svg>
