<svg width="20" height="20" viewBox="0 0 20 20" fill="none" xmlns="http://www.w3.org/2000/svg">
<path fill-rule="evenodd" clip-rule="evenodd" d="M17.5 10C17.5 14.1425 14.1425 17.5 10 17.5C5.8575 17.5 2.5 14.1425 2.5 10C2.5 5.8575 5.8575 2.5 10 2.5C14.1425 2.5 17.5 5.8575 17.5 10Z" fill="#0C181F"/>
<mask id="path-2-inside-1_3932_5036" fill="white">
<path fill-rule="evenodd" clip-rule="evenodd" d="M9.11741 7.54851L12.3524 9.46185C12.7616 9.70351 12.7616 10.296 12.3524 10.5377L9.11741 12.451C8.70074 12.6977 8.17407 12.3968 8.17407 11.9127V8.08685C8.17407 7.60268 8.70074 7.30185 9.11741 7.54851Z"/>
</mask>
<path fill-rule="evenodd" clip-rule="evenodd" d="M9.11741 7.54851L12.3524 9.46185C12.7616 9.70351 12.7616 10.296 12.3524 10.5377L9.11741 12.451C8.70074 12.6977 8.17407 12.3968 8.17407 11.9127V8.08685C8.17407 7.60268 8.70074 7.30185 9.11741 7.54851Z" fill="white"/>
<path d="M12.3524 9.46185L9.80704 13.7655L9.80964 13.767L12.3524 9.46185ZM12.3524 10.5377L9.80964 6.23252L9.80704 6.23406L12.3524 10.5377ZM9.11741 12.451L6.57204 8.1474L6.57028 8.14844L9.11741 12.451ZM8.17407 8.08685H13.1741H8.17407ZM6.57204 11.8521L9.80704 13.7655L14.8978 5.15823L11.6628 3.2449L6.57204 11.8521ZM9.80964 13.767C6.94249 12.0736 6.94249 7.92596 9.80964 6.23253L14.8952 14.8428C18.5807 12.6661 18.5807 7.33346 14.8952 5.15669L9.80964 13.767ZM9.80704 6.23406L6.57204 8.1474L11.6628 16.7546L14.8978 14.8413L9.80704 6.23406ZM6.57028 8.14844C9.49335 6.41798 13.1741 8.53134 13.1741 11.9127H3.17407C3.17407 16.2624 7.90813 18.9774 11.6645 16.7536L6.57028 8.14844ZM13.1741 11.9127V8.08685H3.17407V11.9127H13.1741ZM13.1741 8.08685C13.1741 11.4682 9.49335 13.5815 6.57028 11.8511L11.6645 3.24594C7.90813 1.02215 3.17407 3.73717 3.17407 8.08685H13.1741Z" fill="white" mask="url(#path-2-inside-1_3932_5036)"/>
</svg>
