<svg width="48" height="48" viewBox="0 0 48 48" fill="none" xmlns="http://www.w3.org/2000/svg">
<path fill-rule="evenodd" clip-rule="evenodd" d="M42 24V24C42 33.942 33.942 42 24 42V42C14.058 42 6 33.942 6 24V24C6 14.058 14.058 6 24 6V6C33.942 6 42 14.058 42 24Z" fill="white"/>
<path d="M21.4999 18.7613L21.5002 18.7614L29.2642 23.3534L29.2646 23.3537C29.7551 23.6434 29.7551 24.3544 29.2646 24.6441L29.2642 24.6444L21.5002 29.2364L21.4999 29.2365C21.0009 29.5319 20.368 29.1721 20.368 28.5899V19.4079C20.368 18.8257 21.0009 18.4659 21.4999 18.7613Z" fill="#091018" stroke="#091018" stroke-width="1.5" stroke-linecap="round" stroke-linejoin="round"/>
</svg>
