<svg width="26" height="26" viewBox="0 0 26 26" fill="none" xmlns="http://www.w3.org/2000/svg">
<path d="M24.0939 11.2637L14.7366 11.2637V1.90623C14.7366 1.47996 14.1577 0.555664 13.0001 0.555664C11.8425 0.555664 11.2637 1.48001 11.2637 1.90623V11.2637H1.90623C1.48001 11.2637 0.555664 11.8425 0.555664 13.0001C0.555664 14.1576 1.48001 14.7365 1.90623 14.7365H11.2637L11.2637 24.094C11.2637 24.5202 11.8425 25.4446 13.0002 25.4446C14.1578 25.4446 14.7366 24.5202 14.7366 24.094L14.7366 14.7365L24.0941 14.7365C24.5203 14.7365 25.4447 14.1577 25.4447 13.0001C25.4447 11.8424 24.5202 11.2637 24.0939 11.2637Z" fill="white"/>
</svg>
