<svg width="18" height="18" viewBox="0 0 18 18" fill="none" xmlns="http://www.w3.org/2000/svg">
<path d="M9.18918 10.6524L8.51344 10.0031C8.36689 9.86224 8.13476 9.86359 7.98858 10.005C7.75706 10.229 7.4877 10.4861 7.3122 10.6531C7.19957 10.7604 7.16428 10.9254 7.22413 11.0689C7.36842 11.415 7.64734 12.0825 7.90548 12.6927C8.03411 12.9967 8.46274 12.9953 8.59099 12.6911L9.27491 11.0685C9.33521 10.9254 9.30116 10.7601 9.18918 10.6524Z" fill="url(#paint0_linear)"/>
<path d="M8.10107 8.625C9.86148 8.625 11.2886 7.19791 11.2886 5.4375C11.2886 3.67709 9.86148 2.25 8.10107 2.25C6.34067 2.25 4.91357 3.67709 4.91357 5.4375C4.91357 7.19791 6.34067 8.625 8.10107 8.625Z" fill="url(#paint1_linear)"/>
<path fill-rule="evenodd" clip-rule="evenodd" d="M11.1681 15.7499H8.51603L10.3437 9.53125H11.1681C12.8853 9.53125 14.2774 10.9233 14.2774 12.6406C14.2774 14.3578 12.8853 15.7499 11.1681 15.7499ZM5.35919 9.53125H6.12979L6.88771 12.0408C6.5283 11.9959 6.05889 12.1666 6.05889 12.1666L4.33389 12.7666L2.68389 12.1666C2.68389 12.1666 2.52075 12.0851 2.30859 12.036C2.58995 10.6082 3.8488 9.53125 5.35919 9.53125ZM6.4491 15.7499H8.0079L7.16925 12.973L6.4491 15.7499Z" fill="url(#paint2_linear)"/>
<path d="M4.18425 13.389C4.18425 13.2855 4.11367 13.1955 4.01488 13.1646C3.71172 13.0696 3.28068 12.8986 2.84963 12.7275C2.67348 12.6576 2.49733 12.5877 2.32991 12.523C2.16188 12.4581 1.99405 12.6099 2.03849 12.7845L2.71239 15.432C2.73086 15.5045 2.78423 15.5631 2.85476 15.5883L3.88357 15.9558C4.0301 16.0081 4.18425 15.8994 4.18425 15.7439V13.389Z" fill="url(#paint3_linear)"/>
<path d="M4.55908 15.7336C4.55908 15.8892 4.71322 15.9978 4.85976 15.9455L5.86088 15.5879C5.93076 15.563 5.98385 15.5052 6.00277 15.4334L6.69156 12.8207C6.73933 12.6395 6.55743 12.4817 6.38391 12.5525C5.85406 12.7687 5.16878 13.0322 4.72989 13.1613C4.63025 13.1906 4.55908 13.2809 4.55908 13.3847V15.7336Z" fill="url(#paint4_linear)"/>
<defs>
<linearGradient id="paint0_linear" x1="7.69621" y1="9.98885" x2="9.5294" y2="12.7947" gradientUnits="userSpaceOnUse">
<stop stop-color="#419FFF"/>
<stop offset="1" stop-color="#0779FF"/>
</linearGradient>
<linearGradient id="paint1_linear" x1="6.42764" y1="2.44125" x2="9.61612" y2="9.43354" gradientUnits="userSpaceOnUse">
<stop stop-color="#419FFF"/>
<stop offset="1" stop-color="#0779FF"/>
</linearGradient>
<linearGradient id="paint2_linear" x1="5.15118" y1="9.71781" x2="6.99946" y2="17.519" gradientUnits="userSpaceOnUse">
<stop stop-color="#419FFF"/>
<stop offset="1" stop-color="#0779FF"/>
</linearGradient>
<linearGradient id="paint3_linear" x1="2.54259" y1="12.6115" x2="4.72934" y2="15.5944" gradientUnits="userSpaceOnUse">
<stop stop-color="#419FFF"/>
<stop offset="1" stop-color="#0779FF"/>
</linearGradient>
<linearGradient id="paint4_linear" x1="5.06739" y1="12.6379" x2="7.22702" y2="15.5985" gradientUnits="userSpaceOnUse">
<stop stop-color="#419FFF"/>
<stop offset="1" stop-color="#0779FF"/>
</linearGradient>
</defs>
</svg>
