<svg width="24" height="24" viewBox="0 0 24 24" fill="none" xmlns="http://www.w3.org/2000/svg">
<path opacity="0.4" d="M4.99717 21.0037H13.0005H20.0034V4.99708C20.0034 3.89162 19.108 2.99625 18.0026 2.99625H4.99717C3.89171 2.99625 2.99634 3.89162 2.99634 4.99708V19.0029C2.99634 20.1084 3.89171 21.0037 4.99717 21.0037Z" fill="#40A1FF" stroke="#40A1FF"/>
<path d="M6.99805 6.99792H16.0018" stroke="#5BA1F2" stroke-width="1.5" stroke-linecap="round" stroke-linejoin="round"/>
<path d="M6.99805 10.9996H10.9997" stroke="#5BA1F2" stroke-width="1.5" stroke-linecap="round" stroke-linejoin="round"/>
<path d="M6.99805 15.0012H9.9993" stroke="#5BA1F2" stroke-width="1.5" stroke-linecap="round" stroke-linejoin="round"/>
<mask id="path-5-outside-1_5699_23889" maskUnits="userSpaceOnUse" x="14.0017" y="15" width="8" height="9" fill="black">
<rect fill="white" x="14.0017" y="15" width="8" height="9"/>
<path fill-rule="evenodd" clip-rule="evenodd" d="M16.0017 17V22.0042L18.0025 21.0037L20.0034 22.0042V17"/>
</mask>
<path fill-rule="evenodd" clip-rule="evenodd" d="M16.0017 17V22.0042L18.0025 21.0037L20.0034 22.0042V17" fill="#5BA1F2"/>
<path d="M16.0017 16.25C15.5875 16.25 15.2517 16.5858 15.2517 17C15.2517 17.4142 15.5875 17.75 16.0017 17.75V16.25ZM20.0034 17.75C20.4176 17.75 20.7534 17.4142 20.7534 17C20.7534 16.5858 20.4176 16.25 20.0034 16.25V17.75ZM20.0034 16.25H16.0017V17.75H20.0034V16.25ZM17.5017 17C17.5017 16.1716 16.8301 15.5 16.0017 15.5C15.1733 15.5 14.5017 16.1716 14.5017 17H17.5017ZM16.0017 22.0042H14.5017C14.5017 22.524 14.7709 23.0068 15.2131 23.2801C15.6553 23.5535 16.2075 23.5783 16.6725 23.3458L16.0017 22.0042ZM18.0025 21.0037L18.6734 19.6621C18.2511 19.451 17.754 19.451 17.3317 19.6621L18.0025 21.0037ZM20.0034 22.0042L19.3326 23.3458C19.7975 23.5783 20.3497 23.5535 20.792 23.2801C21.2342 23.0068 21.5034 22.524 21.5034 22.0042H20.0034ZM21.5034 17C21.5034 16.1716 20.8318 15.5 20.0034 15.5C19.1749 15.5 18.5034 16.1716 18.5034 17H21.5034ZM14.5017 17V22.0042H17.5017V17H14.5017ZM16.6725 23.3458L18.6734 22.3454L17.3317 19.6621L15.3309 20.6625L16.6725 23.3458ZM17.3317 22.3454L19.3326 23.3458L20.6742 20.6625L18.6734 19.6621L17.3317 22.3454ZM21.5034 22.0042V17H18.5034V22.0042H21.5034Z" fill="white" mask="url(#path-5-outside-1_5699_23889)"/>
<circle cx="18.0027" cy="14.501" r="4.25146" fill="#5BA1F2" stroke="white" stroke-width="1.5" stroke-linecap="round" stroke-linejoin="round"/>
</svg>
