<svg width="16" height="16" viewBox="0 0 16 16" fill="none" xmlns="http://www.w3.org/2000/svg">
<path d="M11.8876 14.9934C10.7096 15.6496 9.37965 16 8 16C3.58172 16 0 12.4183 0 8C0 3.58172 3.58172 0 8 0C12.4183 0 16 3.58172 16 8C16 9.37965 15.6496 10.7096 14.9934 11.8876L15.2758 15.2758L11.8876 14.9934ZM11.5133 13.3567L13.5242 13.5242L13.3567 11.5133L13.4897 11.292C14.0824 10.3059 14.4 9.17723 14.4 8C14.4 4.46538 11.5346 1.6 8 1.6C4.46538 1.6 1.6 4.46538 1.6 8C1.6 11.5346 4.46538 14.4 8 14.4C9.17723 14.4 10.3059 14.0824 11.292 13.4897L11.5133 13.3567ZM8.00026 11.9987C7.55829 11.9987 7.2 11.6405 7.2 11.1987C7.2 10.7568 7.55829 10.3987 8.00026 10.3987C8.44223 10.3987 8.80052 10.7568 8.80052 11.1987C8.80052 11.6405 8.44223 11.9987 8.00026 11.9987ZM8.8 9.6H7.2V8.8C7.2 8.21015 7.50619 7.76038 7.98199 7.38292C8.12513 7.26936 8.16813 7.24087 8.42717 7.07665C8.65803 6.9303 8.8 6.67785 8.8 6.4C8.8 5.95817 8.44183 5.6 8 5.6C7.55817 5.6 7.2 5.95817 7.2 6.4H5.6C5.6 5.07452 6.67452 4 8 4C9.32548 4 10.4 5.07452 10.4 6.4C10.4 7.23165 9.97284 7.9912 9.28385 8.42798C9.08138 8.55634 9.05653 8.57281 8.97639 8.63638C8.84503 8.74059 8.8 8.80674 8.8 8.8V9.6Z" fill="#525252"/>
</svg>
