<svg width="18" height="23" viewBox="0 0 18 23" fill="none" xmlns="http://www.w3.org/2000/svg">
<path d="M17.6932 21.3047C17.349 21.0752 17.1425 20.6851 17.1425 20.272C17.1425 19.8589 17.349 19.4688 17.6703 19.2393C17.8768 19.1016 17.9915 18.8951 17.9915 18.6427V6.8931C17.9915 5.79157 17.0966 4.89658 15.995 4.89658H12.3692C11.4513 2.487 9.13347 0.788818 6.40261 0.788818C2.86855 0.788818 0 3.65737 0 7.19142C0 9.66985 1.39985 11.8041 3.46521 12.8597V20.2491C3.46521 21.5342 4.52084 22.5898 5.80595 22.5898H17.3031C17.6244 22.5898 17.8768 22.3833 17.9686 22.0849C18.0604 21.7866 17.9457 21.4653 17.6932 21.3047ZM1.28511 7.19142C1.28511 4.36877 3.57995 2.09688 6.37966 2.09688C9.17936 2.09688 11.4742 4.39172 11.4742 7.19142C11.4742 9.99113 9.17936 12.286 6.37966 12.286C3.57995 12.286 1.28511 9.99113 1.28511 7.19142ZM15.8803 21.167H5.783C5.27813 21.167 4.86506 20.7539 4.86506 20.2491C4.86506 19.7442 5.27813 19.3311 5.783 19.3311H15.8803C15.7656 19.6295 15.7197 19.9278 15.7197 20.2491C15.7197 20.5703 15.7656 20.8916 15.8803 21.167ZM16.5687 17.9313H5.783C5.46172 17.9313 5.16339 18.0001 4.86506 18.1149V13.3875C5.34698 13.5022 5.85184 13.5711 6.37966 13.5711C9.91371 13.5711 12.7823 10.7025 12.7823 7.16848C12.7823 6.87015 12.7593 6.59477 12.7134 6.29644H15.9721C16.2934 6.29644 16.5687 6.54887 16.5687 6.8931V17.9313Z" fill="#525252"/>
<path d="M7.24169 5.83587C7.37938 6.0883 7.35644 6.40958 7.1958 6.61612C7.03516 6.8456 6.87452 6.96034 6.69093 7.07509C6.23196 7.39636 5.84184 7.74059 5.773 8.70442C5.773 8.81917 5.79594 8.93391 5.88774 9.00275C5.95658 9.09455 6.07133 9.14044 6.18607 9.14044H6.71388C6.92042 9.14044 7.08106 8.9798 7.104 8.77327C7.12695 8.38315 7.21875 8.33725 7.47118 8.15366C7.70066 7.99302 7.99899 7.78649 8.29732 7.39636C8.75629 6.77676 8.82513 5.92767 8.45796 5.21627C8.06784 4.45897 7.28759 4 6.36966 4C4.83211 4 4.14366 5.10152 4.00597 6.04241C3.98302 6.15715 4.02892 6.27189 4.09776 6.36369C4.16661 6.45548 4.28135 6.50138 4.39609 6.50138H4.94685C5.13044 6.50138 5.29108 6.36369 5.33698 6.1801C5.40582 5.78998 5.63531 5.35396 6.36966 5.35396C6.92042 5.35396 7.1499 5.65229 7.24169 5.83587Z" fill="#525252"/>
<path d="M8.4155 11.3205C8.85909 11.3205 9.21869 10.9609 9.21869 10.5173C9.21869 10.0737 8.85909 9.71411 8.4155 9.71411C7.97191 9.71411 7.6123 10.0737 7.6123 10.5173C7.6123 10.9609 7.97191 11.3205 8.4155 11.3205Z" fill="#525252"/>
</svg>
