<svg width="12" height="12" viewBox="0 0 12 12" fill="none" xmlns="http://www.w3.org/2000/svg">
<path d="M5.61187 0C5.39322 0.0348906 5.17162 0.0569968 4.95672 0.106536C2.62885 0.647739 1.14713 2.0684 0.589911 4.37384C0.225586 5.88345 0.539207 7.30518 1.38698 8.60865C1.5018 8.78523 1.66089 8.87499 1.8723 8.84462C2.06009 8.81799 2.18726 8.70479 2.24574 8.52501C2.29564 8.37134 2.25916 8.23204 2.17009 8.09754C1.80388 7.54861 1.55787 6.95228 1.45512 6.29921C1.24774 4.98163 1.53802 3.78043 2.35788 2.72546C3.17775 1.67049 4.26992 1.07894 5.60972 0.950035C7.98052 0.721782 10.1582 2.32142 10.6107 4.68279C10.7596 5.45864 10.7044 6.22304 10.445 6.9909C10.3645 6.88942 10.2915 6.797 10.2172 6.70565C10.094 6.5549 9.94085 6.50296 9.78149 6.55596C9.61006 6.61269 9.5175 6.7424 9.51697 6.94242C9.51536 7.5891 9.51697 8.2355 9.51697 8.88218C9.51697 9.04198 9.57492 9.16663 9.71791 9.24493C9.8609 9.32324 9.99719 9.3022 10.1313 9.21537C10.6876 8.85439 11.2437 8.49376 11.7998 8.1335C11.9725 8.02083 12.0337 7.86502 11.9825 7.69057C11.9334 7.52517 11.7947 7.42769 11.5999 7.41464C11.5028 7.40825 11.4062 7.39573 11.3131 7.38641C11.3861 7.0961 11.4727 6.81831 11.5264 6.53173C11.8041 5.05034 11.5071 3.67869 10.6612 2.43675C9.82254 1.20599 8.65122 0.439195 7.19017 0.116657C6.98681 0.0713792 6.77674 0.0559314 6.5699 0.0253023C6.53568 0.0186139 6.50183 0.0101685 6.46849 0L5.61187 0Z" fill="#40A1FF"/>
<path d="M6.02849 11.9998C6.85023 11.9804 7.67171 11.9609 8.47333 11.7652C8.77005 11.6905 9.05713 11.5822 9.32888 11.4424C9.62614 11.2924 9.75572 11.0303 9.77074 10.6817C9.79113 10.2167 9.55612 9.91197 9.22962 9.64297C8.68823 9.19605 8.06018 8.90361 7.40879 8.65591C7.05332 8.52088 6.92455 8.27425 7.03105 7.91149C7.05285 7.84501 7.0884 7.78377 7.13542 7.73171C7.75407 7.01792 8.07655 6.19813 8.04489 5.25049C8.0127 4.28501 7.40101 3.53286 6.47625 3.36081C5.27167 3.13655 4.20123 3.8032 4.05743 5.07018C3.94448 6.06549 4.27876 6.92391 4.90627 7.68377C5.08092 7.89498 5.10641 8.12989 5.0447 8.38025C5.01036 8.51981 4.90305 8.59333 4.76623 8.6402C4.27508 8.80015 3.80311 9.01316 3.35882 9.27542C3.05245 9.4592 2.76619 9.66721 2.53601 9.9458C2.19234 10.3629 2.17463 11.2242 2.87806 11.5316C3.28236 11.7084 3.70303 11.8073 4.13469 11.8736C4.29325 11.8978 4.45287 11.9186 4.6125 11.9268C5.08441 11.9556 5.55631 11.9764 6.02849 11.9998Z" fill="#40A1FF"/>
</svg>
