<svg width="16" height="16" viewBox="0 0 16 16" fill="none" xmlns="http://www.w3.org/2000/svg">
<path d="M6.89558 0C6.60404 0.0465207 6.30858 0.0759957 6.02205 0.142048C2.91822 0.863652 0.942595 2.75786 0.199636 5.83178C-0.286132 7.8446 0.132029 9.74024 1.26239 11.4782C1.41549 11.7136 1.62761 11.8333 1.90948 11.7928C2.15988 11.7573 2.32943 11.6064 2.40741 11.3667C2.47394 11.1618 2.4253 10.9761 2.30654 10.7967C1.81826 10.0648 1.49025 9.2697 1.35324 8.39895C1.07674 6.64217 1.46378 5.04058 2.55693 3.63394C3.65009 2.22731 5.10632 1.43859 6.89271 1.26671C10.0538 0.962376 12.9573 3.09523 13.5608 6.24372C13.7593 7.27819 13.6856 8.29738 13.3397 9.32119C13.2324 9.18589 13.1351 9.06267 13.036 8.94086C12.8718 8.73986 12.6676 8.67061 12.4551 8.74128C12.2265 8.81692 12.1031 8.98987 12.1024 9.25656C12.1002 10.1188 12.1024 10.9807 12.1024 11.8429C12.1024 12.056 12.1796 12.2222 12.3703 12.3266C12.561 12.431 12.7427 12.4029 12.9215 12.2872C13.6632 11.8059 14.4047 11.325 15.1461 10.8447C15.3765 10.6944 15.458 10.4867 15.3897 10.2541C15.3243 10.0336 15.1393 9.90359 14.8796 9.88619C14.7501 9.87767 14.6214 9.86098 14.4972 9.84855C14.5945 9.46147 14.7101 9.09108 14.7816 8.70897C15.1518 6.73379 14.7559 4.90492 13.628 3.24899C12.5098 1.60798 10.9481 0.585593 8.99997 0.155543C8.72883 0.0951722 8.44874 0.0745752 8.17295 0.0337364C8.12732 0.0248185 8.08219 0.013558 8.03774 0L6.89558 0Z" fill="#40A1FF"/>
<path d="M7.45083 15.9998C8.54649 15.9738 9.64179 15.9479 10.7106 15.6869C11.1062 15.5874 11.489 15.443 11.8514 15.2565C12.2477 15.0566 12.4205 14.7071 12.4405 14.2423C12.4677 13.6222 12.1543 13.216 11.719 12.8573C10.9971 12.2614 10.1597 11.8715 9.29123 11.5412C8.81727 11.3612 8.64557 11.0323 8.78758 10.5487C8.81664 10.46 8.86404 10.3784 8.92673 10.309C9.7516 9.35723 10.1816 8.26417 10.1394 7.00065C10.0964 5.71334 9.28086 4.71048 8.04784 4.48108C6.44173 4.18206 5.01448 5.07093 4.82274 6.76024C4.67215 8.08732 5.11785 9.23187 5.95453 10.245C6.1874 10.5266 6.22138 10.8399 6.13911 11.1737C6.09332 11.3598 5.95024 11.4578 5.76781 11.5203C5.11295 11.7335 4.48366 12.0175 3.89127 12.3672C3.48277 12.6123 3.1011 12.8896 2.79418 13.2611C2.33596 13.8172 2.31235 14.9656 3.25026 15.3755C3.78933 15.6113 4.35021 15.743 4.92576 15.8314C5.13717 15.8637 5.35001 15.8914 5.56284 15.9024C6.19205 15.9408 6.82126 15.9685 7.45083 15.9998Z" fill="#40A1FF"/>
</svg>
