<svg width="96" height="96" viewBox="0 0 96 96" fill="none" xmlns="http://www.w3.org/2000/svg">
<circle opacity="0.15" cx="48" cy="48" r="48" fill="#40A1FF"/>
<path d="M50.72 21.1694C51.6977 21.3255 52.6886 21.4243 53.6496 21.6458C64.0592 24.0659 70.685 30.4187 73.1767 40.728C74.8059 47.4785 73.4034 53.8361 69.6125 59.6648C69.099 60.4545 68.3876 60.8558 67.4422 60.7201C66.6025 60.601 66.0338 60.0948 65.7723 59.2909C65.5492 58.6036 65.7123 57.9808 66.1106 57.3793C67.7482 54.9247 68.8483 52.258 69.3077 49.3377C70.2351 43.4458 68.937 38.0744 65.2708 33.3569C61.6046 28.6394 56.7207 25.9942 50.7295 25.4177C40.128 24.397 30.3902 31.5502 28.3664 42.1095C27.7006 45.5789 27.9477 48.9971 29.1078 52.4307C29.4677 51.9769 29.794 51.5637 30.1263 51.1552C30.677 50.4811 31.362 50.2488 32.0746 50.4858C32.8412 50.7395 33.2551 51.3195 33.2575 52.214C33.2647 55.1057 33.2575 57.9962 33.2575 60.888C33.2575 61.6026 32.9983 62.16 32.3589 62.5101C31.7195 62.8603 31.11 62.7662 30.5102 62.3779C28.0229 60.7637 25.5359 59.1511 23.0494 57.5401C22.2768 57.0363 22.0033 56.3396 22.2324 55.5595C22.452 54.8199 23.0722 54.3839 23.9432 54.3256C24.3775 54.297 24.8093 54.241 25.2256 54.1993C24.8993 52.9012 24.5118 51.6589 24.2719 50.3774C23.0302 43.7531 24.3583 37.6195 28.1408 32.0659C31.891 26.5623 37.1288 23.1334 43.6623 21.6911C44.5716 21.4886 45.511 21.4195 46.4359 21.2826C46.5889 21.2527 46.7403 21.2149 46.8894 21.1694H50.72Z" fill="#40A1FF"/>
<path d="M48.8572 74.83C45.1826 74.7431 41.5092 74.6561 37.9246 73.7807C36.5977 73.447 35.314 72.9626 34.0988 72.3372C32.7696 71.6667 32.1901 70.4948 32.1229 68.9358C32.0318 66.8563 33.0827 65.4938 34.5427 64.2909C36.9636 62.2924 39.7721 60.9847 42.6849 59.877C44.2745 59.2732 44.8503 58.1703 44.374 56.5482C44.2766 56.2509 44.1176 55.9771 43.9074 55.7443C41.1409 52.5524 39.6989 48.8865 39.8405 44.649C39.9844 40.3316 42.7197 36.9682 46.855 36.1988C52.2415 35.196 57.0282 38.1771 57.6712 43.8426C58.1763 48.2934 56.6815 52.132 53.8755 55.5299C53.0945 56.4744 52.9805 57.5248 53.2564 58.6444C53.41 59.2684 53.8899 59.5972 54.5017 59.8068C56.698 60.522 58.8085 61.4745 60.7952 62.6473C62.1652 63.4691 63.4453 64.3993 64.4746 65.645C66.0114 67.5101 66.0906 71.3618 62.945 72.7362C61.1371 73.5271 59.256 73.9689 57.3257 74.2655C56.6167 74.3738 55.9029 74.4667 55.1891 74.5037C53.0789 74.6323 50.9687 74.7252 48.8572 74.83Z" fill="#40A1FF"/>
</svg>
