<svg width="96" height="96" viewBox="0 0 96 96" fill="none" xmlns="http://www.w3.org/2000/svg">
<circle opacity="0.15" cx="48" cy="48" r="48" fill="#F6AA63"/>
<path d="M43.3333 31.6667C43.3333 30.429 43.8249 29.242 44.7001 28.3668C45.5753 27.4917 46.7622 27 47.9999 27C49.2376 27 50.4246 27.4917 51.2997 28.3668C52.1749 29.242 52.6666 30.429 52.6666 31.6667C55.3462 32.9337 57.6305 34.9061 59.2747 37.3724C60.9189 39.8386 61.8609 42.7058 61.9999 45.6667V52.6667C62.1755 54.1173 62.6893 55.5065 63.4998 56.7223C64.3104 57.9381 65.3951 58.9466 66.6666 59.6667H29.3333C30.6048 58.9466 31.6895 57.9381 32.5 56.7223C33.3106 55.5065 33.8243 54.1173 33.9999 52.6667V45.6667C34.1389 42.7058 35.081 39.8386 36.7251 37.3724C38.3693 34.9061 40.6536 32.9337 43.3333 31.6667Z" fill="#F6AA63"/>
<path d="M41 59.6665V61.9998C41 63.8564 41.7375 65.6368 43.0503 66.9496C44.363 68.2623 46.1435 68.9998 48 68.9998C49.8565 68.9998 51.637 68.2623 52.9497 66.9496C54.2625 65.6368 55 63.8564 55 61.9998V59.6665" fill="#F6AA63"/>
<path d="M69 35.6963C67.4695 32.3673 65.2471 29.4026 62.4807 27" stroke="#F6AA63" stroke-width="3.5" stroke-linecap="round" stroke-linejoin="round"/>
<path d="M27 35.6963C28.5291 32.3677 30.75 29.4031 33.5147 27" stroke="#F6AA63" stroke-width="3.5" stroke-linecap="round" stroke-linejoin="round"/>
</svg>
