<svg width="24" height="24" viewBox="0 0 24 24" fill="none" xmlns="http://www.w3.org/2000/svg">
<path d="M12 7.99825V4.86095" stroke="#5BA1F2" stroke-width="1.5" stroke-linecap="round" stroke-linejoin="round"/>
<path fill-rule="evenodd" clip-rule="evenodd" d="M19.559 21.0037H14.9592C14.2902 21.0037 13.6655 20.6694 13.2944 20.1127L11.2609 17.0621C10.8032 16.3757 10.9612 15.4514 11.6208 14.9559C12.283 14.5004 13.1782 14.5944 13.7312 15.1777L14.5553 16.0017V10.4994C14.5553 9.6706 15.2271 8.99875 16.0559 8.99875C16.8847 8.99875 17.5565 9.6706 17.5565 10.4994V13.0223L20.3252 13.4739C21.3872 13.6471 22.122 14.6291 21.9885 15.6967L21.5443 19.251C21.4192 20.2523 20.5681 21.0037 19.559 21.0037Z" stroke="#5BA1F2" stroke-width="1.5" stroke-linecap="round" stroke-linejoin="round"/>
<path d="M7.99832 15.1742C6.79083 15.0661 5.57777 15.3088 4.50487 15.8733C4.19548 16.0519 3.81456 16.053 3.50414 15.8762C3.19371 15.6993 3.00039 15.3711 2.99617 15.0139V5.79134C2.99072 5.15276 3.2931 4.55061 3.80858 4.17366C6.34101 2.37347 9.80294 2.66393 12 4.86095C14.197 2.66393 17.659 2.37347 20.1914 4.17366C20.7069 4.55061 21.0093 5.15276 21.0038 5.79134V9.99909" stroke="#5BA1F2" stroke-width="1.5" stroke-linecap="round" stroke-linejoin="round"/>
</svg>
