<svg width="24" height="24" viewBox="0 0 24 24" fill="none" xmlns="http://www.w3.org/2000/svg">
<path d="M12.0002 7.99825V4.86095" stroke="#E6E7E8" stroke-width="1.5" stroke-linecap="round" stroke-linejoin="round"/>
<path fill-rule="evenodd" clip-rule="evenodd" d="M19.5592 21.0037H14.9595C14.2905 21.0037 13.6657 20.6694 13.2946 20.1127L11.2611 17.0621C10.8034 16.3757 10.9614 15.4514 11.621 14.9559C12.2832 14.5004 13.1784 14.5944 13.7315 15.1777L14.5555 16.0017V10.4994C14.5555 9.6706 15.2274 8.99875 16.0561 8.99875C16.8849 8.99875 17.5568 9.6706 17.5568 10.4994V13.0223L20.3255 13.4739C21.3874 13.6471 22.1222 14.6291 21.9888 15.6967L21.5446 19.251C21.4195 20.2523 20.5683 21.0037 19.5592 21.0037Z" stroke="#E6E7E8" stroke-width="1.5" stroke-linecap="round" stroke-linejoin="round"/>
<path d="M7.99857 15.1742C6.79107 15.0661 5.57802 15.3088 4.50511 15.8733C4.19573 16.0519 3.8148 16.053 3.50438 15.8762C3.19396 15.6993 3.00063 15.3711 2.99641 15.0139V5.79134C2.99097 5.15276 3.29334 4.55061 3.80882 4.17366C6.34126 2.37347 9.80318 2.66393 12.0002 4.86095C14.1973 2.66393 17.6592 2.37347 20.1916 4.17366C20.7071 4.55061 21.0095 5.15276 21.0041 5.79134V9.99909" stroke="#E6E7E8" stroke-width="1.5" stroke-linecap="round" stroke-linejoin="round"/>
</svg>
