<svg width="44" height="44" viewBox="0 0 44 44" fill="none" xmlns="http://www.w3.org/2000/svg">
<rect width="44" height="44" rx="8" fill="#5BA1F2"/>
<path d="M32.548 24.7175C31.3626 29.4068 27.1266 32.8828 22.0693 32.8828C20.7173 32.8828 19.4293 32.6241 18.2373 32.1708" stroke="white" stroke-width="1.5" stroke-linecap="round" stroke-linejoin="round"/>
<path d="M14.5306 29.8086C11.0626 26.4366 10.1693 21.0313 12.6986 16.6513C13.3746 15.4806 14.2426 14.4953 15.2306 13.6886" stroke="white" stroke-width="1.5" stroke-linecap="round" stroke-linejoin="round"/>
<path d="M20.604 30.414L17.6733 32.5887L20.604 35.25" stroke="white" stroke-width="1.5" stroke-linecap="round" stroke-linejoin="round"/>
<path d="M15.5679 16.6152L15.1505 12.9899L11.3799 14.1966" stroke="white" stroke-width="1.5" stroke-linecap="round" stroke-linejoin="round"/>
<path d="M30.0374 19.1548L33.3854 20.6055L34.2254 16.7361" stroke="white" stroke-width="1.5" stroke-linecap="round" stroke-linejoin="round"/>
<path d="M19.1306 11.6595C23.7853 10.3408 28.9119 12.2715 31.4413 16.6515C32.1173 17.8222 32.5373 19.0662 32.7413 20.3262" stroke="white" stroke-width="1.5" stroke-linecap="round" stroke-linejoin="round"/>
</svg>
