<svg width="40" height="40" viewBox="0 0 40 40" fill="none" xmlns="http://www.w3.org/2000/svg">
<circle r="19.5" transform="matrix(1 0 0 -1 20 20)" stroke="white"/>
<path fill-rule="evenodd" clip-rule="evenodd" d="M20.0006 21.3828C19.0866 21.3828 18.3457 20.6419 18.3457 19.728V16.9693C18.3457 16.0554 19.0866 15.3145 20.0006 15.3145C20.9145 15.3145 21.6554 16.0554 21.6554 16.9693V19.728C21.6554 20.6419 20.9145 21.3828 20.0006 21.3828Z" fill="white" stroke="white" stroke-width="1.27087" stroke-linecap="round" stroke-linejoin="round"/>
<path d="M23.7531 19.8125C23.7531 21.8844 22.0735 23.5641 20.0016 23.5641V23.5641C17.9296 23.5641 16.25 21.8844 16.25 19.8125" stroke="white" stroke-width="1.27087" stroke-linecap="round" stroke-linejoin="round"/>
<path d="M20.0008 24.6919V23.5664" stroke="white" stroke-width="1.27087" stroke-linecap="round" stroke-linejoin="round"/>
<path d="M15.2029 14.2384C15.4151 14.0577 15.638 13.8901 15.8706 13.7365C19.3308 11.4565 23.9842 12.4132 26.2642 15.8734C28.5442 19.3336 27.5875 23.987 24.1273 26.267C20.6671 28.5471 16.0137 27.5904 13.7337 24.1302C13.5806 23.8973 11.6654 20.835 12.9154 17.5016" stroke="white" stroke-width="1.27087" stroke-linecap="round" stroke-linejoin="round"/>
<path d="M16.627 15.2177L14.3023 14.8286L14.6914 12.5039" stroke="white" stroke-width="1.27087" stroke-linecap="round" stroke-linejoin="round"/>
</svg>
