<svg width="24" height="24" viewBox="0 0 24 24" fill="none" xmlns="http://www.w3.org/2000/svg">
<path d="M16 10.2929L19.4752 8.15072C19.7837 7.96052 20.171 7.95214 20.4875 8.12881C20.8039 8.30548 21 8.63955 21 9.00198V15.9988C21 16.3612 20.8039 16.6953 20.4875 16.8719C20.171 17.0486 19.7838 17.0402 19.4753 16.8501L16 14.7078" stroke="white" stroke-width="1.5" stroke-linecap="round" stroke-linejoin="round"/>
<path fill-rule="evenodd" clip-rule="evenodd" d="M6 6C4.34315 6 3 7.34315 3 9V16C3 17.6569 4.34315 19 6 19H13C14.6569 19 16 17.6569 16 16V9C16 7.34315 14.6569 6 13 6H6ZM7.17113 9.0625C6.89499 9.0625 6.67113 9.28636 6.67113 9.5625V11.3919C6.67113 11.668 6.89499 11.8919 7.17113 11.8919H7.31717H7.33069H9C9.27614 11.8919 9.5 11.668 9.5 11.3919C9.5 11.1157 9.27614 10.8919 9 10.8919H8.42404C8.77614 10.6448 9.20482 10.5 9.66699 10.5C10.8637 10.5 11.834 11.4703 11.834 12.667C11.834 13.8637 10.8637 14.834 9.66699 14.834C8.86546 14.834 8.16482 14.399 7.7894 13.7497C7.65117 13.5107 7.34533 13.4289 7.10627 13.5672C6.86722 13.7054 6.78548 14.0112 6.92371 14.2503C7.47048 15.1959 8.49395 15.834 9.66699 15.834C11.416 15.834 12.834 14.416 12.834 12.667C12.834 10.918 11.416 9.5 9.66699 9.5C8.91007 9.5 8.21555 9.76577 7.67113 10.2084V9.5625C7.67113 9.28636 7.44727 9.0625 7.17113 9.0625Z" fill="white"/>
</svg>
