<svg width="40" height="40" viewBox="0 0 40 40" fill="none" xmlns="http://www.w3.org/2000/svg">
<circle opacity="0.5" r="19.75" transform="matrix(1 0 0 -1 20 20)" stroke="#DEDEDE" stroke-width="0.5"/>
<path d="M24.4453 18.1021L28.3067 15.7219C28.6495 15.5106 29.0798 15.5013 29.4314 15.6976C29.783 15.8939 30.0009 16.2651 30.0009 16.6678V24.442C30.0009 24.8447 29.783 25.2159 29.4314 25.4122C29.0798 25.6085 28.6495 25.5992 28.3067 25.3879L24.4453 23.0076" stroke="white" stroke-width="1.66667" stroke-linecap="round" stroke-linejoin="round"/>
<path fill-rule="evenodd" clip-rule="evenodd" d="M15.0028 13.334C12.2414 13.334 10.0028 15.5726 10.0028 18.334V22.7784C10.0028 25.5399 12.2414 27.7784 15.0028 27.7784H19.4473C22.2087 27.7784 24.4473 25.5399 24.4473 22.7784V18.334C24.4473 15.5726 22.2087 13.334 19.4473 13.334H15.0028ZM14.6359 16.7376C14.3291 16.7376 14.0803 16.9864 14.0803 17.2932V19.3258C14.0803 19.6327 14.3291 19.8814 14.6359 19.8814H14.78C14.7972 19.8822 14.8143 19.8822 14.8313 19.8814H16.668C16.9748 19.8814 17.2235 19.6327 17.2235 19.3258C17.2235 19.019 16.9748 18.7703 16.668 18.7703H16.0288C16.4199 18.496 16.8959 18.3354 17.4091 18.3354C18.7387 18.3354 19.8168 19.4135 19.8168 20.7432C19.8168 22.0728 18.7387 23.1509 17.4091 23.1509C16.5185 23.1509 15.74 22.6676 15.3229 21.9462C15.1693 21.6806 14.8294 21.5898 14.5638 21.7433C14.2982 21.8969 14.2074 22.2368 14.361 22.5024C14.9685 23.553 16.1057 24.262 17.4091 24.262C19.3524 24.262 20.928 22.6865 20.928 20.7432C20.928 18.7998 19.3524 17.2243 17.4091 17.2243C16.568 17.2243 15.7964 17.5196 15.1914 18.0114V17.2932C15.1914 16.9864 14.9427 16.7376 14.6359 16.7376Z" fill="white"/>
</svg>
