<svg width="21" height="21" viewBox="0 0 21 21" fill="none" xmlns="http://www.w3.org/2000/svg">
<path fill-rule="evenodd" clip-rule="evenodd" d="M10.0046 11.3834C9.09059 11.3834 8.34961 10.6424 8.34961 9.72839V6.96947C8.34961 6.05543 9.09059 5.31445 10.0046 5.31445C10.9187 5.31445 11.6596 6.05543 11.6596 6.96947V9.72839C11.6596 10.6424 10.9187 11.3834 10.0046 11.3834Z" fill="white" stroke="white" stroke-width="1.25012" stroke-linecap="round" stroke-linejoin="round"/>
<path d="M13.7558 9.8125C13.7558 11.8846 12.076 13.5644 10.0039 13.5644V13.5644C7.93175 13.5644 6.25195 11.8846 6.25195 9.8125" stroke="white" stroke-width="1.25012" stroke-linecap="round" stroke-linejoin="round"/>
<path d="M10.0028 14.692V13.5664" stroke="white" stroke-width="1.25012" stroke-linecap="round" stroke-linejoin="round"/>
<path d="M5.2053 4.23763C5.41751 4.05695 5.64051 3.88933 5.87307 3.73571C9.33361 1.45545 13.9874 2.41226 16.2677 5.8728C18.548 9.33335 17.5912 13.9872 14.1306 16.2674C10.6701 18.5477 6.01623 17.5909 3.73597 14.1304C3.58289 13.8975 1.66744 10.8348 2.91756 7.50117" stroke="white" stroke-width="1.25012" stroke-linecap="round" stroke-linejoin="round"/>
<path d="M6.62913 5.21601L4.30422 4.82686L4.69336 2.50195" stroke="white" stroke-width="1.25012" stroke-linecap="round" stroke-linejoin="round"/>
</svg>
