<svg width="20" height="20" viewBox="0 0 20 20" fill="none" xmlns="http://www.w3.org/2000/svg">
<path d="M6.66683 1.66675V5.00008" stroke="white" stroke-width="1.5" stroke-linecap="round" stroke-linejoin="round"/>
<path d="M13.3333 1.66675V5.00008" stroke="white" stroke-width="1.5" stroke-linecap="round" stroke-linejoin="round"/>
<path d="M17.5 7.49992H2.5" stroke="white" stroke-width="1.5" stroke-linecap="round" stroke-linejoin="round"/>
<path fill-rule="evenodd" clip-rule="evenodd" d="M4.16667 3.33325H15.8333C16.7542 3.33325 17.5 4.07909 17.5 4.99992V15.8333C17.5 16.7541 16.7542 17.4999 15.8333 17.4999H4.16667C3.24583 17.4999 2.5 16.7541 2.5 15.8333V4.99992C2.5 4.07909 3.24583 3.33325 4.16667 3.33325Z" stroke="white" stroke-width="1.5" stroke-linecap="round" stroke-linejoin="round"/>
<path d="M14.1559 10.6075C14.2709 10.6075 14.3643 10.7008 14.3634 10.8158C14.3634 10.9308 14.2701 11.0242 14.1551 11.0242C14.0401 11.0242 13.9468 10.9308 13.9468 10.8158C13.9468 10.7008 14.0401 10.6075 14.1559 10.6075" stroke="white" stroke-width="1.5" stroke-linecap="round" stroke-linejoin="round"/>
<path d="M9.98895 10.6075C10.1039 10.6075 10.1973 10.7008 10.1964 10.8158C10.1964 10.9308 10.1031 11.0242 9.98812 11.0242C9.87312 11.0242 9.77978 10.9308 9.77978 10.8158C9.77978 10.7008 9.87312 10.6075 9.98895 10.6075" stroke="white" stroke-width="1.5" stroke-linecap="round" stroke-linejoin="round"/>
<path d="M5.82244 10.6075C5.93744 10.6075 6.03078 10.7008 6.02994 10.8158C6.02994 10.9308 5.93661 11.0242 5.82161 11.0242C5.70661 11.0242 5.61328 10.9308 5.61328 10.8158C5.61328 10.7008 5.70661 10.6075 5.82244 10.6075" stroke="white" stroke-width="1.5" stroke-linecap="round" stroke-linejoin="round"/>
<path d="M14.1559 13.9408C14.2709 13.9408 14.3643 14.0341 14.3634 14.1491C14.3634 14.2641 14.2701 14.3574 14.1551 14.3574C14.0401 14.3574 13.9468 14.2641 13.9468 14.1491C13.9468 14.0341 14.0401 13.9408 14.1559 13.9408" stroke="white" stroke-width="1.5" stroke-linecap="round" stroke-linejoin="round"/>
<path d="M9.98895 13.9408C10.1039 13.9408 10.1973 14.0341 10.1964 14.1491C10.1964 14.2641 10.1031 14.3574 9.98812 14.3574C9.87312 14.3574 9.77978 14.2641 9.77978 14.1491C9.77978 14.0341 9.87312 13.9408 9.98895 13.9408" stroke="white" stroke-width="1.5" stroke-linecap="round" stroke-linejoin="round"/>
</svg>
