<svg width="110" height="110" viewBox="0 0 110 110" fill="none" xmlns="http://www.w3.org/2000/svg">
<path d="M73.3401 50.4171H36.658" stroke="#40A1FF" stroke-width="6.88" stroke-linecap="round" stroke-linejoin="round"/>
<path d="M50.4138 68.7658H36.658" stroke="#40A1FF" stroke-width="6.88" stroke-linecap="round" stroke-linejoin="round"/>
<path fill-rule="evenodd" clip-rule="evenodd" d="M82.5085 100.849C82.5085 90.72 90.72 82.5085 100.849 82.5085C90.72 82.5085 82.5085 74.2969 82.5085 64.1675C82.5085 74.2969 74.2969 82.5085 64.1675 82.5085C74.2969 82.5085 82.5085 90.72 82.5085 100.849Z" fill="#FCCA3D" stroke="#FCCA3D" stroke-width="6.88" stroke-linecap="round" stroke-linejoin="round"/>
<path d="M34.3599 13.7324V27.4882" stroke="#40A1FF" stroke-width="6.88" stroke-linecap="round" stroke-linejoin="round"/>
<path d="M75.6276 13.7324V27.4882" stroke="#40A1FF" stroke-width="6.88" stroke-linecap="round" stroke-linejoin="round"/>
<path d="M54.9994 96.2644H27.488C19.8909 96.2644 13.7322 90.1058 13.7322 82.5087V34.3636C13.7322 26.7666 19.8909 20.6079 27.488 20.6079H82.5109C90.108 20.6079 96.2666 26.7666 96.2666 34.3636V54.9972" stroke="#40A1FF" stroke-width="6.88" stroke-linecap="round" stroke-linejoin="round"/>
</svg>
