<svg width="40" height="40" viewBox="0 0 40 40" fill="none" xmlns="http://www.w3.org/2000/svg">
<rect x="5" y="5" width="30" height="30" rx="8.33333" fill="white"/>
<path d="M16.0017 18.0039H12.8893C12.3981 18.0039 12 18.4021 12 18.8932V26.0074H28.007V18.8932C28.007 18.4021 27.6088 18.0039 27.1177 18.0039H24.0052" stroke="#40A1FF" stroke-width="1.5" stroke-linecap="round" stroke-linejoin="round"/>
<path d="M16.002 26.0052V17.1347C16.002 16.5884 16.2805 16.0799 16.7408 15.7858L19.1419 14.2518C19.6674 13.9161 20.34 13.9161 20.8655 14.2518L23.2666 15.7858C23.7269 16.0799 24.0054 16.5884 24.0054 17.1347V26.0052" stroke="#40A1FF" stroke-width="1.5" stroke-linecap="round" stroke-linejoin="round"/>
<path d="M20.0039 23.3438V26.0116" stroke="#40A1FF" stroke-width="1.5" stroke-linecap="round" stroke-linejoin="round"/>
<path d="M20.0034 17.9403C19.9668 17.9406 19.9373 17.9705 19.9374 18.0071C19.9376 18.0437 19.9673 18.0733 20.0039 18.0733C20.0405 18.0733 20.0702 18.0437 20.0703 18.0071C20.0705 17.9705 20.041 17.9406 20.0044 17.9403H20.0034" stroke="#40A1FF" stroke-width="1.5" stroke-linecap="round" stroke-linejoin="round"/>
</svg>
