<svg width="18" height="14" viewBox="0 0 18 14" fill="none" xmlns="http://www.w3.org/2000/svg">
<path d="M5.00175 5.00391H1.88928C1.39814 5.00391 1 5.40205 1 5.89319V13.0074H17.007V5.89319C17.007 5.40205 16.6088 5.00391 16.1177 5.00391H13.0052" stroke="#40A1FF" stroke-width="1.5" stroke-linecap="round" stroke-linejoin="round"/>
<path d="M5.00195 13.0052V4.1347C5.00195 3.58844 5.28052 3.0799 5.74085 2.7858L8.1419 1.2518C8.66739 0.916067 9.34001 0.916067 9.8655 1.2518L12.2666 2.7858C12.7269 3.0799 13.0054 3.58844 13.0054 4.1347V13.0052" stroke="#40A1FF" stroke-width="1.5" stroke-linecap="round" stroke-linejoin="round"/>
<path d="M9.00387 10.3438V13.0116" stroke="#40A1FF" stroke-width="1.5" stroke-linecap="round" stroke-linejoin="round"/>
<path d="M9.00336 4.94035C8.96676 4.94063 8.93728 4.97045 8.93742 5.00705C8.93756 5.04366 8.96727 5.07326 9.00387 5.07326C9.04048 5.07326 9.07019 5.04366 9.07033 5.00705C9.07047 4.97045 9.04098 4.94063 9.00438 4.94035H9.00336" stroke="#40A1FF" stroke-width="1.5" stroke-linecap="round" stroke-linejoin="round"/>
</svg>
