<svg width="18" height="17" viewBox="0 0 18 17" fill="none" xmlns="http://www.w3.org/2000/svg">
<path d="M15.677 16.607L9.96198 10.891C7.41965 12.6985 3.91642 12.2564 1.90285 9.87393C-0.110711 7.49152 0.0371394 3.96359 2.24298 1.758C4.44824 -0.448549 7.97651 -0.597039 10.3594 1.41642C12.7422 3.42988 13.1846 6.93345 11.377 9.476L17.092 15.192L15.678 16.606L15.677 16.607ZM6.48498 1.99999C4.58868 1.99956 2.95267 3.33068 2.56745 5.18744C2.18224 7.0442 3.15369 8.91628 4.89366 9.67024C6.63362 10.4242 8.66388 9.85283 9.75522 8.30206C10.8466 6.75128 10.699 4.64732 9.40198 3.264L10.007 3.864L9.32498 3.184L9.31298 3.172C8.56477 2.41918 7.54637 1.99713 6.48498 1.99999Z" fill="#B8BAC7"/>
</svg>
