<svg width="14" height="14" viewBox="0 0 14 14" fill="none" xmlns="http://www.w3.org/2000/svg">
<path d="M14.0001 13.2949L10.2251 9.49989C11.1275 8.411 11.5759 7.0163 11.4769 5.6055C11.378 4.1947 10.7394 2.87623 9.69382 1.92394C8.64822 0.971646 7.27596 0.458733 5.86208 0.491734C4.4482 0.524734 3.10137 1.10111 2.10133 2.10115C1.10129 3.10119 0.524917 4.44802 0.491917 5.8619C0.458916 7.27578 0.971828 8.64804 1.92412 9.69364C2.87641 10.7392 4.19488 11.3778 5.60568 11.4768C7.01649 11.5757 8.41118 11.1274 9.50007 10.2249L13.2951 13.9999L14.0001 13.2949ZM1.50008 5.99989C1.50008 5.10988 1.764 4.23985 2.25846 3.49983C2.75293 2.7598 3.45573 2.18303 4.278 1.84243C5.10027 1.50184 6.00507 1.41273 6.87798 1.58636C7.75089 1.75999 8.55272 2.18858 9.18205 2.81791C9.81139 3.44725 10.24 4.24907 10.4136 5.12199C10.5872 5.9949 10.4981 6.8997 10.1575 7.72197C9.81694 8.54424 9.24016 9.24704 8.50014 9.74151C7.76012 10.236 6.89009 10.4999 6.00007 10.4999C4.8066 10.4999 3.66201 10.0258 2.81809 9.18187C1.97418 8.33796 1.50008 7.19337 1.50008 5.99989Z" fill="#AAAAAA"/>
</svg>
