<svg width="16" height="17" viewBox="0 0 16 17" fill="none" xmlns="http://www.w3.org/2000/svg">
<path d="M9.41772 12.0095L8.44598 12.9812C7.774 13.6537 6.86228 14.0315 5.91159 14.0315C4.96091 14.0315 4.04919 13.6537 3.37721 12.9812V12.9812C2.70488 12.3091 2.32715 11.3975 2.32715 10.4468C2.32715 9.49618 2.70488 8.5845 3.37721 7.91243L4.35161 6.94336" stroke="#8A8C94" stroke-width="1.25" stroke-linecap="round" stroke-linejoin="round"/>
<path d="M5.9292 10.432L10.0709 6.29028" stroke="#8A8C94" stroke-width="1.25" stroke-linecap="round" stroke-linejoin="round"/>
<path d="M6.58203 4.71306L7.55377 3.74132C8.22558 3.0685 9.13736 2.69043 10.0882 2.69043C11.039 2.69043 11.9507 3.0685 12.6225 3.74132V3.74132C13.295 4.4133 13.6729 5.32502 13.6729 6.27571C13.6729 7.2264 13.295 8.13811 12.6225 8.8101L11.6481 9.77917" stroke="#8A8C94" stroke-width="1.25" stroke-linecap="round" stroke-linejoin="round"/>
</svg>
