<svg width="16" height="16" viewBox="0 0 16 16" fill="none" xmlns="http://www.w3.org/2000/svg">
<path d="M1.33334 12.6667C1.33334 11.2 2.53334 10 4.00001 10H6.66668C8.13334 10 9.33334 11.2 9.33334 12.6667" stroke="#9EA3A5" stroke-width="1.5" stroke-linecap="round" stroke-linejoin="round"/>
<path d="M7 3.99994C7.93334 4.93327 7.93334 6.39994 7 7.26661C6.06667 8.13327 4.6 8.19994 3.73334 7.26661C2.86667 6.33327 2.8 4.93327 3.66667 3.99994C4.53334 3.06661 6.06667 3.13327 7 3.99994" stroke="#9EA3A5" stroke-width="1.5" stroke-linecap="round" stroke-linejoin="round"/>
<path d="M10.6667 9.33325H12.6667C13.8 9.33325 14.6667 10.1999 14.6667 11.3333" stroke="#9EA3A5" stroke-width="1.5" stroke-linecap="round" stroke-linejoin="round"/>
<path d="M12.8667 4.4666C13.5333 5.13327 13.5333 6.19994 12.8667 6.79994C12.2 7.39994 11.1333 7.4666 10.5333 6.79994C9.93334 6.13327 9.86668 5.0666 10.5333 4.4666C11.1333 3.8666 12.2 3.8666 12.8667 4.4666" stroke="#9EA3A5" stroke-width="1.5" stroke-linecap="round" stroke-linejoin="round"/>
</svg>
