<svg width="24" height="24" viewBox="0 0 24 24" fill="none" xmlns="http://www.w3.org/2000/svg">
<path d="M8.9 7.6C9.7 8.4 9.7 9.6 8.9 10.4C8.1 11.2 6.9 11.2 6.1 10.4C5.3 9.6 5.3 8.4 6.1 7.6C6.9 6.8 8.1 6.8 8.9 7.6" stroke="#B8BAC7" stroke-width="1.5" stroke-linecap="round" stroke-linejoin="round"/>
<path d="M17.7999 6.70002C18.7999 7.70002 18.7999 9.30002 17.7999 10.2C16.7999 11.1 15.1999 11.2 14.2999 10.2C13.3999 9.20002 13.2999 7.60002 14.2999 6.70002C15.1999 5.80002 16.7999 5.80002 17.7999 6.70002" stroke="#B8BAC7" stroke-width="1.5" stroke-linecap="round" stroke-linejoin="round"/>
<path d="M20.5 18V17C20.5 15.3 19.2 14 17.5 14H14.5C12.8 14 11.5 15.3 11.5 17V18" stroke="#B8BAC7" stroke-width="1.5" stroke-linecap="round" stroke-linejoin="round"/>
<path d="M8.5 14H6.5C4.8 14 3.5 15.3 3.5 17V18" stroke="#B8BAC7" stroke-width="1.5" stroke-linecap="round" stroke-linejoin="round"/>
</svg>
