<svg width="195" height="33" viewBox="0 0 195 33" fill="none" xmlns="http://www.w3.org/2000/svg">
<path d="M15.0864 14.9085C14.9818 15.3502 14.7356 15.6901 14.3478 15.9281C13.9591 16.1481 13.5348 16.2062 13.0749 16.1025C12.6323 15.9797 12.2919 15.7244 12.0539 15.3366L11.6954 14.7277C11.4964 14.3925 11.1658 13.973 10.7037 13.4695C10.6655 13.435 10.573 13.4034 10.4261 13.3746C10.2963 13.3267 10.0578 13.2844 9.71048 13.2476C9.38035 13.1918 9.00675 13.1746 8.58967 13.196C7.44537 13.2182 6.68653 13.3117 6.31315 13.4763C6.07042 13.7069 5.8442 14.0821 5.63447 14.6019C5.4573 15.0474 5.44705 15.557 5.60372 16.1308C5.78039 16.7399 6.10562 17.2323 6.57941 17.608C7.11039 18.0354 7.58628 18.2746 8.00708 18.3258C8.73988 18.4337 9.6568 18.5867 10.7578 18.7848C11.4725 18.8936 12.0521 19.0276 12.4966 19.1866C12.9592 19.3447 13.3717 19.5872 13.7339 19.9141C14.2304 20.3796 14.7019 21.0645 15.1482 21.9689C15.6164 22.9449 15.8438 23.8332 15.8302 24.6339C15.8121 25.3439 15.6579 26.0609 15.3677 26.7849C15.1273 27.4153 14.8478 27.9933 14.5293 28.5187C14.1629 29.1738 13.4801 29.8634 12.4808 30.5873C11.4815 31.3112 10.4144 31.775 9.2794 31.9786C8.14347 32.1641 7.10425 32.1082 6.16176 31.8111C5.31087 31.5274 4.5846 31.1919 3.98294 30.8046C3.32409 30.3656 2.78032 29.8662 2.35164 29.3063L1.91157 28.7016C1.63818 28.3338 1.5352 27.9209 1.60264 27.4629C1.67008 27.0049 1.8877 26.6392 2.25551 26.3659C2.62331 26.0925 3.03621 25.9895 3.49421 26.0569C3.97034 26.1234 4.3451 26.3406 4.61849 26.7084L5.05856 27.3131C5.23478 27.5586 5.4826 27.7823 5.80203 27.9841C6.15958 28.2203 6.61594 28.4333 7.17111 28.623C7.61469 28.7639 8.13384 28.7828 8.72854 28.6796C9.32325 28.5764 9.91865 28.3095 10.5148 27.879C11.1281 27.4294 11.5103 27.0825 11.6614 26.8384C11.8777 26.4455 12.0744 26.0263 12.2515 25.5809C12.3962 25.2099 12.4692 24.8607 12.4706 24.5333C12.4757 24.2785 12.366 23.9114 12.1414 23.432C11.8987 22.9536 11.6907 22.6188 11.5172 22.4277C11.2741 22.2947 10.8319 22.181 10.1907 22.0866C9.12683 21.9047 8.23757 21.7594 7.52291 21.6505C6.51532 21.5022 5.50007 21.0269 4.47716 20.2248C3.43426 19.3873 2.73429 18.3232 2.37724 17.0324C2.01833 15.7054 2.07348 14.4753 2.54268 13.3422C2.9612 12.2844 3.50153 11.4749 4.16368 10.9137C4.66912 10.4878 5.23686 10.2133 5.86691 10.0901C6.49695 9.96688 7.37459 9.88554 8.49983 9.84607C9.5888 9.80845 10.5111 9.88846 11.2666 10.0861C12.0394 10.2647 12.6864 10.6497 13.2076 11.2412C13.806 11.9196 14.2542 12.5057 14.5523 12.9995L14.9393 13.6342C15.1592 14.023 15.2083 14.4477 15.0864 14.9085Z" fill="#FCCA3D"/>
<path d="M25.3 17.5215C25.1931 17.5633 25.0857 17.5961 24.9778 17.6198L24.1646 17.716C23.7503 17.7918 23.0967 17.9889 22.204 18.3074C21.5623 18.5584 21.0152 19.0592 20.5628 19.8096C20.0778 20.6345 19.8371 21.4377 19.8408 22.2193C19.8673 23.0907 20.0137 23.8195 20.2801 24.4059C20.5465 24.9922 20.889 25.4656 21.3074 25.8259C21.6687 26.1347 22.1251 26.3477 22.6765 26.4649C23.3377 26.5946 23.8669 26.6312 24.2639 26.5744C24.6429 26.5187 25.0263 26.3717 25.4141 26.1337C25.8907 25.8547 26.3201 25.5418 26.7023 25.195C27.0673 24.8672 27.368 24.5245 27.6042 24.1669C27.8413 23.8275 28.015 23.4914 28.1252 23.1584C28.2173 22.8265 28.2766 22.3871 28.3031 21.8402C28.3189 21.4394 28.3136 21.1579 28.2871 20.9956C28.1634 20.7111 28.0102 20.3825 27.8275 20.0101C27.6257 19.6204 27.4853 19.364 27.4063 19.2408C27.3273 19.1176 27.191 18.9427 26.9976 18.7163C26.8223 18.4889 26.6489 18.2978 26.4773 18.1429C26.3067 18.0062 26.1188 17.8886 25.9138 17.79C25.7259 17.6724 25.5858 17.5977 25.4932 17.5661C25.456 17.5498 25.4284 17.5421 25.4102 17.5431L25.3 17.5215ZM24.7792 14.2755C25.0293 14.1899 25.2732 14.1592 25.5108 14.1834L25.7298 14.1995C25.9855 14.2227 26.2522 14.2818 26.5298 14.3767C26.7883 14.4543 27.114 14.6013 27.5069 14.8175C27.937 15.05 28.3231 15.312 28.6654 15.6036C28.9894 15.8961 29.2972 16.2257 29.5887 16.5926C29.8784 16.9232 30.0928 17.2031 30.2318 17.4324C30.3708 17.6616 30.5616 18.0155 30.8043 18.4939C31.047 18.9724 31.2416 19.3988 31.3881 19.7731C31.6163 20.325 31.7088 21.0657 31.6656 21.9952C31.6167 22.8159 31.4993 23.5401 31.3133 24.1678C31.11 24.8146 30.8057 25.4392 30.4002 26.0418C29.9929 26.6081 29.5116 27.151 28.9564 27.6703C28.4012 28.1897 27.7793 28.6488 27.0906 29.0477C26.3313 29.4867 25.5546 29.7628 24.7604 29.8762C23.9844 29.9887 23.0821 29.9441 22.0536 29.7422C20.9153 29.5278 19.9373 29.0689 19.1194 28.3653C18.3397 27.6962 17.7143 26.8464 17.2433 25.816C16.7733 24.8038 16.522 23.6257 16.4895 22.282C16.4724 20.8829 16.8646 19.49 17.6663 18.1035C18.5377 16.6589 19.6604 15.6832 21.0345 15.1764C22.1583 14.7552 23.0453 14.5007 23.6953 14.4128L24.4799 14.2908C24.5706 14.2861 24.6704 14.281 24.7792 14.2755Z" fill="#FCCA3D"/>
<path d="M45.7333 18.2471C45.6659 18.7051 45.4392 19.0713 45.0533 19.3456C44.6845 19.6008 44.2712 19.6947 43.8132 19.6273C43.3543 19.5417 42.9967 19.3055 42.7405 18.9186L42.4476 18.5246C42.3295 18.3488 42.108 18.1056 41.783 17.795C41.5351 17.5713 41.2166 17.3877 40.8275 17.244C40.4755 17.1166 40.1458 17.0698 39.8385 17.1037C39.4758 17.1223 38.9841 17.2839 38.3633 17.5884C37.7598 17.8739 37.2515 18.2454 36.8386 18.7029C36.4429 19.1414 36.1737 19.5642 36.0309 19.9715C35.8919 20.4514 35.8195 20.9915 35.8139 21.5917C35.8228 22.1186 36.0327 22.8442 36.4437 23.7685C36.7728 24.5153 37.026 25.0205 37.2031 25.2841C37.3728 25.4027 37.6441 25.5525 38.017 25.7333C38.5187 25.944 38.9256 26.0777 39.2376 26.1344C39.5677 26.1902 39.896 26.2098 40.2224 26.1931C40.5669 26.1754 40.9101 26.1305 41.2519 26.0585C41.5392 25.9892 41.7722 25.9227 41.9507 25.859C42.1283 25.7772 42.252 25.7072 42.3218 25.6491C42.3915 25.591 42.4522 25.5333 42.5038 25.4762C42.6243 25.3427 42.727 25.2193 42.8121 25.1058C42.8809 25.0296 42.9398 24.9356 42.9886 24.8241L43.1392 24.5709C43.3736 24.1771 43.7151 23.9232 44.1638 23.8093C44.6116 23.6773 45.0324 23.7284 45.4262 23.9628C45.8191 24.179 46.073 24.5205 46.1878 24.9874C46.3199 25.4352 46.2687 25.856 46.0343 26.2498L45.8837 26.503C45.7507 26.7461 45.6077 26.9716 45.4547 27.1795C45.3352 27.331 45.2066 27.4831 45.069 27.6356C44.8635 27.8825 44.6203 28.104 44.3394 28.3002C44.0776 28.5137 43.7514 28.7122 43.3609 28.8958C42.9521 29.0804 42.469 29.2324 41.9115 29.3519C41.4075 29.4505 40.9016 29.5128 40.3938 29.5388C39.8498 29.5667 39.2844 29.532 38.6976 29.4348C38.0927 29.3385 37.4087 29.119 36.6457 28.7763C35.8637 28.4164 35.292 28.082 34.9307 27.7733C34.7973 27.6529 34.6729 27.532 34.5576 27.4106C34.4595 27.2702 34.3718 27.1565 34.2947 27.0695C34.2356 26.9816 34.1556 26.8403 34.0547 26.6455C33.9529 26.4325 33.8825 26.2997 33.8434 26.2472C33.8216 26.1756 33.7393 25.9889 33.5966 25.6871C33.472 25.3844 33.3987 25.1973 33.3769 25.1257C32.7613 23.7572 32.4552 22.5729 32.4585 21.5728C32.4655 20.6452 32.5936 19.775 32.8429 18.9622C33.1256 18.0932 33.6283 17.2583 34.3509 16.4577C35.0563 15.6761 35.9146 15.0412 36.926 14.553C37.9201 14.0839 38.8066 13.8203 39.5854 13.7622C40.3643 13.7041 41.161 13.8178 41.9756 14.1034C42.7911 14.407 43.4849 14.8169 44.0568 15.3331C44.5533 15.7985 44.9293 16.2156 45.1845 16.5843L45.4788 17.0056C45.7341 17.3744 45.8189 17.7882 45.7333 18.2471Z" fill="#FCCA3D"/>
<path d="M46.8423 10.9904C46.8181 10.5189 46.9609 10.1116 47.2706 9.76844C47.5803 9.4253 47.9618 9.24212 48.4151 9.21889C48.8866 9.19473 49.2939 9.33749 49.6371 9.64718L49.7228 9.7246C50.066 10.0343 50.2496 10.4249 50.2738 10.8964C50.297 11.3497 50.1538 11.7479 49.8441 12.0911C49.5344 12.4342 49.1438 12.6179 48.6724 12.642C48.219 12.6653 47.8208 12.522 47.4776 12.2123L47.3918 12.1349C47.0487 11.8252 46.8655 11.4437 46.8423 10.9904ZM47.4043 15.5706C47.7511 15.2438 48.1522 15.0868 48.6074 15.0999C49.0626 15.1129 49.4446 15.2933 49.7533 15.6412C50.0792 15.9699 50.2357 16.3619 50.2226 16.8171L50.1787 17.5557C50.1647 17.9928 50.1877 18.6189 50.2476 19.434C50.2932 20.3225 50.3424 21.2836 50.3954 22.3173C50.4312 23.37 50.4502 24.0963 50.4525 24.4961C50.4539 24.8779 50.4611 25.1957 50.4741 25.4496C50.4699 25.7225 50.4634 25.9501 50.4545 26.1324L50.4385 26.3514C50.4073 26.8075 50.2183 27.199 49.8714 27.5259C49.5236 27.8346 49.1216 27.9734 48.6655 27.9422C48.2093 27.911 47.8269 27.7215 47.5182 27.3737C47.2094 27.0259 47.0616 26.6244 47.0746 26.1692L47.0907 25.9502C47.1023 25.8223 47.1112 25.6401 47.1172 25.4034C47.1233 25.1667 47.117 24.867 47.0984 24.5044C47.098 24.1408 47.0813 23.4598 47.0483 22.4615C46.9953 21.4279 46.947 20.4849 46.9033 19.6326C46.8378 18.7087 46.8188 17.9824 46.8462 17.4537L46.863 16.7165C46.876 16.2613 47.0564 15.8793 47.4043 15.5706Z" fill="#FCCA3D"/>
<path d="M63.984 13.521C64.2927 13.1598 64.6733 12.9585 65.1257 12.9171C65.5782 12.8757 65.9759 13.0099 66.3191 13.3196C66.6804 13.6283 66.8817 14.0089 66.923 14.4613L67.082 16.4986C67.1707 17.8759 67.2458 19.1629 67.3071 20.3598C67.3694 21.5748 67.3728 22.8837 67.3174 24.2865C67.2592 25.6349 67.2357 26.4179 67.2469 26.6355L67.2692 27.0707C67.2924 27.5241 67.1492 27.9223 66.8395 28.2655C66.5298 28.6086 66.1392 28.7923 65.6677 28.8164C65.2144 28.8396 64.8161 28.6964 64.473 28.3867C64.1299 28.077 63.9467 27.6955 63.9234 27.2422L63.9011 26.807C63.8928 26.6438 63.8921 26.4529 63.8991 26.2343C63.4652 26.6384 62.9733 26.9727 62.4232 27.2372C61.7318 27.5818 60.9436 27.813 60.0588 27.9311C59.1921 28.0483 58.2635 28.0231 57.2731 27.8557C56.2265 27.6548 55.308 27.2927 54.5175 26.7696C53.7643 26.2628 53.1719 25.7022 52.7405 25.088C52.2527 24.4402 51.8947 23.4859 51.6665 22.2249C51.4145 20.856 51.6608 19.4525 52.4053 18.0143C53.0512 16.7812 53.7794 15.7348 54.5898 14.8751C55.0734 14.3776 55.5354 13.9903 55.9757 13.7132C56.4151 13.418 56.9164 13.265 57.4795 13.2544L57.8875 13.2335C58.1358 13.1116 58.3964 13.0528 58.6694 13.057L59.1332 13.0605C59.6065 13.0726 60.0273 13.1238 60.3956 13.214C60.6913 13.308 61.0337 13.4268 61.4229 13.5705C61.8493 13.7304 62.1936 13.8855 62.4558 14.0357C62.7181 14.1859 63.0194 14.3887 63.3597 14.6439C63.435 14.6946 63.5108 14.7544 63.5871 14.8232L63.5815 14.7144C63.5401 14.262 63.6743 13.8642 63.984 13.521ZM58.951 16.4244C58.7552 16.5071 58.5395 16.5546 58.3037 16.5666L57.7325 16.5959C57.5377 16.6968 57.2936 16.9002 57.0002 17.2061C56.4133 17.818 55.8716 18.6003 55.375 19.553C54.9779 20.3188 54.8404 21.0077 54.9627 21.6196C55.0924 22.3766 55.2544 22.8774 55.4488 23.1219C55.6641 23.42 55.9791 23.7129 56.3938 24.0008C56.7886 24.2533 57.2798 24.4372 57.8675 24.5525C58.5096 24.6651 59.0927 24.6897 59.6167 24.6265C60.1217 24.5461 60.5604 24.4145 60.9329 24.2318C61.27 24.0691 61.5594 23.8634 61.8012 23.6146C62.0593 23.3287 62.2874 22.9897 62.4855 22.5977C62.6664 22.2248 62.7761 21.8828 62.8147 21.5718C62.8687 21.2054 62.8773 20.8413 62.8406 20.4796C62.8029 20.0997 62.7395 19.7484 62.6502 19.4257C62.5628 19.1393 62.4191 18.8194 62.2192 18.466C61.9993 18.0772 61.8308 17.8041 61.7136 17.6464C61.6364 17.5595 61.522 17.4563 61.3704 17.3367C61.1245 17.1494 60.9362 17.0226 60.8055 16.9566C60.693 16.8896 60.507 16.8083 60.2476 16.7125C59.9509 16.6004 59.7101 16.5127 59.525 16.4495C59.4153 16.4369 59.2693 16.4262 59.087 16.4174L58.951 16.4244Z" fill="#FCCA3D"/>
<path d="M68.2447 7.05733C68.5726 6.71327 68.9636 6.53869 69.4179 6.53359C69.8722 6.52849 70.2627 6.69939 70.5896 7.04627C70.9337 7.37409 71.1083 7.76514 71.1134 8.21942L71.1112 9.77406C71.1088 10.7923 71.1722 12.5618 71.3014 15.0824C71.4315 17.6212 71.5356 19.6522 71.6136 21.1755C71.6907 22.6806 71.7523 23.7047 71.7983 24.2478C71.829 24.8462 71.8441 25.3181 71.8436 25.6636C71.8231 25.9738 71.8085 26.22 71.7996 26.4022C71.788 26.5301 71.7754 26.6398 71.762 26.7314L71.7717 26.9218C71.7587 27.377 71.5878 27.7676 71.259 28.0935C70.9303 28.4195 70.5292 28.5764 70.0559 28.5643C69.6016 28.5694 69.211 28.3985 68.8842 28.0516C68.5764 27.7219 68.4199 27.3299 68.4148 26.8757L68.4323 26.6839C68.4239 26.5207 68.4323 26.3293 68.4574 26.1099C68.4681 25.9639 68.4765 25.7725 68.4825 25.5358C68.4895 25.3173 68.4805 24.9632 68.4554 24.4736C68.4084 23.9124 68.3464 22.8792 68.2693 21.3741C68.1912 19.8508 68.0867 17.8108 67.9557 15.2539C67.8237 12.6788 67.7575 10.855 67.7571 9.78229L67.7593 8.22765C67.7542 7.77337 67.916 7.38327 68.2447 7.05733Z" fill="#FCCA3D"/>
<path d="M84.2513 20.3642C84.2919 18.6713 84.3182 16.879 84.3304 14.9875C84.3407 13.0597 84.3549 11.7408 84.3731 11.0308C84.3894 10.2845 84.4073 9.74727 84.4268 9.419C84.4329 9.18233 84.4317 8.98239 84.4234 8.81919C84.4304 8.60065 84.4387 8.40931 84.4485 8.24518C84.4741 7.68024 84.6183 7.30013 84.881 7.10485C85.1618 6.90864 85.4783 6.87425 85.8302 7.00166C86.1994 7.11002 86.5619 7.26417 86.9176 7.46412C87.2733 7.66408 87.5745 7.86682 87.8214 8.07234L88.1918 8.38064C88.6116 9.12275 89.0366 9.9646 89.4666 10.9062C89.8948 11.8115 90.3972 12.9221 90.9737 14.238C91.5702 15.5892 92.0205 16.748 92.3246 17.7142C92.3655 17.803 92.3968 17.8832 92.4187 17.9548C92.7698 17.355 93.1113 16.7466 93.4433 16.1296C93.9744 15.1388 94.4696 14.1589 94.9291 13.1899C95.3876 12.2028 95.8058 11.3177 96.1839 10.5347C96.5619 9.75171 96.9079 9.05217 97.2218 8.43609C97.5519 7.78282 97.8519 7.24927 98.1216 6.83546C98.4257 6.38352 98.8116 6.1092 99.2794 6.0125C99.7825 5.89581 100.21 5.91025 100.563 6.0558C100.915 6.18321 101.162 6.38874 101.304 6.67238C101.445 6.93789 101.55 7.21432 101.619 7.50167C101.689 7.78903 101.72 8.04198 101.713 8.26051L101.701 8.56112C101.848 9.66265 101.907 11.1687 101.878 13.0793C101.858 14.8257 101.924 16.2769 102.074 17.4328C102.228 18.6794 102.386 19.9804 102.546 21.3358C102.727 22.7266 102.824 23.567 102.839 23.8572L102.884 24.7276C102.907 25.1809 102.755 25.5796 102.427 25.9237C102.118 26.285 101.737 26.4772 101.284 26.5005C100.83 26.5237 100.432 26.3714 100.088 26.0436C99.7445 25.7339 99.5613 25.3524 99.5381 24.899L99.4935 24.0286C99.4823 23.811 99.3975 23.0426 99.239 21.7235C99.0796 20.3862 98.9139 19.1038 98.7419 17.8763C98.588 16.6478 98.5123 15.1699 98.5147 13.4425C98.3347 13.8335 98.1462 14.2341 97.949 14.6442C97.4552 15.6513 96.935 16.678 96.3886 17.7241C95.8413 18.7522 95.2573 19.773 94.6365 20.7866C94.6202 20.8238 94.5963 20.8887 94.5647 20.9812C94.5502 21.0547 94.4942 21.203 94.3966 21.4262C94.2989 21.6494 94.1913 21.8549 94.0736 22.0427C93.955 22.2124 93.7916 22.3935 93.5833 22.586C93.3931 22.7776 93.1911 22.9152 92.9772 22.9989C92.7633 23.0826 92.5008 23.1051 92.1897 23.0665C91.8787 23.0279 91.5539 22.8991 91.2154 22.6801C91.0275 22.5624 90.8664 22.4343 90.7321 22.2958C90.5968 22.1391 90.5001 22.0258 90.4419 21.9561C90.401 21.8673 90.3301 21.7255 90.2292 21.5306C90.1455 21.3167 90.0928 21.174 90.0709 21.1024C89.7864 20.517 89.4826 19.7325 89.1594 18.7491C88.8791 17.8908 88.4611 16.8304 87.9055 15.5679C87.8237 15.3903 87.7519 15.2304 87.69 15.0881C87.6779 16.9796 87.6501 18.7446 87.6068 20.3832C87.5426 21.9683 87.5232 23.1874 87.5488 24.0407L87.5871 25.3205C87.5922 25.7748 87.4308 26.174 87.103 26.518C86.7933 26.8612 86.4113 27.0353 85.9571 27.0404C85.5037 27.0636 85.105 26.9113 84.7609 26.5835C84.4178 26.2738 84.2432 25.8828 84.2372 25.4104L84.1989 24.1305C84.1706 23.2229 84.188 21.9675 84.2513 20.3642Z" fill="#FCCA3D"/>
<path d="M107.059 15.8137C107.096 15.83 107.133 15.8372 107.169 15.8354L107.745 15.8877C108.073 15.9072 108.792 15.9249 109.902 15.9408C110.975 15.9404 111.926 15.8825 112.757 15.7672C112.901 15.7417 113.054 15.7156 113.216 15.6891C113.192 15.5631 113.167 15.4462 113.144 15.3383C113.034 14.9621 112.867 14.5434 112.643 14.0822C112.479 13.7269 112.312 13.4719 112.14 13.317C111.97 13.1803 111.718 13.0659 111.386 12.9739C111.017 12.8655 110.742 12.816 110.56 12.8253C110.345 12.8727 109.926 13.0396 109.304 13.326C108.665 13.6315 108.242 13.8895 108.035 14.1001C107.793 14.3489 107.574 14.6783 107.376 15.0884C107.263 15.3488 107.157 15.5906 107.059 15.8137ZM114.878 18.8494C114.661 18.8605 114.128 18.9333 113.28 19.0676C112.252 19.2294 111.12 19.3056 109.883 19.2963C108.664 19.286 107.845 19.2553 107.424 19.2041L106.848 19.1518C106.984 19.6721 107.104 20.0569 107.207 20.3061C107.331 20.5907 107.453 20.848 107.574 21.0782C107.653 21.2014 107.836 21.4011 108.123 21.6773C108.429 21.9707 108.788 22.2342 109.2 22.4676C109.575 22.6847 109.946 22.8384 110.315 22.9287C110.719 23.017 111.067 23.0628 111.358 23.0661C111.649 23.0694 111.947 23.0359 112.253 22.9657C112.613 22.8927 112.873 22.8248 113.033 22.7621C113.211 22.6802 113.371 22.6084 113.513 22.5466C113.69 22.4466 113.884 22.3367 114.096 22.2167L114.441 22.0354C114.831 21.8336 115.248 21.8032 115.691 21.9441C116.152 22.0659 116.484 22.3307 116.687 22.7385C116.906 23.1272 116.946 23.5524 116.806 24.0142C116.684 24.4568 116.418 24.7795 116.011 24.9822L115.693 25.1621C115.481 25.2821 115.277 25.3925 115.082 25.4934C114.834 25.6152 114.558 25.7384 114.256 25.863C113.935 25.9886 113.514 26.1101 112.993 26.2277C112.418 26.3663 111.867 26.4309 111.339 26.4216C110.793 26.4132 110.198 26.3346 109.554 26.1858C108.874 26.0388 108.196 25.7644 107.521 25.3627C106.884 24.9953 106.308 24.5703 105.792 24.0877C105.276 23.5869 104.898 23.1335 104.659 22.7276C104.478 22.3914 104.304 22.0185 104.138 21.6088C103.953 21.2001 103.77 20.6368 103.588 19.9188C103.365 19.1121 103.269 18.3079 103.3 17.5063C103.333 16.7228 103.443 16.0354 103.631 15.4439C103.803 14.8897 104.044 14.2864 104.357 13.6341C104.702 12.9255 105.116 12.3133 105.599 11.7977C106.1 11.2811 106.856 10.7788 107.867 10.2906C108.897 9.81961 109.702 9.56019 110.282 9.51232C110.86 9.44631 111.537 9.52074 112.311 9.73558C113.105 9.96764 113.777 10.315 114.328 10.7777C114.843 11.2422 115.293 11.8646 115.678 12.6448C115.985 13.3018 116.216 13.9172 116.373 14.491C116.531 15.0829 116.617 15.7058 116.632 16.3595C116.633 16.3777 116.634 16.3958 116.635 16.4139C116.644 16.5953 116.635 16.7685 116.607 16.9335C116.597 17.0977 116.546 17.3367 116.453 17.6505C116.377 17.9453 116.2 18.2089 115.921 18.4414C115.659 18.6548 115.312 18.7908 114.878 18.8494Z" fill="#FCCA3D"/>
<path d="M128.183 4.6678C128.511 4.32373 128.902 4.14915 129.356 4.14405C129.809 4.12082 130.208 4.27312 130.552 4.60094C130.895 4.91062 131.069 5.29261 131.074 5.74688L131.139 7.54354C131.18 8.68691 131.277 10.0637 131.433 11.6739C131.572 13.3395 131.695 15.2059 131.801 17.2731C131.89 19.3595 131.921 20.8488 131.894 21.7411C131.862 22.5427 131.845 23.0981 131.843 23.4073C131.861 23.7518 131.874 24.0148 131.883 24.1961L131.9 24.5225C131.923 24.9759 131.771 25.3746 131.443 25.7187C131.133 26.0618 130.752 26.245 130.299 26.2682C129.845 26.2914 129.447 26.1392 129.103 25.8113C128.759 25.5016 128.576 25.1201 128.553 24.6668L128.538 24.3676C128.526 24.15 128.512 23.8598 128.493 23.4971C128.49 23.4427 128.496 23.3788 128.51 23.3053C128.127 23.6341 127.715 23.9188 127.272 24.1597C126.423 24.6214 125.214 24.7834 123.643 24.6457C122.054 24.5089 120.71 24.005 119.611 23.1341C118.415 22.159 117.709 20.6134 117.491 18.4973C117.293 16.3984 117.748 14.6297 118.856 13.1911C119.828 11.9413 120.755 11.0483 121.637 10.5123L122.696 9.88528C122.959 9.70813 123.255 9.62027 123.582 9.62167C123.618 9.61981 123.654 9.60889 123.689 9.5889L124.012 9.49057C124.424 9.37853 124.904 9.34483 125.452 9.38949C125.927 9.43787 126.461 9.57413 127.055 9.79827C127.425 9.92476 127.713 10.0464 127.919 10.1631C127.853 9.23917 127.81 8.39594 127.789 7.63338L127.726 5.86392C127.721 5.40964 127.873 5.01094 128.183 4.6678ZM124.186 12.8907L123.392 13.3677C122.864 13.7039 122.232 14.3271 121.497 15.2375C120.935 15.9754 120.712 16.9505 120.829 18.1627C120.963 19.3558 121.257 20.1407 121.713 20.5173C122.281 20.9609 123.013 21.2234 123.908 21.3048C124.839 21.3844 125.438 21.3537 125.703 21.2128C126.075 21.012 126.389 20.7505 126.645 20.4282C127.003 19.9735 127.266 19.6055 127.434 19.3242C127.583 19.0438 127.753 18.6351 127.944 18.0981C128.1 17.5992 128.186 17.1493 128.202 16.7485C128.199 16.3486 128.153 15.9692 128.062 15.6102C127.969 15.215 127.85 14.8574 127.707 14.5375C127.604 14.3064 127.523 14.147 127.464 14.0591C127.33 13.9205 127.167 13.7561 126.975 13.5659C126.803 13.4111 126.661 13.2911 126.548 13.206C126.454 13.1563 126.24 13.0672 125.907 12.9389C125.592 12.8277 125.334 12.7592 125.132 12.7331C125.041 12.7196 124.968 12.7143 124.913 12.7171L124.591 12.8154C124.466 12.8582 124.331 12.8833 124.186 12.8907Z" fill="#FCCA3D"/>
<path d="M132.554 6.59835C132.529 6.12686 132.672 5.71955 132.982 5.37641C133.292 5.03328 133.673 4.85009 134.126 4.82686C134.598 4.8027 135.005 4.94546 135.348 5.25515L135.434 5.33257C135.777 5.64226 135.961 6.03284 135.985 6.50433C136.008 6.95768 135.865 7.35592 135.555 7.69906C135.246 8.0422 134.855 8.22585 134.384 8.25001C133.93 8.27324 133.532 8.13001 133.189 7.82032L133.103 7.7429C132.76 7.43321 132.577 7.0517 132.554 6.59835ZM133.116 11.1786C133.462 10.8517 133.863 10.6948 134.319 10.7078C134.774 10.7209 135.156 10.9013 135.465 11.2491C135.791 11.5779 135.947 11.9699 135.934 12.4251L135.89 13.1637C135.876 13.6007 135.899 14.2268 135.959 15.0419C136.004 15.9305 136.054 16.8916 136.107 17.9252C136.142 18.9779 136.161 19.7042 136.164 20.1041C136.165 20.4858 136.172 20.8037 136.185 21.0575C136.181 21.3305 136.175 21.5581 136.166 21.7403L136.15 21.9593C136.119 22.4155 135.93 22.807 135.583 23.1338C135.235 23.4426 134.833 23.5814 134.377 23.5502C133.921 23.519 133.538 23.3295 133.229 22.9817C132.921 22.6339 132.773 22.2324 132.786 21.7772L132.802 21.5582C132.814 21.4303 132.822 21.248 132.829 21.0114C132.835 20.7747 132.828 20.475 132.81 20.1123C132.809 19.7487 132.793 19.0678 132.76 18.0695C132.707 17.0358 132.658 16.0929 132.615 15.2406C132.549 14.3167 132.53 13.5904 132.558 13.0617L132.574 12.3245C132.587 11.8693 132.768 11.4873 133.116 11.1786Z" fill="#FCCA3D"/>
<path d="M149.695 9.12902C150.004 8.76775 150.385 8.56643 150.837 8.52507C151.289 8.4837 151.687 8.61786 152.03 8.92755C152.392 9.23631 152.593 9.61689 152.634 10.0693L152.793 12.1066C152.882 13.4839 152.957 14.7709 153.018 15.9677C153.081 17.1827 153.084 18.4916 153.029 19.8944C152.971 21.2429 152.947 22.0259 152.958 22.2435L152.98 22.6787C153.004 23.1321 152.86 23.5303 152.551 23.8734C152.241 24.2166 151.851 24.4002 151.379 24.4244C150.926 24.4476 150.527 24.3044 150.184 23.9947C149.841 23.685 149.658 23.3035 149.635 22.8501L149.612 22.4149C149.604 22.2517 149.603 22.0609 149.61 21.8423C149.177 22.2464 148.685 22.5807 148.135 22.8452C147.443 23.1897 146.655 23.421 145.77 23.5391C144.903 23.6562 143.975 23.6311 142.984 23.4636C141.938 23.2627 141.019 22.9007 140.229 22.3776C139.476 21.8707 138.883 21.3102 138.452 20.6959C137.964 20.0482 137.606 19.0938 137.378 17.8328C137.126 16.4639 137.372 15.0604 138.117 13.6223C138.762 12.3892 139.491 11.3428 140.301 10.4831C140.785 9.98561 141.247 9.59831 141.687 9.3212C142.126 9.02596 142.628 8.87301 143.191 8.86233L143.599 8.84142C143.847 8.71961 144.108 8.6608 144.381 8.665L144.844 8.6685C145.318 8.68061 145.739 8.73178 146.107 8.822C146.403 8.91593 146.745 9.03475 147.134 9.17844C147.561 9.33841 147.905 9.49349 148.167 9.64369C148.429 9.79388 148.731 9.99662 149.071 10.2519C149.146 10.3026 149.222 10.3623 149.298 10.4312L149.293 10.3224C149.251 9.86994 149.386 9.47216 149.695 9.12902ZM144.662 12.0323C144.467 12.1151 144.251 12.1625 144.015 12.1746L143.444 12.2039C143.249 12.3048 143.005 12.5082 142.711 12.8141C142.125 13.426 141.583 14.2083 141.086 15.161C140.689 15.9268 140.552 16.6157 140.674 17.2276C140.804 17.9845 140.966 18.4853 141.16 18.7299C141.375 19.028 141.69 19.3209 142.105 19.6088C142.5 19.8612 142.991 20.0452 143.579 20.1605C144.221 20.273 144.804 20.2977 145.328 20.2345C145.833 20.1541 146.272 20.0225 146.644 19.8398C146.981 19.6771 147.271 19.4713 147.513 19.2226C147.771 18.9366 147.999 18.5977 148.197 18.2057C148.378 17.8328 148.487 17.4908 148.526 17.1798C148.58 16.8134 148.589 16.4493 148.552 16.0875C148.514 15.7076 148.451 15.3564 148.361 15.0337C148.274 14.7472 148.13 14.4273 147.931 14.0739C147.711 13.6852 147.542 13.412 147.425 13.2544C147.348 13.1675 147.233 13.0642 147.082 12.9447C146.836 12.7573 146.647 12.6306 146.517 12.5646C146.404 12.4976 146.218 12.4162 145.959 12.3204C145.662 12.2084 145.421 12.1207 145.236 12.0575C145.127 12.0449 144.981 12.0342 144.798 12.0254L144.662 12.0323Z" fill="#FCCA3D"/>
<path d="M174.013 9.90107C173.907 9.94291 173.799 9.97569 173.691 9.9994L172.878 10.0956C172.464 10.1714 171.81 10.3685 170.917 10.687C170.276 10.938 169.729 11.4388 169.276 12.1892C168.791 13.0141 168.551 13.8173 168.554 14.5989C168.581 15.4703 168.727 16.1992 168.994 16.7855C169.26 17.3718 169.602 17.8452 170.021 18.2056C170.382 18.5143 170.838 18.7273 171.39 18.8445C172.051 18.9742 172.58 19.0108 172.977 18.9541C173.356 18.8983 173.74 18.7514 174.127 18.5133C174.604 18.2343 175.034 17.9214 175.416 17.5746C175.781 17.2468 176.081 16.9041 176.318 16.5466C176.555 16.2071 176.728 15.871 176.839 15.5381C176.931 15.2061 176.99 14.7667 177.017 14.2199C177.032 13.8191 177.027 13.5375 177.001 13.3752C176.877 13.0907 176.724 12.7622 176.541 12.3897C176.339 12 176.199 11.7436 176.12 11.6204C176.041 11.4972 175.904 11.3223 175.711 11.0959C175.536 10.8685 175.362 10.6774 175.191 10.5225C175.02 10.3858 174.832 10.2682 174.627 10.1696C174.439 10.052 174.299 9.97733 174.207 9.94571C174.169 9.92944 174.142 9.92176 174.124 9.92269L174.013 9.90107ZM173.493 6.65507C173.743 6.56952 173.987 6.53884 174.224 6.56303L174.443 6.57908C174.699 6.60234 174.966 6.6614 175.243 6.75627C175.502 6.83393 175.827 6.98087 176.22 7.1971C176.65 7.42961 177.037 7.69163 177.379 7.98319C177.703 8.27567 178.011 8.60535 178.302 8.97222C178.592 9.30283 178.806 9.58275 178.945 9.81199C179.084 10.0412 179.275 10.3951 179.518 10.8735C179.76 11.352 179.955 11.7784 180.101 12.1527C180.33 12.7046 180.422 13.4453 180.379 14.3748C180.33 15.1955 180.213 15.9197 180.027 16.5474C179.823 17.1942 179.519 17.8189 179.114 18.4214C178.706 18.9878 178.225 19.5306 177.67 20.05C177.115 20.5693 176.493 21.0284 175.804 21.4274C175.045 21.8663 174.268 22.1424 173.474 22.2558C172.698 22.3683 171.795 22.3237 170.767 22.1218C169.629 21.9074 168.651 21.4485 167.833 20.7449C167.053 20.0758 166.428 19.226 165.957 18.1956C165.487 17.1834 165.235 16.0054 165.203 14.6616C165.186 13.2625 165.578 11.8697 166.38 10.4831C167.251 9.03851 168.374 8.0628 169.748 7.55604C170.872 7.13482 171.759 6.88028 172.409 6.79242L173.193 6.6704C173.284 6.66575 173.384 6.66064 173.493 6.65507Z" fill="#FCCA3D"/>
<path d="M181.109 12.7283C181.068 12.2759 181.193 11.8786 181.484 11.5364C181.794 11.1933 182.166 10.9924 182.599 10.9338C182.597 10.8976 182.595 10.8522 182.592 10.7978C182.613 10.1422 182.641 9.44987 182.677 8.7208C182.731 8.00893 182.792 7.42399 182.859 6.966C182.907 6.47266 182.967 6.0514 183.04 5.70221C183.113 5.35301 183.21 4.93896 183.331 4.46004C183.486 3.943 183.629 3.52662 183.758 3.21091C183.94 2.85614 184.211 2.47859 184.572 2.07827C184.934 1.67794 185.423 1.29831 186.041 0.939372C186.765 0.52046 187.39 0.297531 187.916 0.270584C188.298 0.269203 188.7 0.31223 189.123 0.399661C189.545 0.487094 189.916 0.613581 190.233 0.779124C190.513 0.928392 190.748 1.07092 190.937 1.2067C191.144 1.34155 191.372 1.53894 191.622 1.79887C191.87 2.04066 192.101 2.28339 192.314 2.52704C192.566 2.84137 192.774 3.1671 192.936 3.50421C193.079 3.80598 193.185 4.09148 193.253 4.3607C193.34 4.64713 193.4 4.91681 193.431 5.16976C193.46 5.38644 193.479 5.58545 193.489 5.76679L193.498 5.9572C193.522 6.41055 193.378 6.80879 193.069 7.15193C192.759 7.49507 192.368 7.67871 191.897 7.70287C191.444 7.72611 191.045 7.58288 190.702 7.27319C190.359 6.96351 190.176 6.58199 190.153 6.12864L190.143 5.93823C190.138 5.84756 190.132 5.72969 190.125 5.58462C190.103 5.51301 190.08 5.42327 190.056 5.3154C190.014 5.19032 189.961 5.05663 189.9 4.91435C189.859 4.82554 189.8 4.73766 189.722 4.6507C189.606 4.51121 189.471 4.36357 189.318 4.2078C189.165 4.07016 189.052 3.98507 188.978 3.95252C188.92 3.9009 188.826 3.84208 188.696 3.77605C188.62 3.72536 188.518 3.68514 188.39 3.65538C188.316 3.64096 188.234 3.63607 188.143 3.64072C188.036 3.68256 187.903 3.74393 187.744 3.82483C187.408 4.02383 187.172 4.19958 187.034 4.35208C186.914 4.48553 186.837 4.58944 186.805 4.66384C186.739 4.79449 186.66 5.02582 186.568 5.3578C186.461 5.76326 186.378 6.09478 186.319 6.35237C186.277 6.60903 186.231 6.9387 186.179 7.34136C186.127 7.76216 186.082 8.30083 186.043 8.95737C185.984 9.57857 185.951 10.1712 185.943 10.7352C186.143 10.725 186.343 10.7238 186.543 10.7317C187.668 10.6923 188.385 10.6646 188.693 10.6488L189.21 10.6223C189.664 10.5991 190.062 10.7423 190.405 11.052C190.766 11.3608 190.959 11.7509 190.983 12.2224C191.006 12.6757 190.854 13.0744 190.526 13.4185C190.217 13.7616 189.835 13.9448 189.382 13.9681L188.865 13.9945C188.52 14.0122 187.794 14.0403 186.687 14.0788C186.451 14.0728 186.224 14.0753 186.006 14.0865C186.032 14.5942 186.053 15.175 186.068 15.8287C186.12 17.2079 186.227 18.3933 186.387 19.3851L186.632 20.9816C186.692 21.4331 186.585 21.8476 186.314 22.2252C186.042 22.6027 185.681 22.8212 185.229 22.8807C184.779 22.9584 184.364 22.8523 183.986 22.5626C183.608 22.2911 183.381 21.93 183.303 21.4795L183.086 19.9088C182.901 18.7728 182.779 17.4609 182.721 15.973C182.706 15.3192 182.686 14.7566 182.662 14.2851C182.26 14.2512 181.906 14.0875 181.6 13.7941C181.312 13.4997 181.149 13.1445 181.109 12.7283Z" fill="#FCCA3D"/>
</svg>
