<svg width="20" height="20" viewBox="0 0 20 20" fill="none" xmlns="http://www.w3.org/2000/svg">
<path d="M9.99968 14.2344V17.5013" stroke="#40A1FF" stroke-linecap="round" stroke-linejoin="round"/>
<path d="M2.5 17.4987V16.2724C2.5 15.0807 3.34115 14.0547 4.50971 13.821L6.88137 13.3467C7.0774 13.3075 7.28097 13.3477 7.44731 13.4586V13.4586C8.99311 14.4892 11.0069 14.4892 12.5527 13.4586V13.4586C12.7191 13.3477 12.9227 13.3075 13.1187 13.3467L15.4903 13.821C16.6589 14.0547 17.5 15.0808 17.5 16.2724V17.4987" stroke="#40A1FF" stroke-linecap="round" stroke-linejoin="round"/>
<path d="M13.3337 6.16406V8.33211C13.3337 10.1731 11.8413 11.6654 10.0003 11.6654V11.6654C8.15938 11.6654 6.66699 10.1731 6.66699 8.33211V6.16406" stroke="#40A1FF" stroke-linecap="round" stroke-linejoin="round"/>
<path d="M11.7507 11.1719L12.3541 13.5856" stroke="#40A1FF" stroke-linecap="round" stroke-linejoin="round"/>
<path d="M8.25107 11.1719L7.64769 13.5855" stroke="#40A1FF" stroke-linecap="round" stroke-linejoin="round"/>
<path fill-rule="evenodd" clip-rule="evenodd" d="M5.08039 5.38145L8.7925 7.21914C9.55331 7.59535 10.446 7.59535 11.2068 7.21914L14.919 5.38145C15.2233 5.23264 15.4163 4.92343 15.4163 4.58463C15.4163 4.24583 15.2233 3.93663 14.919 3.78782L11.2068 1.95013C10.446 1.57392 9.55331 1.57392 8.7925 1.95013L5.08039 3.78782C4.77602 3.93663 4.58301 4.24583 4.58301 4.58463C4.58301 4.92343 4.77602 5.23264 5.08039 5.38145Z" stroke="#40A1FF" stroke-linecap="round" stroke-linejoin="round"/>
<path d="M15.4167 4.61328V6.77995" stroke="#40A1FF" stroke-linecap="round" stroke-linejoin="round"/>
</svg>
