<svg width="16" height="16" viewBox="0 0 16 16" fill="none" xmlns="http://www.w3.org/2000/svg">
<path fill-rule="evenodd" clip-rule="evenodd" d="M4.08333 4.66667C4.08333 3.60812 4.94145 2.75 6 2.75C7.05854 2.75 7.91666 3.60812 7.91666 4.66667C7.91666 5.72521 7.05854 6.58333 6 6.58333C4.94145 6.58333 4.08333 5.72521 4.08333 4.66667ZM6 1.25C4.11302 1.25 2.58333 2.77969 2.58333 4.66667C2.58333 6.55364 4.11302 8.08333 6 8.08333C7.88697 8.08333 9.41666 6.55364 9.41666 4.66667C9.41666 2.77969 7.88697 1.25 6 1.25ZM3.31138 11.3114C3.67082 10.9519 4.15834 10.75 4.66667 10.75H7.33333C7.84166 10.75 8.32918 10.9519 8.68862 11.3114C9.04807 11.6708 9.25 12.1583 9.25 12.6667V14C9.25 14.4142 9.58579 14.75 10 14.75C10.4142 14.75 10.75 14.4142 10.75 14V12.6667C10.75 11.7605 10.39 10.8915 9.74928 10.2507C9.10853 9.60997 8.23949 9.25 7.33333 9.25H4.66667C3.76051 9.25 2.89147 9.60997 2.25072 10.2507C1.60997 10.8915 1.25 11.7605 1.25 12.6667V14C1.25 14.4142 1.58579 14.75 2 14.75C2.41421 14.75 2.75 14.4142 2.75 14V12.6667C2.75 12.1583 2.95193 11.6708 3.31138 11.3114ZM9.94009 1.901C10.0428 1.49973 10.4514 1.25772 10.8527 1.36047C11.5876 1.54864 12.239 1.97607 12.7042 2.57536C13.1694 3.17465 13.4219 3.91172 13.4219 4.67036C13.4219 5.42901 13.1694 6.16608 12.7042 6.76537C12.239 7.36466 11.5876 7.79208 10.8527 7.98026C10.4514 8.083 10.0428 7.84099 9.94009 7.43972C9.83735 7.03846 10.0794 6.62987 10.4806 6.52713C10.8929 6.42157 11.2583 6.1818 11.5193 5.84561C11.7802 5.50942 11.9219 5.09594 11.9219 4.67036C11.9219 4.24478 11.7802 3.8313 11.5193 3.49511C11.2583 3.15893 10.8929 2.91915 10.4806 2.81359C10.0794 2.71085 9.83735 2.30227 9.94009 1.901ZM12.1875 9.37433C11.7864 9.27078 11.3774 9.51197 11.2738 9.91303C11.1703 10.3141 11.4115 10.7232 11.8125 10.8267C12.2221 10.9325 12.5852 11.1707 12.8452 11.5044C13.1049 11.8376 13.2471 12.2472 13.25 12.6695V14.0005C13.25 14.4147 13.5858 14.7505 14 14.7505C14.4142 14.7505 14.75 14.4147 14.75 14.0005L14.75 12.6672L14.75 12.6629C14.7457 11.9088 14.492 11.1773 14.0284 10.5825C13.5649 9.98763 12.9177 9.56284 12.1875 9.37433Z" fill="#AEAEAE"/>
</svg>
