<svg width="20" height="22" viewBox="0 0 20 22" fill="none" xmlns="http://www.w3.org/2000/svg">
<path fill-rule="evenodd" clip-rule="evenodd" d="M7.5585 20.4562C3.8865 20.4562 0.749496 19.9012 0.749496 17.6772C0.749496 15.4532 3.8665 13.4492 7.5585 13.4492C11.2305 13.4492 14.3665 15.4342 14.3665 17.6572C14.3665 19.8802 11.2505 20.4562 7.5585 20.4562Z" stroke="#40A1FF" stroke-width="1.5" stroke-linecap="round" stroke-linejoin="round"/>
<path fill-rule="evenodd" clip-rule="evenodd" d="M7.55849 10.2775C9.96849 10.2775 11.9225 8.3235 11.9225 5.9135C11.9225 3.5035 9.96849 1.5495 7.55849 1.5495C5.14849 1.5495 3.19449 3.5035 3.19449 5.9135C3.18549 8.3155 5.12649 10.2695 7.52749 10.2775H7.55849Z" stroke="#40A1FF" stroke-width="1.5" stroke-linecap="round" stroke-linejoin="round"/>
<path d="M14.8012 9.07879C16.2042 8.70379 17.2382 7.42479 17.2382 5.90279C17.2392 4.31479 16.1122 2.98879 14.6142 2.68179" stroke="#40A1FF" stroke-width="1.5" stroke-linecap="round" stroke-linejoin="round"/>
<path d="M15.4608 12.6535C17.4488 12.6535 19.1468 14.0015 19.1468 15.2045C19.1468 15.9135 18.5618 16.6415 17.6718 16.8505" stroke="#40A1FF" stroke-width="1.5" stroke-linecap="round" stroke-linejoin="round"/>
</svg>
