<svg width="23" height="18" viewBox="0 0 23 18" fill="none" xmlns="http://www.w3.org/2000/svg">
<path fill-rule="evenodd" clip-rule="evenodd" d="M11.9378 0.4375C9.38221 0.4375 7.32951 2.4902 7.32951 5.04575C7.32951 7.60205 9.38204 9.65492 11.9378 9.65492C14.4935 9.65492 16.546 7.60205 16.546 5.04575C16.546 2.4902 14.4933 0.4375 11.9378 0.4375ZM11.9378 1.9375C13.6649 1.9375 15.046 3.31863 15.046 5.04575C15.046 6.77367 13.665 8.15492 11.9378 8.15492C10.2105 8.15492 8.82951 6.77367 8.82951 5.04575C8.82951 3.31863 10.2106 1.9375 11.9378 1.9375ZM6.28999 1.37937C6.7042 1.37937 7.03999 1.71516 7.03999 2.12937C7.03999 2.54359 6.7042 2.87937 6.28999 2.87937C5.10162 2.87937 4.13782 3.84275 4.13782 5.03062C4.13782 6.2185 5.10162 7.18187 6.28999 7.18187C6.7042 7.18187 7.03999 7.51766 7.03999 7.93187C7.03999 8.34609 6.7042 8.68188 6.28999 8.68188C4.27334 8.68188 2.63782 7.04707 2.63782 5.03062C2.63782 3.01418 4.27334 1.37937 6.28999 1.37937ZM21.247 5.03062C21.247 3.01418 19.6115 1.37937 17.5949 1.37937C17.1807 1.37937 16.8449 1.71516 16.8449 2.12937C16.8449 2.54359 17.1807 2.87937 17.5949 2.87937C18.7832 2.87937 19.747 3.84275 19.747 5.03062C19.747 6.2185 18.7832 7.18187 17.5949 7.18187C17.1807 7.18187 16.8449 7.51766 16.8449 7.93187C16.8449 8.34609 17.1807 8.68188 17.5949 8.68188C19.6115 8.68188 21.247 7.04707 21.247 5.03062ZM20.4958 10.555C20.0156 10.4466 19.5025 10.3725 18.9807 10.3365C18.5675 10.308 18.2094 10.6199 18.1809 11.0331C18.1524 11.4464 18.4642 11.8045 18.8775 11.833C19.324 11.8638 19.7616 11.9269 20.1871 12.0227C20.8488 12.1525 21.2801 12.3678 21.3872 12.5921C21.4677 12.7615 21.4677 12.9606 21.3864 13.132C21.2808 13.3541 20.853 13.5682 20.2007 13.7024C19.795 13.7858 19.5337 14.1823 19.6171 14.5881C19.7006 14.9938 20.0971 15.2551 20.5028 15.1716C21.581 14.9499 22.3708 14.5546 22.7414 13.7756C23.0161 13.1964 23.0161 12.5247 22.7414 11.947C22.3682 11.1651 21.5648 10.7643 20.4958 10.555ZM5.704 11.0331C5.67551 10.6199 5.31741 10.308 4.90418 10.3365C4.38239 10.3725 3.86922 10.4466 3.36845 10.5593L3.162 10.603C2.21438 10.8195 1.49143 11.2174 1.14442 11.9469C0.868561 12.5241 0.868561 13.197 1.14471 13.7762C1.51363 14.5544 2.30341 14.9498 3.38205 15.1716C3.78777 15.2551 4.18431 14.9938 4.26774 14.5881C4.35117 14.1823 4.0899 13.7858 3.68418 13.7024C3.03209 13.5683 2.60472 13.3543 2.49939 13.1321C2.41734 12.96 2.41734 12.7621 2.49838 12.5925C2.60537 12.3676 3.03633 12.1525 3.67721 12.027L4.01044 11.9588C4.34262 11.8974 4.67249 11.8561 5.00738 11.833C5.42062 11.8045 5.7325 11.4464 5.704 11.0331ZM5.16709 14.1845C5.16709 11.7986 7.63503 10.9595 11.9378 10.9595L12.2426 10.961C16.3655 10.9997 18.7084 11.8407 18.7084 14.1671C18.7084 16.4388 16.4689 17.3087 12.5397 17.3863L11.9378 17.3921C7.62516 17.3921 5.16709 16.5678 5.16709 14.1845ZM17.2084 14.1671C17.2084 13.0566 15.4279 12.4595 11.9378 12.4595C8.45105 12.4595 6.66709 13.0661 6.66709 14.1845C6.66709 15.2952 8.44707 15.8921 11.9378 15.8921C15.4234 15.8921 17.2084 15.2851 17.2084 14.1671Z" fill="white"/>
</svg>
