<svg width="12" height="12" viewBox="0 0 12 12" fill="none" xmlns="http://www.w3.org/2000/svg">
<path d="M4.5 2.5H3.5C3.23478 2.5 2.98043 2.60536 2.79289 2.79289C2.60536 2.98043 2.5 3.23478 2.5 3.5V9.5C2.5 9.76522 2.60536 10.0196 2.79289 10.2071C2.98043 10.3946 3.23478 10.5 3.5 10.5H8.5C8.76522 10.5 9.01957 10.3946 9.20711 10.2071C9.39464 10.0196 9.5 9.76522 9.5 9.5V3.5C9.5 3.23478 9.39464 2.98043 9.20711 2.79289C9.01957 2.60536 8.76522 2.5 8.5 2.5H7.5" stroke="#FF677A" stroke-linecap="round" stroke-linejoin="round"/>
<path d="M6.5 1.5H5.5C4.94772 1.5 4.5 1.94772 4.5 2.5C4.5 3.05228 4.94772 3.5 5.5 3.5H6.5C7.05228 3.5 7.5 3.05228 7.5 2.5C7.5 1.94772 7.05228 1.5 6.5 1.5Z" stroke="#FF677A" stroke-linecap="round" stroke-linejoin="round"/>
<path d="M4.5 7L5.5 8L7.5 6" stroke="#FF677A" stroke-linecap="round" stroke-linejoin="round"/>
</svg>
