<svg width="32" height="32" viewBox="0 0 32 32" fill="none" xmlns="http://www.w3.org/2000/svg">
<path d="M6.66667 0H25.3333C29.0153 0 32 2.98467 32 6.66667V25.3333C32 29.0153 29.0153 32 25.3333 32H6.66667C2.98467 32 0 29.0153 0 25.3333V6.66667C0 2.98467 2.98467 0 6.66667 0Z" fill="url(#paint0_linear_5174_23429)"/>
<path d="M6.3235 16.3358H3.3335C3.3335 9.65916 8.66616 4.20516 15.2955 4.00782C15.4188 4.00449 15.2095 4.66916 15.3335 4.66916L15.6668 6.99249C10.5148 6.99249 6.3235 11.1838 6.3235 16.3358Z" fill="url(#paint1_linear_5174_23429)"/>
<path d="M15.1527 15.5443C15.1527 15.5443 15.4347 16.0336 15.9993 15.997C16.564 15.9603 16.7287 15.4896 16.7753 15.3083C16.822 15.127 17.34 8.80431 17.34 8.49631C17.34 8.18831 17.0813 7.55431 16.9633 7.15564C16.8453 6.75697 16.1793 4.67364 16.0693 4.41964C15.8573 3.93031 14.752 3.74897 14.5873 4.63697C14.45 5.38364 14 11.5043 14 11.5043C14 11.5043 14 12.0296 14.212 12.7183C14.4233 13.4063 15.1527 15.5443 15.1527 15.5443Z" fill="white"/>
<path d="M15.6666 28.6629C11.3626 28.6629 7.43994 26.4756 5.17261 22.8123L7.71461 21.2383C9.43394 24.0156 12.4059 25.6729 15.6666 25.6729C16.8573 25.6729 18.0166 25.4523 19.1113 25.0176L20.2153 27.7963C18.7666 28.3716 17.2366 28.6629 15.6666 28.6629Z" fill="url(#paint2_linear_5174_23429)"/>
<path d="M26.5252 23.0172L23.9252 21.5412C24.7186 20.1438 25.1379 18.5512 25.1379 16.9338C25.1379 13.5045 23.2632 10.3558 20.2466 8.71718L21.6746 6.08984C25.6553 8.25251 28.1279 12.4072 28.1279 16.9338C28.1272 19.0672 27.5732 21.1705 26.5252 23.0172Z" fill="url(#paint3_linear_5174_23429)"/>
<path d="M15.2307 17.3086C15.2307 17.3086 15.4981 16.8112 15.1707 16.3499C14.8434 15.8886 14.3561 15.9966 14.1767 16.0519C13.9981 16.1072 8.34805 18.9926 8.08605 19.1546C7.82405 19.3166 7.42072 19.8699 7.14405 20.1799C6.86739 20.4899 5.44539 22.1519 5.28739 22.3792C4.98272 22.8166 5.41005 23.8519 6.25205 23.5252C6.95939 23.2506 12.4014 20.4139 12.4014 20.4139C12.4014 20.4139 12.8481 20.1372 13.3227 19.5952C13.7961 19.0532 15.2307 17.3086 15.2307 17.3086Z" fill="white"/>
<path d="M16.7694 17.3086C16.7694 17.3086 16.502 16.8112 16.8294 16.3499C17.1567 15.8886 17.644 15.9966 17.8234 16.0519C18.002 16.1072 23.652 18.9926 23.914 19.1546C24.176 19.3166 24.5794 19.8699 24.856 20.1799C25.1327 20.4899 26.5547 22.1519 26.7127 22.3792C27.0174 22.8166 26.59 23.8519 25.748 23.5252C25.0407 23.2506 19.5987 20.4139 19.5987 20.4139C19.5987 20.4139 19.152 20.1372 18.6774 19.5952C18.2027 19.0532 16.7694 17.3086 16.7694 17.3086Z" fill="white"/>
<defs>
<linearGradient id="paint0_linear_5174_23429" x1="16" y1="39.9153" x2="16" y2="-9.03467" gradientUnits="userSpaceOnUse">
<stop stop-color="#005CE2"/>
<stop offset="0.278" stop-color="#0080E8"/>
<stop offset="0.569" stop-color="#009CED"/>
<stop offset="0.82" stop-color="#00B0F1"/>
<stop offset="1" stop-color="#00B5F2"/>
</linearGradient>
<linearGradient id="paint1_linear_5174_23429" x1="13.0062" y1="5.13982" x2="4.6855" y2="15.4745" gradientUnits="userSpaceOnUse">
<stop stop-color="#80D5F8"/>
<stop offset="1" stop-color="#0093EB"/>
</linearGradient>
<linearGradient id="paint2_linear_5174_23429" x1="6.53861" y1="24.1169" x2="17.5873" y2="26.1263" gradientUnits="userSpaceOnUse">
<stop stop-color="#80D5F8"/>
<stop offset="1" stop-color="#0280E8"/>
</linearGradient>
<linearGradient id="paint3_linear_5174_23429" x1="25.8152" y1="21.4525" x2="23.5259" y2="8.55784" gradientUnits="userSpaceOnUse">
<stop stop-color="#80D5F8"/>
<stop offset="1" stop-color="#00A7EF"/>
</linearGradient>
</defs>
</svg>
