<svg width="40" height="40" viewBox="0 0 40 40" fill="none" xmlns="http://www.w3.org/2000/svg">
<g filter="url(#filter0_d_5174_23444)">
<rect x="4" y="4" width="32" height="32" rx="8" fill="white"/>
<path d="M16.5869 16.8645C16.3099 16.9421 16.0648 17.1102 15.8881 17.3435C15.7113 17.5769 15.6125 17.863 15.6063 18.1591C15.6045 18.245 15.6358 18.328 15.6933 18.3901C15.7508 18.4521 15.8298 18.488 15.913 18.4899C15.9962 18.4917 16.0766 18.4594 16.1367 18.4001C16.1968 18.3407 16.2316 18.2591 16.2334 18.1733C16.2376 18.0181 16.2904 17.8685 16.3837 17.7469C16.4771 17.6252 16.6061 17.538 16.7515 17.4983C16.8968 17.4585 17.0507 17.4684 17.1902 17.5264C17.3297 17.5845 17.4472 17.6875 17.5253 17.8202C17.5603 17.8801 17.6133 17.9267 17.6762 17.9528C17.7392 17.9789 17.8087 17.9832 17.8742 17.9649C17.9028 17.9566 17.9304 17.9448 17.9563 17.9296C18.0271 17.8848 18.0779 17.8128 18.0976 17.7295C18.1172 17.6462 18.1041 17.5582 18.0612 17.4847C17.913 17.2311 17.6895 17.0337 17.4238 16.9219C17.1581 16.8101 16.8645 16.79 16.5869 16.8645Z" fill="url(#paint0_linear_5174_23444)"/>
<path d="M19.3844 17.5256C19.4674 17.5272 19.5476 17.4947 19.6074 17.4354C19.6673 17.376 19.7019 17.2946 19.7037 17.209C19.7083 17.0539 19.7614 16.9046 19.8549 16.7831C19.9484 16.6617 20.0774 16.5747 20.2227 16.535C20.368 16.4953 20.5218 16.5051 20.6613 16.5629C20.8007 16.6208 20.9184 16.7235 20.9967 16.8559C21.0316 16.916 21.0846 16.9627 21.1476 16.9888C21.2106 17.015 21.2801 17.0191 21.3456 17.0007C21.3741 16.9931 21.4014 16.9812 21.4265 16.9654C21.4976 16.9207 21.5486 16.8489 21.5685 16.7655C21.5884 16.6821 21.5754 16.594 21.5326 16.5205C21.3841 16.268 21.1603 16.0721 20.8949 15.9619C20.6294 15.8517 20.3365 15.8333 20.0601 15.9094C19.7836 15.9855 19.5385 16.152 19.3614 16.3839C19.1843 16.6159 19.0848 16.9008 19.0777 17.196C19.0768 17.2385 19.084 17.2807 19.099 17.3203C19.1139 17.3598 19.1363 17.396 19.1648 17.4266C19.1933 17.4572 19.2273 17.4817 19.265 17.4987C19.3027 17.5157 19.3433 17.5248 19.3844 17.5256Z" fill="url(#paint1_linear_5174_23444)"/>
<path d="M28.7434 20.1268L25.202 19.4206C24.9431 18.2884 24.1507 17.4574 23.7322 17.1267C23.7681 16.666 23.735 16.2023 23.6342 15.752V15.7367C23.5259 15.3189 23.3539 14.9216 23.1245 14.5597C23.4233 13.8742 23.5807 13.132 23.5868 12.3803C23.5929 11.6286 23.4475 10.8838 23.1598 10.1932C23.1286 10.1194 23.0717 10.0604 23.0003 10.0277C22.929 9.99505 22.8484 9.99111 22.7744 10.0167C21.5429 10.4391 20.5082 11.3204 19.8726 12.4883C19.0291 12.3521 18.1672 12.4005 17.3429 12.6304C16.5187 12.8604 15.7505 13.2667 15.0883 13.823C13.9718 13.1404 12.6489 12.9121 11.378 13.1827C11.3014 13.1987 11.2333 13.2439 11.1875 13.3093C11.1416 13.3748 11.1213 13.4556 11.1306 13.5358C11.2156 14.2833 11.4506 15.0043 11.8207 15.6528C12.1907 16.3013 12.6877 16.863 13.2799 17.3021C13.2582 17.7297 13.3017 18.1583 13.4088 18.572C13.736 19.7961 14.5752 20.7929 15.7884 21.3744C15.8027 21.3824 15.8176 21.3895 15.8328 21.3955C17.0416 21.9386 18.3942 22.0375 19.6651 21.6757C19.6759 21.6744 19.6866 21.6721 19.697 21.6686C19.7662 21.6438 19.8396 21.634 19.9126 21.6397C19.9856 21.6455 20.0567 21.6668 20.1214 21.7022C20.1861 21.7377 20.243 21.7865 20.2886 21.8457C20.3342 21.9049 20.3675 21.9731 20.3863 22.0462C20.4052 22.1192 20.4093 22.1955 20.3983 22.2702C20.3873 22.345 20.3615 22.4166 20.3225 22.4805C20.2835 22.5445 20.2321 22.5995 20.1716 22.6421C20.111 22.6846 20.0426 22.7138 19.9707 22.7279L19.941 22.7373C18.1999 23.4199 15.6447 23.3258 14.1259 22.5337C14.071 22.5053 14.0092 22.4945 13.9483 22.5024C13.8874 22.5104 13.8302 22.5368 13.7839 22.5784L11.1055 25.0041C11.0635 25.0425 11.0322 25.0918 11.015 25.147C10.9978 25.2021 10.9953 25.261 11.0078 25.3175C11.0203 25.374 11.0473 25.4259 11.086 25.4679C11.1246 25.5099 11.1735 25.5404 11.2275 25.5561L16.6743 27.112L17.192 28.5526C17.3288 28.9316 17.3972 29.1223 17.6709 29.0458C17.7125 29.0349 17.7514 29.0148 17.7849 28.9869C18.6777 28.2525 19.884 27.6499 21.1827 27.2909C22.4814 26.932 23.7698 26.8355 24.8975 26.9979C24.9793 27.0096 25.0622 26.9875 25.1282 26.9364C25.1943 26.8852 25.238 26.8092 25.2498 26.7248C25.255 26.6917 25.255 26.6579 25.2498 26.6248L24.9465 24.8229L28.9088 20.6635C28.9672 20.603 29 20.5211 29 20.4357C29 20.3503 28.9672 20.2684 28.9088 20.208C28.8651 20.1635 28.8095 20.1335 28.7491 20.1221L28.7434 20.1268ZM14.0131 18.4002C13.9086 17.9989 13.8757 17.5813 13.9161 17.1679C13.9211 17.1083 13.9102 17.0485 13.8844 16.9949C13.8587 16.9414 13.8192 16.8962 13.7702 16.8642C12.8377 16.218 12.1639 15.2444 11.874 14.1243C11.8421 14.0066 11.8147 13.8771 11.7931 13.7535C12.8968 13.5944 14.0189 13.8551 14.9503 14.4868C15.0117 14.5278 15.0851 14.5452 15.1576 14.5359C15.2302 14.5267 15.2973 14.4914 15.3471 14.4362C15.9724 13.8764 16.7131 13.4711 17.5128 13.2508C18.3125 13.0306 19.1503 13.0012 19.9627 13.1651C20.0156 13.1804 20.0716 13.1804 20.1246 13.1651C20.1651 13.1527 20.2026 13.132 20.235 13.104C20.2674 13.0761 20.2938 13.0416 20.3127 13.0026C20.813 11.9746 21.6584 11.1694 22.6912 10.737C22.7323 10.8547 22.7687 10.9724 22.8052 11.0995C23.096 12.2147 22.9854 13.401 22.4939 14.4385C22.465 14.4917 22.4514 14.5524 22.4549 14.6133C22.4583 14.6742 22.4786 14.7328 22.5133 14.7822C22.7522 15.1215 22.9285 15.5033 23.0333 15.9085V15.925C23.1826 16.5017 23.0971 17.2397 23.0971 17.2468C23.0894 17.3094 23.0998 17.3729 23.127 17.4295C23.1542 17.486 23.1969 17.533 23.2499 17.5645C23.275 17.5798 25.5623 19.2511 24.2658 21.5897C23.8137 22.3681 23.2873 23.0979 22.6946 23.7683C22.5861 23.8597 22.4493 23.9077 22.3092 23.9036C22.1498 23.9169 21.9917 23.8658 21.868 23.7612C21.765 23.6594 21.7048 23.5199 21.7001 23.3728C21.6954 23.2257 21.7466 23.0825 21.8429 22.9738C21.8522 22.965 21.861 22.9556 21.8691 22.9456C22.3973 22.2632 22.7706 21.4673 22.9614 20.6164C23.052 20.2131 22.9839 19.7892 22.7721 19.4377C22.5602 19.0862 22.222 18.8358 21.8315 18.7415L21.7665 18.7274L18.9285 18.1883C18.8827 18.1795 18.8356 18.1814 18.7907 18.1938C18.7457 18.2063 18.704 18.2289 18.6685 18.2601L15.9024 20.7153C14.9412 20.208 14.2753 19.3924 14.0188 18.4037L14.0131 18.4002Z" fill="url(#paint2_linear_5174_23444)"/>
</g>
<defs>
<filter id="filter0_d_5174_23444" x="0" y="0" width="40" height="40" filterUnits="userSpaceOnUse" color-interpolation-filters="sRGB">
<feFlood flood-opacity="0" result="BackgroundImageFix"/>
<feColorMatrix in="SourceAlpha" type="matrix" values="0 0 0 0 0 0 0 0 0 0 0 0 0 0 0 0 0 0 127 0" result="hardAlpha"/>
<feOffset/>
<feGaussianBlur stdDeviation="2"/>
<feComposite in2="hardAlpha" operator="out"/>
<feColorMatrix type="matrix" values="0 0 0 0 0.910156 0 0 0 0 0.942092 0 0 0 0 0.970833 0 0 0 1 0"/>
<feBlend mode="normal" in2="BackgroundImageFix" result="effect1_dropShadow_5174_23444"/>
<feBlend mode="normal" in="SourceGraphic" in2="effect1_dropShadow_5174_23444" result="shape"/>
</filter>
<linearGradient id="paint0_linear_5174_23444" x1="16.2" y1="16.8704" x2="16.8164" y2="18.8948" gradientUnits="userSpaceOnUse">
<stop stop-color="#419FFF"/>
<stop offset="1" stop-color="#0779FF"/>
</linearGradient>
<linearGradient id="paint1_linear_5174_23444" x1="19.6714" y1="15.9132" x2="20.283" y2="17.9302" gradientUnits="userSpaceOnUse">
<stop stop-color="#419FFF"/>
<stop offset="1" stop-color="#0779FF"/>
</linearGradient>
<linearGradient id="paint2_linear_5174_23444" x1="15.275" y1="10.5719" x2="25.165" y2="31.0517" gradientUnits="userSpaceOnUse">
<stop stop-color="#419FFF"/>
<stop offset="1" stop-color="#0779FF"/>
</linearGradient>
</defs>
</svg>
