<svg width="24" height="24" viewBox="0 0 24 24" fill="none" xmlns="http://www.w3.org/2000/svg">
<path d="M6.70455 18.05C5.45682 18.05 4.2602 17.5759 3.37793 16.732C2.49566 15.8881 2 14.7435 2 13.55C2 12.3565 2.49566 11.2119 3.37793 10.368C4.2602 9.52411 5.45682 9.05 6.70455 9.05C6.99923 7.73718 7.86131 6.58348 9.10113 5.84271C9.71503 5.47592 10.4032 5.22155 11.1263 5.09411C11.8494 4.96668 12.5934 4.96868 13.3157 5.1C14.0379 5.23132 14.7244 5.48939 15.3358 5.85948C15.9473 6.22957 16.4718 6.70442 16.8793 7.25693C17.2869 7.80944 17.5695 8.42878 17.7111 9.0796C17.8527 9.73041 17.8505 10.4 17.7045 11.05H18.7045C19.6328 11.05 20.523 11.4187 21.1794 12.0751C21.8358 12.7315 22.2045 13.6217 22.2045 14.55C22.2045 15.4783 21.8358 16.3685 21.1794 17.0249C20.523 17.6813 19.6328 18.05 18.7045 18.05H6.70455Z" stroke="#2CC87B" stroke-width="1.5" stroke-linecap="round" stroke-linejoin="round"/>
<path d="M9 12.5L10.5 14L13.5 11" stroke="#2CC87B" stroke-width="1.5" stroke-linecap="round" stroke-linejoin="round"/>
</svg>
