<svg width="16" height="16" viewBox="0 0 16 16" fill="none" xmlns="http://www.w3.org/2000/svg">
<path fill-rule="evenodd" clip-rule="evenodd" d="M6.75017 3.33333C6.75017 3.01117 7.01133 2.75 7.3335 2.75H8.66683C8.989 2.75 9.25017 3.01117 9.25017 3.33333C9.25017 3.6555 8.989 3.91667 8.66683 3.91667H7.3335C7.01133 3.91667 6.75017 3.6555 6.75017 3.33333ZM5.38925 4.08333H4.66683C4.51212 4.08333 4.36375 4.14479 4.25435 4.25419C4.14495 4.36358 4.0835 4.51196 4.0835 4.66667V12.6667C4.0835 12.8214 4.14495 12.9697 4.25435 13.0791C4.36375 13.1885 4.51212 13.25 4.66683 13.25H11.3335C11.4882 13.25 11.6366 13.1885 11.746 13.0791C11.8554 12.9697 11.9168 12.8214 11.9168 12.6667V4.66667C11.9168 4.51196 11.8554 4.36358 11.746 4.25419C11.6366 4.14479 11.4882 4.08333 11.3335 4.08333H10.6111C10.31 4.86334 9.55303 5.41667 8.66683 5.41667H7.3335C6.4473 5.41667 5.69034 4.86334 5.38925 4.08333ZM10.6111 2.58333C10.31 1.80332 9.55303 1.25 8.66683 1.25H7.3335C6.4473 1.25 5.69034 1.80332 5.38925 2.58333H4.66683C4.1143 2.58333 3.58439 2.80283 3.19369 3.19353C2.80299 3.58423 2.5835 4.11413 2.5835 4.66667V12.6667C2.5835 13.2192 2.80299 13.7491 3.19369 14.1398C3.58439 14.5305 4.11429 14.75 4.66683 14.75H11.3335C11.886 14.75 12.4159 14.5305 12.8066 14.1398C13.1973 13.7491 13.4168 13.2192 13.4168 12.6667V4.66667C13.4168 4.11413 13.1973 3.58423 12.8066 3.19353C12.4159 2.80283 11.886 2.58333 11.3335 2.58333H10.6111ZM6.00017 7.25C5.58595 7.25 5.25017 7.58579 5.25017 8C5.25017 8.41421 5.58595 8.75 6.00017 8.75H6.00683C6.42105 8.75 6.75683 8.41421 6.75683 8C6.75683 7.58579 6.42105 7.25 6.00683 7.25H6.00017ZM7.91682 8C7.91682 7.58579 8.25261 7.25 8.66682 7.25H10.0002C10.4144 7.25 10.7502 7.58579 10.7502 8C10.7502 8.41421 10.4144 8.75 10.0002 8.75H8.66682C8.25261 8.75 7.91682 8.41421 7.91682 8ZM6.00017 9.91667C5.58595 9.91667 5.25017 10.2525 5.25017 10.6667C5.25017 11.0809 5.58595 11.4167 6.00017 11.4167H6.00683C6.42105 11.4167 6.75683 11.0809 6.75683 10.6667C6.75683 10.2525 6.42105 9.91667 6.00683 9.91667H6.00017ZM7.91682 10.6667C7.91682 10.2525 8.25261 9.91667 8.66682 9.91667H10.0002C10.4144 9.91667 10.7502 10.2525 10.7502 10.6667C10.7502 11.0809 10.4144 11.4167 10.0002 11.4167H8.66682C8.25261 11.4167 7.91682 11.0809 7.91682 10.6667Z" fill="#9E9D9D"/>
</svg>
