<svg width="20" height="20" viewBox="0 0 20 20" fill="none" xmlns="http://www.w3.org/2000/svg">
<rect x="10.834" y="12.5039" width="4.1684" height="2.50104" rx="1" stroke="#8A8C94" stroke-linecap="round" stroke-linejoin="round"/>
<path fill-rule="evenodd" clip-rule="evenodd" d="M7.49885 17.5049H2.07993C1.84971 17.5049 1.66309 17.3183 1.66309 17.0881V16.7496C1.66583 15.7866 2.44582 15.0067 3.40881 15.0039H6.16996C7.13296 15.0067 7.91294 15.7866 7.91569 16.7496V17.0881C7.91569 17.3183 7.72907 17.5049 7.49885 17.5049Z" stroke="#8A8C94" stroke-linecap="round" stroke-linejoin="round"/>
<path fill-rule="evenodd" clip-rule="evenodd" d="M4.78937 12.9184C3.86871 12.9166 3.12359 12.1692 3.12451 11.2486C3.12543 10.3279 3.87204 9.58203 4.79271 9.58203C5.71337 9.58203 6.45998 10.3279 6.4609 11.2486C6.46182 12.1692 5.71671 12.9166 4.79604 12.9184H4.78937Z" stroke="#8A8C94" stroke-linecap="round" stroke-linejoin="round"/>
<path d="M3.33008 7.49818V4.16345C3.33008 3.2426 4.07658 2.49609 4.99744 2.49609H16.669C17.5898 2.49609 18.3363 3.2426 18.3363 4.16345V13.3339C18.3363 14.2548 17.5898 15.0013 16.669 15.0013H9.99952" stroke="#8A8C94" stroke-linecap="round" stroke-linejoin="round"/>
</svg>
