<svg width="31" height="31" viewBox="0 0 31 31" fill="none" xmlns="http://www.w3.org/2000/svg">
<path fill-rule="evenodd" clip-rule="evenodd" d="M23.3431 30.0125H6.66944C2.98624 30.0125 0 27.0263 0 23.3431V6.66944C0 2.98624 2.98624 0 6.66944 0H23.3431C27.0263 0 30.0125 2.98624 30.0125 6.66944V23.3431C30.0125 27.0263 27.0263 30.0125 23.3431 30.0125Z" fill="white"/>
<path fill-rule="evenodd" clip-rule="evenodd" d="M20.1113 21.9977H10.7226C10.325 21.9977 10 21.6726 10 21.275V20.6878C10 19.0248 11.3607 17.6641 13.0248 17.6641H17.8102C19.4732 17.6641 20.834 19.0248 20.834 20.6889V21.2761C20.834 21.6726 20.509 21.9977 20.1113 21.9977Z" stroke="#5BA1F2" stroke-width="1.5" stroke-linecap="round" stroke-linejoin="round"/>
<path fill-rule="evenodd" clip-rule="evenodd" d="M15.4173 14.9587C13.7771 14.9587 12.438 13.6239 12.438 11.9913C12.438 10.3586 13.7771 9 15.4173 9C17.0576 9 18.3967 10.3347 18.3967 11.9674C18.3967 13.6001 17.0576 14.9587 15.4173 14.9587Z" stroke="#5BA1F2" stroke-width="1.5" stroke-linecap="round" stroke-linejoin="round"/>
</svg>
