<svg width="104" height="100" viewBox="0 0 104 100" fill="none" xmlns="http://www.w3.org/2000/svg">
<path d="M95.0005 24.9998H100C105.525 24.9998 110 29.4748 110 34.9998V94.9998C110 100.525 105.525 105 100 105H20.0005C14.4755 105 10.0005 100.525 10.0005 94.9998V34.9998C10.0005 29.4748 14.4755 24.9998 20.0005 24.9998H25.0005" stroke="#ECF6FF" stroke-width="2" stroke-linecap="round" stroke-linejoin="round"/>
<path fill-rule="evenodd" clip-rule="evenodd" d="M60.0005 30C60.0005 21.715 53.2855 15 45.0005 15H30.0005C27.2405 15 25.0005 17.24 25.0005 20V85C25.0005 87.76 27.2405 90 30.0005 90H45.0005C53.2855 90 60.0005 96.715 60.0005 105C60.0005 96.715 66.7155 90 75.0005 90H90.0005C92.7605 90 95.0005 87.76 95.0005 85V20C95.0005 17.24 92.7605 15 90.0005 15H75.0005C66.7155 15 60.0005 21.715 60.0005 30Z" stroke="#ECF6FF" stroke-width="2" stroke-linecap="round" stroke-linejoin="round"/>
<path d="M60.001 30V105" stroke="#ECF6FF" stroke-width="2" stroke-linecap="round" stroke-linejoin="round"/>
</svg>
