<svg width="20" height="20" viewBox="0 0 20 20" fill="none" xmlns="http://www.w3.org/2000/svg">
<path d="M15.8332 4.16797H16.6665C17.5873 4.16797 18.3332 4.9138 18.3332 5.83464V15.8346C18.3332 16.7555 17.5873 17.5013 16.6665 17.5013H3.33317C2.41234 17.5013 1.6665 16.7555 1.6665 15.8346V5.83464C1.6665 4.9138 2.41234 4.16797 3.33317 4.16797H4.1665" stroke="#40A1FF" stroke-linecap="round" stroke-linejoin="round"/>
<path fill-rule="evenodd" clip-rule="evenodd" d="M9.99984 5C9.99984 3.61917 8.88067 2.5 7.49984 2.5H4.99984C4.53984 2.5 4.1665 2.87333 4.1665 3.33333V14.1667C4.1665 14.6267 4.53984 15 4.99984 15H7.49984C8.88067 15 9.99984 16.1192 9.99984 17.5C9.99984 16.1192 11.119 15 12.4998 15H14.9998C15.4598 15 15.8332 14.6267 15.8332 14.1667V3.33333C15.8332 2.87333 15.4598 2.5 14.9998 2.5H12.4998C11.119 2.5 9.99984 3.61917 9.99984 5Z" stroke="#40A1FF" stroke-linecap="round" stroke-linejoin="round"/>
<path d="M9.99967 5V17.5" stroke="#40A1FF" stroke-linecap="round" stroke-linejoin="round"/>
</svg>
