<svg width="72" height="72" viewBox="0 0 72 72" fill="none" xmlns="http://www.w3.org/2000/svg">
<rect width="72" height="72" rx="12" fill="#ECF6FF"/>
<path d="M47.6668 24.3333H49.3335C51.1752 24.3333 52.6668 25.8249 52.6668 27.6666V47.6666C52.6668 49.5083 51.1752 50.9999 49.3335 50.9999H22.6668C20.8252 50.9999 19.3335 49.5083 19.3335 47.6666V27.6666C19.3335 25.8249 20.8252 24.3333 22.6668 24.3333H24.3335" stroke="#3C97F0" stroke-width="2" stroke-linecap="round" stroke-linejoin="round"/>
<path fill-rule="evenodd" clip-rule="evenodd" d="M36.0002 26C36.0002 23.2383 33.7618 21 31.0002 21H26.0002C25.0802 21 24.3335 21.7467 24.3335 22.6667V44.3333C24.3335 45.2533 25.0802 46 26.0002 46H31.0002C33.7618 46 36.0002 48.2383 36.0002 51C36.0002 48.2383 38.2385 46 41.0002 46H46.0002C46.9202 46 47.6668 45.2533 47.6668 44.3333V22.6667C47.6668 21.7467 46.9202 21 46.0002 21H41.0002C38.2385 21 36.0002 23.2383 36.0002 26Z" stroke="#3C97F0" stroke-width="2" stroke-linecap="round" stroke-linejoin="round"/>
<path d="M36.0003 26V51" stroke="#3C97F0" stroke-width="2" stroke-linecap="round" stroke-linejoin="round"/>
</svg>
