<svg width="92" height="77" viewBox="0 0 92 77" fill="none" xmlns="http://www.w3.org/2000/svg">
<g clip-path="url(#clip0_4479_20185)">
<path opacity="0.1" d="M85.1722 24.3489L61.978 10.9577C61.3957 10.6216 49.3361 2.41781 48.9999 3.00007L47.4999 5.49994L41.4999 14.9999C41.4999 14.9999 40.6954 16.1682 40.3593 16.7504C40.0231 17.3327 20.8812 50.4874 20.8812 50.4874C20.545 51.0697 20.7445 51.8143 21.3268 52.1505L57.1724 72.8459C57.7547 73.1821 58.4993 72.9826 58.8355 72.4003L85.6179 26.0118C85.9539 25.4295 85.7545 24.6851 85.1722 24.3489Z" fill="#40A1FF"/>
<g opacity="0.5">
<path d="M54.499 62.868L31.3047 49.4768C30.7225 49.1406 30.5229 48.396 30.8591 47.8138L43.0329 26.7281C43.3691 26.1459 44.1137 25.9464 44.6959 26.2825L67.8902 39.6737C68.4724 40.0099 68.6719 40.7545 68.3358 41.3368L56.162 62.4224C55.8257 63.0047 55.0812 63.2042 54.499 62.868ZM33.5764 47.977L54.662 60.1508L65.6184 41.1737L44.5328 28.9999L33.5764 47.977Z" fill="#40A1FF"/>
<path d="M37.6304 53.1289C37.0481 52.7928 36.8486 52.0482 37.1848 51.4659L49.3586 30.3803C49.6947 29.798 50.4393 29.5985 51.0216 29.9347C51.6039 30.2709 51.8034 31.0155 51.4672 31.5977L39.2934 52.6833C38.9572 53.2657 38.2127 53.4651 37.6304 53.1289Z" fill="#40A1FF"/>
<path d="M46.0647 57.9984C45.4824 57.6623 45.2829 56.9177 45.6191 56.3354L57.7928 35.2498C58.129 34.6675 58.8736 34.468 59.4559 34.8042C60.0381 35.1403 60.2376 35.8849 59.9015 36.4672L47.7277 57.5528C47.3915 58.1352 46.6469 58.3346 46.0647 57.9984Z" fill="#40A1FF"/>
<path d="M64.2379 45.9995L41.0437 32.6083C40.4614 32.2722 40.2619 31.5276 40.5981 30.9453C40.9342 30.363 41.6788 30.1635 42.2611 30.4997L65.4554 43.8909C66.0376 44.2271 66.2371 44.9717 65.901 45.5539C65.5647 46.1361 64.8202 46.3357 64.2379 45.9995Z" fill="#40A1FF"/>
<path d="M61.8032 50.2166L38.609 36.8254C38.0267 36.4892 37.8272 35.7446 38.1634 35.1624C38.4996 34.5801 39.2441 34.3806 39.8264 34.7168L63.0207 48.108C63.6029 48.4441 63.8024 49.1887 63.4663 49.771C63.1299 50.3533 62.3855 50.5528 61.8032 50.2166Z" fill="#40A1FF"/>
<path d="M59.3685 54.4338L36.1742 41.0426C35.5919 40.7064 35.3924 39.9618 35.7286 39.3795C36.0648 38.7973 36.8094 38.5978 37.3916 38.9339L60.5859 52.3251C61.1681 52.6613 61.3677 53.4059 61.0315 53.9882C60.6952 54.5704 59.9507 54.7699 59.3685 54.4338Z" fill="#40A1FF"/>
<path d="M56.9337 58.6509L33.7394 45.2597C33.1572 44.9236 32.9576 44.179 33.2938 43.5967C33.63 43.0144 34.3746 42.8149 34.9568 43.1511L58.1511 56.5423C58.7334 56.8785 58.9329 57.6231 58.5967 58.2053C58.2605 58.7876 57.5159 58.9871 56.9337 58.6509Z" fill="#40A1FF"/>
</g>
</g>
<path d="M15.6969 10.2182V22.6093H3.3058C2.08118 22.6093 1.08838 23.6021 1.08838 24.8267V63.7829C1.08838 65.0075 2.08118 66.0003 3.3058 66.0003H44.6968C45.9214 66.0003 46.9142 65.0075 46.9142 63.7829V10.218V10.2179C46.914 8.99341 45.9214 8.00073 44.6968 8.00073H17.9144C16.6897 8.00073 15.6969 8.99353 15.6969 10.2182Z" fill="url(#paint0_linear_4479_20185)" stroke="white" stroke-width="2"/>
<path d="M18.3794 9.09306C17.9246 8.90429 17.4008 9.00803 17.0524 9.35601L2.44382 23.9646C1.96779 24.4394 1.96687 25.2102 2.44165 25.6862C2.6706 25.9157 2.9816 26.0445 3.30573 26.0439H17.9143C18.5866 26.0439 19.1317 25.4988 19.1317 24.8265V10.2179C19.1316 9.72533 18.8346 9.28126 18.3794 9.09306Z" fill="#FCCA3D"/>
<path d="M33.36 48.6546L28.8953 44.1899C28.4886 43.7833 27.8303 43.7833 27.4247 44.1899L22.96 48.6546" stroke="white" stroke-opacity="0.5" stroke-width="1.5" stroke-linecap="round" stroke-linejoin="round"/>
<path fill-rule="evenodd" clip-rule="evenodd" d="M30.24 53.8546H17.76C16.0367 53.8546 14.64 52.4579 14.64 50.7346V38.2546C14.64 36.5314 16.0367 35.1346 17.76 35.1346H30.24C31.9633 35.1346 33.36 36.5314 33.36 38.2546V50.7346C33.36 52.4579 31.9633 53.8546 30.24 53.8546Z" stroke="white" stroke-opacity="0.5" stroke-width="1.5" stroke-linecap="round" stroke-linejoin="round"/>
<path d="M28.16 53.8547L21.6153 47.31C21.2086 46.9033 20.5503 46.9033 20.1447 47.31L15.1038 52.3509" stroke="white" stroke-opacity="0.5" stroke-width="1.5" stroke-linecap="round" stroke-linejoin="round"/>
<path d="M21.1558 41.0989C21.3081 41.2512 21.3081 41.4981 21.1558 41.6504C21.0035 41.8028 20.7565 41.8028 20.6042 41.6504C20.4519 41.4981 20.4519 41.2512 20.6042 41.0989C20.7565 40.9466 21.0035 40.9466 21.1558 41.0989" stroke="white" stroke-opacity="0.5" stroke-width="1.5" stroke-linecap="round" stroke-linejoin="round"/>
<defs>
<linearGradient id="paint0_linear_4479_20185" x1="12.497" y1="10.6807" x2="44.7704" y2="66.0699" gradientUnits="userSpaceOnUse">
<stop stop-color="#419FFF"/>
<stop offset="1" stop-color="#0779FF"/>
</linearGradient>
<clipPath id="clip0_4479_20185">
<rect width="56" height="56" fill="white" transform="translate(43) rotate(30)"/>
</clipPath>
</defs>
</svg>
