<svg width="40" height="40" viewBox="0 0 40 40" fill="none" xmlns="http://www.w3.org/2000/svg">
<path fill-rule="evenodd" clip-rule="evenodd" d="M33.3234 35H6.66671C4.82504 35 3.33337 33.5083 3.33337 31.6667V8.33333C3.33337 6.49167 4.82504 5 6.66671 5H28.3269V11.6667C30.1685 11.6667 29.9935 11.4917 29.9935 13.3333H36.6567V31.6667C36.6567 33.5083 35.1634 35 33.3234 35Z" fill="url(#paint0_linear)"/>
<path fill-rule="evenodd" clip-rule="evenodd" d="M36.6667 13.3333H30C29.08 13.3333 28.3334 12.5867 28.3334 11.6667V5" fill="#FCCA3D"/>
<path opacity="0.5" fill-rule="evenodd" clip-rule="evenodd" d="M16.7151 15H22.0098C23.7149 15 25.0981 16.3832 25.0981 18.0882V22.5008V26.9118C25.0981 28.6168 23.7149 30 22.0098 30H16.7151H11.4216C9.71653 30 8.33337 28.6168 8.33337 26.9118V22.5008V18.0882C8.33337 16.3832 9.71653 15 11.4216 15H16.7151ZM10.9804 21.1772V18.0882C10.9804 17.8451 11.1785 17.6471 11.4216 17.6471H15.3916V21.1772H10.9804ZM10.9804 23.8243V26.9118C10.9804 27.1549 11.1785 27.3529 11.4216 27.3529H15.3916V23.8243H10.9804ZM18.0386 27.3529H22.0098C22.253 27.3529 22.451 27.1549 22.451 26.9118V23.8243H18.0386V27.3529ZM22.451 21.1772H18.0386V17.6471H22.0098C22.253 17.6471 22.451 17.8451 22.451 18.0882V21.1772Z" fill="white"/>
<defs>
<linearGradient id="paint0_linear" x1="11.2477" y1="5.9" x2="25.2114" y2="39.9146" gradientUnits="userSpaceOnUse">
<stop stop-color="#419FFF"/>
<stop offset="1" stop-color="#0779FF"/>
</linearGradient>
</defs>
</svg>
