<svg width="20" height="20" viewBox="0 0 20 20" fill="none" xmlns="http://www.w3.org/2000/svg">
<path d="M14.0203 8.9134C15.8413 8.9134 17.3173 7.4374 17.3173 5.6164C17.3173 3.7964 15.8413 2.3194 14.0203 2.3194" stroke="white" stroke-width="1.5" stroke-linecap="round" stroke-linejoin="round"/>
<path d="M15.5364 12.4964C16.0804 12.5334 16.6204 12.6114 17.1534 12.7294C17.8924 12.8764 18.7824 13.1794 19.0984 13.8424C19.3004 14.2674 19.3004 14.7624 19.0984 15.1874C18.7834 15.8504 17.8924 16.1534 17.1534 16.3054" stroke="white" stroke-width="1.5" stroke-linecap="round" stroke-linejoin="round"/>
<path fill-rule="evenodd" clip-rule="evenodd" d="M7.59149 13.2063C11.2815 13.2063 14.4335 13.7653 14.4335 15.9983C14.4335 18.2323 11.3015 18.8103 7.59149 18.8103C3.90149 18.8103 0.750488 18.2523 0.750488 16.0183C0.750488 13.7843 3.88149 13.2063 7.59149 13.2063Z" stroke="white" stroke-width="1.5" stroke-linecap="round" stroke-linejoin="round"/>
<path fill-rule="evenodd" clip-rule="evenodd" d="M7.59152 10.0188C5.15752 10.0188 3.20752 8.0678 3.20752 5.6338C3.20752 3.2008 5.15752 1.2498 7.59152 1.2498C10.0255 1.2498 11.9765 3.2008 11.9765 5.6338C11.9765 8.0678 10.0255 10.0188 7.59152 10.0188Z" stroke="white" stroke-width="1.5" stroke-linecap="round" stroke-linejoin="round"/>
</svg>
