<svg width="72" height="72" viewBox="0 0 72 72" fill="none" xmlns="http://www.w3.org/2000/svg">
<path d="M36 51.2388V62.9999" stroke="#0CB5E2" stroke-width="2" stroke-linecap="round" stroke-linejoin="round"/>
<path d="M9 63V58.5855C9 54.2954 12.0281 50.6016 16.2349 49.7603L24.7729 48.0527C25.4786 47.9116 26.2115 48.0565 26.8103 48.4557V48.4557C32.3752 52.1656 39.625 52.1656 45.1899 48.4557V48.4557C45.7887 48.0565 46.5216 47.9116 47.2273 48.0527L55.7653 49.7603C59.972 50.6017 63 54.2954 63 58.5855V63" stroke="#0CB5E2" stroke-width="2" stroke-linecap="round" stroke-linejoin="round"/>
<path d="M48 22.1951V30C48 36.6275 42.6274 42 36 42V42C29.3726 42 24 36.6275 24 30V22.1951" stroke="#0CB5E2" stroke-width="2" stroke-linecap="round" stroke-linejoin="round"/>
<path d="M42.3035 40.2166L44.4758 48.906" stroke="#0CB5E2" stroke-width="2" stroke-linecap="round" stroke-linejoin="round"/>
<path d="M29.7037 40.2166L27.5316 48.9056" stroke="#0CB5E2" stroke-width="2" stroke-linecap="round" stroke-linejoin="round"/>
<path fill-rule="evenodd" clip-rule="evenodd" d="M18.2906 19.3685L31.6542 25.9842C34.3931 27.3386 37.6069 27.3386 40.3458 25.9842L53.7094 19.3685C54.8051 18.8328 55.5 17.7197 55.5 16.5C55.5 15.2803 54.8051 14.1672 53.7094 13.6315L40.3458 7.01576C37.6069 5.66141 34.3931 5.66141 31.6542 7.01576L18.2906 13.6315C17.1948 14.1672 16.5 15.2803 16.5 16.5C16.5 17.7197 17.1948 18.8328 18.2906 19.3685Z" stroke="#0CB5E2" stroke-width="2" stroke-linecap="round" stroke-linejoin="round"/>
<path d="M55.5 16.6035V24.4035" stroke="#0CB5E2" stroke-width="2" stroke-linecap="round" stroke-linejoin="round"/>
</svg>
