<svg width="74" height="74" viewBox="0 0 74 74" fill="none" xmlns="http://www.w3.org/2000/svg">
<rect x="40.0015" y="46.0042" width="15.0063" height="9.00375" rx="1" stroke="#B66D4B" stroke-width="2" stroke-linecap="round" stroke-linejoin="round"/>
<path fill-rule="evenodd" clip-rule="evenodd" d="M27.9965 64.0118H8.48842C7.65965 64.0118 6.98779 63.34 6.98779 62.5112V61.2927C6.99768 57.8259 9.80562 55.0179 13.2724 55.0081H23.2126C26.6793 55.0179 29.4873 57.8259 29.4972 61.2927V62.5112C29.4972 63.34 28.8253 64.0118 27.9965 64.0118Z" stroke="#B66D4B" stroke-width="2" stroke-linecap="round" stroke-linejoin="round"/>
<path fill-rule="evenodd" clip-rule="evenodd" d="M18.242 47.5044C14.9276 47.4978 12.2452 44.8073 12.2485 41.4929C12.2519 38.1785 14.9396 35.4934 18.254 35.4934C21.5684 35.4934 24.2562 38.1785 24.2595 41.4929C24.2629 44.8073 21.5804 47.4978 18.266 47.5044H18.242Z" stroke="#B66D4B" stroke-width="2" stroke-linecap="round" stroke-linejoin="round"/>
<path d="M12.9897 27.9965V15.9915C12.9897 12.6764 15.6772 9.98901 18.9922 9.98901H61.0097C64.3248 9.98901 67.0122 12.6764 67.0122 15.9915V49.0053C67.0122 52.3204 64.3248 55.0078 61.0097 55.0078H36.9997" stroke="#B66D4B" stroke-width="2" stroke-linecap="round" stroke-linejoin="round"/>
</svg>
