<svg width="72" height="72" viewBox="0 0 72 72" fill="none" xmlns="http://www.w3.org/2000/svg">
<path fill-rule="evenodd" clip-rule="evenodd" d="M48.0055 44.3106C43.8459 44.3263 40.4612 40.9671 40.4454 36.8075C40.4297 32.6479 43.7889 29.2632 47.9485 29.2474C52.108 29.2317 55.4928 32.5909 55.5087 36.7504C55.519 38.7488 54.7336 40.6691 53.3259 42.0875C51.9182 43.506 50.0038 44.3058 48.0055 44.3106V44.3106Z" stroke="#7568BB" stroke-width="2" stroke-linecap="round" stroke-linejoin="round"/>
<path fill-rule="evenodd" clip-rule="evenodd" d="M61.1357 63.011H34.8748C33.8401 63.008 33.0021 62.1699 32.999 61.1352V59.2595C33.0111 55.1206 36.3633 51.7685 40.5021 51.7563H55.5084C59.6472 51.7685 62.9994 55.1206 63.0115 59.2595V61.1352C63.0085 62.1699 62.1705 63.008 61.1357 63.011V63.011Z" stroke="#7568BB" stroke-width="2" stroke-linecap="round" stroke-linejoin="round"/>
<path d="M47.1748 17.9923C41.9036 10.4474 32.3311 7.21814 23.5668 10.0281C14.8024 12.838 8.89206 21.0312 8.99047 30.2345C9.08888 39.4377 15.1731 47.5027 23.9955 50.1246" stroke="#7568BB" stroke-width="2" stroke-linecap="round" stroke-linejoin="round"/>
<path d="M33.9983 27.9956L29.0013 32.9987L26 29.9974" stroke="#7568BB" stroke-width="2" stroke-linecap="round" stroke-linejoin="round"/>
</svg>
