<svg width="24" height="24" viewBox="0 0 24 24" fill="none" xmlns="http://www.w3.org/2000/svg">
<path d="M2 19C2 16.8 3.8 15 6 15H10C12.2 15 14 16.8 14 19" stroke="#3D4457" stroke-width="1.5" stroke-linecap="round" stroke-linejoin="round"/>
<path d="M10.5 5.99991C11.9 7.39991 11.9 9.59991 10.5 10.8999C9.10005 12.1999 6.90005 12.2999 5.60005 10.8999C4.30005 9.49991 4.20005 7.39991 5.50005 5.99991C6.80005 4.59991 9.10005 4.69991 10.5 5.99991" stroke="#3D4457" stroke-width="1.5" stroke-linecap="round" stroke-linejoin="round"/>
<path d="M16 14H19C20.7 14 22 15.3 22 17" stroke="#3D4457" stroke-width="1.5" stroke-linecap="round" stroke-linejoin="round"/>
<path d="M19.3 6.6999C20.3 7.6999 20.3 9.2999 19.3 10.1999C18.3 11.0999 16.7 11.1999 15.8 10.1999C14.9 9.1999 14.8 7.5999 15.8 6.6999C16.7 5.7999 18.3 5.7999 19.3 6.6999" stroke="#3D4457" stroke-width="1.5" stroke-linecap="round" stroke-linejoin="round"/>
</svg>
