<svg width="48" height="48" viewBox="0 0 48 48" fill="none" xmlns="http://www.w3.org/2000/svg">
<rect width="48" height="48" rx="4" fill="#E9F3FF"/>
<path fill-rule="evenodd" clip-rule="evenodd" d="M31.5 24C31.5 28.1425 28.1425 31.5 24 31.5C19.8575 31.5 16.5 28.1425 16.5 24C16.5 19.8575 19.8575 16.5 24 16.5C28.1425 16.5 31.5 19.8575 31.5 24Z" fill="#5BA1F2"/>
<mask id="path-3-inside-1_3993_1695" fill="white">
<path fill-rule="evenodd" clip-rule="evenodd" d="M23.1176 21.5485L26.3526 23.4618C26.7618 23.7035 26.7618 24.296 26.3526 24.5377L23.1176 26.451C22.701 26.6977 22.1743 26.3968 22.1743 25.9127V22.0868C22.1743 21.6027 22.701 21.3018 23.1176 21.5485Z"/>
</mask>
<path fill-rule="evenodd" clip-rule="evenodd" d="M23.1176 21.5485L26.3526 23.4618C26.7618 23.7035 26.7618 24.296 26.3526 24.5377L23.1176 26.451C22.701 26.6977 22.1743 26.3968 22.1743 25.9127V22.0868C22.1743 21.6027 22.701 21.3018 23.1176 21.5485Z" fill="white"/>
<path d="M26.3526 23.4618L23.8073 27.7655L23.8099 27.767L26.3526 23.4618ZM26.3526 24.5377L23.8099 20.2325L23.8073 20.2341L26.3526 24.5377ZM23.1176 26.451L20.5723 22.1474L20.5705 22.1484L23.1176 26.451ZM22.1743 22.0868H27.1743H22.1743ZM20.5723 25.8521L23.8073 27.7655L28.898 19.1582L25.663 17.2449L20.5723 25.8521ZM23.8099 27.767C20.9427 26.0736 20.9427 21.926 23.8099 20.2325L28.8954 28.8428C32.5809 26.6661 32.5809 21.3335 28.8954 19.1567L23.8099 27.767ZM23.8073 20.2341L20.5723 22.1474L25.663 30.7546L28.898 28.8413L23.8073 20.2341ZM20.5705 22.1484C23.4936 20.418 27.1743 22.5313 27.1743 25.9127H17.1743C17.1743 30.2624 21.9084 32.9774 25.6648 30.7536L20.5705 22.1484ZM27.1743 25.9127V22.0868H17.1743V25.9127H27.1743ZM27.1743 22.0868C27.1743 25.4682 23.4936 27.5815 20.5705 25.8511L25.6648 17.2459C21.9084 15.0221 17.1743 17.7372 17.1743 22.0868H27.1743Z" fill="white" mask="url(#path-3-inside-1_3993_1695)"/>
</svg>
