<svg width="44" height="44" viewBox="0 0 44 44" fill="none" xmlns="http://www.w3.org/2000/svg">
<rect width="44" height="44" rx="8" fill="#4244C5"/>
<path d="M23.1666 15.334C25.0079 15.334 26.4999 16.826 26.4999 18.6673C26.4999 20.5087 25.0079 22.0007 23.1666 22.0007C21.3253 22.0007 19.8333 20.5087 19.8333 18.6673C19.8333 16.826 21.3253 15.334 23.1666 15.334" stroke="white" stroke-width="1.5" stroke-linecap="round" stroke-linejoin="round"/>
<path d="M29.1665 27.334C28.9918 26.8953 28.7212 26.5007 28.3745 26.1793V26.1793C27.7892 25.6353 27.0225 25.334 26.2225 25.334C24.8892 25.334 21.4438 25.334 20.1105 25.334C19.3105 25.334 18.5452 25.6367 17.9585 26.1793V26.1793C17.6118 26.5007 17.3412 26.8953 17.1665 27.334" stroke="white" stroke-width="1.5" stroke-linecap="round" stroke-linejoin="round"/>
<path d="M11.6466 24.6867C11.4479 23.8213 11.3333 22.9253 11.3333 22C11.3333 15.372 16.7053 10 23.3333 10C29.9613 10 35.3333 15.372 35.3333 22C35.3333 28.628 29.9613 34 23.3333 34C19.2639 34 15.6746 31.9707 13.5053 28.8733" stroke="white" stroke-width="1.5" stroke-linecap="round" stroke-linejoin="round"/>
<path d="M14.3333 22L11.3333 25L8.33325 22" stroke="white" stroke-width="1.5" stroke-linecap="round" stroke-linejoin="round"/>
</svg>
