<svg width="40" height="40" viewBox="0 0 40 40" fill="none" xmlns="http://www.w3.org/2000/svg">
<path d="M31.6668 8.33325H33.3335C35.1752 8.33325 36.6668 9.82492 36.6668 11.6666V31.6666C36.6668 33.5083 35.1752 34.9999 33.3335 34.9999H6.66683C4.82516 34.9999 3.3335 33.5083 3.3335 31.6666V11.6666C3.3335 9.82492 4.82516 8.33325 6.66683 8.33325H8.3335" stroke="#3C97F0" stroke-width="2" stroke-linecap="round" stroke-linejoin="round"/>
<path fill-rule="evenodd" clip-rule="evenodd" d="M20.0002 10C20.0002 7.23833 17.7618 5 15.0002 5H10.0002C9.08016 5 8.3335 5.74667 8.3335 6.66667V28.3333C8.3335 29.2533 9.08016 30 10.0002 30H15.0002C17.7618 30 20.0002 32.2383 20.0002 35C20.0002 32.2383 22.2385 30 25.0002 30H30.0002C30.9202 30 31.6668 29.2533 31.6668 28.3333V6.66667C31.6668 5.74667 30.9202 5 30.0002 5H25.0002C22.2385 5 20.0002 7.23833 20.0002 10Z" stroke="#3C97F0" stroke-width="2" stroke-linecap="round" stroke-linejoin="round"/>
<path d="M20.0003 10V35" stroke="#3C97F0" stroke-width="2" stroke-linecap="round" stroke-linejoin="round"/>
</svg>
