<svg width="96" height="96" viewBox="0 0 96 96" fill="none" xmlns="http://www.w3.org/2000/svg">
<path d="M48 92C72.3005 92 92 72.3005 92 48C92 23.6995 72.3005 4 48 4C23.6995 4 4 23.6995 4 48C4 72.3005 23.6995 92 48 92Z" fill="#FCCA3D" stroke="#FFF8E3" stroke-width="8"/>
<path fill-rule="evenodd" clip-rule="evenodd" d="M65.534 34.5134C67.0254 36.0058 67.0246 38.4247 65.5321 39.916L41.2438 64.1876L30.4685 53.4198C28.9761 51.9284 28.9752 49.5096 30.4666 48.0171C31.958 46.5247 34.3768 46.5239 35.8692 48.0153L41.2438 53.3861L60.1314 34.5115C61.6238 33.0202 64.0426 33.021 65.534 34.5134Z" fill="white"/>
</svg>
