<svg width="96" height="96" viewBox="0 0 96 96" fill="none" xmlns="http://www.w3.org/2000/svg">
<path d="M48 92C72.3005 92 92 72.3005 92 48C92 23.6995 72.3005 4 48 4C23.6995 4 4 23.6995 4 48C4 72.3005 23.6995 92 48 92Z" fill="#F6D519" stroke="#FFF5BF" stroke-width="8"/>
<path fill-rule="evenodd" clip-rule="evenodd" d="M48.3333 28C50.7266 28 52.6667 29.9401 52.6667 32.3333V49.6667C52.6667 52.0599 50.7266 54 48.3333 54C45.9401 54 44 52.0599 44 49.6667V32.3333C44 29.9401 45.9401 28 48.3333 28Z" fill="white"/>
<path fill-rule="evenodd" clip-rule="evenodd" d="M44 63.6673C44 61.2741 45.9304 59.334 48.3118 59.334H48.3549C50.7362 59.334 52.6667 61.2741 52.6667 63.6673C52.6667 66.0606 50.7362 68.0007 48.3549 68.0007H48.3118C45.9304 68.0007 44 66.0606 44 63.6673Z" fill="white"/>
</svg>
