<svg width="27" height="6" viewBox="0 0 27 6" fill="none" xmlns="http://www.w3.org/2000/svg">
<path d="M1.13068 6L1.66477 4.46023H3.9375L4.46875 6H5.40057L3.30682 0.181818H2.29261L0.198864 6H1.13068ZM1.92045 3.72159L2.77841 1.23864H2.82386L3.68182 3.72159H1.92045ZM8.20429 6C9.97702 6 11.0026 4.90057 11.0026 3.08239C11.0026 1.27273 9.97702 0.181818 8.26395 0.181818H6.32077V6H8.20429ZM7.19861 5.23295V0.948864H8.20997C9.4827 0.948864 10.1389 1.71023 10.1389 3.08239C10.1389 4.46023 9.4827 5.23295 8.15599 5.23295H7.19861ZM12.1742 0.181818V6H13.0094V1.78693H13.0634L14.7793 5.99148H15.4725L17.1884 1.78977H17.2424V6H18.0776V0.181818H17.0123L15.16 4.70455H15.0918L13.2395 0.181818H12.1742ZM20.3117 0.181818H19.4339V6H20.3117V0.181818ZM26.3662 0.181818H25.4968V4.45455H25.4429L22.4826 0.181818H21.6701V6H22.548V1.73295H22.602L25.5593 6H26.3662V0.181818Z" fill="#40A1FF"/>
</svg>
